<svg xmlns="http://www.w3.org/2000/svg" viewBox="0 0 512 512"><path fill="#405580" d="M226 361h60v30h-60z"/><path fill="#283366" d="M256 361h30v30h-30z"/><path fill="#8c574d" d="M456.83 241H55.17l48.604-145.459C116.635 56.942 152.611 31 193.305 31c23.042 0 45.601 8.687 62.695 23.979C273.095 39.687 295.653 31 318.695 31c40.693 0 76.67 25.942 89.531 64.556z"/><path fill="#405580" d="M31 361h45v30H31z"/><path fill="#283366" d="M436 361h45v30h-45z"/><path fill="#405580" d="M150.985 481c-49.468 0-89.824-40.254-89.941-89.722l-.073-25.415c104.945-42.076 169.556-2.177 180.073 0l-.103 25.518C240.766 440.79 200.409 481 150.985 481z"/><path fill="#283366" d="M360.985 481c-49.468 0-89.824-40.254-89.941-89.722l-.073-25.415c9.948-2.06 76.724-41.372 180.073 0l-.103 25.518C450.766 440.79 410.409 481 360.985 481z"/><path fill="#733e33" d="M456.83 241 408.227 95.556C395.365 56.942 359.389 31 318.695 31c-23.042 0-45.601 8.687-62.695 23.979V241z"/><path fill="#a6756b" d="M437 301H75c-41.353 0-75-33.647-75-75v-15h512v15c0 41.353-33.647 75-75 75z"/><path fill="#8c574d" d="M512 211H256v90h181c41.353 0 75-33.647 75-75z"/></svg>
