<svg xmlns="http://www.w3.org/2000/svg" fill="currentColor" viewBox="0 0 24 24"><path fill-rule="evenodd" d="M6.46967 10.0303c-.29289-.29286-.29289-.76774 0-1.06063l5.00003-5c.2929-.29289.7677-.29289 1.0606 0l5 5c.2929.29289.2929.76777 0 1.06063-.2929.2929-.7677.2929-1.0606 0L12 5.56066 7.53033 10.0303c-.29289.2929-.76777.2929-1.06066 0Z" clip-rule="evenodd"/><path d="M11.25 14.5c0 .9534.2798 2.3667 1.1413 3.5632C13.2804 19.298 14.7556 20.25 17 20.25c.4142 0 .75-.3358.75-.75s-.3358-.75-.75-.75c-1.7556 0-2.7804-.7147-3.3913-1.5632-.6385-.8868-.8587-1.9735-.8587-2.6868V6.31066l-.75-.75-.75.75V14.5Zm.5523-10.72361c.1545-.04204.3197-.03385.4699.02456C12.1879 3.76805 12.096 3.75 12 3.75c-.0684 0-.1347.00919-.1977.02639Z" /></svg>
