<svg xml:space="preserve" viewBox="0 0 300.109 300.109" class="fill-current text-indigo-400 w-12 sm:w-16 h-12 sm:h-16"><path d="M87.073 97.222H66.475c-4.142 0-7.5 3.358-7.5 7.5 0 4.142 3.358 7.5 7.5 7.5h20.598c4.142 0 7.5-3.358 7.5-7.5 0-4.143-3.358-7.5-7.5-7.5zm32.197 15h67.53c4.143 0 7.5-3.358 7.5-7.5 0-4.142-3.357-7.5-7.5-7.5h-67.53c-4.142 0-7.5 3.358-7.5 7.5 0 4.141 3.358 7.5 7.5 7.5zm-32.197 30.333H66.475c-4.142 0-7.5 3.358-7.5 7.5 0 4.142 3.358 7.5 7.5 7.5h20.598c4.142 0 7.5-3.358 7.5-7.5 0-4.143-3.358-7.5-7.5-7.5zm32.197 15h67.53c4.143 0 7.5-3.358 7.5-7.5 0-4.142-3.357-7.5-7.5-7.5h-67.53c-4.142 0-7.5 3.358-7.5 7.5 0 4.141 3.358 7.5 7.5 7.5zm-32.197 30.333H66.475c-4.142 0-7.5 3.358-7.5 7.5 0 4.142 3.358 7.5 7.5 7.5h20.598c4.142 0 7.5-3.358 7.5-7.5 0-4.142-3.358-7.5-7.5-7.5zm107.227 7.5c0-4.142-3.357-7.5-7.5-7.5h-67.53c-4.142 0-7.5 3.358-7.5 7.5 0 4.142 3.358 7.5 7.5 7.5h67.53c4.143 0 7.5-3.358 7.5-7.5z"/><path d="M253.275 174.418V25.055c0-4.142-3.357-7.5-7.5-7.5H7.5c-4.142 0-7.5 3.358-7.5 7.5v250c0 4.142 3.358 7.5 7.5 7.5h238.275c29.96 0 54.334-24.374 54.334-54.334 0-27.414-20.412-50.137-46.834-53.803zM15 267.554v-235h223.275v141.849c-44.209 6.138-63.373 61.329-29.946 93.151H15zm230.775 0c-21.688 0-39.333-17.645-39.333-39.334 0-21.689 17.645-39.333 39.333-39.333s39.334 17.645 39.334 39.333c0 21.689-17.646 39.334-39.334 39.334z"/><path d="M269.02 209.137c-3.542-2.143-8.154-1.011-10.3 2.534l-14.715 24.32-11.406-10.062c-3.107-2.74-7.845-2.443-10.586.663-2.74 3.106-2.443 7.846.662 10.586l18.138 16c3.491 3.078 8.949 2.275 11.379-1.742l19.362-32c2.145-3.543 1.01-8.154-2.534-10.299z"/></svg>
