<svg xml:space="preserve" viewBox="0 0 433.521 433.521"><path d="M269.568 250.041c3.866 0 7 3.134 7 7s-3.134 7-7 7H209.34c-3.866 0-7-3.134-7-7s3.134-7 7-7h60.228zm38.856-24.547c0-3.866-3.134-7-7-7H209.34c-3.866 0-7 3.134-7 7s3.134 7 7 7h92.084c3.866 0 7-3.134 7-7zM157.206 65.186V34.173c0-3.866 3.134-7 7-7l25.395-.015C189.601 12.184 201.784 0 216.76 0c14.977 0 27.161 12.184 27.161 27.158v.015h25.393c3.866 0 7 3.134 7 7v31.013c0 3.866-3.134 7-7 7H164.206c-3.866 0-7-3.134-7-7zm14-7h91.107V41.173H236.92c-3.866 0-7-3.134-7-7v-7.015c0-7.256-5.903-13.158-13.159-13.158-7.257 0-13.161 5.902-13.161 13.158v7.015c0 3.866-3.134 7-7 7h-25.395v17.013zm212.387-7.181v365.651c0 9.3-7.565 16.865-16.865 16.865H66.793c-9.299 0-16.864-7.565-16.864-16.865V51.005c0-9.3 7.565-16.865 16.864-16.865h67.815c3.866 0 7 3.134 7 7s-3.134 7-7 7H95.517v337.661h242.487V48.14h-39.092c-3.866 0-7-3.134-7-7s3.134-7 7-7h67.815c9.3 0 16.866 7.565 16.866 16.865zm-14 0c0-1.553-1.313-2.865-2.865-2.865h-14.724v344.661c0 3.866-3.134 7-7 7H88.517c-3.866 0-7-3.134-7-7V48.14H66.793c-1.553 0-2.864 1.313-2.864 2.865v365.651c0 1.553 1.312 2.865 2.864 2.865h299.935c1.553 0 2.865-1.313 2.865-2.865V51.005zm-240.899 77.317c-3.379 1.879-4.596 6.141-2.717 9.52l12.862 23.137c1.235 2.221 3.576 3.599 6.118 3.599 2.541 0 4.883-1.378 6.118-3.599l22.422-40.331c1.879-3.379.662-7.641-2.717-9.52-3.377-1.877-7.641-.663-9.52 2.717l-16.304 29.326-6.744-12.132c-1.876-3.379-6.139-4.596-9.518-2.717zm42.087 86.662c-3.379-1.878-7.642-.662-9.52 2.717l-16.304 29.325-6.744-12.132c-1.878-3.379-6.141-4.598-9.52-2.717-3.379 1.879-4.596 6.141-2.717 9.52l12.862 23.137c1.235 2.221 3.576 3.599 6.118 3.599 2.541 0 4.883-1.377 6.118-3.599l22.422-40.33c1.881-3.379.664-7.641-2.715-9.52zm38.559-54.799h60.229c3.866 0 7-3.134 7-7s-3.134-7-7-7H209.34c-3.866 0-7 3.134-7 7s3.134 7 7 7zm92.084-45.547H209.34c-3.866 0-7 3.134-7 7s3.134 7 7 7h92.084c3.866 0 7-3.134 7-7s-3.134-7-7-7z"/></svg>
