<svg xmlns="http://www.w3.org/2000/svg" viewBox="0 0 202 42"><g fill="none" fill-rule="evenodd"><g fill-rule="nonzero"><path fill="#0a214c" d="M57.256 29V11.96h5.592c1.536 0 2.768.44 3.696 1.32.928.88 1.392 1.944 1.392 3.192 0 1.568-.608 2.728-1.824 3.48 1.968.72 2.952 2.08 2.952 4.08 0 1.44-.524 2.628-1.572 3.564-1.048.936-2.428 1.404-4.14 1.404h-6.096Zm2.232-2.016h3.96c1.12 0 1.972-.26 2.556-.78.584-.52.876-1.22.876-2.1 0-.864-.292-1.564-.876-2.1-.584-.536-1.428-.804-2.532-.804h-3.984v5.784Zm0-7.704h3.36c.896 0 1.604-.244 2.124-.732s.78-1.124.78-1.908c0-.752-.264-1.384-.792-1.896s-1.232-.768-2.112-.768h-3.36v5.304Zm17.832 9.96c-1.84 0-3.336-.592-4.488-1.776-1.152-1.184-1.728-2.672-1.728-4.464 0-1.776.584-3.26 1.752-4.452 1.168-1.192 2.664-1.788 4.488-1.788 1.616 0 2.972.54 4.068 1.62 1.096 1.08 1.644 2.548 1.644 4.404 0 .24-.008.448-.024.624h-9.84c.032 1.12.436 2.056 1.212 2.808.776.752 1.756 1.128 2.94 1.128 1.68 0 2.928-.696 3.744-2.088l1.632 1.128c-1.168 1.904-2.968 2.856-5.4 2.856Zm-3.984-7.512h7.608c-.16-.96-.58-1.724-1.26-2.292-.68-.568-1.484-.852-2.412-.852-.944 0-1.788.284-2.532.852-.744.568-1.212 1.332-1.404 2.292Zm16.008 11.928H87.04l2.448-5.28L84.232 17h2.28l4.128 9.12L94.744 17h2.304zm15.096-4.416c-1.808 0-3.308-.604-4.5-1.812-1.192-1.208-1.788-2.684-1.788-4.428 0-1.744.596-3.22 1.788-4.428 1.192-1.208 2.692-1.812 4.5-1.812 1.792 0 3.284.604 4.476 1.812 1.192 1.208 1.788 2.684 1.788 4.428 0 1.744-.596 3.22-1.788 4.428-1.192 1.208-2.684 1.812-4.476 1.812Zm-3.024-3.168c.784.832 1.792 1.248 3.024 1.248s2.232-.416 3-1.248c.768-.832 1.152-1.856 1.152-3.072s-.384-2.24-1.152-3.072c-.768-.832-1.768-1.248-3-1.248s-2.236.416-3.012 1.248c-.776.832-1.164 1.856-1.164 3.072s.384 2.24 1.152 3.072ZM113.656 29V17h2.064v1.512c.8-1.168 2.064-1.752 3.792-1.752 1.36 0 2.46.44 3.3 1.32.84.88 1.26 2.064 1.26 3.552V29h-2.04v-7.056c0-1.04-.268-1.848-.804-2.424-.536-.576-1.268-.864-2.196-.864-1.664 0-2.768.792-3.312 2.376V29h-2.064Zm19.248.24c-1.76 0-3.208-.604-4.344-1.812-1.136-1.208-1.704-2.684-1.704-4.428 0-1.744.568-3.22 1.704-4.428 1.136-1.208 2.584-1.812 4.344-1.812 1.648 0 2.952.52 3.912 1.56v-6.84h2.064V29h-2.064v-1.32c-.96 1.04-2.264 1.56-3.912 1.56Zm.168-1.896c1.68 0 2.928-.664 3.744-1.992v-4.728c-.816-1.312-2.064-1.968-3.744-1.968-1.184 0-2.16.42-2.928 1.26-.768.84-1.152 1.868-1.152 3.084s.384 2.244 1.152 3.084c.768.84 1.744 1.26 2.928 1.26Z"/><path fill="#3D42F5" d="M150.712 29.288c-2.448 0-4.528-.852-6.24-2.556-1.712-1.704-2.568-3.788-2.568-6.252s.856-4.548 2.568-6.252c1.712-1.704 3.792-2.556 6.24-2.556 1.616 0 3.08.368 4.392 1.104 1.312.736 2.36 1.744 3.144 3.024l-1.872 1.128c-.608-.976-1.4-1.744-2.376-2.304-.976-.56-2.072-.84-3.288-.84-1.856 0-3.412.648-4.668 1.944-1.256 1.296-1.884 2.88-1.884 4.752 0 1.872.628 3.456 1.884 4.752 1.256 1.296 2.812 1.944 4.668 1.944 1.216 0 2.312-.28 3.288-.84.976-.56 1.768-1.328 2.376-2.304l1.872 1.128c-.784 1.28-1.832 2.288-3.144 3.024-1.312.736-2.776 1.104-4.392 1.104Zm15.504-.048c-1.808 0-3.308-.604-4.5-1.812-1.192-1.208-1.788-2.684-1.788-4.428 0-1.744.596-3.22 1.788-4.428 1.192-1.208 2.692-1.812 4.5-1.812 1.792 0 3.284.604 4.476 1.812 1.192 1.208 1.788 2.684 1.788 4.428 0 1.744-.596 3.22-1.788 4.428-1.192 1.208-2.684 1.812-4.476 1.812Zm-3.024-3.168c.784.832 1.792 1.248 3.024 1.248s2.232-.416 3-1.248c.768-.832 1.152-1.856 1.152-3.072s-.384-2.24-1.152-3.072c-.768-.832-1.768-1.248-3-1.248s-2.236.416-3.012 1.248c-.776.832-1.164 1.856-1.164 3.072s.384 2.24 1.152 3.072Zm17.352 3.168c-1.76 0-3.208-.604-4.344-1.812-1.136-1.208-1.704-2.684-1.704-4.428 0-1.744.568-3.22 1.704-4.428 1.136-1.208 2.584-1.812 4.344-1.812 1.648 0 2.952.52 3.912 1.56v-6.84h2.064V29h-2.064v-1.32c-.96 1.04-2.264 1.56-3.912 1.56Zm.168-1.896c1.68 0 2.928-.664 3.744-1.992v-4.728c-.816-1.312-2.064-1.968-3.744-1.968-1.184 0-2.16.42-2.928 1.26-.768.84-1.152 1.868-1.152 3.084s.384 2.244 1.152 3.084c.768.84 1.744 1.26 2.928 1.26Zm14.976 1.896c-1.84 0-3.336-.592-4.488-1.776-1.152-1.184-1.728-2.672-1.728-4.464 0-1.776.584-3.26 1.752-4.452 1.168-1.192 2.664-1.788 4.488-1.788 1.616 0 2.972.54 4.068 1.62 1.096 1.08 1.644 2.548 1.644 4.404 0 .24-.008.448-.024.624h-9.84c.032 1.12.436 2.056 1.212 2.808.776.752 1.756 1.128 2.94 1.128 1.68 0 2.928-.696 3.744-2.088l1.632 1.128c-1.168 1.904-2.968 2.856-5.4 2.856Zm-3.984-7.512h7.608c-.16-.96-.58-1.724-1.26-2.292-.68-.568-1.484-.852-2.412-.852-.944 0-1.788.284-2.532.852-.744.568-1.212 1.332-1.404 2.292Z"/></g><path fill="#0A214C" fill-rule="nonzero" d="M14.1169 1.5410925c3.6529-2.05479 8.1133-2.05479 11.7662 0l8 4.5c3.7786 2.12542 6.1169 6.12364 6.1169 10.45894v8.4636c0 4.3353-2.3383 8.3335-6.1169 10.4589l-8 4.5c-3.6529 2.0548-8.1133 2.0548-11.7662 0l-8.00004-4.5C2.33834 33.2971325 0 29.2989325 0 24.9636325v-8.4636c0-4.3353 2.33834-8.33352 6.11687-10.45894l8.00003-4.5Z"/><path fill="#FFF" d="M10.706 11.3529325c.5496 0 .9953.4386.9953.9797v6.6786c1.1319-1.0498 2.6548-1.6952 4.3291-1.6952 1.6978 0 3.3024.6639 4.4855 1.8384.1359.135.1668.1789.2913.3271-.6965.8225-.9951 1.9002-.9951 1.9002-.2983-.3919-.598-.7327-.598-.7327-.8196-.8758-1.967-1.3735-3.1837-1.3735-2.3871 0-4.3291 1.9116-4.3291 4.2614 0 2.3499 1.942 4.2618 4.3291 4.2618s4.3294-1.9119 4.3294-4.2618c0-3.4302 2.8347-6.2209 6.3194-6.2209 1.1112 0 2.2042.2882 3.161.8333.4757.2707.6382.8701.3631 1.3384-.2756.4683-.8844.6285-1.3599.3572-.6542-.3726-1.4025-.5694-2.1642-.5694-2.3869 0-4.3291 1.9116-4.3291 4.2614 0 3.4302-2.8351 6.221-6.3197 6.221-3.4847 0-6.31946-2.7908-6.31946-6.221l.00152-.0652c-.00051-.011-.00152-.0217-.00152-.0327v-11.1064c0-.5411.44536-.9797.99506-.9797Zm12.1914 14.3393c.3981.5879.8055.9396.8384.97.803.7339 1.8431 1.1365 2.9434 1.1365.7617 0 1.51-.1971 2.1642-.5697.4755-.2708 1.0843-.1111 1.3599.3572.2751.4683.1126 1.0677-.3631 1.3387-.9568.545-2.0498.833-3.161.833-1.6353 0-3.1792-.6091-4.3595-1.7174-.0268-.0249-.3912-.3634-.4175-.3888 0 0 .7961-1.1758.9952-1.9595Z"/></g></svg>
