<svg xmlns="http://www.w3.org/2000/svg" xmlns:xlink="http://www.w3.org/1999/xlink" viewBox="0 0 444 255"><defs><linearGradient id="c" x1="27.5483237%" x2="63.7623193%" y1="37.0917777%" y2="64.4693111%"><stop offset="0%" stop-color="#BDD997"/><stop offset="100%" stop-color="#2992C4"/></linearGradient><linearGradient id="f" x1="70.0748291%" x2="20.0972449%" y1="20.5656617%" y2="108.478353%"><stop offset="0%" stop-color="#BDD997"/><stop offset="100%" stop-color="#2992C4"/></linearGradient><linearGradient id="i" x1="31.7880778%" x2="68.6655679%" y1="6.4665225%" y2="114.434338%"><stop offset="0%" stop-color="#BDD997"/><stop offset="100%" stop-color="#2992C4"/></linearGradient><linearGradient id="l" x1="-10.7290028%" x2="83.927849%" y1="-61.1777928%" y2="112.116955%"><stop offset="0%" stop-color="#BDD997"/><stop offset="100%" stop-color="#2992C4"/></linearGradient><linearGradient id="o" x1="-27.1787404%" x2="187.919185%" y1="-130.768111%" y2="373.014197%"><stop offset="0%" stop-color="#BDD997"/><stop offset="100%" stop-color="#2992C4"/></linearGradient><path id="b" d="m35.6340208 0-14.836.64L5.96302082 0s-6.09 4.795-5.961 14.643H41.5940208c.13-9.848-5.96-14.643-5.96-14.643"/><path id="e" d="M4.299 0s.205 9.848 9.007 13.476c8.803 3.628 21.086 9.848 21.292 33.69H0L4.299 0"/><path id="h" d="M30.298 0s-.205 9.848-9.007 13.476C12.488 17.104.205 23.324 0 47.166h34.597L30.298 0"/><path id="k" d="M26.694 13.347c0 7.371-5.976 13.347-13.348 13.347C5.975 26.694 0 20.718 0 13.347 0 5.976 5.975 0 13.346 0c7.372 0 13.348 5.976 13.348 13.347"/><path id="n" d="M13.735 6.868c0 3.793-3.074 6.867-6.868 6.867C3.075 13.735 0 10.661 0 6.868S3.075 0 6.867 0c3.794 0 6.868 3.075 6.868 6.868"/><radialGradient id="a" cx="50%" cy="0%" r="100%" fx="50%" fy="0%" gradientTransform="matrix(0 1 -.261614 0 .5 -.5)"><stop offset="0%" stop-color="#FFF"/><stop offset="33.521689%" stop-color="#FFBE2D"/><stop offset="68.8767986%" stop-color="#DF6511"/><stop offset="100%" stop-color="#CD4100"/></radialGradient></defs><g fill="none" fill-rule="evenodd"><path fill="url(#a)" d="M394.701 238.39725c-21.333-20.313474-66-13.021718-78.667-22.657337-12.666-9.636009 10-20.313475-32.666-33.074634-42.667-12.761159-49.334-43.49154-49.334-43.49154-.68-.265638-7.824-.170321-12.333-.081644-4.509-.088677-11.654-.183994-12.333.081644 0 0-6.667 30.730381-49.334 43.49154-42.666 12.761159-20 23.438625-32.666 33.074634-12.667 9.635619-57.334 2.343863-78.667 22.657337C37.547 249.018463 18.01 253.373359 0 255h443.402c-18.01-1.626641-37.547-5.981537-48.701-16.60275"/><g transform="translate(201.456979 124.394)"><mask id="d" fill="#fff"><use xlink:href="#b"/></mask><path fill="url(#c)" fill-rule="nonzero" d="m35.6340208 0-14.836.64L5.96302082 0s-6.09 4.795-5.961 14.643H41.5940208c.13-9.848-5.96-14.643-5.96-14.643" mask="url(#d)"/></g><g transform="translate(240.527 78.783)"><mask id="g" fill="#fff"><use xlink:href="#e"/></mask><path fill="url(#f)" fill-rule="nonzero" d="M4.299 0s.205 9.848 9.007 13.476c8.803 3.628 21.086 9.848 21.292 33.69H0L4.299 0" mask="url(#g)"/></g><g transform="translate(169 78.783)"><mask id="j" fill="#fff"><use xlink:href="#h"/></mask><path fill="url(#i)" fill-rule="nonzero" d="M30.298 0s-.205 9.848-9.007 13.476C12.488 17.104.205 23.324 0 47.166h34.597L30.298 0" mask="url(#j)"/></g><path fill="#FCFCFC" fill-rule="nonzero" d="M246.008 126.986S254.146 32.083 222.062 0c-32.083 32.083-23.946 126.986-23.946 126.986h47.892"/><g transform="translate(208.845 34.985)"><mask id="m" fill="#fff"><use xlink:href="#k"/></mask><path fill="url(#l)" fill-rule="nonzero" d="M26.694 13.347c0 7.371-5.976 13.347-13.348 13.347C5.975 26.694 0 20.718 0 13.347 0 5.976 5.975 0 13.346 0c7.372 0 13.348 5.976 13.348 13.347" mask="url(#m)"/></g><g transform="translate(215.324 71.397)"><mask id="p" fill="#fff"><use xlink:href="#n"/></mask><path fill="url(#o)" fill-rule="nonzero" d="M13.735 6.868c0 3.793-3.074 6.867-6.868 6.867C3.075 13.735 0 10.661 0 6.868S3.075 0 6.867 0c3.794 0 6.868 3.075 6.868 6.868" mask="url(#p)"/></g></g></svg>
