<svg xmlns="http://www.w3.org/2000/svg" viewBox="0 0 60 60"><path fill="#cb8252" d="M32 5h10a3 3 0 0 1 3 3v48a3 3 0 0 1-3 3H4a3 3 0 0 1-3-3V8a3 3 0 0 1 3-3z"/><path fill="#ecf0f1" d="M32 9h9v46H5V9h9z"/><path fill="#95a5a5" d="M32 5v4a1 1 0 0 1-1 1H15a1 1 0 0 1-1-1V5a1 1 0 0 1 1-1h4.13a4 4 0 0 1 7.74 0H31a1 1 0 0 1 1 1z"/><rect width="9" height="9" x="9" y="14" fill="#d1d4d1" rx="1"/><rect width="9" height="9" x="9" y="28" fill="#d1d4d1" rx="1"/><rect width="9" height="9" x="9" y="42" fill="#d1d4d1" rx="1"/><path fill="#4fba6f" d="M14 20a1 1 0 0 1-.707-.293l-1-1a1 1 0 0 1 1.414-1.414l.293.293 4.293-4.293a1 1 0 0 1 1.414 1.414l-5 5A1 1 0 0 1 14 20zm0 14a1 1 0 0 1-.707-.293l-1-1a1 1 0 0 1 1.414-1.414l.293.293 4.293-4.293a1 1 0 0 1 1.414 1.414l-5 5A1 1 0 0 1 14 34zm0 14a1 1 0 0 1-.707-.293l-1-1a1 1 0 0 1 1.414-1.414l.293.293 4.293-4.293a1 1 0 0 1 1.414 1.414l-5 5A1 1 0 0 1 14 48z"/><path fill="#3f5c6c" d="M36 17H23a1 1 0 0 1 0-2h13a1 1 0 0 1 0 2zm-6 5h-7a1 1 0 0 1 0-2h7a1 1 0 0 1 0 2zm6 9H23a1 1 0 0 1 0-2h13a1 1 0 0 1 0 2zm-6 5h-7a1 1 0 0 1 0-2h7a1 1 0 0 1 0 2zm4.91 9H23a1 1 0 0 1 0-2h11.91a1 1 0 0 1 0 2zM30 50h-7a1 1 0 0 1 0-2h7a1 1 0 0 1 0 2z"/><path fill="#fb7b76" d="m57.75 31.25-6.01-6a4.246 4.246 0 1 1 6.01 6z"/><path fill="#f9eab0" d="m41.51 47.51-.01.01-6.31 1.45a.969.969 0 0 1-1.17-1.15l1.47-6.32 3.01 3z"/><path fill="#f0c419" d="M51.74 31.26 38.5 44.5l-3.01-3v-.01l13.24-13.23z"/><path fill="#f29c1f" d="M38.49264 44.500758 51.730508 31.26289l3.009699 3.009699-13.237868 13.237868z"/><path fill="#95a5a5" d="m57.76 31.26-3.01 3.01-3.01-3.01-3.01-3 3-3.01h.01l6.01 6v.01z"/></svg>
