<svg xmlns="http://www.w3.org/2000/svg" fill="none" viewBox="0 0 137 28"><path fill="#34495E" d="M31 11.227V17.5h-7v-2.625a.87.87 0 0 0-.875-.875h-1.75a.87.87 0 0 0-.875.875V17.5h-7v-2.625a.87.87 0 0 0-.875-.875h-1.75a.87.87 0 0 0-.875.875V17.5H3v-6.273c0-.465.185-.909.513-1.237l2.474-2.474C6.316 7.186 6.76 7 7.225 7h19.55c.465 0 .91.185 1.237.513l2.475 2.474c.327.327.513.775.513 1.24Z"/><path fill="#A7B0B9" d="M24 17.5v2.625c0 .485-.39.875-.875.875h-1.75a.872.872 0 0 1-.875-.875V17.5h-7v2.625a.87.87 0 0 1-.875.875h-1.75a.87.87 0 0 1-.875-.875V17.5H3v7c0 .964.786 1.75 1.75 1.75h24.5c.964 0 1.75-.786 1.75-1.75v-7h-7ZM12.625 4.375h8.75V7H24V4.375a2.626 2.626 0 0 0-2.625-2.625h-8.75A2.626 2.626 0 0 0 10 4.375V7h2.625V4.375Z"/><path fill="#000" d="M42.78 23.24c-3.52 0-5.62-2.48-5.62-7.14s2.1-7.3 5.62-7.3c2.32 0 3.92 1.12 4.8 3.06l-1.36.82c-.56-1.44-1.72-2.38-3.44-2.38-2.4 0-3.82 1.9-3.82 4.76v2.08c0 2.86 1.42 4.6 3.82 4.6 1.78 0 3-1 3.56-2.52l1.34.84c-.88 1.96-2.58 3.18-4.9 3.18Zm7.342-.24V8.2h1.6v6.16h.08c.5-1.16 1.38-1.92 2.92-1.92 2.12 0 3.46 1.44 3.46 3.94V23h-1.6v-6.34c0-1.84-.8-2.78-2.34-2.78-1.28 0-2.52.64-2.52 1.96V23h-1.6Zm12.167-12.74c-.68 0-.98-.36-.98-.9V9.1c0-.54.3-.9.98-.9.68 0 .98.36.98.9v.26c0 .54-.3.9-.98.9ZM61.49 23V12.68h1.6V23h-1.6Zm8.88.24c-2.8 0-4.64-2.12-4.64-5.4 0-3.28 1.84-5.4 4.64-5.4 2.76 0 4.46 2.12 4.46 5.04v.76h-7.42v.48c0 1.78 1.14 3.12 3.06 3.12 1.3 0 2.3-.64 2.84-1.78l1.14.82c-.66 1.4-2.14 2.36-4.08 2.36Zm0-9.46c-1.74 0-2.96 1.32-2.96 3.12v.14h5.7v-.22c0-1.82-1.1-3.04-2.74-3.04ZM78.026 23v-8.92h-1.68v-1.4h1.68V10.6c0-1.42.74-2.4 2.26-2.4h1.56v1.4h-2.22v3.08h2.22v1.4h-2.22V23h-1.6Zm19.95-12.48h-4.44V23h-1.68V10.52h-4.44V9.04h10.56v1.48Zm4.737 12.72c-2.76 0-4.66-2.12-4.66-5.4 0-3.28 1.9-5.4 4.66-5.4 2.76 0 4.66 2.12 4.66 5.4 0 3.28-1.9 5.4-4.66 5.4Zm0-1.42c1.72 0 2.94-1.06 2.94-3.24V17.1c0-2.18-1.22-3.24-2.94-3.24s-2.94 1.06-2.94 3.24v1.48c0 2.18 1.22 3.24 2.94 3.24Zm11.192 1.42c-2.76 0-4.66-2.12-4.66-5.4 0-3.28 1.9-5.4 4.66-5.4 2.76 0 4.66 2.12 4.66 5.4 0 3.28-1.9 5.4-4.66 5.4Zm0-1.42c1.72 0 2.94-1.06 2.94-3.24V17.1c0-2.18-1.22-3.24-2.94-3.24s-2.94 1.06-2.94 3.24v1.48c0 2.18 1.22 3.24 2.94 3.24ZM124.316 23h-1.42c-1.1 0-1.7-.7-1.7-1.66V8.2h1.6v13.4h1.52V23Zm5.429.24c-1.9 0-3.16-.8-4.08-2.02l1.14-.92c.8 1 1.76 1.58 3.06 1.58 1.36 0 2.16-.62 2.16-1.68 0-.8-.44-1.42-1.8-1.62l-.82-.12c-1.9-.28-3.32-1.06-3.32-2.98 0-2.04 1.58-3.04 3.68-3.04 1.66 0 2.76.62 3.6 1.66l-1.06.96c-.46-.64-1.34-1.26-2.66-1.26s-2.02.62-2.02 1.6c0 1 .7 1.4 1.98 1.6l.8.12c2.28.34 3.16 1.34 3.16 2.9 0 2-1.46 3.22-3.82 3.22Z"/></svg>
