<svg viewBox="0 0 705 40"><defs><path id="a" d="M0 0h13v13H0z"/></defs><g fill="none" fill-rule="evenodd"><path fill="currentColor" fill-rule="nonzero" d="M704.9548785 29.0264436v-.0324426l-.2556368-2.1736043c-.0267559-.1935478-.1795115-.3377207-.3609009-.3406248-.0308471-.0025734-.061811.002986-.090222.0161988-.027435.0179838-.0582717.0290724-.0902221.0324426-.5283096.2164614-1.0889779.3264274-1.6541104.3244259-.5437177.0587778-1.0821039-.1567611-1.4586244-.5839487-.3304729-.5832332-.4781027-1.2657363-.4210433-1.9465107v-4.83382959h3.4585895c.1824865-.01481965.3252046-.17576687.3308254-.37308084v-2.18982115c-.0091081-.20813792-.1677369-.37211972-.3609008-.37308084h-3.4134805v-3.1955236c-.0206745-.19955436-.1748108-.35196616-.3609009-.35704378h-2.5713855c-.0937452-.0020611-.1844679.03600743-.2521676.10599254-.0676997.06998511-.1068174.16614074-.1087291.26726804v3.1630765h-1.9849316c-.0960987-.0013661-.1886317.03921099-.2565892.11251731-.0679579.07330676-.1055739.17312286-.1043075.27678483v2.15737856c-.00484.18731976.1155793.35140145.2857081.38930214h2.0601244v5.46644678c0 1.7194125.3608966 2.9846287 1.0977235 3.8119149.7368268.8272861 1.8495755 1.2490129 3.3533464 1.2490129.6120118.0055759 1.2225699-.0651831 1.8195168-.2108679.3980409-.0911363.7861235-.2270541 1.1578785-.4055235.1328412-.0528827.2222645-.1879222.2255615-.3406247v-.0161988c-.0451215.0161808-.0451215.0161808-.0451215-.000036Zm-62.348926-2.895134c-.063289-.0925254-.1114654-.1945894-.1427133-.3023455-.0475725-.2546017.1744283-.4773815.301284-.6842481.1422696-.2246121.2694105-.4585212.3805716-.7001612.747261-1.4762394 1.1074449-3.119179 1.0465741-4.77383205-.0194806-1.19818825-.2503329-2.3834394-.6818556-3.50081046-.4034816-1.02321682-.9772114-1.97023279-1.6967147-2.80064926-.6529977-.76708165-1.4303462-1.41804274-2.2992826-1.92544774-.9159326-.55599772-1.918243-.95402482-2.9652851-1.17754265-1.1076693-.2486253-2.247003-.3237738-3.37757171-.22277977-2.32125243.1664216-4.51031187 1.14650604-6.18428167 2.76882295-1.67954669 1.62866716-2.72055498 3.80834313-2.93357008 6.14234581-.1138975 1.16000417-.04432422 2.33078477.20614331 3.46898417.25641276 1.1103185.69588713 2.1698425 1.30027232 3.1348123.59501131.9385743 1.35217101 1.7630497 2.23586577 2.4346466.87226773.6564215 1.84769507 1.1619831 2.88599753 1.4958058.56776704.1869961 1.15174788.3201851 1.74428277.3978201.5614253.0851166 1.12902391.1223803 1.69671466.1113921.5414585-.0161167 1.0815179-.0639378 1.6174226-.1432184.298802-.0429832.5951954-.1014063.8879989-.1750359.2378583-.0636571.5074273-.1113921.6025724-.3659938.0463869-.2054271-.0000438-.4209252-.1268557-.5887735-.1109982-.2386929-.2378584-.4773814-.3488566-.7160744-.2220008-.4296464-.4281441-.8752015-.6501361-1.3048346-.052772-.1231732-.1573471-.2164529-.2854309-.2546017-.1208855-.0265562-.2465773-.0210795-.3647141.0158911-.1427132.0318263-.2854309.047735-.4281441.0795658-.594654.079564-1.1972014.079564-1.79185534 0-2.28935068-.3040592-4.24867205-1.7983632-5.15358273-3.9304525-.44627936-1.0588874-.6154867-2.2146602-.491561-3.3576141.1315524-1.12805693.5522315-2.20263506 1.22099795-3.11890355 1.36189529-1.86010095 3.59151649-2.87328255 5.88299762-2.67334401 1.0492352.09099456 2.0610562.43490987 2.9494276 1.00250235 1.7759293 1.13610356 2.8975204 3.06135001 3.0128577 5.17166537.0576822 1.01402644-.121508 2.02755324-.5232849 2.95977644-.3785877.8916805-.9532026 1.6859086-1.6808571 2.3232678-.1095052.0767358-.1969978.1809968-.2537158.3023411-.0348415.109686-.0292132.2282878.0158575.3341542l1.8711561 3.7236079c.0951451.1909535.1902858.4773814.3805716.5887735.1454473.0599275.3036716.0818303.4598547.0636571h2.8701445c.1641823.0029857.317532-.0819689.4024974-.2229811.0849654-.1410117.088695-.3167526.0097892-.461267-.1744283-.350085-.3647141-.684248-.5391424-1.0343286l-1.0624403-2.0845926Zm16.9354179-.5728559 2.2992826-8.5451618c.0475607-.16190587.1965202-.27239394.3647141-.27056555h2.7591418c.2089923.00290583.3777223.17222799.3805716.38195323.0025448.03783535-.0028577.07578547-.0158575.1113921l-4.0118548 12.10962482c-.0642547.1351073-.1996842.2215928-.3488609.2227842h-2.6164242c-.1491774-.0011892-.2846079-.0876755-.3488609-.2227842l-2.8067144-8.2428162-2.6957117 8.2587338v.0158911c-.0625194.127111-.1917315.2073822-.3329859.2070382h-2.5688736c-.1551754.0032754-.2953727-.0926498-.3488565-.238869l-4.0277123-12.22100806c.0028493-.20972524.1715793-.3790474.3805716-.38193999h2.8542869c.1374454.01303639.257928.09766834.3171503.22281284l2.2675588 8.57698811 2.6481392-8.56107054c.0607518-.14036286.1964583-.23321535.3488565-.23873041h2.3785702c.1491748.00122799.284603.08771214.3488566.22281726l2.7750125 8.59291009Zm15.9205634-7.16075695c-.4169555-.65428099-1.0034843-1.18235853-1.6967146-1.52762766-.738183-.36903514-1.5539513-.55458784-2.3785527-.54102083-1.1268614-.01196422-2.2314665.31503768-3.1714284.93885414-.9311798.62576357-1.6807075 1.48772471-2.1724313 2.49830812-.5156631 1.06540238-.7762954 2.23691878-.7611388 3.42124468v.2705192c.007482 1.1479063.2730831 2.2793105.7770007 3.309857.4700055.9806685 1.2065902 1.8080974 2.1248544 2.3869161.9103714.559808 1.9611956.8469008 3.0287152.8274664.7184009.0134796 1.4331886-.1051725 2.1089968-.350085.876022-.3243547 1.6259936-.9208632 2.1407119-1.702668l.031715 1.3048347c.0282127.1898707.1892943.3313057.3805716.3341542h2.5847091c.2089937-.0028591.3777247-.1721839.3805716-.3819113V17.12467075c-.0028495-.20972524-.1715792-.3790474-.3805716-.38190691h-2.5847091c-.1861285.00179039-.3452571.13486587-.3805716.31826312v.01591315l-.0317282 1.32075664Zm-.7611388 2.18005385c1.1918742 1.5506366 1.1589935 3.721727-.0792876 5.2353003-.6415814.661308-1.5222692 1.0343313-2.441998 1.0343313-.9197289 0-1.8004167-.3730233-2.4419981-1.0343313-.5837189-.6543419-.9203839-1.4933259-.951429-2.3710029-.0996309-1.0680848.2381271-2.1308722.9355715-2.9438632.630043-.68758209 1.5275499-1.06527567 2.4578578-1.03432866.9626713-.0183595 1.8846932.3889864 2.5212834 1.11389446Zm9.7521392-3.50081049c-.0282145-.18986933-.1892952-.33130352-.3805716-.3341542h-2.600571c-.2089924.00285951-.3777225.17218167-.3805716.38190692V29.1865782c.0028491.2097266.1715783.3790501.3805716.3819113h2.7432842c.1681944.0018765.3171548-.108612.3647141-.2705192v-6.6356448c-.0506851-.8528026.1959976-1.696719.6977131-2.3869161.48374-.57064309 1.2048563-.88246061 1.9504085-.84337516 1.5222863 0 2.2834282 1.00250416 2.2834251 3.00751146v6.8743157c.0516159.1590163.1980835.2676557.3647141.2705835h2.7432843c.1013381.0012763.1989166-.0385304.2705793-.1104455.0716628-.0719147.111329-.169836.110056-.2715301v-7.3994366c0-1.7663206-.3964929-3.11890355-1.1893511-4.04184453-.7928582-.93885414-1.9504084-1.40032242-3.4568549-1.40032242-.8060043-.01565846-1.6044181.15875679-2.331002.50921216-.6452505.33264721-1.1797966.84694805-1.5381439 1.4798882l-.0316842-1.273026ZM578.1208338 30.9992592V20.1697277s-.05216-.48965873-.2831538 0l-3.7257074 10.7850844v.0444471h-4.9477394v-.0444471l-3.7257074-10.7850844c-.2384452-.48965873-.2913503 0-.2913503 0V31h-5.8709697V10.00542077h5.6109153c.8112487-.04713286 1.5707408.39770363 1.922465 1.12599275l4.4708489 11.49771938s.1415769.3555766.3204108.3333531c.178834-.0222236.3196657-.3333531.3196657-.3333531l4.4708489-11.49771938c.373821-.72962263 1.1455407-1.17118089 1.9679186-1.12599275H584V30.9992592h-5.8791662Zm-34.1051254 0v-6.6670623l-7.4365119-14.32677613h6.7137247l3.7182559 8.09751757 2.9060518 6.22999936-1.8628537-8.51161623 2.6676065-5.8159007h6.6243077l-7.4290605 14.32677613v6.6670623h-5.9015205Zm-15.2008861 0V20.1697277s-.0596113-.48965873-.2913503 0l-3.7257074 10.7850844v.0444471h-4.90973721v-.0444471l-3.72570738-10.7850844c-.231739-.48965873-.29060518 0-.29060518 0V31H510V10.00542077h5.56620683c.82211463-.04488753 1.59346354.39662578 1.96717349 1.12599275l4.47084888 11.49771938s.1415769.3555766.3204108.3333531c.178834-.0222236.3204109-.3333531.3204109-.3333531l4.4708488-11.49771938c.3791718-.74229952 1.1691909-1.18609428 2.0044306-1.12599275h5.5662068V30.9992592h-5.8717148Zm-77.2844356 6.393006c-.5745856 0-.9723757-.4861879-.9723757-1.2375691 0-1.5027624 1.5911603-4.1104972 7.160221-6.1436464-1.9447513 4.1546962-3.9779005 7.3812155-6.1878453 7.3812155m-26.6519337-.5303867c2.0331492-5.9668509 4.3314918-11.3591161 6.7182321-16.2651934 2.6961326 4.9944751-1.1049724 13.9226519-6.4972376 16.1325967l-.2209945.1325967Zm-37.21546957-6.1436465c4.37569057 0 8.48618787-2.5635359 11.62430937-10.9613259 3.1823205-7.7348067 4.9944752-13.12707185 7.7790055-13.12707185 1.0607735-1.7679558-.2209944-3.35911602-1.4585635-3.35911602-10.961326-.22099447-19.80110497 0-19.80110497 4.86187846 0 2.20994471 1.76795581 3.53591161 3.66850827 2.69613261C387 6.32044199 394.1160221 5.92265193 401.5414365 5.96685083c-2.121547 2.87292818-4.1546962 7.73480667-5.9668509 12.99447517-2.2541436 6.2320442-4.4198895 9.1933701-7.95580107 9.1933701-3.04972376 0-5.17127072-2.9613259-5.52486188-8.1325967C379.70718232 20.5524862 379 21.9668508 379 23.6906077c0 4.2872929 4.50828729 7.0276243 8.66298343 7.0276243m20.33149167-14.0552486c.8839779-1.7679558 2.0331492-3.0055248 2.8729282-3.0055248.3977901 0 .6629834.4861878.6629834 1.1049723 0 .5303868-1.0607734 1.2375691-3.2707182 1.8121547l-.2651934.0883978ZM451.3977901 40c4.7292817 0 7.8674033-5.2154696 10.2541436-11.1823204 2.2099448-.4861879 4.8176796-.9281768 7.8674033-1.2375691.3535912-1.5911602-.8839779-2.2983425-3.9779005-1.8121547-1.0165746.1767956-1.9447514.3535912-2.8729282.5303867 1.0165746-2.5635359 1.8563536-5.2154696 2.7403315-7.4696132 1.8121547-2.0331492 3.1823204-4.0220995 3.1823204-5.0828729 0-1.1933702-.8839779-1.9447514-2.519337-1.9447514-1.1933702 0-2.5635359 3.2265193-4.1546961 7.4254143-1.9889503 1.679558-4.1546962 3.1823205-5.3922652 3.1823205-.1325967 0-.2209945-.1325967-.2209945-.4861879 0-.9723757 1.9889503-5.1712707 3.4475138-7.3812154 1.1049724-1.679558.7071823-2.1657459-.39779-2.1657459-.6629835 0-1.9447514.3535912-2.6961326 1.0607735-.839779.839779-1.5911603 1.9889503-2.2099448 3.2707182-3.5801105 2.7403315-9.1049724 5.2596685-10.8729282 5.2596685-.3535911 0-.5303867-.1325967-.5303867-.5745856 0-1.1049724.3977901-2.6077348 1.0607735-4.3314917 8.3535911-3.5801105 11.1381215-7.69060775 11.1381215-10.25414367 0-2.82872928-1.4585635-4.3756906-4.2872928-4.3756906-2.519337 0-7.6906077 6.89502762-10.121547 13.21546957-2.2983425.8839779-4.9060773 1.6353592-7.6464088 2.1657459 2.8729282-5.5690608 5.9668508-10.47513813 9.281768-15.160221C443.6187845 1.06077348 443.3093923 0 442.3370166 0c-1.4143647 0-2.8729282 1.01657459-4.0220995 2.51933702-2.2983425 3.04972375-5.0828729 7.77900548-7.7790055 12.81767958-2.8287293 3.1381215-8 6.6298342-9.679558 6.6298342-.4861879 0-.5303867-.1325967-.5303867-.5745856 0-2.2099448 2.1215469-6.320442 4.5524861-10.3425414 1.281768 0 2.5193371-.0441989 3.4917127-.1325967 2.6961326-.1767956 4.1988951-2.0331492.6629835-2.12154699-.9281768 0-1.8563536-.04419889-2.7403315-.04419889.39779-.70718232.8839779-1.41436465 1.2817679-2.03314918 1.1049724-1.7679558-2.8729281-1.85635359-4.4640884.8839779-.2209944.39779006-.4861878.75138122-.6629834 1.19337017-2.2099447-.04419889-4.198895 0-6.0110497.0441989-2.2983426 0-3.6243094 1.76795579-.7513812 1.94475139 1.679558.1325967 3.5801105.1767956 5.3480663.2209945-1.1049724 1.8121547-2.0331492 3.359116-2.7403315 4.6850828-3.0939227 3.0939227-8.3093923 6.2762431-10.8729282 6.2762431-.4861878 0-.6629834-.1325967-.6629834-.5745856 0-.7955801.1325967-1.679558.3535911-2.519337 4.8618785-.7071823 6.6740332-2.3425415 6.6740332-3.4475138 0-2.0331492-1.3259669-4.1546962-4.4640884-4.1546962-2.3425414 0-6.2762431 5.2154696-6.2762431 10.2983426 0 1.5911602 2.3867403 3.2707182 4.198895 3.2707182 2.3425415 0 6.1878453-1.9889503 9.3701658-4.640884-.0441989.3535912-.0441989.7513812-.0441989 1.1491713 0 1.5911602 2.0331491 3.4475138 3.9337016 3.4475138 1.5911603 0 4.4640884-1.5469613 7.2044199-3.9779005-3.4033149 7.0276243-6.0552486 13.6574585-6.0552486 16 0 1.5911602 2.2099448 2.7403314 3.0055249 2.7403314 2.3425414 0 6.320442-2.3425414 9.237569-7.4254143 2.0773481-3.6243094 2.1657459-9.5469613.7071823-12.0662984 1.9447514-.39779 3.6243094-.9281768 5.2154697-1.4585635-.3093923 1.0607735-.3977901 2.121547-.3977901 3.0055249 0 1.3259668 2.0331492 3.2265193 3.8453039 3.2265193 2.2099447 0 6.4530386-2.0331492 9.8121547-4.5524862-.1325967.7071823-.2209945 1.3259669-.2209945 1.9447514 0 1.9447514 2.4751381 3.0497238 3.2707182 3.0497238 1.1049724 0 2.5635359-.7513813 4.1546962-1.8563536-.441989 1.2817679-.9723757 2.5635359-1.4585636 3.8453038-7.9116022 2.3425415-11.359116 5.7900553-11.359116 8.7955801 0 2.121547 2.121547 3.9337017 3.9337017 3.9337017m-5.6574586-26.6519337C448.038674 9.01657459 451 4.86187845 452.0165746 4.86187845c.39779 0 .6629834.48618785.6629834 1.01657459 0 2.29834254-2.519337 5.08287296-6.8508287 7.51381216l-.0883978-.0441989ZM166 15.89215686l4.52152744 4.38267574 1.33602232 1.2816791 4.34994684 4.2068359c0 .0103252.3206326.2999499 0 .5996932l-4.32869946 4.1859788h-2.67193786C167.44354045 30.5490196 166 29.1539687 166 27.4479198V15.89215686Zm18.6837177 4.59120254.0181181.0150656L189 24.7333989v2.7172721c0 1.7040608-1.4150921 3.0983486-3.1444746 3.0983486H174.05l5.0850946-5.009303 5.1266718-5.0412916c.1743731-.18089.3637223-.0602622.4219513-.0150656ZM185.832409 8C187.5750375 8 189 9.40090479 189 11.11214314V22.6568627l-4.5504723-4.4811338-1.0555121-1.03689748-4.6453924-4.55356229c-.2219022-.21801062 0-.43622848 0-.43622848L182.9717264 8h2.8606826ZM180.95 8l-10.18261088 10.014554c-.21321611.209695-.38381027.1253361-.46873533.052267L166 13.83905303v-2.69958725C166 9.41246168 167.43702988 8 169.19228959 8H180.95Zm26.0127985 3.97261774c.7194742-.70536692.7194742-1.7634173.0256955-2.44359255-.6937788-.70536692-1.8243811-.70536692-2.5181599 0-.6937788.68017525-.6937788 1.73822563 0 2.44359255.7194743.68017529 1.7986857.68017529 2.4924644 0Zm.1541731 14.98904716V14.36582694h-2.7751151V26.9616649h2.7751151Zm8.3741011.3274917c2.4924645 0 4.6765828-1.2595838 5.7814897-3.2749178L218.88288 22.67908c-.6166922 1.1840088-1.9014676 1.939759-3.4175027 1.939759-1.1306024 0-2.0813363-.3778751-2.8522015-1.1336254-.7451698-.7557503-1.1306025-1.6878423-1.1306025-2.8214677 0-1.1336255.3854327-2.0657174 1.1306025-2.82146772.7708652-.75575023 1.7215991-1.13362535 2.8522015-1.13362535 1.5417305 0 2.775115.73055858 3.3661117 1.93975897l2.3896824-1.36035041c-1.0278204-1.99014242-3.2376342-3.24972626-5.7300987-3.24972626-1.9271631 0-3.5459802.62979198-4.8564511 1.91456735-1.2847755 1.25958384-1.9271632 2.82146772-1.9271632 4.71084342 0 1.8641841.6423877 3.4260679 1.9271632 4.7108433 1.3104709 1.2847755 2.929288 1.9145674 4.8564511 1.9145674Zm13.0799993 0c1.9014676 0 3.4945892-.6297919 4.8050602-1.9145674 1.310471-1.2847754 1.9785542-2.8466592 1.9785542-4.7108433 0-1.864184-.6680832-3.42606793-1.9785542-4.71084342-1.310471-1.28477537-2.9035926-1.91456735-4.8050602-1.91456735-1.8757722 0-3.4945893.62979198-4.8050603 1.91456735-1.310471 1.28477549-1.9785542 2.84665942-1.9785542 4.71084342 0 1.8641841.6680832 3.4260679 1.9785542 4.7108433 1.310471 1.2847755 2.9292881 1.9145674 4.8050603 1.9145674Zm-2.8522016-3.7787513c-.7708652-.7557504-1.1562979-1.713034-1.1562979-2.8466594 0-1.1336255.3854327-2.0909091 1.1562979-2.84665937.7708652-.75575023 1.7215991-1.13362546 2.8522016-1.13362546 1.1306024 0 2.0813362.37787523 2.8522015 1.13362546.7708652.75575027 1.1562978 1.71303387 1.1562978 2.84665937 0 1.1336254-.3854326 2.090909-1.1562978 2.8466594-.7708653.7557502-1.7215991 1.1336253-2.8522015 1.1336253-1.1306025 0-2.0813364-.3778751-2.8522016-1.1336253Zm17.7265201-9.47207017c-1.8243812 0-3.1348522.65498363-3.982804 1.93975912v-1.61226731h-2.7751149V26.9616649h2.7751149v-6.7513692c0-2.44359247 1.310471-3.62760124 3.2633297-3.62760124 1.7729902 0 2.8778971 1.03285863 2.8778971 2.92223434v7.4567361h2.775115v-7.7338445c0-3.2245345-1.9785543-5.18948527-4.9335378-5.18948527ZM256.490717 27.2891566c1.9014678 0 3.4945893-.6297919 4.8050603-1.9145674 1.3104709-1.2847754 1.9785542-2.8466592 1.9785542-4.7108433 0-1.864184-.6680833-3.42606793-1.9785542-4.71084342-1.310471-1.28477537-2.9035925-1.91456735-4.8050603-1.91456735-1.8757721 0-3.4945893.62979198-4.8050602 1.91456735-1.310471 1.28477549-1.9785543 2.84665942-1.9785543 4.71084342 0 1.8641841.6680833 3.4260679 1.9785543 4.7108433 1.3104709 1.2847755 2.9292881 1.9145674 4.8050602 1.9145674Zm-2.8522015-3.7787513c-.7708653-.7557504-1.1562979-1.713034-1.1562979-2.8466594 0-1.1336255.3854326-2.0909091 1.1562979-2.84665937.7708653-.75575023 1.7215992-1.13362546 2.8522015-1.13362546 1.1306024 0 2.0813363.37787523 2.8522016 1.13362546.7708653.75575027 1.1562979 1.71303387 1.1562979 2.84665937 0 1.1336254-.3854326 2.090909-1.1562979 2.8466594-.7708653.7557502-1.7215992 1.1336253-2.8522016 1.1336253-1.1306023 0-2.0813362-.3778751-2.8522015-1.1336253Zm13.6231685-5.66812712c0-.8817086.822255-1.33515879 1.875772-1.33515879 1.156298 0 1.978554.47864184 2.415378 1.43592551l2.338292-1.28477549c-.899344-1.63745884-2.620942-2.61993428-4.75367-2.61993428-1.336167 0-2.466769.35268347-3.3661125 1.0580504-.8993425.70536693-1.3361654 1.63745895-1.3361654 2.79627607-.0513912 2.6451259 2.5438549 3.4008762 4.4710179 3.879518 1.361863.3274918 2.441073.8061337 2.441073 1.6122673 0 .932092-.719473 1.4107339-2.184118 1.4107339-1.464643 0-2.415378-.6046003-2.852201-1.8138008l-2.3896827 1.3603506c.8222568 1.8389923 2.6980287 2.947426 5.2418837 2.947426 1.438949 0 2.620942-.3526834 3.571676-1.0328587.950734-.6801752 1.438949-1.6374589 1.438949-2.8466593.051391-2.6955094-2.518161-3.5016429-4.496715-3.9299015-1.336166-.3778751-2.415377-.8061336-2.415377-1.63745892Zm18.728092-1.6626506c-1.053516-1.43592552-2.543855-2.14129245-4.496713-2.14129245-1.772991 0-3.26333.65498363-4.52241 1.93975912-1.25908 1.28477537-1.875772 2.84665925-1.875772 4.68565165 0 1.8641841.616692 3.4260679 1.875772 4.7108433 1.25908 1.2847755 2.749419 1.9145674 4.52241 1.9145674 1.952858 0 3.443197-.7053668 4.496713-2.1161007V32h2.775116V14.36582694h-2.775116v1.81380064Zm-6.963483 7.38116102c-.770865-.7809419-1.156297-1.7382256-1.156297-2.8970427s.385432-2.1161008 1.156297-2.87185102c.770866-.780942 1.747295-1.15881712 2.903594-1.15881712 1.156297 0 2.132726.37787512 2.903592 1.15881712.770865.75575022 1.156297 1.71303392 1.156297 2.87185102 0 1.1588171-.385432 2.1161008-1.156297 2.8970427-.770866.7557503-1.747295 1.1336255-2.903592 1.1336255-1.156299 0-2.132728-.3778752-2.903594-1.1336255Zm20.41182-2.4435925c0 2.4435925-1.310471 3.6276013-3.263329 3.6276013-1.77299 0-2.877897-1.0328588-2.877897-2.9222344v-7.45673606h-2.775115v7.73384446c0 3.2245345 1.978553 5.1894852 4.933537 5.1894852 1.824382 0 3.134853-.6549835 3.982804-1.939759v1.6122673h2.775116V14.36582694h-2.775116v6.75136916Zm15.142692-4.96276018c-1.053516-1.41073386-2.543856-2.11610079-4.496715-2.11610079-1.77299 0-3.26333.62979198-4.52241 1.91456735-1.259079 1.28477549-1.875771 2.84665942-1.875771 4.71084342 0 1.8389923.616692 3.4260679 1.875771 4.7108433 1.25908 1.2847755 2.74942 1.9145674 4.52241 1.9145674 1.952859 0 3.443199-.7053668 4.496715-2.1412924v1.8138007h2.775114V14.36582694h-2.775114v1.78860898Zm-6.963483 7.40635268c-.770866-.7809419-1.156298-1.7382256-1.156298-2.8970427s.385432-2.1161008 1.156298-2.87185102c.770865-.780942 1.747295-1.15881712 2.903592-1.15881712 1.156299 0 2.132728.37787512 2.903592 1.15881712.770866.75575022 1.156299 1.71303392 1.156299 2.87185102 0 1.1588171-.385433 2.1161008-1.156299 2.8970427-.770864.7557503-1.747293 1.1336255-2.903592 1.1336255-1.156297 0-2.132727-.3778752-2.903592-1.1336255Zm13.896138-9.19496166h-2.775114V26.9616649h2.775114v-6.3483024c0-1.2847754.385433-2.2168674 1.181993-2.77108432.796562-.57940856 1.7216-.8313253 2.775116-.75575023v-2.9474261c-1.927163 0-3.26333.780942-3.957109 2.34282589v-2.1161008Zm17.325455 7.45673606c.077086-.4786418.102782-.856517.102782-1.1336254 0-1.8389923-.616692-3.42606798-1.824381-4.71084335-1.207689-1.28477549-2.74942-1.93975912-4.625192-1.93975912-1.978554 0-3.623067.62979198-4.882147 1.91456735-1.25908 1.25958384-1.901467 2.82146772-1.901467 4.71084342 0 1.9145674.642387 3.5016429 1.927163 4.7612267 1.284775 1.2343921 2.980679 1.864184 5.062015 1.864184 2.492465 0 4.368237-.9069003 5.627317-2.7458927l-2.286901-1.3099671c-.74517 1.0328587-1.850076 1.561884-3.314721 1.561884-2.132726 0-3.700152-1.0580504-4.111281-2.9726178h10.226813Zm-10.252508-2.2168675c.385432-1.91456734 1.82438-3.09857611 3.880021-3.09857611 1.824382 0 3.289026 1.0580504 3.674459 3.09857611h-7.55448Z"/><g transform="translate(113 16)"><mask id="b" fill="currentColor"><use xlink:href="#a"/></mask><path fill="currentColor" fill-rule="nonzero" d="M9.84557312 6.49974307c0 1.84833393-1.49782608 3.34621922-3.34505929 3.34621922-1.84826087 0-3.34660079-1.49788529-3.34660079-3.34621922 0-1.84782007 1.49833992-3.34570536 3.34608696-3.34570536S9.84557312 4.651923 9.84557312 6.49974307M6.50051383-.00051385C2.9098419 0-.00051383 2.91047077-.00051383 6.50025693c0 3.58978617 2.91035573 6.50025697 6.5 6.50025697 3.58964423 0 6.50000003-2.9104708 6.50000003-6.50025697C12.9994862 2.91047077 10.0891304 0 6.49948617 0" mask="url(#b)"/></g><path fill="currentColor" fill-rule="nonzero" d="M25.8184947 15.5862584c3.9585246 0 7.1688561 3.22682172 7.1688561 7.2068708h-.0005306C32.9868202 26.7731783 29.7775499 30 25.8179641 30c-3.9585246 0-7.1683255-3.2268217-7.1683255-7.2068708 0-3.98004908 3.2098009-7.2068708 7.1688561-7.2068708ZM7.90059947 10c5.54724073 0 9.55564483 3.97364771 9.55511413 9.44948256 0 5.59639394-4.1081631 9.81702764-9.55564476 9.81702764H.36613699C.16343506 29.2665102 0 29.101675 0 28.8978982V10.36807852C0 10.16536862.1639657 10 .36613699 10h7.53446248Zm.04563447 3.68932039H3.75263883V25.5729222h4.19359511c3.86990876 0 5.63267266-3.0790568 5.63267266-5.94046728 0-3.49887976-2.3162144-5.94313453-5.63267266-5.94313453ZM24.0965262 21.2096015c-.137219.1567961-.2431941.3415865-.3082346.545973l-1.214089 3.7362638c-.1103717.347274.2149065.6769444.5592875.5622532l3.7170864-1.2194601c.2350706-.0789502.4467933-.2107116.6181878-.3819482.170864-.1728368.3019304-.3851488.3799335-.6219993l1.2130278-3.7367972c.1146168-.3462072-.2133146-.67321029-.5587569-.56225328l-3.7165558 1.22052708c-.2377237.0768163-.4478545.2091112-.6187184.3814147l-.0711683.0760263Zm82.0418118-4.88985329c-1.961752 0-3.440627.87912088-4.22278 2.18019845-.591126-1.38376187-1.822195-2.18019845-3.4788324-2.18019845-1.5388367 0-2.6032871.56171984-3.3000086 1.68729329l.0079595-1.32081511c.0021225-.25285394-.2440914-.43209217-.4828764-.3520751l-2.7539869.92393043c-.1496386.05014403-.2504589.19097408-.2504589.34940788v11.2904086c0 .2037768.1644963.368612.3666676.368612h2.768314c.202702 0 .3666677-.1653686.3666677-.3680785V21.942281c0-1.7507735.7715408-2.66083429 2.2392726-2.66083429 1.4396082 0 2.189393.88018779 2.189393 2.57174859v7.0447029c0 .2037768.1644964.368612.3666677.368612h2.7608851c.202702 0 .366668-.1653686.366668-.3680785v-7.1071162c0-1.5758029.822481-2.51040224 2.276417-2.51040224 1.478344 0 2.140574.81830794 2.140574 2.87528004v6.7411715c0 .2037768.163966.3686119.366137.3686119h2.768845c.202171 0 .366137-.1653686.366137-.3680785v-6.8233223c0-3.6567801-1.842359-5.75589458-4.861662-5.75589458m-54.8298106 2.9414275h2.8601136c.1575981 0 .2971547-.10135495.3475648-.25178704l.7317434-2.20313667c.0790643-.23898432-.0976366-.4854369-.3480955-.4854369h-3.5913263v-3.18201216c0-.25178705-.2451526-.42942494-.4828763-.34940787l-2.768314.92926491c-.1496386.05014403-.2504589.19097407-.2504589.34940787v8.80401154c0 4.4910914 1.8747275 6.5117892 6.0608937 6.4211032l.1087798-.0021338c.1655576-.0042676.3008691-.1066895.350218-.2571216l.817706-2.461325c.0742886-.2240478-.1008204-.4977062-.3725046-.4785021-2.8447252.1973754-3.4634437-.9057933-3.4634437-3.2220207v-3.61143712.00053344Zm-5.0224443 7.76432308-1.7043943-1.7166329c-.1406178-.1413635-.3687901-.1520324-.5147143-.0160034-.5592875.5238451-1.5160194 1.099968-2.6913722 1.099968-2.3501749 0-3.596102-1.8030513-3.596102-3.7010562 0-1.8430599 1.1567807-3.50368083 3.596102-3.50368083 1.0591441 0 2.0323256.50677477 2.599042.95967143.143271.1136242.3597694.1077563.489244-.0213379l1.7245582-1.71876669c.1729865-.17230343.1098411-.4288915-.0175109-.53451403-.8521971-.70788435-2.5417336-1.82812334-4.921624-1.82812334-3.9043999 0-6.810148 2.92062307-6.810148 6.71823326 0 3.8701589 2.742313 6.7726448 6.810148 6.7726448 2.6781064 0 4.4201756-1.3256161 5.0495067-2.003094.1326583-.1434973.1252294-.3680785-.0127352-.5067748m21.4917106 2.5152079c2.5969195.0021292 4.5167508-1.4611163 4.6377352-3.6274452.1252295-2.2324762-1.3366653-3.8002773-4.3172327-4.5967139-1.2655604-.357943-1.7298646-.7590953-1.6900671-1.44937588.0397975-.68494613.700436-1.11223728 1.6943122-1.06049291.9822023.05227782 1.9124025.54464953 2.4743432.93459938.191028.13282834.4812844.07841673.5730839-.19737544l.6144734-1.84999466c.0504102-.15203244-.0021225-.32273552-.1342502-.41235464-1.193925-.80817241-2.8012133-1.23759735-3.9351767-1.23759735-2.5905518 0-4.4785452 1.48618372-4.6058972 3.67171663-.1257601 2.17806467 1.2724587 3.57462927 4.2556792 4.40734027 1.2650299.3856822 1.6927203.7649632 1.6539841 1.5416622-.0355525.6988157-.7174163 1.1373093-1.659821 1.0914328-1.2639686-.0645471-2.6054096-1.0572922-3.0644075-1.4109677-.1522917-.1173583-.3502179-.0352075-.4006281.1173584l-.7471317 2.25008c-.0525327.1568335.0053063.332871.143271.424624 1.4645479.9719406 2.9577501 1.4024325 4.50773 1.4029659m10.7718564.0005381c2.5974501.0021292 4.5172814-1.4611163 4.6382658-3.6274452.1252295-2.2324762-1.3366653-3.8002773-4.3177633-4.5967139-1.2650298-.357943-1.7298646-.7590953-1.6895365-1.44937588.0397975-.68494613.700436-1.11223728 1.6943122-1.06049291.9816716.05227782 1.9124025.54464953 2.4743432.93459938.1910279.13282834.4812844.07841673.5730839-.19737544l.6144734-1.84999466c.0498796-.15203244-.0021225-.32273552-.1342502-.41235464-1.1944556-.80817241-2.8017439-1.23759735-3.9357073-1.23759735-2.5900213 0-4.4785452 1.48618372-4.6053666 3.67171663-.1262907 2.17806467 1.2724587 3.57462927 4.2556792 4.40734027 1.2650298.3856822 1.6927203.7649632 1.6539841 1.5416622-.0355525.6988157-.7174163 1.1373093-1.6598211 1.0914328-1.2639685-.0645471-2.6054095-1.0572922-3.0644074-1.4109677-.1522917-.1173583-.350218-.0352075-.4006281.1173584l-.7471317 2.25008c-.0530634.1568335.0053063.332871.143271.424624 1.4645479.9719406 2.9577501 1.4024325 4.50773 1.4029659m-21.2598239-.6417369c0 .2037768.1644963.368612.3666676.368612h2.7688447c.2021713 0 .366137-.1653686.366137-.3680785V16.6851595c0-.25178705-.2451526-.42942494-.4828763-.34994132l-2.7683141.9303318c-.1491079.05014403-.2504589.19097408-.2504589.34940788V28.8978982Zm3.7600677-16.15864716c0 1.11543796-.8994235 2.0201643-2.0089777 2.0201643-1.1095543 0-2.0089778-.90472634-2.0089778-2.0201643 0-1.11490451.8994235-2.01963085 2.0089778-2.01963085 1.1095542 0 2.0089777.90419289 2.0089777 2.01963085m24.303006 16.15864716c0 .2037768.1639657.368612.366137.368612h2.7688446c.2021713 0 .3666676-.1653686.3666676-.3680785V16.6851595c0-.25178705-.2456832-.42942494-.4828763-.34994132l-2.768314.9303318c-.1496386.05014403-.2504589.19097408-.2504589.34940788V28.8978982Zm3.7600677-16.15864716c0 1.11543796-.8999541 2.0201643-2.0095084 2.0201643-1.1090236 0-2.0089778-.90472634-2.0089778-2.0201643 0-1.11490451.8994235-2.01963085 2.0089778-2.01963085 1.1095543 0 2.0095084.90419289 2.0095084 2.01963085"/></g></svg>
