<svg xmlns="http://www.w3.org/2000/svg" viewBox="0 0 705 40"><path d="M704.954879 29.0264436v-.0324426l-.255637-2.1736043c-.026756-.1935478-.179512-.3377207-.360901-.3406248-.030847-.0025734-.061811.002986-.090222.0161988-.027435.0179838-.058272.0290724-.090222.0324426-.52831.2164614-1.088978.3264274-1.654111.3244259-.543717.0587778-1.082104-.1567611-1.458624-.5839487-.330473-.5832332-.478103-1.2657363-.421043-1.9465107v-4.8338296h3.458589c.182487-.0148196.325205-.1757669.330825-.3730808v-2.1898212c-.009108-.2081379-.167736-.3721197-.3609-.3730808h-3.413481v-3.1955236c-.020674-.1995544-.174811-.3519662-.360901-.3571233h-2.571385c-.093745-.0019816-.184468.0360869-.252168.106072-.0677.0699852-.106817.1661408-.108729.2672681v3.1630765h-1.984932c-.096098-.0013661-.188631.039211-.256589.1125173-.067958.0733068-.105574.1731228-.104307.2767848v2.1573786c-.00484.1873197.115579.3514014.285708.3893021h2.060124v5.4664468c0 1.7194125.360897 2.9846287 1.097724 3.8119149.736827.8272861 1.849575 1.2490129 3.353346 1.2490129.612012.0055759 1.22257-.0651831 1.819517-.2108679.398041-.0911363.786123-.2270541 1.157878-.4055235.132842-.0528827.222265-.1879222.225562-.3406247v-.0161988c-.045122.0161808-.045122.0161808-.045122-.000036h.000001Zm-62.348927-2.895134c-.063289-.0925254-.111465-.1945894-.142713-.3023455-.047572-.2546017.174429-.4773815.301284-.6842481.14227-.2246121.269411-.4585212.380572-.7001612.747261-1.4762394 1.107445-3.119179 1.046574-4.7738321-.019481-1.1981882-.250333-2.3834394-.681856-3.5008104-.403481-1.0232168-.977211-1.9702328-1.696714-2.8006493-.652998-.7670816-1.430347-1.4180427-2.299283-1.9254477-.915933-.5559977-1.918243-.9540248-2.965285-1.1775427-1.107669-.2486253-2.247003-.32377376-3.377572-.2227797-2.321252.1664216-4.510312 1.146506-6.184281 2.7688229-1.679547 1.6286672-2.720555 3.8083431-2.933571 6.1423458-.113897 1.1600042-.044324 2.3307848.206144 3.4689842.256413 1.1103185.695887 2.1698425 1.300272 3.1348123.595011.9385743 1.352171 1.7630497 2.235866 2.4346466.872268.6564215 1.847695 1.1619831 2.885997 1.4958058.567767.1869961 1.151748.3201851 1.744283.3978201.561425.0851166 1.129024.1223803 1.696715.1113921.541458-.0161167 1.081518-.0639378 1.617422-.1432184.298802-.0429832.595196-.1014063.887999-.1750359.237859-.0636571.507428-.1113921.602573-.3659938.046387-.2054271-.000044-.4209252-.126856-.5887735-.110998-.2386929-.237858-.4773814-.348857-.7160744-.222-.4296464-.428144-.8752015-.650136-1.3048346-.052772-.1231732-.157347-.2164529-.285431-.2546017-.120885-.0265562-.246577-.0210795-.364714.0158911-.142713.0318263-.285431.047735-.428144.0795658-.594654.079564-1.197201.079564-1.791855 0-2.289351-.3040592-4.248672-1.7983632-5.153583-3.9304525-.446279-1.0588874-.615487-2.2146602-.491561-3.3576141.131553-1.1280569.552232-2.2026351 1.220998-3.1189035 1.361895-1.860101 3.591517-2.8732826 5.882998-2.6733441 1.049235.0909946 2.061056.4349099 2.949427 1.0025024 1.77593 1.1361036 2.897521 3.06135 3.012858 5.1716654.057682 1.0140264-.121508 2.0275532-.523285 2.9597764-.378588.8916805-.953202 1.6859086-1.680857 2.3232678-.109505.0767358-.196998.1809968-.253716.3023411-.034841.109686-.029213.2282878.015858.3341542l1.871156 3.7236079c.095145.1909535.190286.4773814.380571.5887735.145448.0599275.303672.0818303.459855.0636571h2.870145c.164182.0029857.317532-.0819689.402497-.2229811.084965-.1410117.088695-.3167526.009789-.461267-.174428-.350085-.364714-.684248-.539142-1.0343286l-1.06244-2.0845926h-.000001Zm16.935418-.5728559 2.299283-8.5451618c.047561-.1619059.19652-.2723939.364714-.2705879h2.759142c.208992.0029282.377722.1722503.380571.3819756.002545.0378353-.002857.0757855-.015857.1113921l-4.011855 12.1096248c-.064255.1351073-.199684.2215928-.348861.2227842h-2.616424c-.149177-.0011892-.284608-.0876755-.348861-.2227842l-2.806714-8.2428162-2.695712 8.2587338v.0158911c-.062519.127111-.191731.2073822-.332986.2071195h-2.568873c-.155176.0031941-.295373-.0927311-.348857-.2389503l-4.027712-12.2210081c.002849-.2097252.171579-.3790474.380571-.3819623h2.854287c.137446.0130587.257928.0976907.317151.2228352l2.267558 8.5769881 2.64814-8.5610705c.060751-.1403629.196458-.2332154.348856-.2387528h2.37857c.149175.0012503.284603.0877345.348857.2228396l2.775012 8.5929101Zm15.920564-7.160757c-.416956-.6542809-1.003485-1.1823585-1.696715-1.5276276-.738183-.3690352-1.553951-.5545879-2.378553-.5410208-1.126861-.0119643-2.231466.3150376-3.171428.9388541-.93118.6257636-1.680707 1.4877247-2.172431 2.4983081-.515663 1.0654024-.776296 2.2369188-.761139 3.4212447v.2705192c.007482 1.1479063.273083 2.2793105.777001 3.309857.470005.9806685 1.20659 1.8080974 2.124854 2.3869161.910372.559808 1.961196.8469008 3.028715.8274664.718401.0134796 1.433189-.1051725 2.108997-.350085.876022-.3243547 1.625994-.9208632 2.140712-1.702668l.031715 1.3048347c.028213.1898707.189294.3313057.380572.3341542h2.584709c.208993-.0028591.377724-.1721839.380571-.3819113V17.1246707c-.002849-.2097252-.171579-.3790474-.380571-.3819069h-2.584709c-.186129.0017904-.345258.1348659-.380572.3182632v.0159131l-.031728 1.3207566Zm-.761139 2.1800539c1.191874 1.5506366 1.158993 3.721727-.079288 5.2353003-.641581.661308-1.522269 1.0343313-2.441998 1.0343313-.919729 0-1.800416-.3730233-2.441998-1.0343313-.583719-.6543419-.920384-1.4933259-.951429-2.3710029-.099631-1.0680848.238127-2.1308722.935572-2.9438632.630043-.6875821 1.52755-1.0652757 2.457858-1.0343287.962671-.0183595 1.884693.3889864 2.521283 1.1138945Zm9.752139-3.5008105c-.028214-.1898693-.189295-.3313035-.380571-.3341542h-2.600571c-.208993.0028595-.377723.1721817-.380572.3819069v12.0618854c.002849.2097266.171578.3790501.380572.3819113h2.743284c.168194.0018765.317155-.108612.364714-.2705192v-6.6356448c-.050685-.8528026.195997-1.696719.697713-2.3869161.48374-.5706431 1.204856-.8824606 1.950408-.8433752 1.522287 0 2.283429 1.0025042 2.283426 3.0075115v6.8743157c.051615.1590163.198083.2676557.364714.2706133h2.743284c.101338.0012465.198917-.0385602.270579-.1104753.071663-.0719147.111329-.169836.110086-.2715301v-7.3994366c0-1.7663206-.396523-3.1189035-1.189381-4.0418445-.792858-.9388542-1.950408-1.4003224-3.456855-1.4003224-.806004-.0156585-1.604418.1587567-2.331002.5092121-.64525.3326472-1.179796.8469481-1.538144 1.4798882l-.031684-1.273026Zm-106.3321 13.9223191V20.1697277s-.05216-.4896587-.283154 0l-3.725707 10.7850844v.0444471h-4.94774v-.0444471l-3.725707-10.7850844c-.238445-.4896587-.291351 0-.291351 0V31h-5.870969V10.0054208h5.610915c.811249-.04713289 1.570741.3977036 1.922465 1.1259927l4.470849 11.4977194s.141577.3555766.320411.3333531c.178834-.0222236.319665-.3333531.319665-.3333531l4.470849-11.4977194c.373821-.7296226 1.145541-1.17118087 1.967919-1.1259927H584v20.9938384h-5.879166Zm-34.105126 0v-6.6670623l-7.436512-14.3267761h6.713725l3.718256 8.0975175 2.906052 6.2299994-1.862854-8.5116162 2.667607-5.8159007h6.624307l-7.42906 14.3267761v6.6670623h-5.901521Zm-15.200886 0V20.1697277s-.059611-.4896587-.29135 0l-3.725707 10.7850844v.0444471h-4.909738v-.0444471l-3.725707-10.7850844c-.231739-.4896587-.290605 0-.290605 0V31H510V10.0054208h5.566207c.822114-.04488756 1.593463.3966258 1.967173 1.1259927l4.470849 11.4977194s.141577.3555766.320411.3333531c.178834-.0222236.320411-.3333531.320411-.3333531l4.470849-11.4977194c.379171-.7422995 1.169191-1.18609426 2.00443-1.1259927h5.566207v20.9938384h-5.871715Zm-77.284435 6.393006c-.574586 0-.972376-.4861879-.972376-1.2375691 0-1.5027624 1.59116-4.1104972 7.160221-6.1436464-1.944751 4.1546962-3.977901 7.3812155-6.187845 7.3812155m-26.651934-.5303867c2.033149-5.9668509 4.331492-11.3591161 6.718232-16.2651934 2.696133 4.9944751-1.104972 13.9226519-6.497238 16.1325967l-.220994.1325967Zm-37.21547-6.1436465c4.375691 0 8.486188-2.5635359 11.62431-10.9613259 3.18232-7.7348067 4.994475-13.12707185 7.779005-13.12707185 1.060774-1.7679558-.220994-3.35911602-1.458563-3.35911602-10.961326-.22099447-19.801105 0-19.801105 4.86187846 0 2.20994471 1.767956 3.53591161 3.668508 2.69613261C387 6.32044199 394.116022 5.92265193 401.541436 5.96685083c-2.121547 2.87292818-4.154696 7.73480667-5.96685 12.99447517-2.254144 6.2320442-4.41989 9.1933701-7.955801 9.1933701-3.049724 0-5.171271-2.9613259-5.524862-8.1325967C379.707182 20.5524862 379 21.9668508 379 23.6906077c0 4.2872929 4.508287 7.0276243 8.662983 7.0276243m20.331492-14.0552486c.883978-1.7679558 2.033149-3.0055248 2.872928-3.0055248.39779 0 .662984.4861878.662984 1.1049723 0 .5303868-1.060774 1.2375691-3.270719 1.8121547l-.265193.0883978ZM451.39779 40c4.729282 0 7.867403-5.2154696 10.254144-11.1823204 2.209945-.4861879 4.817679-.9281768 7.867403-1.2375691.353591-1.5911602-.883978-2.2983425-3.9779-1.8121547-1.016575.1767956-1.944752.3535912-2.872929.5303867 1.016575-2.5635359 1.856354-5.2154696 2.740332-7.4696132 1.812155-2.0331492 3.18232-4.0220995 3.18232-5.0828729 0-1.1933702-.883978-1.9447514-2.519337-1.9447514-1.19337 0-2.563536 3.2265193-4.154696 7.4254143-1.98895 1.679558-4.154696 3.1823205-5.392265 3.1823205-.132597 0-.220995-.1325967-.220995-.4861879 0-.9723757 1.988951-5.1712707 3.447514-7.3812154 1.104973-1.679558.707183-2.1657459-.39779-2.1657459-.662983 0-1.944751.3535912-2.696132 1.0607735-.839779.839779-1.591161 1.9889503-2.209945 3.2707182-3.580111 2.7403315-9.104973 5.2596685-10.872928 5.2596685-.353591 0-.530387-.1325967-.530387-.5745856 0-1.1049724.39779-2.6077348 1.060773-4.3314917 8.353592-3.5801105 11.138122-7.69060775 11.138122-10.25414367 0-2.82872928-1.458564-4.3756906-4.287293-4.3756906-2.519337 0-7.690608 6.89502762-10.121547 13.21546957-2.298342.8839779-4.906077 1.6353592-7.646409 2.1657459 2.872928-5.5690608 5.966851-10.47513813 9.281768-15.160221C443.618785 1.06077348 443.309392 0 442.337017 0c-1.414365 0-2.872929 1.01657459-4.0221 2.51933702-2.298342 3.04972375-5.082873 7.77900548-7.779005 12.81767958-2.82873 3.1381215-8 6.6298342-9.679558 6.6298342-.486188 0-.530387-.1325967-.530387-.5745856 0-2.2099448 2.121547-6.320442 4.552486-10.3425414 1.281768 0 2.519337-.0441989 3.491713-.1325967 2.696132-.1767956 4.198895-2.0331492.662983-2.12154699-.928177 0-1.856353-.04419889-2.740331-.04419889.39779-.70718232.883978-1.41436465 1.281768-2.03314918 1.104972-1.7679558-2.872929-1.85635359-4.464089.8839779-.220994.39779006-.486188.75138122-.662983 1.19337017-2.209945-.04419889-4.198895 0-6.01105.0441989-2.298342 0-3.624309 1.76795579-.751381 1.94475139 1.679558.1325967 3.58011.1767956 5.348066.2209945-1.104972 1.8121547-2.033149 3.359116-2.740331 4.6850828-3.093923 3.0939227-8.309393 6.2762431-10.872928 6.2762431-.486188 0-.662984-.1325967-.662984-.5745856 0-.7955801.132597-1.679558.353591-2.519337 4.861879-.7071823 6.674033-2.3425415 6.674033-3.4475138 0-2.0331492-1.325966-4.1546962-4.464088-4.1546962-2.342541 0-6.276243 5.2154696-6.276243 10.2983426 0 1.5911602 2.38674 3.2707182 4.198895 3.2707182 2.342541 0 6.187845-1.9889503 9.370166-4.640884-.044199.3535912-.044199.7513812-.044199 1.1491713 0 1.5911602 2.033149 3.4475138 3.933701 3.4475138 1.591161 0 4.464089-1.5469613 7.20442-3.9779005-3.403315 7.0276243-6.055248 13.6574585-6.055248 16 0 1.5911602 2.209945 2.7403314 3.005525 2.7403314 2.342541 0 6.320442-2.3425414 9.237569-7.4254143 2.077348-3.6243094 2.165746-9.5469613.707182-12.0662984 1.944751-.39779 3.624309-.9281768 5.21547-1.4585635-.309393 1.0607735-.39779 2.121547-.39779 3.0055249 0 1.3259668 2.033149 3.2265193 3.845303 3.2265193 2.209945 0 6.453039-2.0331492 9.812155-4.5524862-.132597.7071823-.220994 1.3259669-.220994 1.9447514 0 1.9447514 2.475138 3.0497238 3.270718 3.0497238 1.104972 0 2.563536-.7513813 4.154696-1.8563536-.441989 1.2817679-.972376 2.5635359-1.458564 3.8453038-7.911602 2.3425415-11.359116 5.7900553-11.359116 8.7955801 0 2.121547 2.121547 3.9337017 3.933702 3.9337017m-5.657459-26.6519337C448.038674 9.01657459 451 4.86187845 452.016575 4.86187845c.39779 0 .662983.48618785.662983 1.01657459 0 2.29834254-2.519337 5.08287296-6.850829 7.51381216l-.088398-.0441989ZM166 15.8921569l4.521527 4.3826757 1.336023 1.2816791 4.349947 4.2068359c0 .0103252.320632.2999499 0 .5996932l-4.3287 4.1859788h-2.671938c-1.763319 0-3.206859-1.3950509-3.206859-3.1010998V15.8921569Zm18.683718 4.5912025.018118.0150656L189 24.7333989v2.7172721c0 1.7040608-1.415092 3.0983486-3.144475 3.0983486H174.05l5.085095-5.009303 5.126671-5.0412916c.174373-.18089.363723-.0602622.421952-.0150656ZM185.832409 8C187.575038 8 189 9.40090479 189 11.1121431v11.5447196l-4.550472-4.4811338-1.055512-1.0368975-4.645393-4.5535623c-.221902-.2180106 0-.4362284 0-.4362284L182.971726 8h2.860683ZM180.95 8l-10.182611 10.014554c-.213216.209695-.38381.1253361-.468735.052267L166 13.839053v-2.6995872C166 9.41246168 167.43703 8 169.19229 8H180.95Zm26.012798 3.9726177c.719475-.7053669.719475-1.7634173.025696-2.44359251-.693779-.70536692-1.824381-.70536692-2.51816 0-.693779.68017521-.693779 1.73822561 0 2.44359251.719474.6801753 1.798686.6801753 2.492464 0Zm.154174 14.9890472v-12.595838h-2.775115v12.595838h2.775115Zm8.374101.3274917c2.492464 0 4.676582-1.2595838 5.781489-3.2749178L218.88288 22.67908c-.616692 1.1840088-1.901468 1.939759-3.417503 1.939759-1.130602 0-2.081336-.3778751-2.852201-1.1336254-.74517-.7557503-1.130603-1.6878423-1.130603-2.8214677 0-1.1336255.385433-2.0657174 1.130603-2.8214677.770865-.7557503 1.721599-1.1336254 2.852201-1.1336254 1.541731 0 2.775115.7305586 3.366112 1.939759l2.389682-1.3603504c-1.02782-1.9901424-3.237634-3.2497263-5.730098-3.2497263-1.927163 0-3.545981.629792-4.856451 1.9145674-1.284776 1.2595838-1.927164 2.8214677-1.927164 4.7108434 0 1.8641841.642388 3.4260679 1.927164 4.7108433 1.310471 1.2847755 2.929288 1.9145674 4.856451 1.9145674Zm13.079999 0c1.901468 0 3.494589-.6297919 4.80506-1.9145674 1.310471-1.2847754 1.978554-2.8466592 1.978554-4.7108433 0-1.864184-.668083-3.4260679-1.978554-4.7108434-1.310471-1.2847754-2.903592-1.9145674-4.80506-1.9145674-1.875772 0-3.494589.629792-4.80506 1.9145674-1.310471 1.2847755-1.978555 2.8466594-1.978555 4.7108434 0 1.8641841.668084 3.4260679 1.978555 4.7108433 1.310471 1.2847755 2.929288 1.9145674 4.80506 1.9145674Zm-2.852202-3.7787513c-.770865-.7557504-1.156298-1.713034-1.156298-2.8466594 0-1.1336255.385433-2.0909091 1.156298-2.8466594.770866-.7557502 1.721599-1.1336254 2.852202-1.1336254 1.130602 0 2.081336.3778752 2.852201 1.1336254.770866.7557503 1.156298 1.7130339 1.156298 2.8466594 0 1.1336254-.385432 2.090909-1.156298 2.8466594-.770865.7557502-1.721599 1.1336253-2.852201 1.1336253-1.130603 0-2.081336-.3778751-2.852202-1.1336253Zm17.72652-9.4720702c-1.824381 0-3.134852.6549837-3.982804 1.9397591v-1.6122673h-2.775114v12.595838h2.775114v-6.7513692c0-2.4435925 1.310471-3.6276012 3.26333-3.6276012 1.77299 0 2.877897 1.0328586 2.877897 2.9222343v7.4567361h2.775115v-7.7338445c0-3.2245345-1.978554-5.1894853-4.933538-5.1894853Zm13.045327 13.2508215c1.901468 0 3.494589-.6297919 4.80506-1.9145674 1.310471-1.2847754 1.978555-2.8466592 1.978555-4.7108433 0-1.864184-.668084-3.4260679-1.978555-4.7108434-1.310471-1.2847754-2.903592-1.9145674-4.80506-1.9145674-1.875772 0-3.494589.629792-4.80506 1.9145674-1.310471 1.2847755-1.978555 2.8466594-1.978555 4.7108434 0 1.8641841.668084 3.4260679 1.978555 4.7108433 1.310471 1.2847755 2.929288 1.9145674 4.80506 1.9145674Zm-2.852201-3.7787513c-.770866-.7557504-1.156298-1.713034-1.156298-2.8466594 0-1.1336255.385432-2.0909091 1.156298-2.8466594.770865-.7557502 1.721599-1.1336254 2.852201-1.1336254 1.130602 0 2.081336.3778752 2.852202 1.1336254.770865.7557503 1.156298 1.7130339 1.156298 2.8466594 0 1.1336254-.385433 2.090909-1.156298 2.8466594-.770866.7557502-1.7216 1.1336253-2.852202 1.1336253s-2.081336-.3778751-2.852201-1.1336253Zm13.623168-5.6681271c0-.8817086.822255-1.3351588 1.875772-1.3351588 1.156298 0 1.978554.4786418 2.415378 1.4359255l2.338292-1.2847755c-.899344-1.6374588-2.620942-2.6199343-4.75367-2.6199343-1.336167 0-2.466769.3526835-3.366112 1.0580504-.899343.705367-1.336166 1.637459-1.336166 2.7962761-.051391 2.6451259 2.543855 3.4008762 4.471018 3.879518 1.361863.3274918 2.441073.8061337 2.441073 1.6122673 0 .932092-.719473 1.4107339-2.184118 1.4107339-1.464643 0-2.415378-.6046003-2.852201-1.8138008l-2.389683 1.3603506c.822257 1.8389923 2.698029 2.947426 5.241884 2.947426 1.438949 0 2.620942-.3526834 3.571676-1.0328587.950734-.6801752 1.438949-1.6374589 1.438949-2.8466593.051391-2.6955094-2.518161-3.5016429-4.496715-3.9299015-1.336166-.3778751-2.415377-.8061336-2.415377-1.6374589Zm18.728092-1.6626506c-1.053516-1.4359255-2.543855-2.1412925-4.496713-2.1412925-1.772991 0-3.26333.6549837-4.52241 1.9397591s-1.875772 2.8466593-1.875772 4.6856517c0 1.8641841.616692 3.4260679 1.875772 4.7108433 1.25908 1.2847755 2.749419 1.9145674 4.52241 1.9145674 1.952858 0 3.443197-.7053668 4.496713-2.1161007V32h2.775116V14.3658269h-2.775116v1.8138007Zm-6.963483 7.381161c-.770865-.7809419-1.156297-1.7382256-1.156297-2.8970427s.385432-2.1161008 1.156297-2.871851c.770866-.780942 1.747295-1.1588171 2.903594-1.1588171 1.156297 0 2.132726.3778751 2.903592 1.1588171.770865.7557502 1.156297 1.7130339 1.156297 2.871851 0 1.1588171-.385432 2.1161008-1.156297 2.8970427-.770866.7557503-1.747295 1.1336255-2.903592 1.1336255-1.156299 0-2.132728-.3778752-2.903594-1.1336255Zm20.41182-2.4435925c0 2.4435925-1.310471 3.6276013-3.263329 3.6276013-1.77299 0-2.877897-1.0328588-2.877897-2.9222344v-7.4567361h-2.775115v7.7338445c0 3.2245345 1.978553 5.1894852 4.933537 5.1894852 1.824382 0 3.134853-.6549835 3.982804-1.939759v1.6122673h2.775116v-12.595838h-2.775116v6.7513692Zm15.142692-4.9627602c-1.053516-1.4107338-2.543856-2.1161008-4.496715-2.1161008-1.77299 0-3.26333.629792-4.52241 1.9145674-1.259079 1.2847755-1.875771 2.8466594-1.875771 4.7108434 0 1.8389923.616692 3.4260679 1.875771 4.7108433 1.25908 1.2847755 2.74942 1.9145674 4.52241 1.9145674 1.952859 0 3.443199-.7053668 4.496715-2.1412924v1.8138007h2.775114v-12.595838h-2.775114v1.788609Zm-6.963483 7.4063527c-.770866-.7809419-1.156298-1.7382256-1.156298-2.8970427s.385432-2.1161008 1.156298-2.871851c.770865-.780942 1.747295-1.1588171 2.903592-1.1588171 1.156299 0 2.132728.3778751 2.903592 1.1588171.770866.7557502 1.156299 1.7130339 1.156299 2.871851 0 1.1588171-.385433 2.1161008-1.156299 2.8970427-.770864.7557503-1.747293 1.1336255-2.903592 1.1336255-1.156297 0-2.132727-.3778752-2.903592-1.1336255Zm13.896138-9.1949617h-2.775114v12.595838h2.775114v-6.3483024c0-1.2847754.385433-2.2168674 1.181993-2.7710843.796562-.5794086 1.7216-.8313253 2.775116-.7557503v-2.9474261c-1.927163 0-3.26333.780942-3.957109 2.3428259v-2.1161008Zm17.325455 7.4567361c.077086-.4786418.102782-.856517.102782-1.1336254 0-1.8389923-.616692-3.426068-1.824381-4.7108434s-2.74942-1.9397591-4.625192-1.9397591c-1.978554 0-3.623067.629792-4.882147 1.9145674-1.25908 1.2595838-1.901467 2.8214677-1.901467 4.7108434 0 1.9145674.642387 3.5016429 1.927163 4.7612267 1.284775 1.2343921 2.980679 1.864184 5.062015 1.864184 2.492465 0 4.368237-.9069003 5.627317-2.7458927l-2.286901-1.3099671c-.74517 1.0328587-1.850076 1.561884-3.314721 1.561884-2.132726 0-3.700152-1.0580504-4.111281-2.9726178h10.226813Zm-10.252508-2.2168675c.385432-1.9145673 1.82438-3.0985761 3.880021-3.0985761 1.824382 0 3.289026 1.0580504 3.674459 3.0985761h-7.55448ZM25.8184947 15.5862584c3.9585246 0 7.1688561 3.2268217 7.1688561 7.2068708h-.0005306C32.9868202 26.7731783 29.7775499 30 25.8179641 30c-3.9585246 0-7.1683255-3.2268217-7.1683255-7.2068708s3.2098009-7.2068708 7.1688561-7.2068708Zm-1.7219685 5.6233431c-.137219.1567961-.2431941.3415865-.3082346.545973l-1.214089 3.7362638c-.1103717.347274.2149065.6769444.5592875.5622532l3.7170864-1.2194601c.2350706-.0789502.4467933-.2107116.6181878-.3819482.170864-.1728368.3019304-.3851488.3799335-.6219993l1.2130278-3.7367972c.1146168-.3462072-.2133146-.6732103-.5587569-.5622533l-3.7165558 1.2205271c-.2377237.0768163-.4478545.2091112-.6187184.3814147l-.0711683.0760263ZM7.90059947 10c5.54724073 0 9.55564483 3.9736477 9.55511413 9.4494826 0 5.5963939-4.1081631 9.8170276-9.55564476 9.8170276H.36613699C.16343506 29.2665102 0 29.101675 0 28.8978982V10.3680785C0 10.1653686.1639657 10 .36613699 10h7.53446248Zm.04563447 3.6893204H3.75263883v11.8836018h4.19359511c3.86990876 0 5.63267266-3.0790568 5.63267266-5.9404673 0-3.4988797-2.3162144-5.9431345-5.63267266-5.9431345Zm98.19210406 2.6304278c-1.961752 0-3.440627.8791209-4.22278 2.1801985-.591126-1.3837619-1.822195-2.1801985-3.4788324-2.1801985-1.5388367 0-2.6032871.5617198-3.3000086 1.6872933l.0079595-1.3208151c.0021225-.252854-.2440914-.4320922-.4828764-.3520751l-2.7539869.9239304c-.1496386.050144-.2504589.1909741-.2504589.3494079v11.2904086c0 .2037768.1644963.368612.3666676.368612h2.768314c.202702 0 .3666677-.1653686.3666677-.3680785V21.942281c0-1.7507735.7715408-2.6608343 2.2392726-2.6608343 1.4396082 0 2.189393.8801878 2.189393 2.5717486v7.0447029c0 .2037768.1644964.368612.3666677.368612h2.7608851c.202702 0 .366668-.1653686.366668-.3680785v-7.1071162c0-1.5758029.822481-2.5104022 2.276417-2.5104022 1.478344 0 2.140574.8183079 2.140574 2.87528v6.7411715c0 .2037768.163966.3686119.366137.3686119h2.768845c.202171 0 .366137-.1653686.366137-.3680785v-6.8233223c0-3.6567801-1.842359-5.7558946-4.861662-5.7558946m-54.8298106 2.9414275h2.8601136c.1575981 0 .2971547-.1013549.3475648-.251787l.7317434-2.2031367c.0790643-.2389843-.0976366-.4854369-.3480955-.4854369h-3.5913263v-3.1820121c0-.2517871-.2451526-.429425-.4828763-.3494079l-2.768314.9292649c-.1496386.050144-.2504589.1909741-.2504589.3494079v8.8040115c0 4.4910914 1.8747275 6.5117892 6.0608937 6.4211032l.1087798-.0021338c.1655576-.0042676.3008691-.1066895.350218-.2571216l.817706-2.461325c.0742886-.2240478-.1008204-.4977062-.3725046-.4785021-2.8447252.1973754-3.4634437-.9057933-3.4634437-3.2220207v-3.6114371.0005334Zm-5.0224443 7.7643231-1.7043943-1.7166329c-.1406178-.1413635-.3687901-.1520324-.5147143-.0160034-.5592875.5238451-1.5160194 1.099968-2.6913722 1.099968-2.3501749 0-3.596102-1.8030513-3.596102-3.7010562 0-1.8430599 1.1567807-3.5036808 3.596102-3.5036808 1.0591441 0 2.0323256.5067747 2.599042.9596714.143271.1136242.3597694.1077563.489244-.0213379l1.7245582-1.7187667c.1729865-.1723034.1098411-.4288915-.0175109-.534514-.8521971-.7078844-2.5417336-1.8281234-4.921624-1.8281234-3.9043999 0-6.810148 2.9206231-6.810148 6.7182333 0 3.8701589 2.742313 6.7726448 6.810148 6.7726448 2.6781064 0 4.4201756-1.3256161 5.0495067-2.003094.1326583-.1434973.1252294-.3680785-.0127352-.5067748m21.4917106 2.5152102c2.5969195.0021269 4.5167508-1.4611186 4.6377352-3.6274475.1252295-2.2324762-1.3366653-3.8002773-4.3172327-4.5967139-1.2655604-.357943-1.7298646-.7590953-1.6900671-1.4493759.0397975-.6849461.700436-1.1122373 1.6943122-1.0604929.9822023.0522778 1.9124025.5446495 2.4743432.9345994.191028.1328283.4812844.0784167.5730839-.1973754l.6144734-1.8499947c.0504102-.1520324-.0021225-.3227355-.1342502-.4123546-1.193925-.8081725-2.8012133-1.2375974-3.9351767-1.2375974-2.5905518 0-4.4785452 1.4861837-4.6058972 3.6717166-.1257601 2.1780647 1.2724587 3.5746293 4.2556792 4.4073403 1.2650299.3856822 1.6927203.7649632 1.6539841 1.5416622-.0355525.6988157-.7174163 1.1373093-1.659821 1.0914328-1.2639686-.0645471-2.6054096-1.0572922-3.0644075-1.4109677-.1522917-.1173583-.3502179-.0352075-.4006281.1173584l-.7471317 2.25008c-.0525327.1568335.0053063.332871.143271.424624 1.4645479.9719406 2.9577501 1.4024325 4.50773 1.4029659m10.7718564.0005404c2.5974501.0021269 4.5172814-1.4611186 4.6382658-3.6274475.1252295-2.2324762-1.3366653-3.8002773-4.3177633-4.5967139-1.2650298-.357943-1.7298646-.7590953-1.6895365-1.4493759.0397975-.6849461.700436-1.1122373 1.6943122-1.0604929.9816716.0522778 1.9124025.5446495 2.4743432.9345994.1910279.1328283.4812844.0784167.5730839-.1973754l.6144734-1.8499947c.0498796-.1520324-.0021225-.3227355-.1342502-.4123546-1.1944556-.8081725-2.8017439-1.2375974-3.9357073-1.2375974-2.5900213 0-4.4785452 1.4861837-4.6053666 3.6717166-.1262907 2.1780647 1.2724587 3.5746293 4.2556792 4.4073403 1.2650298.3856822 1.6927203.7649632 1.6539841 1.5416622-.0355525.6988157-.7174163 1.1373093-1.6598211 1.0914328-1.2639685-.0645471-2.6054095-1.0572922-3.0644074-1.4109677-.1522917-.1173583-.350218-.0352075-.4006281.1173584l-.7471317 2.25008c-.0530634.1568335.0053063.332871.143271.424624 1.4645479.9719406 2.9577501 1.4024325 4.50773 1.4029659m-21.2598239-.6417369c0 .2037768.1644963.368612.3666676.368612h2.7688447c.2021713 0 .366137-.1653686.366137-.3680785V16.6851595c0-.251787-.2451526-.4294249-.4828763-.3499413l-2.7683141.9303318c-.1491079.050144-.2504589.1909741-.2504589.3494079v11.2829403Zm3.7600677-16.1586472c0 1.115438-.8994235 2.0201643-2.0089777 2.0201643-1.1095543 0-2.0089778-.9047263-2.0089778-2.0201643 0-1.1149045.8994235-2.0196308 2.0089778-2.0196308 1.1095542 0 2.0089777.9041929 2.0089777 2.0196308m24.303006 16.1586472c0 .2037768.1639657.368612.366137.368612h2.7688446c.2021713 0 .3666676-.1653686.3666676-.3680785V16.6851595c0-.251787-.2456832-.4294249-.4828763-.3499413l-2.768314.9303318c-.1496386.050144-.2504589.1909741-.2504589.3494079v11.2829403Zm3.7600677-16.1586472c0 1.115438-.8999541 2.0201643-2.0095084 2.0201643-1.1090236 0-2.0089778-.9047263-2.0089778-2.0201643 0-1.1149045.8994235-2.0196308 2.0089778-2.0196308 1.1095543 0 2.0095084.9041929 2.0095084 2.0196308m33.7320748 9.7604921c0 1.8483339-1.497826 3.3462192-3.345059 3.3462192-1.848261 0-3.346601-1.4978853-3.346601-3.3462192 0-1.8478201 1.49834-3.3457054 3.346087-3.3457054 1.847747 0 3.345573 1.4978853 3.345573 3.3457054m-3.345059-6.500257c-3.590672.0005139-6.501028 2.9109847-6.501028 6.5007708 0 3.5897862 2.910356 6.500257 6.5 6.500257s6.5-2.9104708 6.5-6.500257c0-3.5897861-2.910356-6.5002569-6.5-6.5002569"/></svg>
