<svg xmlns="http://www.w3.org/2000/svg" viewBox="0 0 512 512"><circle cx="256" cy="256" r="256" fill="#6aa9ff"/><path fill="#4895ff" d="M512 256C512 115.39 396.61 0 256 0v512c140.61 0 256-115.39 256-256z"/><circle cx="256" cy="256" r="226" fill="#edf5ff"/><path fill="#d5e8fe" d="M482 256c0-124.072-101.928-226-226-226v452c124.072 0 226-101.928 226-226z"/><circle cx="128.721" cy="383.279" r="15" fill="#47568c"/><circle cx="383.279" cy="128.721" r="15" fill="#29376d"/><circle cx="128.721" cy="128.721" r="15" fill="#47568c"/><circle cx="383.279" cy="383.279" r="15" fill="#29376d"/><path fill="#47568c" d="M106 271H76c-8.291 0-15-6.709-15-15s6.709-15 15-15h30c8.291 0 15 6.709 15 15s-6.709 15-15 15z"/><path fill="#29376d" d="M436 271h-30c-8.291 0-15-6.709-15-15s6.709-15 15-15h30c8.291 0 15 6.709 15 15s-6.709 15-15 15z"/><path fill="#47568c" d="M241 76v30c0 8.291 6.709 15 15 15V61c-8.291 0-15 6.709-15 15z"/><path fill="#ff7b4a" d="M271 106V76c0-8.291-6.709-15-15-15v60c8.291 0 15-6.709 15-15z"/><path fill="#47568c" d="M256 391c-8.291 0-15 6.709-15 15v30c0 8.291 6.709 15 15 15s15-6.709 15-15v-30c0-8.291-6.709-15-15-15zm100.605-55.605L271 249.789V166c0-8.291-6.709-15-15-15s-15 6.709-15 15v90c0 3.984 1.582 7.793 4.395 10.605L256 277.211l79.395 79.395c5.859 5.859 15.352 5.859 21.211 0s5.859-15.352-.001-21.211z"/><path fill="#29376d" d="M271 106V76c0-8.291-6.709-15-15-15v60c8.291 0 15-6.709 15-15zm0 330v-30c0-8.291-6.709-15-15-15v60c8.291 0 15-6.709 15-15zm85.605-79.395c5.859-5.859 5.859-15.352 0-21.211L271 249.789V166c0-8.291-6.709-15-15-15v126.211l79.395 79.395c5.859 5.859 15.351 5.859 21.21-.001z"/></svg>
