<svg viewBox="0 0 444 260" fill="none"><path fill-rule="evenodd" clip-rule="evenodd" d="M177.835 212.946C176.209 211.216 174.875 209.857 173.609 208.437C168.812 203.057 164.922 197.083 162.047 190.471C161.586 189.412 161.02 189.027 159.852 189.048C155.705 189.123 151.554 189.088 147.405 189.073C143.743 189.062 141.804 187.233 141.696 183.596C141.623 181.16 141.62 178.719 141.699 176.284C141.816 172.705 143.732 170.915 147.314 170.91C150.307 170.904 153.301 170.909 156.486 170.909C155.737 162.758 155.869 154.826 157.621 146.735C156.705 146.735 155.999 146.735 155.294 146.735C118.523 146.735 81.752 146.737 44.981 146.733C39.974 146.733 36.263 143.81 35.356 139.184C34.285 133.722 38.458 128.503 44.073 128.289C44.643 128.268 45.214 128.282 45.784 128.282C84.734 128.282 123.682 128.273 162.632 128.316C164.069 128.317 164.826 127.859 165.535 126.632C170.321 118.351 176.603 111.389 184.318 105.726C184.722 105.429 185.109 105.106 185.46 104.414C184.829 104.414 184.197 104.414 183.566 104.414C153.9 104.414 124.235 104.433 94.569 104.369C92.757 104.365 90.797 104.046 89.164 103.305C85.292 101.549 83.371 97.117 84.346 93.01C85.309 88.95 89.068 85.971 93.314 85.967C106.383 85.953 119.453 85.961 132.522 85.961C156.431 85.961 180.339 85.949 204.248 85.994C205.649 85.996 206.329 85.654 206.799 84.259C209.227 77.043 212.762 70.381 217.189 64.19C217.6 63.615 218 63.031 218.596 62.178C217.619 62.134 216.929 62.074 216.239 62.074C181.543 62.069 146.847 62.09 112.151 62.017C110.199 62.013 108.066 61.618 106.337 60.76C102.616 58.914 100.901 54.49 101.958 50.584C103.11 46.326 106.627 43.639 111.121 43.639C153.026 43.634 194.932 43.631 236.837 43.658C238.188 43.659 239.32 43.347 240.476 42.649C251.218 36.164 262.845 32.555 275.39 31.734C311.878 29.345 344.544 53.322 354.813 88.103C355.398 90.085 355.941 92.09 356.327 94.118C356.531 95.187 356.967 95.658 357.994 96.018C380.739 103.981 395.845 119.524 402.537 142.597C413.308 179.732 392.159 217.831 356.178 228.446C350.534 230.11 344.764 231.059 338.888 231.091C312.349 231.237 285.81 231.376 259.271 231.4C206.786 231.446 154.3 231.42 101.815 231.38C100.245 231.378 98.568 231.161 97.123 230.585C93.044 228.961 90.914 224.714 91.724 220.336C92.486 216.225 96.219 213.1 100.558 212.947C101.024 212.932 101.491 212.943 101.958 212.943C126.437 212.943 150.916 212.943 175.396 212.943C176.056 212.946 176.719 212.946 177.835 212.946Z" fill="#2F39BF"/><path fill-rule="evenodd" clip-rule="evenodd" d="M79.692 189.078C69.121 189.078 58.55 189.08 47.978 189.077C43.703 189.075 41.895 187.306 41.877 183.084C41.866 180.648 41.836 178.211 41.91 175.777C41.997 172.914 44.021 170.924 46.893 170.922C68.812 170.904 90.732 170.903 112.652 170.924C115.527 170.926 117.594 173.002 117.684 175.961C117.768 178.757 117.77 181.56 117.687 184.356C117.604 187.144 115.31 189.068 112.183 189.074C104.928 189.088 97.672 189.079 90.418 189.079C86.843 189.078 83.268 189.078 79.692 189.078Z" fill="#2F39BF"/></svg>
