<svg xmlns="http://www.w3.org/2000/svg" xml:space="preserve" viewBox="0 0 513.067 513.067"><path fill="#415a6b" d="m261.652 512-8.533-46.933-96 32L162.452 512z"/><path fill="#344a5e" d="m280.852 321.067 9.6-8.533s34.133 29.867 21.333 40.533c-11.733 11.733-32-22.4-30.933-32z"/><path fill="#f7b64c" d="M285.119 321.067s5.333-3.2 5.333-5.333 3.2-6.4 6.4-11.733c4.267-5.333 10.667-9.6 12.8-11.733 2.133-2.133 9.6-16 12.8-18.133 2.133-2.133 5.333 0 6.4 0 1.067 1.067 0 4.267-1.067 7.467-1.067 3.2-10.667 14.933-11.733 17.067-1.067 2.133 1.067 3.2 4.267 4.267 3.2 0 17.067 1.067 21.333-2.133 4.267-2.133 5.333-2.133 8.533-2.133 2.133-1.067 14.933-8.533 18.133 0l-6.4 4.267s-7.467 4.267-11.733 6.4c-4.267 1.067-10.667 4.267-10.667 4.267s0 3.2 1.067 5.333-1.067 6.4-3.2 7.467c0 0 0 4.267-2.133 7.467-2.133 3.2-2.133 3.2-3.2 5.333-1.067 2.133-5.333 4.267-8.533 4.267-3.2 0-12.8 4.267-18.133 5.333-5.333 2.133-30.933 4.267-30.933 4.267s-9.601-23.471 10.666-32.004z"/><path fill="#415a6b" d="M290.452 312.533s-10.667 8.533 0 27.733c10.667 19.2 21.333 13.867 21.333 13.867s-33.067 27.733-48 33.067c-14.933 5.333-23.467 5.333-23.467 5.333l-7.467-51.2s20.267-8.533 26.667-9.6c6.4-1.067 6.4-6.4 10.667-7.467 5.334-1.066 20.267-11.733 20.267-11.733z"/><g fill="#344a5e"><path d="m237.119 402.133 6.4 32s5.333 49.067 11.733 56.533c3.2 4.267 4.267 13.867 5.333 21.333h13.867c-1.067-5.333-3.2-11.733-6.4-18.133-7.467-13.867-12.8-36.267-13.867-48s-7.467-117.333-10.667-132.267c-3.2-14.933-7.467-21.333-9.6-34.133-2.133-12.8-3.2-39.467-8.533-44.8-5.333-4.267-26.667-6.4-26.667-6.4s7.467 29.867 12.8 40.533c4.267 10.668 24.534 113.068 25.601 133.334z"/><path d="M213.652 278.4c0 1.067 0 1.067 1.067 2.133-1.067 0-1.067-1.066-1.067-2.133z"/></g><path fill="#ffd15c" d="m217.919 133.333 14.933 17.067s1.067 12.8 3.2 17.067c1.067 4.267-6.4 9.6-7.467 11.733-1.067 2.133 4.267 16 4.267 21.333 0 5.333-6.4 5.333-9.6 5.333 0 0 0 10.667-5.333 8.533 0 0 4.267 4.267 0 7.467-4.267 3.2 1.067 17.067-11.733 16-12.8-1.067-24.533-1.067-24.533-1.067l1.067 45.867-46.935-13.866-13.867-54.4s6.4-10.667 9.6-16c2.133-5.333 25.6-51.2 25.6-51.2l60.801-13.867z"/><path fill="#f7b64c" d="M181.652 236.8s6.4 1.067 14.933 1.067c-2.133-1.067-25.6-18.133-34.133-37.333 0 0 4.267 29.867 19.2 49.067V236.8z"/><path fill="#ced6e0" d="M249.919 475.733c-6.4 12.8-25.6 28.8-90.667 23.467l-44.8-230.4 35.2-13.867 10.667 4.267s6.4 5.333 8.533 9.6 6.4 5.333 6.4 5.333 6.4-14.933 6.4-22.4c0-6.4 23.467 6.4 23.467 6.4s2.133 4.267 5.333 11.733c1.067 1.067 2.133 4.267 3.2 9.6 0 1.067 0 1.067 1.067 2.133 1.067 2.133 1.067 4.267 2.133 7.467v4.267c0 1.067 0 2.133 1.067 3.2v4.267c0 1.066 0 2.133 1.067 3.2v6.4c1.067 3.2 1.067 6.4 2.133 9.6v1.067c1.067 5.333 2.133 11.733 3.2 18.133v2.133c1.067 3.2 1.067 6.4 2.133 8.533v6.4c0 1.067 0 2.133 1.067 3.2v2.133c0 1.067 0 2.133 1.067 3.2v2.133c0 1.067 0 2.133 1.067 3.2v1.067c0 1.067 0 2.133 1.067 3.2 0 2.133 1.067 4.267 1.067 5.333v5.333c0 2.133 0 3.2 1.067 5.333V403.2l6.4 32c4.265-1.067 6.398 22.4 10.665 40.533z"/><path fill="#adb3ba" d="M208.319 498.133c2.133-5.333 5.333-10.667 5.333-14.933 1.067-7.467-3.2-29.867-9.6-45.867-6.4-16-18.133-56.533-20.267-69.333-2.133-12.8-2.133-28.8-6.4-44.8s-4.267-33.067-4.267-33.067c0 6.4 1.067 26.667 3.2 33.067 2.133 6.4 6.4 44.8 6.4 44.8 2.133 16 14.933 55.467 21.333 70.4 6.4 14.933 8.533 39.467 8.533 44.8.001 2.133-2.132 9.6-4.265 14.933z"/><path fill="#344a5e" d="M169.919 512c3.2-13.867 6.4-37.333 6.4-52.267 0-23.467-11.733-52.267-11.733-52.267l-64-177.067s-37.333 13.867-55.467 21.333-22.4 17.067-22.4 17.067L47.252 512h122.667z"/><path fill="#415a6b" d="M116.585 216.533s-19.2 11.733-22.4 18.133c-3.2 6.4-3.2 18.133-3.2 18.133l12.8 7.467-9.6 8.533s82.133 152.533 84.267 189.867c0 0-10.667-62.933-18.133-96-7.467-33.066-43.734-134.399-43.734-146.133z"/><path fill="#ffd15c" d="M160.319 426.667h32s2.133 1.067 5.333 3.2c2.133 1.067 10.667 6.4 13.867 6.4 3.2 1.067 4.267 2.133 4.267 2.133l8.533 1.067s4.267 13.867-18.133 7.467l-12.8-5.333s9.6 5.333 10.667 7.467c2.133 2.133 10.667 6.4 12.8 7.467 1.067 1.067 6.4 3.2 7.467 4.267 1.067 1.067 10.667 0 11.733 5.333 1.067 4.267-5.333 4.267-5.333 4.267h-12.8s-2.133 7.467-5.333 6.4l-4.267-1.067s1.067 3.2 0 5.333-4.267 3.2-7.467 2.133l-3.2-1.067s1.067 6.4-7.467 4.267c-8.533-1.067-8.533-3.2-11.733-4.267-2.133 0-4.267-1.067-6.4-3.2-3.2-2.133-17.067-10.667-17.067-10.667s2.133-36.267 5.333-41.6z"/><path fill="#415a6b" d="M243.519 434.133c-1.067-2.133-19.2-55.467-20.267-75.733-2.133-21.333-14.933-71.467-26.667-93.867-7.467-13.867-4.267-21.333-1.067-26.667 2.133 0 5.333 1.067 8.533 1.067l5.333 8.533h5.333s14.933 49.067 21.333 85.333c5.335 35.201 5.335 88.534 7.469 101.334z"/><path fill="#adb3ba" d="M313.919 432s-25.6-2.133-30.933-7.467c-5.333-5.333-5.333-34.133 1.067-37.333 6.399-3.2 29.866 44.8 29.866 44.8z"/><path fill="#f7b64c" d="M266.985 382.933s-14.933-4.267-9.6-14.933l18.133 3.2s14.933 3.2 23.467 8.533c8.533 5.333 0 39.467 0 39.467s-2.133 2.133-9.6 2.133-14.933-1.067-19.2-3.2c-5.333-2.133-17.067-5.333-22.4-10.667C242.452 403.2 224.319 384 224.319 384s2.133-5.333 12.8 0c0 0 8.533 3.2 9.6 4.267l10.667 2.133h14.933c2.133-1.067 4.267-3.2 4.267-3.2s-6.401-2.133-9.601-4.267z"/><path fill="#344a5e" d="M294.719 393.6s8.533 38.4-10.667 30.933l58.667 37.333 14.933-44.8-62.933-23.466z"/><path fill="#ffd15c" d="M277.652 379.733s-1.067-2.133-6.4-3.2-14.933-5.333-18.133-6.4c-3.2-1.067-3.2-1.067-6.4-4.267s-17.067-19.2-17.067-19.2 3.2-3.2 5.333-1.067l-5.333-4.267s7.467-5.333 14.933 2.133c0 0 9.6 3.2 12.8 8.533l9.6 4.267 18.133 2.133 7.467-3.2s-7.467-3.2-7.467-9.6 7.467-5.333 11.733-3.2c4.267 3.2 3.2 4.267 8.533 5.333 5.333 1.067 9.6 3.2 10.667 5.333l1.067 2.133s-9.6 25.6-21.333 25.6c-10.666-1.064-18.133-1.064-18.133-1.064z"/><g fill="#f7b64c"><path d="m234.985 344.533 1.067 1.067 3.2 3.2 4.267 4.267 5.333 5.333c2.133 2.133 4.267 3.2 5.333 5.333l1.067 1.067 1.067 1.067c1.067 0 2.133 1.067 3.2 1.067 2.133 1.067 3.2 2.133 4.267 2.133l1.067 1.067s-1.067 0-1.067-1.067c0 0-1.067-1.067-2.133-1.067-1.067 0-1.067-1.067-2.133-1.067-1.067 0-2.133-1.067-3.2-1.067 0 0-1.067 0-1.067-1.067-1.067 0-1.067-1.067-1.067-1.067-2.133-1.067-4.267-3.2-6.4-5.333s-4.267-3.2-5.333-5.333c-1.067-1.067-1.067-2.133-2.133-2.133-1.067-1.067-1.067-2.133-2.133-2.133l-3.2-3.2c1.065 0-.002-1.067-.002-1.067z"/><path d="m241.385 344.533 1.067 1.067c1.067 1.067 2.133 2.133 3.2 4.267 1.067 1.067 2.133 3.2 4.267 5.333 2.133 1.067 4.267 3.2 6.4 5.333 1.067 1.067 2.133 2.133 3.2 2.133 1.067 1.067 2.133 1.067 3.2 2.133 2.133 1.067 4.267 2.133 6.4 2.133 2.133 1.067 3.2 1.067 4.267 1.067s2.133 1.067 2.133 1.067h-2.133c-1.066 0-3.2-1.067-4.267-1.067s-2.133-1.067-3.2-1.067-2.133-1.067-3.2-1.067c-2.133-1.067-4.267-3.2-6.4-4.267-1.067-1.067-2.133-2.133-3.2-2.133-1.067-1.067-2.133-2.133-3.2-2.133-1.067-1.067-2.133-2.133-2.133-3.2-1.067-1.067-1.067-2.133-2.133-2.133-1.067-2.133-2.133-3.2-2.133-4.267l-2.135-3.199z"/></g><path fill="#ffd15c" d="m424.852 181.333-29.867-3.2s-11.733 25.6-11.733 30.933c0 0 2.133 5.333 0 9.6s-11.733 12.8-12.8 17.067c-1.067 4.267 1.067 6.4 3.2 8.533 2.133 1.067 4.267 2.133 4.267 2.133s-6.4 9.6 0 11.733c0 0-4.267 1.067-2.133 6.4s-8.533 18.133 8.533 21.333c17.067 3.2 23.467 12.8 22.4 20.267-1.067 7.467-20.267 33.067-20.267 33.067-34.133 45.867 22.4 21.333 33.067 7.467l54.4-40.533L466.452 224l-41.6-42.667z"/><path fill="#ced6e0" d="M394.985 338.133 380.052 352l10.667-32s-19.2 16-27.733 30.933-27.733 80-23.467 110.933l4.267 32 83.2-158.933 10.667-24.533-42.668 27.733z"/><path fill="#415a6b" d="M388.585 316.8s-20.267 28.8-23.467 43.733c-3.2 14.933-23.467 60.8-24.533 85.333l-1.067 25.6s-5.333-60.8 6.4-92.8 33.067-60.8 33.067-60.8l9.6-1.066z"/><path fill="#344a5e" d="M471.785 512c-2.133-4.267-4.267-8.533-6.4-10.667-5.333-6.4-1.067-22.4-2.133-32-1.067-9.6 21.333-46.933 28.8-64 6.4-18.133 16-74.667 6.4-92.8-9.6-18.133-28.8-19.2-28.8-19.2s-48 38.4-72.533 58.667c-24.533 20.267-61.867 68.267-68.267 106.667-4.267 22.4-4.267 42.667-4.267 54.4l147.2-1.067z"/><path fill="#415a6b" d="m453.652 291.2 17.067 13.867s-32 16-58.667 38.4-57.6 57.6-64 70.4c0 0 22.4-48 59.733-81.067 36.267-33.067 45.867-41.6 45.867-41.6z"/><path fill="#f7b64c" d="M388.585 286.933c8.533 3.2 13.867 7.467 16 11.733 21.333-11.733 28.8-35.2 29.867-35.2-23.467 27.734-45.867 23.467-45.867 23.467z"/><path fill="#f3f3f3" d="m457.919 284.8 7.467 12.8c-9.6 7.467-21.333 16-35.2 23.467l-5.333-3.2S419.52 329.6 394.986 339.2c10.667-18.133 44.8-46.933 59.733-54.4 1.066-1.067 2.133-1.067 3.2 0z"/><path fill="#f3705a" d="M393.919 178.133s4.267 12.8 13.867 33.067c9.6 20.267 16 32 28.8 29.867 12.8-2.133 13.867-9.6 19.2-2.133 5.333 7.467-2.133 39.467 7.467 55.467s38.4 43.733 34.133 77.867l-5.333 34.133s18.133-16 20.267-41.6c2.133-25.6-4.267-38.4-6.4-75.733s-1.067-84.267-16-103.467-70.401-39.468-96.001-7.468z"/><ellipse cx="446.296" cy="249.553" fill="#ffd15c" rx="10.667" ry="17.068" transform="matrix(-.9313 -.3644 .3644 -.9313 770.9761 644.5713)"/><path fill="#415a6b" d="M405.652 378.667s11.733-51.2 50.133-51.2 38.4 33.067 36.267 50.133c-2.133 16-11.733 32-19.2 40.533-8.533 8.533-67.2 68.267-67.2 68.267s-12.8 14.933-25.6 9.6-48-42.667-51.2-50.133-11.733-18.133-18.133-23.467c-6.4-4.267-41.6-42.667-41.6-42.667s36.267-9.6 43.733-19.2c7.467-9.6 4.267-12.8 4.267-12.8s16 19.2 20.267 25.6 20.267 20.267 25.6 29.867c5.333 9.6 9.6 19.2 12.8 23.467 3.2 4.267 9.6 7.467 10.667 7.467s1.067-7.467 2.133-9.6c-.001-2.134 17.066-45.867 17.066-45.867z"/><path fill="#f3705a" d="M393.919 178.133s0 17.067 8.533 34.133 11.733 22.4 11.733 22.4-14.933-38.4-13.867-46.933"/><path fill="#f3f3f3" d="m404.585 297.6-28.8 22.4s9.6 17.067 7.467 24.533l-3.2 7.467s26.667-41.6 27.733-45.867c1.067-4.266-3.2-8.533-3.2-8.533z"/><path fill="#344a5e" d="M130.452 198.4s6.4 4.267 11.733-6.4c5.333-10.667 5.333-20.267 13.867-22.4 8.533-2.133 14.933 11.733 16 23.467h6.4s-1.067-13.867 7.467-20.267c7.467-6.4 30.933-13.867 35.2-18.133s12.8-4.267 12.8-4.267 16-8.533 6.4-25.6c-10.667-17.067-46.933-45.867-82.133-25.6-53.334 29.867-18.134 71.467-27.734 99.2z"/><g fill="#f3f3f3"><path d="M124.052 210.133s26.667 41.6 36.267 49.067c0 0-5.333-1.067-12.8 2.133-7.467 3.2-28.8 10.667-28.8 10.667s-1.067-36.267-3.2-43.733c-1.067-7.467 1.066-13.867 8.533-18.134zm55.467 32c-1.067-2.133-2.133-4.267-2.133-5.333 1.066 2.133 2.133 3.2 2.133 5.333z"/><path d="M201.919 252.8c1.067 2.133 6.4 8.533-13.867 26.667-4.267 4.267-12.8 3.2-14.933 11.733 0 0 0-11.733 1.067-17.067 1.067-5.333 7.467-18.133 4.267-30.933 0-2.133-1.067-4.267-2.133-5.333l11.733-1.067c3.2 0 5.333 1.067 7.467 2.133l13.867 13.867c1.065-1.067-7.468-2.133-7.468 0z"/></g><path fill="#415a6b" d="M13.119 312.533S9.919 268.8 30.186 265.6c21.333-3.2 35.2 55.467 38.4 72.533 2.133 17.067 2.133 59.733 0 61.867-2.133 2.133 5.333 10.667 6.4 13.867S88.852 412.8 95.252 416c6.4 3.2 12.8 9.6 16 9.6h51.2s-9.6 51.2-6.4 68.267c0 0-57.6-10.667-68.267-14.933-10.667-4.267-52.267-19.2-64-24.533-11.733-5.333-23.467-14.933-23.467-25.6s12.801-116.268 12.801-116.268z"/><path fill="#66c6b9" d="M320.319 56.533c0 32 37.333 56.533 84.267 56.533h1.067l57.6 30.933V97.067c14.933-10.667 24.533-24.533 24.533-40.533 0-32-37.333-56.533-84.267-56.533-44.8-.001-83.2 25.599-83.2 56.532z"/><g fill="#fff"><circle cx="449.385" cy="56.533" r="13.867"/><circle cx="404.585" cy="56.533" r="13.867"/><circle cx="360.852" cy="56.533" r="13.867"/></g><path fill="#f3705a" d="M409.919 100.267c0 32-37.333 56.533-84.267 56.533h-1.067l-57.6 30.933V140.8c-14.933-10.667-24.533-24.533-24.533-40.533 0-32 37.333-56.533 84.267-56.533 45.866-.001 83.2 25.599 83.2 56.533z"/><g fill="#fff"><circle cx="281.919" cy="100.267" r="13.867"/><circle cx="325.652" cy="100.267" r="13.867"/><circle cx="370.452" cy="100.267" r="13.867"/></g></svg>
