<svg xml:space="preserve" viewBox="0 0 189.716 189.715"><path d="M187.424 9.591c-.23-.796-.654-1.348-1.143-1.796-.801-1.615-2.7-2.829-4.654-2.492.079-2.258-1.876-4.538-4.649-3.888-28.502 6.67-57.763 13.548-85.697 22.334-20.285 6.38-40.499 13.419-60.588 20.403-8.648 3.006-20.83 5.617-28.202 11.506-1.481 1.183-1.568 2.957-.921 4.479-1.426.691-2.231 2.678-.869 4.321 9.391 11.326 23.315 32.505 39.864 35.662-1.916 25.01-3.824 52.236 5.963 75.725 1.154 2.769 4.143 3.818 6.541 1.727.908-.792 1.711-1.665 2.572-2.493 6.577.599 14.574-5.598 19.671-8.775 7.107-4.433 13.92-9.337 20.615-14.361 3.039-2.281 7.495-4.818 10.365-7.913 7.542 4.926 15.495 9.028 24.266 10.986 14.752 3.292 16.751-2.337 23.05-14.531 11.438-22.142 18.995-47.16 26.993-70.739 6.45-19.019 12.575-40.26 6.823-60.155zM49.894 135.85c-.359 4.843-1.363 11.589-1.303 18.059-2.941-17.475-1.879-35.726-2.659-53.432 2.51-.118 5.009-.612 7.491-1.357-1.266 12.235-2.619 24.469-3.529 36.73zM6.775 62.821C37.839 52.058 68.687 40.605 100.06 30.72c19.661-6.195 43.157-7.881 63.38-14.887-6.223 4.881-12.182 10.421-18.945 14.664-14.662 9.199-29.973 17.324-45.075 25.763-13.236 7.396-24.05 18.406-36.357 27.22-24.37 17.453-39.573-4.626-56.288-20.659zm134.766-13.265c-.123-.97-.242-1.941-.303-2.919-.076-1.241-.052-2.5-.034-3.755 4.412-2.407 8.758-4.864 12.878-7.5.673-.43 1.444-.903 2.256-1.397-2.808 3.01-5.652 5.998-8.561 8.979-2.114 2.168-4.156 4.395-6.236 6.592zm-4.036 4.266c-1.019 1.092-2.068 2.158-3.08 3.256-.536-3.165-1.356-6.311-2.028-9.476 1.441-.755 2.847-1.533 4.28-2.293-.195 2.977-.012 5.945.828 8.513zm-17.299 19.019c-1.73 1.969-3.516 3.892-5.225 5.879-.455-.921-1.87-1.298-2.676-.528-1.343-5.963-2.347-11.912-2.836-18.121 2.102-1.263 4.291-2.437 6.451-3.641-.271 5.888-.05 16.03 4.286 16.411zm-.379-9.64c-.368-2.867-.403-5.757-.603-8.633 3.171-1.72 6.375-3.402 9.579-5.077.108 3.974.732 8.015 2.208 11.362-2.747 3.016-5.504 6.025-8.212 9.075-.251-.235-.563-.406-.943-.427-1.382-.08-1.909-5.359-2.029-6.3zm-10.368 21.994c-3.33 3.978-6.637 7.977-9.865 12.042-.021-.002-.04-.008-.062-.01-.206-1.111-.477-2.186-.621-3.315-.381-3.005-.476-6.049-.58-9.073-.176-5.085-.13-10.177-.307-15.262-.024-.701-.463-1.048-.963-1.214 2.955-2.251 6.089-4.329 9.286-6.344.01 7.799 1.055 15.665 3.112 23.176zm-15.053 8.717c.057 1.636.908 5.173 2.29 7.022-1.961 2.515-3.984 4.976-5.901 7.528.016-4.581-.712-9.334-1.092-13.633-.538-6.074-1.081-12.321-2.552-18.291 2.632-2.29 5.162-4.488 7.516-6.394.16-.13.338-.243.499-.372-.361 8.047-1.041 16.079-.76 24.14zm-13.311 31.504c.337.247.674.513 1.011.763-1.05.955-1.99 2.008-2.882 3.101-1.996-14.341-1.061-28.519-2.269-42.865-.033-.389-.212-.656-.419-.878 2.682-2.155 5.261-4.365 7.768-6.534.954 5.945 1.221 12.04 1.355 18.006.129 5.744-.827 12 .538 17.63-1.248 1.721-2.583 3.365-3.807 5.107-.054.077-.053.157-.099.234-2.33.217-3.603 3.67-1.196 5.436zM56.661 162.33c-.343-21.569 2.075-43.377 1.243-64.858 5.567-2.395 10.985-6.01 16.152-9.988-.058.605-.112 1.216-.169 1.825-.096.689-.143.724-.179 1.933-1.146 12.967-1.758 26.689.984 39.29.303 1.391 1.379 1.823 2.41 1.633-1.996 2.917-3.765 6.035-5.647 9.055-.776 1.244-1.609 2.45-2.399 3.688.707-7.046-.212-14.851-.133-21.417.116-9.575-1.033-19.271-1.102-28.658-.006-.889-1.318-.875-1.369 0-.551 9.403-2.192 19.059-2.562 28.658-.331 8.602-2.658 19.625-.172 28.019.101.34.328.533.531.757-2.395 3.46-4.896 6.84-7.588 10.063zm37.598-19.07c-5.531 4.392-11.187 8.636-16.91 12.774-3.798 2.746-7.719 5.294-11.702 7.748 2.675-3.509 5.226-7.125 7.706-10.837 4.681-7.008 10.915-14.74 14.042-22.776 3.874 2.977 7.788 6.009 11.781 8.926-1.716 1.364-3.334 2.907-4.917 4.165zm63.74-36.783c-6.55 16.884-8.455 44.037-30.218 39.329-13.94-3.016-27.052-14.491-39.323-22.633 29.816-36.271 62.53-69.914 92.454-105.858 4.498 29.039-12.848 63.217-22.913 89.162zM18.601 146.84c-1.368-3.651-2.254-7.448-2.689-11.321-.297-2.64-4.026-2.741-4.182 0-.218 3.851.406 7.481 1.34 11.214.919 3.67 1.954 8.021 4.206 11.093 1.273 1.735 5.008 1.491 4.654-1.261-.443-3.457-2.109-6.467-3.329-9.725zm-5.237 12.561c-2.107-3.71-4.771-6.667-6.293-10.752-1.84-4.942-1.858-10.242-1.037-15.376.426-2.658-3.158-3.728-4.067-1.121-3.411 9.772-1.634 24.83 7.676 30.969 2.35 1.55 5.016-1.44 3.721-3.72z"/><path d="M100.43 167.12c-.429-1.595-2.288-2.29-3.696-1.504-1.652.922-2.005 2.229-2.859 3.827-.815 1.527-1.892 2.853-3.078 4.103-2.618 2.76-6.057 4.562-9.45 6.182-2.478 1.181-.718 5.331 1.868 4.43 4.025-1.404 7.641-3.367 10.94-6.073 2.823-2.318 7.325-7.05 6.275-10.965zm7.577 1.733c-2.574 2.275-4.682 5.3-7.221 7.699-2.8 2.646-6.106 4.935-8.707 7.763-1.901 2.067.476 5.044 2.937 3.806 3.59-1.806 6.869-4.834 9.963-7.376 2.653-2.179 6.504-4.87 8.047-8.018 1.611-3.283-2.249-6.324-5.019-3.874z"/></svg>
