<svg viewBox="0 0 813 162" fill="none" xmlns="http://www.w3.org/2000/svg"><path d="M84.3577 127.894C114.717 127.894 138.182 104.99 138.182 76.7369C138.182 50.2676 116.137 34.1056 101.536 34.1056C81.2035 34.1056 64.9064 48.354 62.5845 69.5064C62.1545 73.4232 59.0464 76.7083 55.1024 76.6799C48.5455 76.6331 39.0133 76.5774 32.9792 76.5982C30.3814 76.607 28.2335 74.5018 28.362 71.9095C29.2726 53.5645 35.4149 36.4115 47.1279 23.2352C60.143 8.59382 79.0967 0 101.536 0C139.237 0 174.828 34.2086 174.828 76.7369C174.828 123.826 135.758 162 85.1602 162C49.0756 162 12.7328 138.451 0.0442222 105.528C-0.00284958 105.406 -0.0104571 105.278 0.0124844 105.146C0.181277 104.172 0.516841 103.282 0.847294 102.406C1.32776 101.132 1.79741 99.8864 1.72882 98.4509L1.50951 93.8648C1.40146 91.6024 2.68144 89.4987 4.75189 88.5363L6.58614 87.6835C8.67762 86.7113 10.1643 84.7964 10.5758 82.5453C11.1906 79.1821 14.1473 76.7369 17.5984 76.7369C22.9873 76.7369 27.6738 80.3155 29.4343 85.4039C37.9071 109.894 51.3767 127.894 84.3577 127.894Z" fill="#FB6970"/><path d="M8.7921 17.0495C2.06754 17.0495 0 13.0453 0 8.52474C0 3.7459 1.67988 0 8.7921 0C15.9018 0 17.5816 3.7459 17.5816 8.52474C17.5816 13.0453 15.7726 17.0495 8.7921 17.0495Z" transform="translate(746.686 39.5355)" fill="currentColor"/><path d="M9.45592 63.0316V29.8368L0 29.7905V25.9258C0 21.7173 3.42562 18.3113 7.63924 18.332L9.45592 18.3412V4.26222L24.5824 0V18.3412H38.2874V22.2431C38.2874 26.4369 34.8846 29.8368 30.6862 29.8368H24.5824V61.0942C24.5824 65.9056 27.3112 67.5957 30.8281 68.1769C34.9707 68.8611 38.4166 71.8563 38.4166 76.0504V81.7598C24.0933 81.7598 9.45592 81.1291 9.45592 63.0316Z" transform="translate(623.299 48.9999)" fill="currentColor"/><path fill-rule="evenodd" clip-rule="evenodd" d="M33.7447 0.0113076C18.6177 -0.37648 0 9.18152 0 33.0768C0 56.5842 18.6177 65.8841 33.7447 65.4968C49.2595 65.8841 67.748 56.5842 67.748 33.0768C67.748 9.18152 49.2595 -0.37648 33.7447 0.0113076ZM33.8567 53.7642C22.8668 53.7642 15.07 45.7652 15.07 32.5908C15.07 20.0618 22.8716 11.8079 33.8617 11.8079C44.8508 11.8079 52.5658 20.0449 52.5658 32.5736C52.5658 45.7482 44.846 53.7642 33.8567 53.7642Z" transform="translate(300.593 65.8989)" fill="currentColor"/><path d="M29.6076 0C42.7947 0 56.5002 3.61639 56.5002 29.4488V64.0649H48.0689C43.871 64.0649 40.4677 60.6649 40.4677 56.4712V28.1574C40.4677 15.8866 35.9432 11.237 28.0561 11.237C23.6598 11.237 17.9721 14.5952 15.2564 17.3077V56.4712C15.2564 60.6649 11.8536 64.0649 7.65521 64.0649H0V1.54963H8.52985C11.5592 1.54963 14.1875 3.63842 14.8685 6.58707C18.7472 2.3247 23.7898 0 29.6076 0Z" transform="translate(378.468 66.052)" fill="currentColor"/><path d="M10.9329 0C14.1459 0 17.0118 2.01791 18.092 5.04073L31.9353 43.7863L45.7774 5.04124C46.8568 2.01791 49.7225 0 52.9353 0H63.8684L41.3231 57.6836C40.1829 60.5971 37.373 62.515 34.2415 62.515H24.5654L0 0H10.9329Z" transform="translate(441.324 67.4912)" fill="currentColor"/><path fill-rule="evenodd" clip-rule="evenodd" d="M55.8513 60.3916C51.0676 62.329 41.3634 64.9096 31.2791 64.9096C13.5657 64.9096 0 54.7069 0 31.7158C0 11.0497 13.1501 0 29.1837 0C48.9697 0 57.4121 13.2683 56.5304 31.3313C56.348 35.0634 53.0971 37.7855 49.3573 37.7855H15.2481C16.0234 47.8606 23.3915 53.156 33.0882 53.156C36.8964 53.156 40.8997 52.9626 45.6961 52.0676C50.7839 51.1178 55.8513 54.7342 55.8513 59.9051V60.3916ZM42.838 27.1942C43.8769 17.3082 37.1979 11.8832 29.1837 11.8832C21.1669 11.8832 15.7624 17.8947 15.2481 27.1942H42.838Z" transform="translate(509.115 66.5774)" fill="currentColor"/><path d="M8.13585 1.54988C11.0243 1.54988 13.5403 3.52401 14.2219 6.32888C19.3933 2.45379 25.8594 0 30.3821 0C30.7723 0 33.2275 -8.67527e-07 37.1067 0.516627V7.21938C37.1067 10.8226 33.9902 13.5617 30.3821 13.5617C26.2471 13.5617 20.1686 15.1121 15.3849 17.8243V64.0647H0V1.54988H8.13585Z" transform="translate(577.658 66.0712)" fill="currentColor"/><path d="M15.2557 54.921V0H7.60123C3.40282 0 0 3.39972 0 7.59375V62.5148H7.65443C11.8528 62.5148 15.2557 59.1151 15.2557 54.921Z" transform="translate(747.979 67.4348)" fill="currentColor"/><path d="M10.2135 63.0317V29.8366H0V25.9347C0 21.7409 3.40282 18.341 7.60123 18.341H10.2135V4.26252L25.34 0V18.341H39.045V22.2429C39.045 26.4369 35.6422 29.8366 31.4438 29.8366H25.34V61.0943C25.34 65.9059 28.0713 67.596 31.5882 68.177C35.7283 68.8614 39.1742 71.8564 39.1742 76.0502V81.7602C24.851 81.7602 10.2135 81.1291 10.2135 63.0317Z" transform="translate(773.826 49.1313)" fill="currentColor"/><path d="M0 45.5624C0.0964999 16.3332 22.1604 0 43.3334 0C55.0935 0 65.8769 2.53126 74.745 8.85938L71.1569 13.777C68.7575 17.0665 64.2066 18.3738 60.4176 16.8771C55.0681 14.7639 50.0303 14.3177 46.2768 14.3177C28.9526 14.3177 15.8872 25.4382 15.7938 45.5616C15.8872 65.6848 28.9526 76.9661 46.2768 76.9661C50.0303 76.9661 55.0681 76.5198 60.4176 74.4067C64.2066 72.91 68.7575 74.0584 71.1569 77.3481L74.745 82.2655C65.8769 88.5936 55.0935 91.1249 43.3334 91.1249C22.1604 91.1249 0.0964999 74.7918 0 45.5624Z" transform="translate(224.996 40.4993)" fill="currentColor"/><path d="M8.04465 0C12.2431 0 15.6459 3.39983 15.6459 7.59375V42.4086L46.7603 3.35039C48.1918 1.40806 50.4646 0.261716 52.8792 0.261716H66.7008L31.5223 44.6364L66.7008 88.994H52.8792C50.4646 88.994 48.1918 87.8476 46.7603 85.9051L15.6459 46.8575V81.3997C15.6459 85.5935 12.2431 88.9935 8.04465 88.9935H0V0H8.04465Z" transform="translate(672.428 40.9563)" fill="currentColor"/></svg>
