<svg xmlns="http://www.w3.org/2000/svg" viewBox="0 0 363 512"><g fill="none"><path fill="#264DE4" d="m362.734 100.62-33.046 370.199L181.145 512 33.011 470.877 0 100.62z"/><path fill="#2965F1" d="m301.397 447.246 28.24-316.352h-148.27v349.629z"/><path fill="#EBEBEB" d="m75.677 268.217 4.07 45.41h101.62v-45.41H75.677Zm105.69-91.912H67.499l4.128 45.411h109.74v-45.411Zm0 257.094v-47.246l-.199.053-50.574-13.656-3.233-36.217H81.776l6.362 71.301 93.02 25.823.209-.058Z"/><path fill="#000" d="M85.367 0h55v23h-32v23h32v23h-55V0Zm66 0h55v20h-32v4h32v46h-55V49h32v-4h-32V0Zm66 0h55v20h-32v4h32v46h-55V49h32v-4h-32V0Z"/><path fill="#FFF" d="m237.128 313.627-5.271 58.894-50.647 13.67v47.244l93.094-25.801.683-7.672 10.671-119.551 1.108-12.194 8.198-91.912H181.21v45.411h63.988l-4.132 46.501H181.21v45.41z"/></g></svg>
