<svg viewBox="0 0 54 175" fill="currentColor"><g fill-rule="evenodd"><path d="M.61305866 2.32965571c9.102 4.586 18.42800004 8.71599999 27.53700004 13.29599999l-.795-3.03c-2.929 4.89-5.73 9.85-8.295 14.95-1.704 3.38-5.36 8.54-4.609 12.59.675 3.64 4.838 5.69 7.57 7.56 5.308 3.63 10.633 7.23 15.95 10.85-.297-1.13-.592-2.26-.888-3.39-3.659 4.92-7.143 9.96-10.397 15.16-2.18 3.48-6.601 8.59-6.282 13.02.3 4.15 4.583 6.47 7.552 8.66 2.493 1.85 4.985 3.69 7.478 5.54 2.669 1.97 7.961 4.3900003 7.253 8.0800003-.857 4.47-6.034 8.41-8.593 12.05-2.749 3.91-4.05 8.29-3.962 13.06.102 5.51 1.684 10.93 2.946 16.25 1.554 6.55 3.108 13.1 4.663 19.65.851 3.59 6.429 2.07 5.537-1.52-1.389-5.6-2.777-11.2-4.165-16.8-1.418-5.72-3.43-11.65-3.603-17.58-.315-10.79 10.331-15.04 12.457-24.7.779-3.54-.794-5.9-3.462-8.0600003-4.005-3.25-8.35-6.16-12.506-9.22-1.24-.91-2.974-1.88-4.056-2.99-1.93-1.99-1.771-4.18-.746-6.63 1.021-2.44 2.864-4.86 4.265-7.09 3.097-4.93 6.42-9.71 9.896-14.38.836-1.13.118-2.7-.888-3.39-3.457-2.35-6.913-4.7-10.369-7.05-3.99-2.71-11.151-5.48-9.632-11.58.822-3.29 3.211-6.69 4.746-9.7 1.913-3.75 3.897-7.45 5.967-11.11.551-.97.303-2.51-.795-3.03-9.387-4.42999999-18.879-8.68499999-28.81500004-11.742-1.329-.409-2.233 1.63400001-.959 2.27600001"/><path d="M50.4890587 146.865656c-1.307 3.7-2.721 7.34-4.235 10.96-1.375 3.29-2.873 8.72-5.184 11.52.981-.26 1.963-.52 2.944-.78-2.828-.4-6.032-2.58-8.624-3.78-2.862-1.33-5.724-2.66-8.587-3.98-3.499-1.63-6.569 3.57-3.046 5.21l11.154 5.19c2.675 1.24 5.349 2.93 8.299 3.31 1.072.14 2.06-.69 2.613-1.5 2.135-3.12 3.103-7.76 4.23-11.34 1.441-4.59 2.55-9.26 3.544-13.96.431-2.04-2.418-2.81-3.108-.85"/></g></svg>
