<svg xmlns="http://www.w3.org/2000/svg" viewBox="0 0 32 32"><path d="M14.155 29.125c-1.348-.192-2.566-.559-3.698-1.081l.082.034c-.091-.042-.197-.066-.309-.066-.414 0-.75.336-.75.75 0 .302.179.563.437.682l.005.002c1.169.543 2.525.95 3.947 1.155l.079.009c.03.005.064.008.099.008h.005c.414 0 .749-.336.749-.75 0-.378-.279-.69-.643-.742h-.004zM2.75 16.077c-.002-.413-.337-.746-.75-.746h-.004c-.413.002-.746.337-.746.75v.004c.007 1.48.231 2.906.643 4.25l-.027-.104c.096.312.381.535.719.535h.002c.076 0 .149-.011.218-.033l-.005.001c.312-.096.535-.382.535-.72 0-.076-.011-.15-.033-.219l.001.005c-.345-1.113-.547-2.394-.553-3.721v-.003zm-.418-3.215c.061.019.13.029.203.029h.004c.341 0 .628-.228.719-.539l.001-.005c.38-1.306.906-2.446 1.575-3.486l-.031.052c.073-.114.117-.253.117-.402 0-.414-.336-.75-.75-.75-.265 0-.498.137-.631.345l-.002.003c-.71 1.101-1.296 2.371-1.693 3.723l-.026.104c-.018.062-.029.133-.029.207 0 .34.227.628.538.719l.005.001zm19.059-8.971c1.218.551 2.267 1.223 3.204 2.023l-.018-.015c.13.113.302.181.489.181.414 0 .75-.336.75-.75 0-.229-.103-.435-.265-.572l-.001-.001c-1.023-.874-2.192-1.622-3.456-2.197l-.092-.038c-.09-.042-.196-.066-.307-.066-.414 0-.749.335-.749.749 0 .305.182.567.443.684l.005.002zM6.753 6.237h.002c.189 0 .362-.071.494-.187l-.001.001c.909-.804 1.946-1.493 3.071-2.028l.08-.034c.258-.122.433-.381.433-.68 0-.414-.336-.75-.75-.75-.115 0-.224.026-.322.072l.005-.002c-1.341.634-2.496 1.401-3.523 2.309l.016-.014c-.157.138-.255.339-.255.563 0 .414.336.75.75.75zm-1.868 16.98c-.136-.207-.367-.342-.629-.342-.414 0-.75.336-.75.75 0 .152.045.293.123.411l-.002-.003c.791 1.205 1.703 2.242 2.741 3.138l.019.016c.131.113.302.182.489.182.414-.001.749-.336.749-.75 0-.227-.1-.43-.259-.567l-.001-.001c-.95-.819-1.77-1.751-2.45-2.784l-.031-.05zm24.51-10.561c.078 0 .153-.012.224-.035l-.005.001c.31-.097.531-.381.531-.717 0-.078-.012-.154-.034-.225l.001.005c-.449-1.444-1.056-2.702-1.819-3.847l.034.054c-.136-.205-.366-.338-.627-.338-.415 0-.751.336-.751.751 0 .154.046.297.126.416l-.002-.003c.656.98 1.202 2.109 1.58 3.313l.025.093c.097.31.381.53.716.53zM30 15.168c-.422.04-.75.392-.75.821V16v-.001.018c0 1.322-.194 2.598-.555 3.802l.024-.093c-.019.063-.03.135-.03.209 0 .34.225.627.534.721l.005.001c.063.018.136.029.211.029.339-.001.626-.225.719-.534l.001-.005c.374-1.239.59-2.664.59-4.139v-.01.001-.163c-.007-.373-.311-.672-.685-.672-.023 0-.045.001-.068.003h.003zM18.611 2.222c.004-.03.007-.064.007-.099 0-.379-.282-.693-.648-.742h-.004c-.59-.083-1.271-.13-1.963-.13-.785 0-1.556.061-2.309.177l.084-.011c-.365.055-.641.366-.641.742 0 .414.336.75.75.75.041 0 .081-.003.12-.01l-.004.001c.601-.095 1.295-.149 2.001-.149.622 0 1.235.042 1.835.123l-.07-.008c.027.003.059.005.091.005.381 0 .696-.28.752-.646l.001-.004zm2.92 25.823c-1.048.494-2.263.867-3.538 1.059l-.073.009c-.365.055-.642.366-.642.742 0 .414.336.75.75.75h.006c.037 0 .073-.003.108-.008h-.004c1.5-.225 2.852-.641 4.109-1.228l-.091.038c.26-.122.437-.381.437-.681 0-.414-.336-.75-.75-.75-.113 0-.22.025-.316.07l.005-.002zm6.66-5.121c-.114-.075-.254-.119-.405-.119-.264 0-.495.137-.628.343l-.002.003c-.705 1.087-1.519 2.023-2.447 2.832l-.016.014c-.157.138-.256.34-.256.564 0 .414.336.75.75.75.188 0 .359-.069.491-.183l-.001.001c1.051-.916 1.957-1.958 2.705-3.113l.035-.057c.075-.114.119-.254.119-.405 0-.264-.137-.495-.343-.628l-.003-.002z"/></svg>
