<svg xmlns="http://www.w3.org/2000/svg" viewBox="0 0 18 22"><path d="M18 5.375c0 2.692-4.03 4.875-9 4.875S0 8.067 0 5.375 4.03.5 9 .5s9 2.183 9 4.875Z"/><path d="M9 11.75c2.685 0 5.19-.586 7.078-1.609.6948498-.36890533 1.3336004-.83492051 1.897-1.384.016.121.025.244.025.368C18 11.817 13.97 14 9 14s-9-2.183-9-4.875c0-.124.009-.247.025-.368.5634172.54905866 1.20216465 1.01507156 1.897 1.384C3.809 11.164 6.315 11.75 9 11.75Z"/><path d="M9 15.5c2.685 0 5.19-.586 7.078-1.609.694857-.3688938 1.3336092-.8349101 1.897-1.384.016.121.025.244.025.368 0 2.692-4.03 4.875-9 4.875s-9-2.183-9-4.875c0-.124.009-.247.025-.368.5634084.5490691 1.20215742 1.0150831 1.897 1.384C3.809 14.914 6.315 15.5 9 15.5Z"/><path d="M9 19.25c2.685 0 5.19-.586 7.078-1.609.694857-.3688938 1.3336092-.8349101 1.897-1.384.016.121.025.244.025.368 0 2.692-4.03 4.875-9 4.875s-9-2.183-9-4.875c0-.124.009-.247.025-.368.5634084.5490691 1.20215742 1.0150831 1.897 1.384C3.809 18.664 6.315 19.25 9 19.25Z"/></svg>
