<svg xmlns="http://www.w3.org/2000/svg" viewBox="0 0 512 512"><path fill="#ffdd40" d="m55.053 407.139 408.743-10.332C487.361 359.169 501 314.682 501 267c0-135.31-109.69-245-245-245S11 131.69 11 267c0 52.119 16.287 100.427 44.031 140.139z"/><circle cx="256" cy="232" r="190" fill="#ffc839"/><path fill="#945230" d="M382.594 250.658c-16.062-5.622-20.443-16.768-13.499-38.671s-25.267-44.854-25.267-44.854H168.172s-32.211 22.951-25.267 44.854 2.563 33.049-13.499 38.671-54.028 41.641-14.115 94.208h281.418c39.913-52.567 1.947-88.586-14.115-94.208z"/><path fill="#c67859" d="M355.547 83.218C342.897 42.059 310.41 0 274.866 0 262.632 0 256 12 256 12s-6.632-12-18.866-12c-35.545 0-68.033 42.062-80.682 83.222-3.586 10.526-5.547 21.804-5.589 33.534-.001.128-.005.259-.005.387v30.076h210.286v-30.076c-.001-11.871-1.971-23.282-5.597-33.925z"/><path fill="#b26847" d="M255.784 147.218V82.484S240.149 45.128 256 12c0 0-6.632-12-18.866-12-35.545 0-68.033 42.062-80.682 83.222-3.586 10.526-5.547 21.804-5.589 33.534-.001.128-.005.259-.005.387v30.076h104.926z"/><path fill="#fff" d="m256 466.431 95.152-142.253H160.706c-30.096 6.931-65.531 17.016-78.265 28.259-8.351 7.373-18.17 29.339-27.391 54.702 16.031 22.946 35.888 43.017 58.645 59.292z"/><path fill="#deeeff" d="M160.848 324.179c-.165.038-.35.06-.527.089-30.013 6.928-65.201 16.975-77.88 28.17-8.351 7.373-18.17 29.339-27.391 54.702 24.546 35.134 58.062 63.53 97.227 81.868l-7.103-23.447c-15.55-47.095-12.13-87.217 42.804-104.974 30.412-9.83 52.993-22.949 69.699-36.407h-96.829z"/><path fill="#fbb989" d="M303.109 314.575V193.75h-94.217v120.825c-.001 0-22.032 3.629-48.043 9.604.006.027 15.698 73.85 95.151 73.85s95.146-73.822 95.151-73.85c-26.011-5.975-48.042-9.604-48.042-9.604z"/><path fill="#f9a373" d="M208.867 314.579c-.017.003-.059.01-.124.021-.105.017-.259.043-.484.081-.048.008-.106.018-.16.027-.077.013-.159.027-.247.042-.136.023-.287.049-.449.076-.027.005-.054.009-.082.014-.188.032-.392.067-.612.105-.013.002-.026.004-.039.007-6.21 1.072-24.7 4.375-45.816 9.225-.002 0-.005.001-.007.002.003.014 4.254 19.982 19.5 39.149 2.426-.965 4.966-1.88 7.63-2.741 98.997-32 115.13-98.84 115.13-98.84V193.75H208.89v120.825c.001 0-.018.003-.023.004z"/><path fill="#d3dcfb" d="M91.07 426.843v21.327c7.157 6.519 14.704 12.617 22.599 18.262l-12.035-41.103c-1.75-5.98-10.564-4.716-10.564 1.514z"/><path fill="#ff7186" d="M436.197 344.941c-18.563-16.39-75.451-29.533-108.323-36.009-8.682-1.711-17.677.346-24.766 5.643s-53.112 124.309-189.44 151.856C153.788 495.115 202.921 512 256 512c87.63 0 164.5-46.016 207.804-115.193-13.888-36.778-22.358-47.232-27.607-51.866z"/><path fill="#ff4155" d="M327.874 308.932c-.045-.009-.09-.014-.135-.023-3.449 14.333-12.523 44.015-33.778 76.24-23.225 35.213-65.416 79.386-139.025 105.085 6.736 3.055 13.632 5.821 20.677 8.268 22.344-9.037 42.927-20.191 61.537-33.422 27.564-19.599 50.892-43.712 69.333-71.672 22.768-34.519 32.336-66.035 35.979-81.471-5.199-1.117-10.12-2.125-14.588-3.005z"/><path fill="#ff4155" d="M265.941 481.295c-41.094-3.239-55.145-30.882-33.474-74.105-29.196 25.534-68.278 49.033-118.799 59.242C153.788 495.115 202.921 512 256 512c24.473 0 48.106-3.592 70.404-10.273 3.443-4.282 44.562-55.858 36.442-66.926-12.585-17.151-55.755 49.737-96.905 46.494z"/><path fill="#e80054" d="M224.391 455.486c-19.27 13.186-42.204 25.235-69.455 34.749 6.736 3.055 13.632 5.821 20.677 8.268 20.443-8.268 39.393-18.329 56.724-30.111-3.664-3.615-6.326-7.936-7.946-12.906z"/><path fill="#ff4155" d="M420.93 426.843v21.327c-7.157 6.519-14.704 12.617-22.599 18.262l12.035-41.103c1.75-5.98 10.564-4.716 10.564 1.514z"/><path fill="#fbb989" d="M180.942 159.567s-10.385-25.285-28.897-19.415.448 60.664 36.573 64.116zm150.116 0s10.385-25.285 28.897-19.415-.448 60.664-36.573 64.116z"/><path fill="#fcd2ae" d="M255.784 82.484s-19.69 60.442-87.333 60.562c-.029 1.23-.049 2.464-.049 3.708 0 64.505 39.219 140.155 87.597 140.155s87.597-75.651 87.597-140.155c0-1.244-.02-2.478-.049-3.708-67.642-.12-87.763-60.562-87.763-60.562z"/><path fill="#fbb989" d="M208.403 146.754c0-4.214.187-8.339.513-12.39-11.036 5.219-24.395 8.653-40.465 8.682-.029 1.23-.049 2.464-.049 3.708 0 64.505 39.219 140.155 87.597 140.155 6.881 0 13.576-1.535 20-4.346-38.74-16.952-67.596-80.479-67.596-135.809z"/><path fill="#c67859" d="M345.269 134.364h-9.758c-25.532 55.279-28.419 82.519-28.419 82.519s-18.9-30.522-51.092-30.522-51.092 30.522-51.092 30.522-2.887-27.24-28.419-82.519h-9.758C150.857 247.596 200.702 314.575 256 314.575s105.143-66.979 89.269-180.211z"/><path fill="#fbb989" d="m242.013 192.447 8.436-13.441c2.569-4.093 8.533-4.093 11.102 0l8.436 13.441c2.739 4.365-.398 10.038-5.551 10.038h-16.871c-5.154-.001-8.291-5.674-5.552-10.038z"/><path fill="#543e5b" d="M310.999 162.085c.043-3.495-1.371-7.004-4.242-9.539-4.675-4.128-11.84-4.128-16.515 0-2.871 2.535-4.284 6.044-4.242 9.539.055 4.538 5.629 6.716 8.838 3.507 2.022-2.022 5.3-2.022 7.322 0 3.21 3.21 8.784 1.032 8.839-3.507zm-109.998 0c-.043-3.495 1.371-7.004 4.242-9.539 4.675-4.128 11.84-4.128 16.515 0 2.871 2.535 4.284 6.044 4.242 9.539-.055 4.538-5.629 6.716-8.838 3.507-2.022-2.022-5.3-2.022-7.322 0-3.21 3.21-8.784 1.032-8.839-3.507z"/><path fill="#945230" d="M223.5 138.968h-20c-4.142 0-7.5-3.358-7.5-7.5 0-4.142 3.358-7.5 7.5-7.5h20c4.142 0 7.5 3.358 7.5 7.5 0 4.142-3.358 7.5-7.5 7.5zm85 0h-20c-4.142 0-7.5-3.358-7.5-7.5 0-4.142 3.358-7.5 7.5-7.5h20c4.142 0 7.5 3.358 7.5 7.5 0 4.142-3.358 7.5-7.5 7.5z"/><path fill="#b26847" d="M256 314.575c16.765 0 33.025-6.167 47.109-17.903-36.574-10.402-73.599-53.067-85.838-94.052-8.03 7.284-12.362 14.264-12.362 14.264s-2.887-27.24-28.419-82.519h-9.758c-15.875 113.231 33.97 180.21 89.268 180.21z"/></svg>
