<svg viewBox="0 0 238 38">
  <defs>
    <path id="a" d="M0 0h25.3v25.299H0z"/>
  </defs>
  <g fill="none" fill-rule="evenodd">
    <g transform="translate(212.182 11.33)">
      <mask id="b" fill="#fff">
        <use xlink:href="#a"/>
      </mask>
      <path fill="currentColor" fill-rule="nonzero" d="M19.161 12.649c0 3.597-2.915 6.512-6.51 6.512-3.597 0-6.513-2.915-6.513-6.512 0-3.596 2.916-6.511 6.512-6.511 3.596 0 6.511 2.915 6.511 6.511m-6.51-12.65C5.663 0-.001 5.664-.001 12.65S5.663 25.3 12.649 25.3c6.986 0 12.65-5.664 12.65-12.65C25.299 5.664 19.635 0 12.649 0" mask="url(#b)"/>
    </g>
    <path fill="currentColor" fill-rule="nonzero" d="M48.656 10.472c7.46 0 13.51 6.049 13.51 13.51h-.001c0 7.461-6.048 13.51-13.51 13.51-7.46 0-13.509-6.049-13.509-13.51 0-7.461 6.049-13.51 13.51-13.51ZM14.889 0c10.454 0 18.008 7.449 18.007 17.714 0 10.491-7.742 18.403-18.008 18.403H.69c-.382 0-.69-.309-.69-.691V.69C0 .31.309 0 .69 0Zm.086 6.916H7.072v22.277h7.903c7.293 0 10.615-5.772 10.615-11.136 0-6.559-4.365-11.141-10.615-11.141Zm30.4358805 14.097519c-.2585948.29393-.4583091.6403381-.5808805 1.023481l-2.288 7.004c-.208.651.405 1.269 1.054 1.054l7.005-2.286c.443-.148.842-.395 1.165-.716.322-.324.569-.722.716-1.166l2.286-7.005c.216-.649-.402-1.262-1.053-1.054l-7.004 2.288c-.448.144-.844.392-1.166.715ZM200.022 11.847c-3.697 0-6.484 1.648-7.958 4.087-1.114-2.594-3.434-4.087-6.556-4.087-2.9 0-4.906 1.053-6.219 3.163l.015-2.476c.004-.474-.46-.81-.91-.66l-5.19 1.732c-.282.094-.472.358-.472.655v21.165c0 .382.31.691.691.691h5.217c.382 0 .691-.31.691-.69v-13.04c0-3.282 1.454-4.988 4.22-4.988 2.713 0 4.126 1.65 4.126 4.821v13.206c0 .382.31.691.691.691h5.203c.382 0 .691-.31.691-.69V22.104c0-2.954 1.55-4.706 4.29-4.706 2.786 0 4.034 1.534 4.034 5.39v12.637c0 .382.309.691.69.691h5.218c.381 0 .69-.31.69-.69V22.635c0-6.855-3.472-10.79-9.162-10.79M96.693 17.359h5.39c.297 0 .56-.19.655-.472l1.379-4.13c.149-.448-.184-.91-.656-.91h-6.768V5.882c0-.472-.462-.805-.91-.655l-5.217 1.742c-.282.094-.472.358-.472.655v16.504c0 8.419 3.533 12.207 11.422 12.037l.205-.004c.312-.008.567-.2.66-.482l1.541-4.614c.14-.42-.19-.933-.702-.897-5.361.37-6.527-1.698-6.527-6.04v-6.77.001Zm-9.465 14.555-3.212-3.218c-.265-.265-.695-.285-.97-.03-1.054.982-2.857 2.062-5.072 2.062-4.429 0-6.777-3.38-6.777-6.938 0-3.455 2.18-6.568 6.777-6.568 1.996 0 3.83.95 4.898 1.799.27.213.678.202.922-.04l3.25-3.222c.326-.323.207-.804-.033-1.002-1.606-1.327-4.79-3.427-9.275-3.427-7.358 0-12.834 5.475-12.834 12.594 0 7.255 5.168 12.696 12.834 12.696 5.047 0 8.33-2.485 9.516-3.755.25-.269.236-.69-.024-.95m40.502 4.7150044C132.624 36.634 136.242 33.891 136.47 29.83c.236-4.185-2.519-7.124-8.136-8.617-2.385-.671-3.26-1.423-3.185-2.717.075-1.284 1.32-2.085 3.193-1.988 1.851.098 3.604 1.021 4.663 1.752.36.249.907.147 1.08-.37l1.158-3.468c.095-.285-.004-.605-.253-.773-2.25-1.515-5.279-2.32-7.416-2.32-4.882 0-8.44 2.786-8.68 6.883-.237 4.083 2.398 6.701 8.02 8.262 2.384.723 3.19 1.434 3.117 2.89-.067 1.31-1.352 2.132-3.128 2.046-2.382-.121-4.91-1.982-5.775-2.645-.287-.22-.66-.066-.755.22l-1.408 4.218c-.099.294.01.624.27.796 2.76 1.822 5.574 2.629 8.495 2.63m20.3.0010044C152.925 36.634 156.543 33.891 156.771 29.83c.236-4.185-2.519-7.124-8.137-8.617-2.384-.671-3.26-1.423-3.184-2.717.075-1.284 1.32-2.085 3.193-1.988 1.85.098 3.604 1.021 4.663 1.752.36.249.907.147 1.08-.37l1.158-3.468c.094-.285-.004-.605-.253-.773-2.251-1.515-5.28-2.32-7.417-2.32-4.881 0-8.44 2.786-8.679 6.883-.238 4.083 2.398 6.701 8.02 8.262 2.384.723 3.19 1.434 3.117 2.89-.067 1.31-1.352 2.132-3.128 2.046-2.382-.121-4.91-1.982-5.775-2.645-.287-.22-.66-.066-.755.22l-1.408 4.218c-.1.294.01.624.27.796 2.76 1.822 5.574 2.629 8.495 2.63m-40.065-1.203c0 .382.31.691.691.691h5.218c.381 0 .69-.31.69-.69V12.532c0-.472-.462-.805-.91-.656l-5.217 1.744c-.281.094-.472.358-.472.655v21.151Zm7.086-30.291c0 2.091-1.695 3.787-3.786 3.787s-3.786-1.696-3.786-3.787c0-2.09 1.695-3.786 3.786-3.786s3.786 1.695 3.786 3.786m45.8 30.291c0 .382.309.691.69.691h5.218c.381 0 .691-.31.691-.69V12.532c0-.472-.463-.805-.91-.656l-5.217 1.744c-.282.094-.472.358-.472.655v21.151Zm7.086-30.291c0 2.091-1.696 3.787-3.787 3.787-2.09 0-3.786-1.696-3.786-3.787 0-2.09 1.695-3.786 3.786-3.786s3.787 1.695 3.787 3.786"/>
  </g>
</svg>
