<svg xmlns="http://www.w3.org/2000/svg" viewBox="0 0 123 123"><g fill="none" fill-rule="evenodd"><path fill="#5046E6" d="M0 0h123v123H0z"/><path fill="#FFF" fill-rule="nonzero" d="M52.9090909 30c6.2759631 0 11.3636364 5.0367966 11.3636364 11.25v5.625c0 3.1066017 2.5438366 5.625 5.6818182 5.625h5.6818181C81.9123267 52.5 87 57.5367966 87 63.75v23.625C87 90.48 84.4545455 93 81.3181818 93H42.6818182C39.5454545 93 37 90.48 37 87.375v-51.75C37 32.52 39.5424242 30 42.6818182 30ZM62 77.25H50.6363636c-1.2551926 0-2.2727272 1.0073593-2.2727272 2.25s1.0175346 2.25 2.2727272 2.25H62c1.2551926 0 2.2727273-1.0073593 2.2727273-2.25S63.2551926 77.25 62 77.25Zm11.3636364-9H50.6363636c-1.2551926 0-2.2727272 1.0073593-2.2727272 2.25s1.0175346 2.25 2.2727272 2.25h22.7272728c1.2551926 0 2.2727272-1.0073593 2.2727272-2.25s-1.0175346-2.25-2.2727272-2.25Z"/><path fill="#FFF" fill-rule="nonzero" d="M65 31c2.4927227 2.8740839 3.8626711 6.5522722 3.8573891 10.3567428v5.6548901c0 .6242999.5066781 1.130978 1.130978 1.130978h5.6548901C79.4477278 48.1373289 83.1259161 49.5072773 86 52c-2.7014867-10.2744187-10.7255813-18.2985133-21-21Z"/></g></svg>
