<svg xmlns="http://www.w3.org/2000/svg" viewBox="0 0 55 55"><g fill="none" fill-rule="evenodd"><path fill="#5046E6" d="M0 0h55v55H0z"/><path stroke="#FFF" stroke-linecap="round" stroke-linejoin="round" stroke-width="1.5" d="M35 30v-2.625C35 25.511039 33.488961 24 31.625 24h-1.5C29.5036797 24 29 23.4963203 29 22.875v-1.5C29 19.511039 27.488961 18 25.625 18H23.75m0 12.75h7.5m-7.5 3h3.75M26 18h-4.875c-.621 0-1.125.504-1.125 1.125v17.25c0 .621.504 1.125 1.125 1.125h12.75c.621 0 1.125-.504 1.125-1.125V27c0-4.9705627-4.0294373-9-9-9Z"/></g></svg>
