<svg xmlns="http://www.w3.org/2000/svg" viewBox="0 0 50 50"><path fill="#e7b95e" d="M1.6 21.2v26.1c0 1 .8 1.7 1.7 1.7h43.4c1 0 1.7-.8 1.7-1.7V21.2z"/><circle cx="25" cy="37.5" r="8.1" fill="#88c057"/><path fill="#fff" d="M24.7 42.8v-.9c-1.2-.1-2.3-.6-3.2-1.4l.9-1.1c.7.6 1.5 1 2.2 1.1V38c-1-.2-1.7-.5-2.1-.9-.5-.4-.7-.9-.7-1.7 0-.7.3-1.4.8-1.8.5-.5 1.2-.7 2-.8v-.6h.8v.7c1 .1 1.9.4 2.7 1l-.8 1.2c-.6-.4-1.2-.7-1.9-.8v2.4c1 .2 1.7.6 2.2.9.5.4.7 1 .7 1.7 0 .8-.3 1.4-.8 1.9s-1.2.7-2.1.8v.9h-.7zm-.9-8.3c-.2.2-.3.4-.3.7s.1.5.3.7.5.3 1 .5v-2.2c-.5 0-.8.1-1 .3zm2.7 5.7c.2-.2.4-.5.4-.8s-.1-.5-.3-.7-.5-.3-1.1-.5v2.3c.5 0 .8-.1 1-.3z"/><path fill="#ffcc67" d="m48.4 20.6-1.1-4.8c-.2-.8-.9-1.3-1.6-1.3H4.4c-.8 0-1.5.5-1.6 1.3l-1.1 4.8c-.3 1.1.5 2.1 1.6 2.1h43.5c1-.1 1.8-1.1 1.6-2.1z"/><path fill="#676767" d="M34.5 17.7h-19c-.5 0-.9.4-.9.9s.4.9.9.9h19c.5 0 .9-.4.9-.9s-.4-.9-.9-.9z"/><path fill="#ed7161" d="M30.8 1c-2.4-.2-4.4 1.1-5.4 3-.9-2-3-3.3-5.4-3-2.9.3-5 2.9-4.9 5.9.3 6.7 5.8 9.9 9.4 11.7.6.3 1.3.3 1.8 0 3.6-1.8 9.1-4.9 9.4-11.7.1-3-2-5.6-4.9-5.9z"/><path fill="#d66556" d="M33.6 2.2c.9 1.1 1.4 2.5 1.3 4-.3 6.7-5.8 9.9-9.4 11.7-.6.3-1.3.3-1.8 0-1.7-.8-3.8-2-5.6-3.6 1.9 2.1 4.4 3.4 6.3 4.4.6.3 1.3.3 1.8 0 3.6-1.8 9.1-4.9 9.4-11.7.2-2-.6-3.7-2-4.8z"/></svg>
