<svg xmlns="http://www.w3.org/2000/svg" viewBox="0 0 24 24"><path d="M19 0c2.762 0 5 2.239 5 5v14c0 2.761-2.238 5-5 5H5c-2.761 0-5-2.239-5-5V5c0-2.761 2.239-5 5-5Zm-7 4.64086136c-.1755879 0-.3404398.08452571-.442923.22710309C8.63091152 8.93503931 6.4206598 13.4718847 5.02159889 18.2829315c-.05579901.19241-.00163417.3999238.1410847.540517.14271888.1405933.35102202.1916384.54257314.1329587l5.74927157-1.7687829v-6.1936492c0-.3012557.244216-.5454717.5454717-.5454717s.5454717.244216.5454717.5454717v6.1936492l5.7492716 1.7687829c.1915511.0586797.3998542.0076346.5425731-.1329587.1427189-.1405932.1968837-.348107.1410847-.540517-1.3990876-4.8110365-3.6093372-9.34787753-6.5354781-13.41496705-.1024832-.14257738-.2673351-.22710309-.442923-.22710309Z"/></svg>
