<svg xmlns="http://www.w3.org/2000/svg" viewBox="0 0 96 96"><path fill="#4e4b92" d="M44.22 61a26.77 26.77 0 0 1-43-1L2 57.58a7 7 0 0 1 5.3-4.67l10-2h10.52l10 2a7 7 0 0 1 5.29 4.67z"/><path fill="#4e69b5" d="M40.94 64.49a26.75 26.75 0 0 1-36-.23l-.48-.79.65-2.37a6.32 6.32 0 0 1 4.49-4.67l8.47-2h9l8.47 2A6.34 6.34 0 0 1 40 61.1z"/><path fill="#678cd3" d="m22.54 56.89-4.81 2.39-2-5.4a1.71 1.71 0 0 1 .38-1.79L17.26 51zm0 0 4.8 2.39 2-5.4a1.75 1.75 0 0 0-.38-1.79L27.81 51z"/><path fill="#e1346e" d="M24.75 61.7h-4.43l-1.03-3.19 3.25-1.62 3.24 1.62z"/><path fill="#ff526e" d="M26.62 71.09a26.83 26.83 0 0 1-8.13-.16l1.83-9.23h4.44z"/><path fill="#92606f" d="M18.75 11h7.58a12.28 12.28 0 0 1 12.28 12.25v9.31H6.46v-9.31A12.28 12.28 0 0 1 18.75 11z"/><rect width="37.77" height="6.01" x="3.66" y="31.36" fill="#f8ad9d" rx="2.65"/><path fill="#f8ad9d" d="M27.81 50.95v-7.62H17.27v7.62l5.27 5.94z"/><path fill="#f88a7f" d="M17.26 43.33h10.55v6.92H17.26z"/><path fill="#fbc4ab" d="M35.65 31.36v4.26a13.1 13.1 0 0 1-26.2 0v-4.26l2.42-3.09a4.93 4.93 0 0 0 1-2.83l.14-3.84a1.65 1.65 0 0 1 1.68-1.6 61.76 61.76 0 0 0 15.51 0 1.63 1.63 0 0 1 1.8 1.6l.15 3.84a4.85 4.85 0 0 0 1 2.83z"/><path fill="#302d3d" d="M28.11 32.82a1 1 0 0 1-1-1v-.63a1 1 0 1 1 2 0v.63a1 1 0 0 1-1 1zm1.43-3.37h-2.85a1 1 0 0 1 0-2h2.85a1 1 0 0 1 0 2zM17 32.82a1 1 0 0 1-1-1v-.63a1 1 0 0 1 2 0v.63a1 1 0 0 1-1 1zm1.38-3.37h-2.84a1 1 0 1 1 0-2h2.84a1 1 0 0 1 0 2zm.51 12.68A1 1 0 1 1 20.55 41a2.4 2.4 0 0 0 4 0 1 1 0 1 1 1.67 1.11 4.41 4.41 0 0 1-7.33.02z"/><path fill="#92606f" d="M69.33 11h7.58A12.28 12.28 0 0 1 89.2 23.25v19a12.87 12.87 0 0 1-12.87 12.87h-6.41A12.87 12.87 0 0 1 57 42.25v-19A12.28 12.28 0 0 1 69.33 11z"/><path fill="#b9cef2" d="M94.81 61a26.76 26.76 0 0 1-43-1l.77-2.37a7 7 0 0 1 5.29-4.67l10-2H78.4l10 2a7 7 0 0 1 5.3 4.67z"/><path fill="#e6ecf2" d="M93.05 63a26.76 26.76 0 0 1-38.31.46l-.74-3 .21-.7a6.57 6.57 0 0 1 4.87-4.66c7.74-1.65 8.68-2 11.17-2 9.11 0 6.31-.31 16.94 2a6.57 6.57 0 0 1 4.87 4.66z"/><path fill="#4e69b5" d="M62.35 52v16.83A26.94 26.94 0 0 1 51.78 60l.76-2.37a7 7 0 0 1 5.3-4.67zm32.45 9c-.07.1-.56.71-.84 1a26.61 26.61 0 0 1-10.06 7.29V52l4.5.88a7 7 0 0 1 5.3 4.67z"/><path fill="#4e4b92" d="m57.84 52.91 4.51-.91v2.35l-3.27.7a6.57 6.57 0 0 0-4.87 4.66l-.21.7c.26 1.09.47 2 .74 3a27.43 27.43 0 0 1-3-3.53l.77-2.37a6.94 6.94 0 0 1 5.33-4.6zM94.81 61c-.4.6-1.67 2-1.75 2.05l-1-3.28a6.57 6.57 0 0 0-4.87-4.66l-3.29-.7V52l4.5.88a7 7 0 0 1 5.3 4.67z"/><path fill="#fff" d="m73.12 56.89-4.8 2.39-2-5.4a1.75 1.75 0 0 1 .38-1.79L67.85 51zm0 0 4.81 2.39 1.95-5.4a1.71 1.71 0 0 0-.38-1.79L78.4 51z"/><path fill="#f8ad9d" d="M78.4 50.95v-7.62H67.85v7.62l5.27 5.94z"/><rect width="37.77" height="6.01" x="54.24" y="31.36" fill="#f8ad9d" rx="2.65"/><rect width="26.2" height="31.23" x="60.03" y="17.48" fill="#fbc4ab" rx="12.18"/><path fill="#92606f" d="M59.1 26.58h2a12 12 0 0 0 10.36-5.95 1.86 1.86 0 0 1 3.24 0 12 12 0 0 0 10.36 5.95h1.63l-.51-6.77-8.54-6.67h-9L60 19.5z"/><path fill="#302d3d" d="M78.7 34.19a1 1 0 0 1-1-1v-.63a1 1 0 0 1 2 0v.63a1 1 0 0 1-1 1zm1.42-3.37h-2.84a1 1 0 0 1 0-2h2.84a1 1 0 0 1 0 2zm-12.57 3.37a1 1 0 0 1-1-1v-.63a1 1 0 0 1 2 0v.63a1 1 0 0 1-1 1zM69 30.82h-2.88a1 1 0 0 1 0-2H69a1 1 0 0 1 0 2zm.47 10.55a1 1 0 0 1 1.66-1.12 2.4 2.4 0 0 0 4 0 1 1 0 0 1 1.38-.25 1 1 0 0 1 .28 1.38 4.4 4.4 0 0 1-7.32-.01z"/><path fill="#4e6492" d="M70 74.68a26.76 26.76 0 0 1-43-1l.77-2.37a7 7 0 0 1 5.29-4.67l10-2h10.56l10 2a7 7 0 0 1 5.29 4.67z"/><path fill="#5d78a1" d="M67.46 77.54a26.74 26.74 0 0 1-37.95-.82l.66-2.26a6.42 6.42 0 0 1 4.68-4.67l8.84-2H53l8.85 2a6.42 6.42 0 0 1 4.68 4.67z"/><path fill="#809bc4" d="M48.35 70.6 43.54 73l-2-5.4a1.74 1.74 0 0 1 .46-1.8l1.1-1.14zm0 0 4.8 2.4 2-5.4a1.74 1.74 0 0 0-.39-1.79l-1.1-1.14z"/><path fill="#e1346e" d="M50.56 75.41h-4.43l-1.03-3.19 3.24-1.62 3.25 1.62z"/><path fill="#ff526e" d="M52.42 84.8a27.08 27.08 0 0 1-8.12-.15l1.82-9.24h4.45z"/><path fill="#f8ad9d" d="M53.62 64.66v-7.61H43.07v7.61l5.27 5.94z"/><path fill="#f88a7f" d="M43.07 57.05h10.55v7.05H43.07z"/><rect width="37.77" height="6.01" x="29.46" y="45.07" fill="#f8ad9d" rx="2.65"/><path fill="#3f3c6a" d="M33.46 23.31a6.44 6.44 0 0 0 6.15 4.54h.56a6.71 6.71 0 0 0-6.71 6.71v10.51h29.79V35a11.71 11.71 0 0 0-11.71-11.69z"/><path fill="#6273a1" d="M46.2 26.48h5.74a2.47 2.47 0 0 1 1.74.72l1 1a1.71 1.71 0 0 1 0 2.44l-.39.4a1.77 1.77 0 0 1-1.23.5h-5.23a3.21 3.21 0 0 1-3-2l-.25-.62a1.73 1.73 0 0 1 1.62-2.44z"/><path fill="#fbc4ab" d="M61.45 45.07v4.26a13.1 13.1 0 1 1-26.2 0v-4.26L37.68 42a4.85 4.85 0 0 0 1-2.82l.15-3.84a1.64 1.64 0 0 1 1.64-1.58 61.76 61.76 0 0 0 15.51 0 1.64 1.64 0 0 1 1.84 1.57l.18 3.83A4.93 4.93 0 0 0 59 42z"/><path fill="#302d3d" d="M53.92 46.53a1 1 0 0 1-1-1v-.63a1 1 0 1 1 2 0v.63a1 1 0 0 1-1 1zm1.42-3.37H52.5a1 1 0 0 1 0-2h2.84a1 1 0 0 1 0 2zm-12.57 3.37a1 1 0 0 1-1-1v-.63a1 1 0 0 1 2 0v.63a1 1 0 0 1-1 1zm1.42-3.37h-2.84a1 1 0 1 1 0-2h2.84a1 1 0 0 1 0 2zm.51 12.68a1 1 0 0 1 .3-1.39 1 1 0 0 1 1.38.27 2.41 2.41 0 0 0 4 0A1 1 0 0 1 52 55.81a4.41 4.41 0 0 1-7.3.03z"/></svg>
