<svg xmlns="http://www.w3.org/2000/svg" xml:space="preserve" viewBox="0 0 512 512"><path fill="#475569" d="M512 243.712v-70.85L256 3.254 0 172.862v70.85l67.579 144.919L256 411.174l190.517-26.836z"/><path fill="#fff" d="M91.241 66.703h329.513V427.59H91.241z"/><path fill="#cbd5e1" d="M0 508.746V243.712l167.628 120.31-63.55 113.708zm512 0V243.712l-167.63 120.31 63.552 113.708z"/><path fill="#515262" d="M344.37 138.736H167.628c-4.867 0-8.813-3.945-8.813-8.813s3.946-8.813 8.813-8.813H344.37c4.867 0 8.813 3.945 8.813 8.813s-3.946 8.813-8.813 8.813zm0 40.792H167.628c-4.867 0-8.813-3.945-8.813-8.813s3.946-8.813 8.813-8.813H344.37c4.867 0 8.813 3.945 8.813 8.813s-3.946 8.813-8.813 8.813zm0 40.792H167.628c-4.867 0-8.813-3.945-8.813-8.813s3.946-8.813 8.813-8.813H344.37c4.867 0 8.813 3.945 8.813 8.813s-3.946 8.813-8.813 8.813z"/><path fill="#e2e8f0" d="M512 508.746H0l256-221.021z"/></svg>
