<svg xml:space="preserve" viewBox="0 0 60 60"><path d="M57 45.5v-4h1v-5c0-.105 0-.214-3.013-19.157l-.133-.843H53v-3h1.339c.916 0 1.661-.745 1.661-1.661V4.161c0-.916-.745-1.661-1.661-1.661H41.661C40.745 2.5 40 3.245 40 4.161v7.678c0 .916.745 1.661 1.661 1.661H43v3h-2v4h-4v3h-4v-1c1.103 0 2-.897 2-2v-2c0-2.757-2.243-5-5-5s-5 2.243-5 5v2c0 1.103.897 2 2 2v1h-4v-3h-4v-4h-2v-3h1.339c.916 0 1.661-.745 1.661-1.661V4.161c0-.916-.745-1.661-1.661-1.661H5.661C4.745 2.5 4 3.245 4 4.161v7.678c0 .916.745 1.661 1.661 1.661H7v3H5.146l-.134.843C2 36.286 2 36.395 2 36.5v5h1v4H0v12h23v-12h-3v-4h3v1c0 .552.447 1 1 1s1-.448 1-1v-1h2v2.392c0 .887.721 1.608 1.607 1.608h2.785c.887 0 1.607-.721 1.607-1.608V41.5h2v1c0 .552.447 1 1 1s1-.448 1-1v-1h3v4h-3v12h23v-12H57zm-14-41v1c0 .552.447 1 1 1s1-.448 1-1v-1h2v1c0 .552.447 1 1 1s1-.448 1-1v-1h2v1c0 .552.447 1 1 1s1-.448 1-1v-1h1v3H42v-3h1zm-1 7v-2h12v2H42zm3 2h6v3h-6v-3zm-6 9h4v-4h10.146c.178 1.121.398 2.504.635 4H47v9h8.208c.42 2.662.74 4.696.792 5.064V39.5H41v-2h2v-7h-4v-1h2v-6h-2v-1zm15.883 7H49v-5h5.093l.79 5zM27 20.5v-2c0-1.654 1.346-3 3-3s3 1.346 3 3v2c-1.103 0-2 .897-2 2v1h-2v-1c0-1.103-.897-2-2-2zm0 5h12v2H21v-2h6zm4 10h-2v-6h2v6zM7 4.5v1c0 .552.447 1 1 1s1-.448 1-1v-1h2v1c0 .552.447 1 1 1s1-.448 1-1v-1h2v1c0 .552.447 1 1 1s1-.448 1-1v-1h1v3H6v-3h1zm-1 7v-2h12v2H6zm3 2h6v3H9v-3zm-2 5h10v4h4v1h-2v6h2v1h-4v7h2v2H4v-2.936c.053-.368.372-2.402.792-5.064H13v-9H6.218c.237-1.496.457-2.879.635-4H7zm-1.093 6H11v5H5.117l.79-5zM21 47.5v8H2v-8h19zm-16-2v-4h13v4H5zm14-10v-3h4v-3h4v6h-8zm12 8h-2v-2h2v2zm8-4H21v-2h18v2zm-6-4v-6h4v3h4v3h-8zm9 6h13v4H42v-4zm16 14H39v-8h19v8z"/><path d="M30 21.5c.553 0 1-.448 1-1v-3c0-.552-.447-1-1-1s-1 .448-1 1v3c0 .552.447 1 1 1z"/> </svg>
