<svg viewBox="0 0 250 250"><path data-name="Path 104" d="M13.864 165.45C-16.474 82.1 1.199 44.2 84.549 13.864S205.799 1.2 236.135 84.549s12.664 121.251-70.686 151.586S44.199 248.8 13.864 165.45" fill="#333740"/><path data-name="Path 105" d="M86.2 76.858h-5.25c-4.5.01-9.234.89-13.09 3.567a14.529 14.529 0 00-4.723 5.442 17.952 17.952 0 00-1.759 8.123v75.325a2.6 2.6 0 002.6 2.6h10.259a2.6 2.6 0 002.6-2.6v-53.07h9.359a2.6 2.6 0 002.6-2.6v-8.79a2.6 2.6 0 00-2.6-2.6h-9.355v-6.679a9.226 9.226 0 01.452-3.286 2.057 2.057 0 01.51-.81 2.306 2.306 0 011.244-.5 17.7 17.7 0 012.7-.127h4.456a2.6 2.6 0 002.6-2.6v-8.791a2.6 2.6 0 00-2.6-2.6" fill="#fff"/><path data-name="Path 106" d="M148.195 125.12a22.422 22.422 0 00-7.53-17.367c-4.836-4.217-11.626-6.482-19.611-6.479-8.123 0-15.14 2.325-20.263 6.4a22.28 22.28 0 00-8.582 16.592 2.6 2.6 0 002.6 2.723h10.863a2.6 2.6 0 002.594-2.378 8.553 8.553 0 013.515-6.129 15.172 15.172 0 019.273-2.725c4.052 0 6.965 1.1 8.823 2.715a8.427 8.427 0 012.854 6.646v.367a3.322 3.322 0 01-.1.9l-.1.225a1.533 1.533 0 01-.675.408 20.5 20.5 0 01-4.49.921c-2.2.292-5.059.594-8.621 1.071h.006c-6.536.879-13.211 1.948-18.62 5a17.959 17.959 0 00-6.722 6.434 19.869 19.869 0 00-2.55 10.313 22.841 22.841 0 001.942 9.544 19.767 19.767 0 009.2 9.438 30.58 30.58 0 0013.928 3.029c6.25.006 10.99-1.448 14.48-3.671a19.168 19.168 0 002.325-1.733v1.947a2.6 2.6 0 002.6 2.6h4.994l7.865-29.264zm-15.463 19.776a13 13 0 01-3.463 9.328c-2.338 2.358-6.032 4.044-11.878 4.061-3.765.006-6.55-.821-8.215-2.015a5.77 5.77 0 01-1.833-2.059 6.293 6.293 0 01-.654-2.869v-.067a5.922 5.922 0 01.838-3.206 8.741 8.741 0 014.238-3.2 29.744 29.744 0 017.209-1.788c3.706-.521 7.519-1.073 10.68-1.7a49.494 49.494 0 003.081-.706z" fill="#fff"/><path data-name="Path 107" d="M191.737 69.455a2.607 2.607 0 00-2.067-1.02h-13.064a2.6 2.6 0 00-2.515 1.93l-25.897 96.37-1.277 4.761-1.759 6.539a2.6 2.6 0 002.515 3.279h13.064a2.6 2.6 0 002.515-1.927l28.933-107.672a2.614 2.614 0 00-.448-2.261" fill="#a299ff"/></svg>
