<svg xmlns="http://www.w3.org/2000/svg" viewBox="0 0 128 26"><path fill="#000" d="M4.97547 25.0814c.25346-1.1976.49589-2.3559.72731-3.4751.19285-.9327.40865-1.9664.64742-3.1012l.14601-.6929 1.18067-5.708H12.199l.7934-3.77731H8.2649c.03306-.16788.08265-.41691.14877-.74707.06612-.33017.12122-.60717.1653-.83101.17632-.86179.49589-1.50813.95873-1.93903.4628-.43089 1.102-.64634 1.9175-.64634.4628 0 .9201.05596 1.3719.16788.4518.11193.8816.26861 1.2894.47007L15.3066.772252C14.954.615563 14.5435.47846 14.0751.360944c-.4683-.117517-.9615-.207053-1.4794-.2686096C12.0778.0307782 11.5598 0 11.0419 0c-.8155 0-1.59787.0979305-2.34722.293791-.74936.195861-1.43259.526027-2.0497.990499-.61711.46447-1.15433 1.09402-1.61166 1.88866-.45732.79463-.8072 1.78513-1.04964 2.97149-.15428.74986-.32233 1.56409-.50416 2.44266l.05389-.26021H.793431L0 12.1042h2.7438l-.04019.1924c-.07317.3487-.14546.6939-.21687 1.0355l-.10645.5097c-.17632.845-.3361 1.6144-.47936 2.3083l-.34713 1.6788c-.28652 1.3879-.54824 2.6442-.785164 3.769-.236927 1.1248-.47661 2.2859-.7190466 3.4835H4.97547ZM19.0468 8.29404l-.4717 1.21444 2.2103 1.55412c.1192.0831.1827.2387.1652.395l-.0077.0469-.1486.6806c-.0374.1714-.1673.2953-.3206.3056l-1.951.131 1.6685 1.1633c.1191.0831.1827.2386.1652.395l-.0077.0469-.1486.6806c-.0374.1714-.1673.2953-.3206.3056l-1.951.1313 1.6685 1.163c.1191.0831.1827.2386.1652.395l-.0077.0469-.1486.6806c-.0374.1714-.1674.2953-.3206.3056l-1.9507.1312 1.6682 1.1631c.1191.0831.1827.2386.1652.395l-.0078.0469-.1485.6806c-.0374.1714-.1674.2953-.3206.3056l-1.9508.1311 1.6683 1.1632c.1191.0831.1827.2386.1652.395l-.0078.0469-.1485.6806c-.0374.1714-.1674.2953-.3206.3056l-2.736.2413-.3405 1.4598h-2.1845l.6755-2.6821c.0374-.1714.1673-.2953.3206-.3056l1.9508-.1317-1.6683-1.1626c-.1191-.0831-.1827-.2387-.1652-.395l.0077-.0469.1486-.6806c.0374-.1714.1673-.2953.3206-.3056l1.9505-.1316-1.668-1.1627c-.1191-.0831-.1827-.2386-.1652-.395l.0078-.0469.1485-.6806c.0374-.1714.1674-.2953.3206-.3056l1.9506-.1315-1.6681-1.1628c-.1191-.0831-.1827-.2386-.1652-.395l.0078-.0469.1485-.6806c.0374-.1714.1674-.2953.3206-.3056l1.9506-.1314-1.6681-1.1629c-.1191-.0831-.1827-.2386-.1652-.395l.0078-.0469.1485-.6806c.0374-.1714.1674-.2953.3206-.3056l1.9507-.1313-1.6682-1.16303c-.1191-.08305-.1827-.2386-.1651-.39499l.0077-.04687.3037-1.08116 2.4092-.09271ZM20.7269.151123c.8957 0 1.5594.304983 1.991.914947.4317.60997.5612 1.34025.3885 2.19085-.1942.97371-.5962 1.63124-1.2059 1.9726-.6098.34135-1.3679.51203-2.2744.51203-.8849 0-1.5512-.26581-1.9991-.79743-.4478-.53162-.5746-1.28988-.3804-2.27478.1835-.89537.5854-1.53891 1.206-1.930634.6205-.391722 1.3786-.587583 2.2743-.587583ZM27.1244 21.6063c-.2314 1.1192-.4684 2.2775-.7108 3.4751h-4.9424c.2534-1.1976.4959-2.3587.7273-3.4835.2314-1.1248.4959-2.3812.7934-3.769l1.9175-9.30056c.2975-1.36543.584-2.71407.8595-4.04593.2755-1.33185.551-2.6693.8265-4.012351l5.0251-.4364897C31.345 1.35423 31.0612 2.71127 30.7692 4.10468c-.292 1.39341-.5978 2.86237-.9174 4.40687l-1.934 9.30055c-.2975 1.4102-.562 2.6749-.7934 3.7942ZM40.1595 7.8736c1.5869 0 2.8927.26861 3.9176.80583 1.0248.53722 1.7356 1.30107 2.1323 2.29157.3967.9905.4463 2.1685.1488 3.5339-.1102.5596-.2259 1.1276-.3472 1.704-.1212.5764-.2479 1.1779-.3801 1.8047l-.2976 1.4102c-.1763.8394-.3609 1.7236-.5537 2.6525-.1929.929-.405 1.9306-.6364 3.0051h-4.2647l.2149-2.2328h-.3802c-.4077.5931-.8568 1.0828-1.3472 1.4689-.4904.3861-1.0221.6771-1.5951.873-.573.1959-1.1902.2938-1.8514.2938-1.0468 0-1.9229-.2602-2.6282-.7807-.7053-.5204-1.1956-1.2115-1.4711-2.0733-.2755-.8618-.3031-1.8019-.0827-2.8204.1653-.7834.4325-1.4382.8017-1.9642s.8155-.9569 1.3389-1.2927c.5235-.3357 1.102-.6015 1.7356-.7974.6337-.1959 1.2921-.3442 1.9754-.4449l5.1738-.8226c.1102-.5036.0689-.9429-.124-1.3179-.1928-.3749-.5372-.6659-1.0331-.8729-.4959-.2071-1.1295-.3106-1.9009-.3106-.3967 0-.8183.0308-1.2646.0923-.4463.0616-.9119.1511-1.3967.2686-.4849.1175-.9836.263-1.496.4365s-1.0386.3777-1.5786.6128l.7769-4.3985c.3967-.1343.8486-.26581 1.3555-.39452.5069-.12871 1.0414-.24902 1.6034-.36094.562-.11192 1.1378-.20146 1.7273-.26861.5896-.06715 1.1654-.10073 1.7274-.10073Zm.9918 8.8809c-.1543.1119-.3416.221-.562.3274-.2204.1063-.5235.2126-.9092.3189-.3857.1064-.9091.2323-1.5703.3778-.4298.1007-.821.2182-1.1736.3525-.3527.1343-.6447.3246-.8761.5708-.2314.2462-.3857.5652-.4628.9569-.1102.6156-.0055 1.0941.314 1.4354.3196.3414.7549.512 1.3059.512.3967 0 .7962-.0867 1.1984-.2602.4022-.1734.7879-.4225 1.1571-.747.3692-.3246.708-.7107 1.0166-1.1584l.562-2.6861Zm24.0301-5.8911c-.1736-.8425-.5265-1.51448-1.0587-2.01609-.6888-.64914-1.6503-.97371-2.8845-.97371-.7604 0-1.4904.1343-2.1902.40291s-1.3444.63515-1.934 1.09962c-.5895.46447-1.0882.98207-1.4959 1.55287h-.4133l.3471-2.85394-4.1655.25182c-.2865 1.39901-.5675 2.75042-.843 4.05432-.2755 1.3039-.5344 2.5602-.7769 3.7689l-.3471 1.6788c-.2975 1.3878-.562 2.6442-.7934 3.769-.2315 1.1248-.4739 2.2859-.7273 3.4835h4.9424c.2424-1.1976.4793-2.3504.7107-3.4584.2315-1.108.4794-2.2887.7439-3.5422l.7108-3.4752c.3526-.4141.708-.7834 1.0661-1.108.3582-.3246.7329-.582 1.1241-.7722.3912-.1903.8072-.2854 1.248-.2854.7714 0 1.2645.3049 1.4794.9149.2149.61.2176 1.4186.0083 2.4259l-.4794 2.3167c-.2645 1.2535-.5069 2.4287-.7273 3.5255-.2204 1.0969-.4574 2.2496-.7108 3.4584h4.9259c.2534-1.1976.4986-2.3587.7356-3.4835.2369-1.1248.4986-2.3812.7851-3.769.1323-.6491.2617-1.2759.3885-1.8802.1267-.6044.2396-1.1416.3388-1.6117l-.0234.1093.0349-.0389c.2363-.2599.4751-.5024.7163-.7275l.1814-.1655c.3636-.3246.7411-.5848 1.1323-.7807.3912-.1958.8072-.2937 1.248-.2937.7713 0 1.2645.3049 1.4794.9149.2149.61.2176 1.4186.0082 2.4259l-.4793 2.3167c-.2535 1.2647-.4932 2.4427-.7191 3.5339-.2259 1.0913-.4656 2.2412-.719 3.45h4.9424c.2424-1.1976.4794-2.3559.7108-3.4752.2314-1.1192.4959-2.3783.7934-3.7773.1322-.6491.2617-1.2759.3885-1.8802.1267-.6044.2396-1.1416.3388-1.6117.4188-1.9586.2865-3.5255-.3967-4.70065-.6832-1.17517-1.8679-1.76275-3.5539-1.76275-.7604 0-1.4932.1371-2.1985.41131-.7052.2742-1.3582.64634-1.9588 1.11641-.6005.47006-1.1157 1.00168-1.5455 1.59488h-.3625l-.0251-.1328Zm21.3679-2.9898c1.7302 0 3.1407.31897 4.2317.95692 1.0909.63795 1.8293 1.53328 2.2149 2.68608.3857 1.1528.3913 2.4958.0166 4.0292-.0882.3693-.1791.7162-.2728 1.0408-.0702.2434-.1451.4806-.2247.7114l-.0811.2287H82.3145l-.0032.0663c-.0233.6404.0698 1.1975.2791 1.6713.3141.7107.8348 1.2423 1.5621 1.5949.7273.3525 1.6199.5288 2.6778.5288.4629 0 .978-.042 1.5456-.1259.5675-.0839 1.1323-.2127 1.6943-.3861.562-.1735 1.0799-.3946 1.5538-.6632l-.6612 4.2642c-.2976.1791-.7053.347-1.2232.5037-.518.1566-1.1158.2854-1.7935.3861-.6777.1007-1.4078.1511-2.1902.1511-1.9836 0-3.6393-.389-4.9672-1.1668s-2.2646-1.8831-2.8101-3.3156c-.5455-1.4326-.6198-3.1338-.2231-5.1036.3306-1.6229.8926-3.0387 1.686-4.2474.7934-1.2087 1.7907-2.14608 2.9919-2.81201 1.2012-.66593 2.5731-.99889 4.1159-.99889Zm.0992 3.5423c-.562 0-1.1102.1511-1.6447.4533-.5345.3021-1.0111.7722-1.4298 1.4102-.2513.3827-.4668.832-.6467 1.3477l-.0496.1473 5.9737-.1266.0188-.1442c.0819-.7366-.025-1.3965-.3208-1.9797-.3746-.7387-1.0083-1.108-1.9009-1.108ZM99.102 25.0814c.2425-1.1976.4794-2.3476.7108-3.45.2312-1.1024.4792-2.2859.7442-3.5506l.71-3.4752c.353-.4141.714-.7834 1.083-1.108.369-.3246.755-.582 1.157-.7722.402-.1903.84-.2854 1.314-.2854.871 0 1.422.3049 1.653.9149.232.61.237 1.4186.017 2.4259l-.48 2.3167c-.253 1.2535-.493 2.4287-.719 3.5255-.225 1.0969-.465 2.2496-.719 3.4584h4.943c.253-1.1976.498-2.3587.735-3.4835s.494-2.3812.769-3.769c.143-.6491.278-1.2759.405-1.8802.127-.6044.24-1.1416.339-1.6117.408-1.9586.264-3.5255-.43-4.70065-.694-1.17517-1.934-1.76275-3.719-1.76275-.783 0-1.535.1343-2.256.40291-.722.26861-1.381.63515-1.976 1.09962-.595.46447-1.096.98207-1.504 1.55287h-.413l.347-2.85394-4.1656.25182c-.2865 1.39901-.5675 2.75322-.843 4.06272-.2755 1.3095-.5345 2.563-.7769 3.7605l-.3471 1.6788c-.2866 1.3767-.5483 2.6302-.7852 3.7606-.2369 1.1304-.4821 2.2943-.7356 3.4919h4.9424Zm21.863.4533c.397 0 .826-.0364 1.289-.1092.463-.0727.896-.1678 1.298-.2854.402-.1175.719-.2546.95-.4113l.529-4.113c-.43.3021-.857.5148-1.281.6379-.424.1231-.813.1847-1.165.1847-.805 0-1.353-.2798-1.645-.8394-.292-.5596-.322-1.3767-.091-2.4511l1.248-6.0437h4.918l.793-3.77732h-4.924l.033-.15739c.072-.33891.14-.66641.206-.9825l.065-.31228c.171-.82262.339-1.62285.504-2.4007.166-.77784.336-1.60326.513-2.47624l-5.058.88977c-.232 1.10801-.455 2.18245-.67 3.22331-.129.62452-.269 1.29134-.419 2.00047l-.046.21556h-2.667l-.794 3.77732h2.676l-.021.1016-.06.2929c-.176.8674-.344 1.6788-.504 2.4343-.159.7555-.311 1.4829-.454 2.1824-.144.6995-.292 1.413-.447 2.1405-.297 1.4214-.264 2.5966.1 3.5255.363.929.989 1.6201 1.876 2.0733.887.4533 1.97.68 3.248.68Z"/></svg>
