<svg xmlns="http://www.w3.org/2000/svg" viewBox="0 0 512 512"><path fill="#ff4155" d="M470.135 386.1c19.654-35.26 30.867-75.869 30.867-119.102 0-135.311-109.691-245.002-245.002-245.002S10.998 131.687 10.998 266.998c0 43.233 11.213 83.842 30.867 119.102z"/><path fill="#ffaa7b" d="M330.102 315.01c.004-.003.007-.007.007-.007-.59-.166-1.191-.318-1.788-.476-.198-.052-.394-.109-.592-.161l-.004.003c-2.013-.529-4.036-1.04-6.084-1.513-10.152-10.152-12.726-29.399-13.189-42.865-5.298 6.171-10.858 11.333-16.171 15.458-10.352 8.039-23.125 12.405-36.281 12.405s-25.93-4.366-36.281-12.405c-5.313-4.125-10.874-9.288-16.172-15.458-.464 13.466-3.037 32.713-13.19 42.865-2.076.479-4.128.999-6.169 1.535 0 0-.002-.002-.004-.003-.189.049-.376.103-.565.153-.604.16-1.212.314-1.814.479 0 0 .008.007.011.01-9.355 2.562-18.383 5.695-27.206 9.394v23.865c16.447 22.481 38.453 36.497 51.049 41.791 5.661 2.379 11.695 3.585 17.936 3.585h17.684l4.325 1.5h20.79l4.325-1.5h17.684c6.24 0 12.274-1.207 17.935-3.585 12.525-5.265 34.355-19.151 50.772-41.411V324.31c-8.759-3.656-17.722-6.759-27.008-9.3z"/><path fill="#fc9460" d="M219.719 285.451c-5.313-4.126-10.874-9.288-16.172-15.459-.464 13.466-3.037 32.713-13.189 42.865-2.077.479-4.128.999-6.169 1.536 0 0-.002-.002-.004-.003-.189.05-.376.103-.565.154-.604.16-1.212.314-1.814.479 0 0 .008.007.012.01-3.651 1-7.239 2.113-10.798 3.287 9.912 23.667 30.718 64.424 52.73 53.135 30.549-15.667 32.25-73.6 32.25-73.6-13.156 0-25.93-4.366-36.281-12.404z"/><path fill="#ffc839" d="M343.885 363.085c-13.616 12.583-28.181 20.062-37.546 23.998-5.661 2.379-11.695 3.585-17.935 3.585H270.72l-4.325 1.5h-20.79l-4.325-1.5h-17.684c-6.24 0-12.274-1.207-17.936-3.585-2.013-.846-4.277-1.867-6.71-3.056v74.424s-19.073 18.838-5.026 45.6C213.751 509.229 234.55 512 256 512c59.505 0 114.05-21.22 156.496-56.498v-3.622c0-37.255-44.651-72.541-68.611-88.795z"/><path fill="#ffb332" d="M200.95 458.451v-73.466c-9.133-4.277-21.278-11.238-32.767-21.838-23.911 16.212-68.583 51.48-68.583 88.719v3.718c27.721 23.016 60.599 40.034 96.643 49.07-14.655-27.081 4.707-46.203 4.707-46.203z"/><path fill="#ffdd40" d="M470.135 386.1c-.214-.413-.423-.832-.639-1.24-8.001-15.05-21.438-26.485-37.47-32.275l-67.829-24.496c1.249 2.519 2.099 6.246-.318 10.351-6.323 10.743-14.078 19.469-22.049 26.497 22.402 14.931 67.781 49.715 67.781 86.497v6.417c24.495-19.74 45.109-44.095 60.524-71.751z"/><path fill="#ffc839" d="M148.12 338.441c-2.417-4.105-1.566-7.832-.318-10.351l-67.829 24.496c-16.031 5.79-29.468 17.225-37.469 32.275-.217.408-.426.827-.639 1.24 15.415 27.655 36.028 52.011 60.524 71.751v-6.417c0-36.782 45.378-71.565 67.78-86.497-7.971-7.028-15.725-15.754-22.049-26.497z"/><path fill="#fee77f" d="M371.142 293.231c-7.411-17.292-31.448-27.399-63.093-37.994l-2.171 17.329s19.971 78.808-39.483 119.602h28.918c8.1 0 16.111-1.703 23.49-5.046 9.276-4.204 22.284-11.037 33.878-20.512 21.67-17.71 29.486-47.655 18.461-73.379zM208.384 341.28c-11.013-2.834-39.25-6.531-46.772 27.154 10.988 8.532 22.916 14.759 31.585 18.688 7.378 3.344 15.389 5.046 23.489 5.046h28.918c-20.47-14.046-31.523-32.598-37.22-50.888z"/><path fill="#ffdd40" d="m206.122 272.566-2.171-17.329c-31.645 10.595-55.682 20.701-63.093 37.994-11.025 25.724-3.209 55.669 18.462 73.378 1.298 1.061 2.615 2.083 3.941 3.077 7.511-40.209 46.221-25.082 46.221-25.082l.001-.007c-12.494-35.964-3.361-72.031-3.361-72.031z"/><path fill="#deeeff" d="M200.95 458.451c-4.693 0-8.532-3.839-8.532-8.532v-70.083c0-4.693 3.839-8.532 8.532-8.532s8.532 3.839 8.532 8.532v70.083c0 4.693-3.839 8.532-8.532 8.532zm109.822 0c-4.693 0-8.532-3.839-8.532-8.532v-70.083c0-4.693 3.839-8.532 8.532-8.532s8.532 3.839 8.532 8.532v70.083c0 4.693-3.839 8.532-8.532 8.532z"/><path fill="#ff7186" d="M411.6 77.746c-17.771 12.145-31.22 30.742-26.537 58.7 12.27 73.253-44.248 110.625 44.083 149.899 31.405 13.964 51.185 30.3 63.502 44.267 5.444-20.286 8.354-41.61 8.354-63.615 0-76.224-34.812-144.316-89.402-189.251zm-311.2 0c17.771 12.145 31.22 30.742 26.537 58.7-12.27 73.253 44.248 110.625-44.083 149.899-31.405 13.964-51.185 30.3-63.502 44.267-5.444-20.286-8.354-41.61-8.354-63.615 0-76.224 34.812-144.316 89.402-189.251z"/><path fill="#945230" d="M351.433 158.082c6.504-26.523 11.816-66.265-2.247-99.333C321.993-5.195 247.986-1.253 228.374.999c-2.059.236-3.092 2.585-1.921 4.294 11.756 17.162-34.301 1.613-59.334 54.123-15.866 33.279-11.879 72.461-6.079 98.667h190.393z"/><path fill="#753616" d="M254.926 70.454S247.554 53.5 266.223 39.5C284.867 25.518 257.074.397 257.002.332c-12.505-.792-22.894.008-28.628.667-2.059.237-3.092 2.585-1.921 4.294 11.756 17.162-34.301 1.613-59.334 54.123-15.866 33.28-11.879 72.462-6.079 98.667h43.521l13.824-5.492z"/><path fill="#ffaa7b" d="M355.256 154.721c-4.103-3.76-13.276-1.854-16.81.448.774 4.821.818 9.753.15 14.623l-4.17 30.372c0 2.448-.077 4.85-.219 7.21 10.169 3.067 16.22-6.062 17.071-12.327.366-2.697.965-5.355 1.796-7.949 2.704-8.446 12.462-22.956 2.182-32.377z"/><path fill="#fc9460" d="M156.744 154.721c4.103-3.76 13.276-1.854 16.81.448-.774 4.821-.818 9.753-.149 14.623l4.17 30.372c0 2.448.077 4.85.219 7.21-10.169 3.067-16.22-6.062-17.071-12.327-.366-2.697-.965-5.355-1.796-7.949-2.705-8.446-12.463-22.956-2.183-32.377z"/><path fill="#ffc7ab" d="M333.324 138.518c-4.621-7.249-3.09-13.17-3.015-20.103 0 0 3.898-31.917-35.411-43.25-11.38-3.281-27.439-5.243-43.894-4.612-11.451 8.073-18.992 19.919-18.992 36.705 0 7.715 1.663 13.744-3.072 21.566-5.105 8.435-8.076 20.602-6.389 33.542l4.249 32.589c0 46.852 23.748 78.697 43.949 95.217 2.874 2.35 5.941 4.383 9.14 6.131 4.393-1.934 8.559-4.404 12.391-7.38 19.831-15.4 43.144-45.085 43.144-88.758l4.17-30.372c1.645-11.967-1.207-23.331-6.27-31.275z"/><path fill="#ffaa7b" d="M270.955 288.264c-19.831-16.218-43.145-47.48-43.145-93.475l-4.171-31.993c-1.656-12.702 1.26-24.647 6.272-32.928 4.647-7.679 3.015-13.597 3.015-21.172 0-18.073 8.888-30.329 21.999-38.243-34.936.483-73.235 12.325-73.235 47.962 0 7.192 1.633 12.812-3.015 20.104-5.012 7.863-7.928 19.205-6.272 31.267l4.171 30.379c0 43.674 23.313 73.359 43.145 88.758 10.351 8.038 23.125 12.404 36.281 12.404 9.051 0 17.92-2.066 25.944-5.973-3.878-1.926-7.568-4.292-10.989-7.09z"/><path fill="#945230" d="M312.145 235.343c-2.319-13.828-12.296-27.674-25.616-30.695l-20.359-5.981c-3.539-1.039-7.082.776-8.507 3.858-.26.563-1.047.563-1.308 0-1.426-3.082-4.969-4.897-8.508-3.858l-20.359 5.981c-.505.115-1.003.249-1.498.394h.19c-2.157 5.074-5.885 17.675 4.727 27.302 3.427-1.749 7.093-3.088 10.941-3.938l3.636-.803c5.3-1.17 9.399-6.344 10.902-11.857.172-.633 1.072-.633 1.245 0 1.503 5.513 5.601 10.687 10.902 11.857l3.637.803c10.452 2.307 19.61 8.156 26.088 16.331-1.341 5.962-5.546 15.022-18.578 19.627-8.744 3.089-18.286-2.41-19.406-11.512-.014-.118-.028-.236-.041-.356-.184-1.697-1.605-3.002-3.335-3.002-1.729 0-3.151 1.305-3.335 3.002-.013.12-.027.238-.041.356-.602 4.893-3.648 8.727-7.685 10.764-1.122 4.448-2.611 14.038 2.032 23.35 3.358 6.735 9.253 11.947 17.556 15.56 4.206-.849 8.327-2.249 12.236-4.239 20.375-10.373 47.464-28.395 56.129-74.759.712-3.812 1.074-7.688 1.074-11.567-3.299 8.14-10.155 17.932-22.719 23.382z"/><path fill="#753616" d="M234.194 298.276c10.52 5.361 22.545 6.573 33.757 3.67-27.398-10.62-21.735-34.541-20.244-39.447-3.756 2.657-8.79 3.562-13.591 1.866-12.031-4.251-17.206-12.302-19.431-18.205 4.566-6.246 10.648-11.249 17.676-14.528-11.553-9.99-6.07-23.528-4.288-27.155l-.585.172c-13.583 3.08-23.696 17.417-25.751 31.513-13.897-5.24-21.131-15.636-24.6-24.2v.004c0 3.873.361 7.744 1.072 11.551 8.649 46.355 35.608 64.375 55.985 74.759z"/></svg>
