<svg xmlns="http://www.w3.org/2000/svg" viewBox="0 0 512 512"><path fill="#f9cf58" d="m49.567 471.788 36.778 9 36.777-9v-18.036l-36.777-9-36.778 9z"/><path fill="#ffac3e" d="m162.67 471.788 36.778 9 36.778-9v-18.036l-36.778-9-36.778 9z"/><path fill="#82d361" d="m275.774 471.788 36.778 9 36.778-9v-18.036l-36.778-9-36.778 9z"/><path fill="#6cc4ff" d="m388.877 471.788 36.778 9 36.778-9v-18.036l-36.778-9-36.778 9z"/><path fill="#ffe27a" d="M123.122 453.752H49.567v-72.767c0-5.534 4.486-10.02 10.02-10.02h53.517c5.534 0 10.02 4.486 10.02 10.02v72.767z"/><path fill="#ffba57" d="M236.226 453.752H162.67V326.297c0-5.534 4.486-10.02 10.02-10.02h53.516c5.534 0 10.02 4.486 10.02 10.02z"/><path fill="#98db7c" d="M349.33 453.752h-73.556V271.608c0-5.534 4.486-10.02 10.02-10.02h53.517c5.534 0 10.02 4.486 10.02 10.02v182.144z"/><path fill="#8bcaff" d="M462.433 453.752h-73.556V216.919c0-5.534 4.486-10.02 10.02-10.02h53.517c5.534 0 10.02 4.486 10.02 10.02v236.833z"/><path fill="#ff4755" d="m421.956 117.62-8.827-87.925c-.307-3.059-3.272-5.123-6.247-4.348l-85.577 22.288c-4.142 1.079-5.111 6.518-1.597 8.961l22.355 15.543S284.73 183.948 77.58 247.876v5.588c56.837.311 205.414-15.944 298.599-141.163l15.567-5.618 22.365 15.55c3.512 2.442 8.272-.357 7.845-4.613z"/><path fill="#fc2b3a" d="M382.772 100.345c-2.23-1.575-5.297-1.065-6.926 1.125C282.661 226.689 163.112 242.458 80.97 248.164c-1.21.084-2.317-.037-3.327-.307l-.073.023c-10.595 3.342-7.627 19.087 3.456 18.316 83.006-5.775 220.024-35.418 310.719-159.512z"/><path fill="#407093" d="M504.485 486.817H7.515c-4.15 0-7.515-3.365-7.515-7.515s3.364-7.515 7.515-7.515h496.971c4.15 0 7.515 3.365 7.515 7.515-.001 4.15-3.366 7.515-7.516 7.515z"/></svg>
