<svg xmlns="http://www.w3.org/2000/svg" viewBox="0 0 512 512"><path fill="#f1b0a2" d="M386.253 144.318c-19.781 5.288-31.523 25.615-26.225 45.39l3.038 11.338c.287 1.07-1.029 1.83-1.812 1.046l-88.549-88.549c-9.175-9.175-24.05-9.175-33.224 0-9.175 9.175-9.175 24.049 0 33.224l-19.835-19.835c-9.175-9.175-24.049-9.175-33.224 0-9.175 9.175-9.175 24.049 0 33.224l19.835 19.835c-9.376-9.376-24.704-9.17-33.819.617-8.682 9.322-8.015 23.998.993 33.006l21.796 21.796c-9.175-9.175-24.05-9.175-33.224 0-9.175 9.175-9.175 24.049 0 33.224l117.898 117.898c15.353 15.353 34.697 24.283 54.693 26.79 12.425 1.558 23.948 7.298 32.803 16.152l32.259 32.254 88.337-88.337-32.264-32.27c-8.803-8.806-14.597-20.243-16.122-32.601-.647-5.245-1.735-10.446-3.266-15.542L398.39 151.344c-1.414-5.285-6.849-8.439-12.137-7.026z"/><path fill="#eb9c8d" d="M375.428 350.065c4.142 0 7.5-3.358 7.5-7.5s-3.358-7.5-7.5-7.5c-10.553 0-20.474-4.109-27.936-11.571s-11.571-17.383-11.571-27.936 4.109-20.474 11.571-27.936c5.968-5.968 13.516-9.807 21.826-11.1 2.104-.327 3.97-1.533 5.132-3.317s1.511-3.978.96-6.034L363.1 201.23c.101.97-1.108 1.601-1.846.863l-18.376-18.376 16.044 59.877c-8.276 2.614-15.785 7.171-22.036 13.422-10.295 10.295-15.965 23.983-15.965 38.542s5.67 28.248 15.965 38.542 23.983 15.965 38.542 15.965z"/><path fill="#eb9c8d" d="M455.73 341.122c-8.803-8.806-14.597-20.243-16.121-32.601-.647-5.245-1.735-10.445-3.266-15.542l-37.951-141.633c-1.415-5.281-6.894-8.435-12.174-7.018-9.086 2.438-16.473 8.05-21.288 15.324l30.204 112.723c1.53 5.097 2.619 10.297 3.266 15.542.881 7.14 3.03 13.192 5.592 18.18 6.3 12.266 4.136 27.163-5.615 36.913l-69.43 69.43c1.875.352 3.759.646 5.649.883 12.425 1.558 23.948 7.298 32.803 16.152l32.259 32.254 88.337-88.337z"/><path fill="#fed2a4" d="M125.8 144.348c19.777 5.286 31.516 25.608 26.218 45.379l-3.037 11.334c-.287 1.07 1.028 1.83 1.812 1.046l88.527-88.527c9.172-9.172 24.044-9.172 33.216 0s9.172 24.044 0 33.216l19.831-19.831c9.172-9.172 24.044-9.172 33.216 0s9.172 24.044 0 33.216l-19.831 19.831c9.374-9.373 24.699-9.168 33.811.616 8.68 9.32 8.013 23.992-.993 32.998l-21.791 21.791c9.172-9.172 24.044-9.172 33.216 0s9.172 24.044 0 33.216l-117.87 117.87c-15.35 15.35-34.689 24.278-54.68 26.784-12.422 1.557-23.942 7.297-32.796 16.148l-38.196 38.191-88.316-88.316 38.201-38.207c8.801-8.804 14.594-20.238 16.118-32.593.647-5.244 1.735-10.443 3.265-15.538l37.942-141.6c1.417-5.284 6.851-8.437 12.137-7.024z"/><path fill="#ffbd86" d="M349.996 235.418c-6.085-6.085-14.679-8.133-22.453-6.144L190.917 365.9c-15.35 15.35-34.689 24.278-54.68 26.784-12.422 1.557-23.942 7.297-32.796 16.148l-27.893 27.89 30.906 30.906 38.196-38.191c8.853-8.851 20.374-14.591 32.796-16.148 19.991-2.506 39.331-11.434 54.68-26.784l117.87-117.87c9.173-9.173 9.173-24.044 0-33.217z"/><path fill="#01c0fa" d="M105.365 489.864.405 384.903c-.54-.539-.54-1.414 0-1.954L45.1 338.253c.54-.539 1.414-.539 1.954 0l104.961 104.961c.54.54.54 1.414 0 1.954l-44.696 44.696c-.539.539-1.414.539-1.954 0z"/><path fill="#fd4755" d="m511.595 384.903-104.96 104.961c-.539.54-1.414.54-1.954 0l-44.696-44.696c-.539-.539-.539-1.414 0-1.954l104.961-104.961c.54-.539 1.414-.539 1.954 0l44.696 44.696c.539.54.539 1.414-.001 1.954z"/><path fill="#ffe177" d="M255.463 78.621c-7.855 0-14.222-6.367-14.222-14.222V35.954c0-7.855 6.368-14.222 14.222-14.222 7.855 0 14.222 6.368 14.222 14.222v28.444c0 7.855-6.367 14.223-14.222 14.223zm63.997 12.314c-6.802-3.927-9.133-12.626-5.206-19.428l14.222-24.634c3.927-6.802 12.626-9.133 19.428-5.206 6.802 3.927 9.133 12.626 5.206 19.428l-14.222 24.634c-3.927 6.803-12.625 9.133-19.428 5.206zm-127.995 0c6.802-3.927 9.133-12.626 5.206-19.428l-14.222-24.634c-3.927-6.802-12.626-9.133-19.428-5.206-6.802 3.927-9.133 12.626-5.206 19.428l14.222 24.634c3.928 6.803 12.626 9.133 19.428 5.206z"/><path fill="#ffbd86" d="m343.827 187.158-89.912 89.912c-2.929 2.929-2.929 7.678 0 10.606 1.464 1.464 3.384 2.197 5.303 2.197s3.839-.732 5.303-2.197l74.059-74.06c7.093-7.099 9.007-17.717 5.247-26.458zm-194.845 13.903 3.037-11.334c1.013-3.78 1.402-7.579 1.232-11.29l-34.597 34.598c-2.929 2.929-2.929 7.678 0 10.606 1.464 1.464 3.384 2.197 5.303 2.197s3.839-.732 5.303-2.197l21.532-21.532c-.784.781-2.097.022-1.81-1.048zm43.804 22.38c1.919 0 3.839-.732 5.303-2.197l74.447-74.447c7.056-7.056 8.684-17.484 4.884-26.097l-89.937 89.938c-2.929 2.929-2.929 7.678 0 10.606 1.465 1.464 3.384 2.197 5.303 2.197zm137.681-89.356L220.699 243.854c-2.929 2.929-2.929 7.678 0 10.606 1.464 1.464 3.384 2.197 5.303 2.197s3.839-.732 5.303-2.197l94.293-94.293c7.044-7.055 8.667-17.475 4.869-26.082z"/><circle cx="40.718" cy="378.567" r="7.5" fill="#f2fbff"/><circle cx="400.299" cy="449.55" r="7.5" fill="#f2fbff"/></svg>
