<svg viewBox="0 0 165 34"><g fill="none"><path fill="currentColor" d="m0 12.0855268 6.53773713 6.5528368 1.93177257 1.9163257 6.2896465 6.2899267c0 .015438.4636069.4484755 0 .8966422L8.50023157 34H4.63684081C2.08723449 34 0 31.9141644 0 29.3633346V12.0855268Zm27.6370224 6.8546507.026708.0225396 6.3359608 6.3359321v4.0653029c0 2.5494404-2.0859994 4.6354304-4.635297 4.6354304H11.9617679l7.4959816-7.4944037 7.5572709-7.5422617c.2570448-.2706291.5361661-.0901582.622002-.0225396ZM29.3633136 0C31.9141549 0 34 2.08722501 34 4.63681976V21.8374373l-6.6609334-6.6764956-1.5450475-1.5448861-6.7998765-6.78440759c-.3248182-.32481667 0-.6499421 0-.6499421L25.1758766 0h4.187437Zm-7.6489734.00030876L6.92446216 14.790274c-.30968878.3096874-.55747069.1851023-.68082131.0771903L0 8.62369741V4.63681976c0-2.55052103 2.08723449-4.636511 4.63668643-4.636511H21.7143402Z"/><path fill="currentColor" d="M50.2198248 9.43658269c.6256297-.62562979.6256297-1.56407448.0223439-2.16736035-.6032859-.62562979-1.5864184-.62562979-2.1897043 0-.6032859.60328587-.6032859 1.54173056 0 2.16736035.6256298.60328591 1.5640745.60328591 2.1673604 0Zm.1340635 13.29463311V11.5592552h-2.4131435v11.1719606h2.4131435Zm7.2818271.2904709c2.1673604 0 4.0665937-1.117196 5.0273823-2.9047097l-2.0779847-1.1842278c-.5362541 1.0501643-1.6534501 1.7204819-2.9717415 1.7204819-.9831325 0-1.8098576-.3351588-2.4801752-1.0054764-.6479737-.6703177-.9831326-1.4970428-.9831326-2.5025192 0-1.0054765.3351589-1.8322015.9831326-2.5025192.6703176-.6703176 1.4970427-1.0054764 2.4801752-1.0054764 1.3406353 0 2.4131435.6479737 2.9270537 1.7204819l2.0779847-1.2065717c-.8937569-1.7651698-2.8153341-2.8823659-4.9826945-2.8823659-1.675794 0-3.0834611.5585981-4.223001 1.698138-1.1171961 1.1171961-1.6757941 2.5025192-1.6757941 4.1783133 0 1.6534502.558598 3.0387733 1.6757941 4.1783132 1.1395399 1.13954 2.547207 1.698138 4.223001 1.698138Zm11.3739124 0c1.6534501 0 3.0387732-.558598 4.1783132-1.698138 1.13954-1.1395399 1.7204819-2.524863 1.7204819-4.1783132s-.5809419-3.0387733-1.7204819-4.1783133c-1.13954-1.1395399-2.5248631-1.698138-4.1783132-1.698138-1.6311063 0-3.0387733.5585981-4.1783133 1.698138-1.13954 1.13954-1.7204819 2.5248631-1.7204819 4.1783133s.5809419 3.0387733 1.7204819 4.1783132c1.13954 1.13954 2.547207 1.698138 4.1783133 1.698138Zm-2.4801753-3.3515881c-.6703176-.6703177-1.0054764-1.5193867-1.0054764-2.5248631 0-1.0054765.3351588-1.8545455 1.0054764-2.5248631.6703176-.6703176 1.4970427-1.0054765 2.4801753-1.0054765.9831325 0 1.8098576.3351589 2.4801752 1.0054765.6703176.6703176 1.0054764 1.5193866 1.0054764 2.5248631 0 1.0054764-.3351588 1.8545454-1.0054764 2.5248631-.6703176.6703176-1.4970427 1.0054764-2.4801752 1.0054764-.9831326 0-1.8098577-.3351588-2.4801753-1.0054764Zm15.4143653-8.4013144c-1.5864184 0-2.7259584.580942-3.4633078 1.720482v-1.430011h-2.4131434v11.1719606H78.48051v-5.9881709c0-2.1673603 1.13954-3.2175246 2.837678-3.2175246 1.5417306 0 2.5025192.9161007 2.5025192 2.5918948v6.6138007h2.4131435V15.871632c0-2.8600219-1.720482-4.6028478-4.2900329-4.6028478ZM93.28758 23.0216867c1.6534502 0 3.0387733-.558598 4.1783133-1.698138 1.1395399-1.1395399 1.7204819-2.524863 1.7204819-4.1783132s-.580942-3.0387733-1.7204819-4.1783133c-1.13954-1.1395399-2.5248631-1.698138-4.1783133-1.698138-1.6311062 0-3.0387733.5585981-4.1783132 1.698138-1.13954 1.13954-1.720482 2.5248631-1.720482 4.1783133s.580942 3.0387733 1.720482 4.1783132c1.1395399 1.13954 2.547207 1.698138 4.1783132 1.698138Zm-2.4801752-3.3515881c-.6703177-.6703177-1.0054765-1.5193867-1.0054765-2.5248631 0-1.0054765.3351588-1.8545455 1.0054765-2.5248631.6703176-.6703176 1.4970427-1.0054765 2.4801752-1.0054765.9831325 0 1.8098576.3351589 2.4801753 1.0054765.6703176.6703176 1.0054764 1.5193866 1.0054764 2.5248631 0 1.0054764-.3351588 1.8545454-1.0054764 2.5248631-.6703177.6703176-1.4970428 1.0054764-2.4801753 1.0054764s-1.8098576-.3351588-2.4801752-1.0054764Zm11.8462332-5.0273823c0-.7820372.715005-1.1842278 1.631106-1.1842278 1.005477 0 1.720482.4245345 2.100329 1.2736035l2.033297-1.13954c-.782038-1.4523548-2.27908-2.3237678-4.133626-2.3237678-1.161884 0-2.145016.3128149-2.927054.9384447-.782037.6256298-1.161883 1.4523549-1.161883 2.4801753-.044688 2.3461117 2.212048 3.0164293 3.887842 3.4409638 1.184228.290471 2.122672.7150055 2.122672 1.430011 0 .8267251-.625629 1.2512596-1.899233 1.2512596-1.273603 0-2.100329-.5362542-2.480175-1.6087624l-2.0779849 1.2065718c.7150059 1.6311062 2.3461119 2.6142387 4.5581599 2.6142387 1.25126 0 2.27908-.3128148 3.105805-.9161007.826725-.6032859 1.25126-1.4523549 1.25126-2.5248631.044688-2.3907996-2.189705-3.105805-3.910187-3.4856517-1.161883-.3351588-2.100328-.7150055-2.100328-1.4523549Zm16.285298-1.4746988c-.916101-1.2736035-2.212048-1.8992333-3.910186-1.8992333-1.541731 0-2.837678.580942-3.93253 1.720482-1.094852 1.1395399-1.631106 2.524863-1.631106 4.1559693 0 1.6534502.536254 3.0387733 1.631106 4.1783132 1.094852 1.13954 2.390799 1.698138 3.93253 1.698138 1.698138 0 2.994085-.6256297 3.910186-1.8768893V27.2h2.413144V11.5592552h-2.413144v1.6087623Zm-6.055203 6.5467689c-.670317-.6926615-1.005476-1.5417305-1.005476-2.5695509s.335159-1.8768894 1.005476-2.547207c.670318-.6926616 1.519387-1.0278204 2.524864-1.0278204 1.005476 0 1.854545.3351588 2.524863 1.0278204.670317.6703176 1.005476 1.5193866 1.005476 2.547207 0 1.0278204-.335159 1.8768894-1.005476 2.5695509-.670318.6703177-1.519387 1.0054765-2.524863 1.0054765-1.005477 0-1.854546-.3351588-2.524864-1.0054765Zm17.749409-2.1673603c0 2.1673603-1.13954 3.2175246-2.837678 3.2175246-1.54173 0-2.502519-.9161008-2.502519-2.5918948v-6.6138007h-2.413143v6.8595838c0 2.8600219 1.720481 4.6028477 4.290032 4.6028477 1.586419 0 2.725959-.5809419 3.463308-1.7204819v1.430011h2.413144V11.5592552h-2.413144v5.9881709Zm13.167558-4.4017525c-.916101-1.2512596-2.212049-1.8768894-3.910187-1.8768894-1.54173 0-2.837678.5585981-3.93253 1.698138-1.094852 1.13954-1.631106 2.5248631-1.631106 4.1783133 0 1.6311062.536254 3.0387733 1.631106 4.1783132 1.094852 1.13954 2.3908 1.698138 3.93253 1.698138 1.698138 0 2.994086-.6256297 3.910187-1.8992332v1.6087623h2.413143V11.5592552H143.8007v1.5864184Zm-6.055203 6.5691128c-.670318-.6926615-1.005476-1.5417305-1.005476-2.5695509s.335158-1.8768894 1.005476-2.547207c.670318-.6926616 1.519387-1.0278204 2.524863-1.0278204 1.005477 0 1.854546.3351588 2.524863 1.0278204.670318.6703176 1.005477 1.5193866 1.005477 2.547207 0 1.0278204-.335159 1.8768894-1.005477 2.5695509-.670317.6703177-1.519386 1.0054765-2.524863 1.0054765-1.005476 0-1.854545-.3351588-2.524863-1.0054765Zm12.083599-8.1555312h-2.413143v11.1719606h2.413143v-5.6306682c0-1.1395399.335159-1.966265 1.02782-2.4578313.692662-.5139102 1.497043-.7373494 2.413144-.6703176v-2.6142388c-1.675794 0-2.837678.6926616-3.440964 2.0779847v-1.8768894Zm15.065613 6.6138007c.067031-.4245345.089375-.7596934.089375-1.0054765 0-1.6311062-.536254-3.0387733-1.586418-4.1783132-1.050164-1.13954-2.3908-1.720482-4.021906-1.720482-1.720482 0-3.150493.5585981-4.245345 1.698138-1.094852 1.1171961-1.65345 2.5025192-1.65345 4.1783133 0 1.698138.558598 3.105805 1.675794 4.2230011 1.117196 1.0948521 2.591895 1.6534501 4.401752 1.6534501 2.167361 0 3.798467-.8043811 4.893319-2.4354874l-1.988609-1.1618839c-.647974.9161008-1.608762 1.3853232-2.882366 1.3853232-1.854545 0-3.217524-.9384447-3.575027-2.6365827h8.892881Zm-8.915225-1.9662651c.335159-1.698138 1.586418-2.7483023 3.373932-2.7483023 1.586419 0 2.860022.9384447 3.195181 2.7483023h-6.569113Z"/></g></svg>
