<svg xmlns="http://www.w3.org/2000/svg" viewBox="0 0 512 512"><circle cx="73.143" cy="93.46" r="48.762" fill="#ffc269"/><path fill="#ffa95f" d="M211.029 158.476c0-49.373-31.625-89.397-80.997-89.397-24.142 0-46.049 9.57-62.135 25.123 0 0-8.897 30.9-8.897 56.131 0 40.635 21.659 73.159 71.032 73.159s80.997-24.381 80.997-65.016z"/><path fill="#ff8b5a" d="M97.524 125.968C86.607 119.17 74.909 109.435 67.9 94.206c-16.821 16.255-27.265 39.031-27.265 64.27 0 40.417 39.605 64.731 88.611 64.992z"/><path fill="#95d6a4" d="M154.413 272.254H97.516c-35.907 0-65.016 29.109-65.016 65.016v105.651h162.548V312.889c0-22.442-18.193-40.635-40.635-40.635z"/><path fill="#78c2a4" d="M97.524 272.254h-8.127c-35.907 0-65.016 29.109-65.016 65.016v105.651h16.254V337.27c0-26.931 21.831-48.762 48.762-48.762h8.127z"/><path fill="#f7d291" d="M121.905 304.762c-17.954 0-32.508-14.554-32.508-32.508v-10.831l65.016 6.984v3.848c0 17.953-14.555 32.507-32.508 32.507z"/><path fill="#ecbd83" d="M89.397 261.423c11.908 6.851 25.667 10.831 40.363 10.831 8.595 0 16.872-1.364 24.653-3.848v-36.787H89.397z"/><path fill="#eceaec" d="M227.556 428H89c-8.977 0-16.254-7.277-16.254-16.254V337.27l8.524-16.254h146.286c8.977 0 16.254 7.277 16.254 16.254v81.27z"/><path fill="#dad8db" d="M81.27 321.016c-8.977 0-16.254 7.277-16.254 16.254v81.27c0 8.977 7.277 16.254 16.254 16.254h146.286c8.977 0 16.254-7.277 16.254-16.254H105.651c-13.465 0-24.381-10.916-24.381-24.381z"/><path fill="#ffe1a0" d="M97.251 125.968c25.836 18.32 62.75 24.259 82.945 26.178 8.302.789 14.579 7.824 14.579 16.163v22.674c0 33.046-24.654 60.336-56.572 64.475-2.764.358-6.842-.084-9.703-.084-35.907 0-57.25-28.484-57.25-64.391v-.015c0-17.156-.623-33.717 10.02-47.054.978-1.226 1.954-2.458 3.013-3.627z"/><path fill="#f7d291" d="M81.27 190.984v-47.069c-10.461 11.55-16.254 26.576-16.254 42.159v4.91c0 35.907 29.109 65.016 65.016 65.016 2.758 0 5.503-.208 8.171-.541-32.063-4.008-56.933-31.326-56.933-64.475z"/><circle cx="154.413" cy="377.905" r="16.254" fill="#fff"/><path fill="#fff" d="M137.889 226.794c-6.976 0-13.754-1.389-19.587-4.02-4.095-1.841-5.921-6.651-4.079-10.746 1.849-4.087 6.651-5.921 10.746-4.071 7.524 3.381 18.31 3.385 25.841-.004 4.079-1.845 8.897-.016 10.746 4.079 1.841 4.095.016 8.905-4.079 10.746-5.85 2.627-12.62 4.016-19.588 4.016z"/><circle cx="113.778" cy="178.794" r="8.127" fill="#78c2a4"/><circle cx="162.54" cy="178.794" r="8.127" fill="#78c2a4"/><path fill="#ecbd83" d="M292.571 434.794H8.127c-4.492 0-8.127 3.639-8.127 8.127s3.635 8.127 8.127 8.127h284.444z"/><path fill="#c3ddff" d="M469.649 271.389 438.871 256l-40.371-6.333L341.333 256l-47.046 23.523c-4.537 2.268-8.386 5.513-11.343 9.405L292.572 437H487.62V300.465c-.001-12.313-6.958-23.569-17.971-29.076z"/><path fill="#a4ccff" d="M333.206 348.673c0-12.344-5.611-24.019-15.251-31.731l-35.009-28.013c-4.218 5.555-6.63 12.431-6.63 19.669v142.449c0 8.977 7.277 16.254 16.254 16.254h40.635V348.673z"/><path fill="#9b959d" d="M479.492 353.524h-97.524c-17.954 0-41.802 10.726-45.468 33.476l12.96 80.302h146.286c8.977 0 16.254-7.277 16.254-16.254v-65.016c0-17.954-14.554-32.508-32.508-32.508z"/><path fill="#857e87" d="M381.968 353.524h-16.254c-17.954 0-32.508 14.554-32.508 32.508v81.27h16.254v-81.27c0-17.954 14.554-32.508 32.508-32.508z"/><path fill="#f5b97d" d="M349.46 223v23.914c0 3.078-1.739 5.892-4.493 7.269L341.333 256h97.538l-7.272-3.636c-5.506-2.753-8.985-8.381-8.985-14.537l-.011-136.24H307v65.016c0 30.284 14.434 49.169 42.46 56.397z"/><path fill="#e3aa75" d="M316.952 166.603v-65.016h-16.254v65.016c0 32.772 24.247 59.88 55.779 64.365 4.872.693 9.237-3.193 9.237-8.114 0-4.014-2.944-7.411-6.918-7.976-23.654-3.36-41.844-23.693-41.844-48.275z"/><path fill="#9f6e50" d="M390.095 52.825h-56.889c-22.442 0-36.71 14.979-36.71 37.421 0 8.977 7.277 16.254 16.254 16.254 13.465 0 20.456 14.13 20.456 27.595v24.381c0 22.442 18.193 40.635 40.635 40.635h40.635c17.954 0 32.508-14.555 32.508-32.508v-56.889c0-31.419-25.47-56.889-56.889-56.889z"/><path fill="#785353" d="M325.079 52.825c-22.442 0-40.635 18.193-40.635 40.635 0 8.977 7.277 16.254 16.254 16.254h8.127c13.465 0 24.381 10.916 24.381 24.381v-81.27z"/></svg>
