<svg xml:space="preserve" viewBox="0 0 204.9 90.5"><path fill="currentColor" d="M164.1 84.6c-1.3 0-2.2-1.1-2.2-2.8 0-3.4 3.6-9.3 16.2-13.9-4.4 9.4-9 16.7-14 16.7m-60.3-1.2c4.6-13.5 9.8-25.7 15.2-36.8 6.1 11.3-2.5 31.5-14.7 36.5l-.5.3zM19.6 69.5c9.9 0 19.2-5.8 26.3-24.8C53.1 27.2 57.2 15 63.5 15c2.4-4-.5-7.6-3.3-7.6-24.8-.5-44.8 0-44.8 11 0 5 4 8 8.3 6.1-5.6-10.2 10.5-11.1 27.3-11C46.2 20 41.6 31 37.5 42.9c-5.1 14.1-10 20.8-18 20.8C12.6 63.7 7.8 57 7 45.3c-5.4 1.2-7 4.4-7 8.3 0 9.7 10.2 15.9 19.6 15.9m46-31.8c2-4 4.6-6.8 6.5-6.8.9 0 1.5 1.1 1.5 2.5 0 1.2-2.4 2.8-7.4 4.1l-.6.2zm98.2 52.8c10.7 0 17.8-11.8 23.2-25.3 5-1.1 10.9-2.1 17.8-2.8.8-3.6-2-5.2-9-4.1-2.3.4-4.4.8-6.5 1.2 2.3-5.8 4.2-11.8 6.2-16.9 4.1-4.6 7.2-9.1 7.2-11.5 0-2.7-2-4.4-5.7-4.4-2.7 0-5.8 7.3-9.4 16.8-4.5 3.8-9.4 7.2-12.2 7.2-.3 0-.5-.3-.5-1.1 0-2.2 4.5-11.7 7.8-16.7 2.5-3.8 1.6-4.9-.9-4.9-1.5 0-4.4.8-6.1 2.4-1.9 1.9-3.6 4.5-5 7.4-8.1 6.2-20.6 11.9-24.6 11.9-.8 0-1.2-.3-1.2-1.3 0-2.5.9-5.9 2.4-9.8 18.9-8.1 25.2-17.4 25.2-23.2 0-6.4-3.3-9.9-9.7-9.9-5.7 0-17.4 15.6-22.9 29.9-5.2 2-11.1 3.7-17.3 4.9 6.5-12.6 13.5-23.7 21-34.3 2.6-3.6 1.9-6-.3-6-3.2 0-6.5 2.3-9.1 5.7-5.2 6.9-11.5 17.6-17.6 29-6.4 7.1-18.1 15-21.9 15-1.1 0-1.2-.3-1.2-1.3 0-5 4.8-14.3 10.3-23.4 2.9 0 5.7-.1 7.9-.3 6.1-.4 9.5-4.6 1.5-4.8-2.1 0-4.2-.1-6.2-.1.9-1.6 2-3.2 2.9-4.6 2.5-4-6.5-4.2-10.1 2-.5.9-1.1 1.7-1.5 2.7-5-.1-9.5 0-13.6.1-5.2 0-8.2 4-1.7 4.4 3.8.3 8.1.4 12.1.5-2.5 4.1-4.6 7.6-6.2 10.6-7 7-18.8 14.2-24.6 14.2-1.1 0-1.5-.3-1.5-1.3 0-1.8.3-3.8.8-5.7 11-1.6 15.1-5.3 15.1-7.8 0-4.6-3-9.4-10.1-9.4-5.3 0-14.2 11.8-14.2 23.3 0 3.6 5.4 7.4 9.5 7.4 5.3 0 14-4.5 21.2-10.5-.1.8-.1 1.7-.1 2.6 0 3.6 4.6 7.8 8.9 7.8 3.6 0 10.1-3.5 16.3-9C102.5 63 96.5 78 96.5 83.3c0 3.6 5 6.2 6.8 6.2 5.3 0 14.3-5.3 20.9-16.8 4.7-8.2 4.9-21.6 1.6-27.3 4.4-.9 8.2-2.1 11.8-3.3-.7 2.4-.9 4.8-.9 6.8 0 3 4.6 7.3 8.7 7.3 5 0 14.6-4.6 22.2-10.3-.3 1.6-.5 3-.5 4.4 0 4.4 5.6 6.9 7.4 6.9 2.5 0 5.8-1.7 9.4-4.2-1 2.9-2.2 5.8-3.3 8.7-17.9 5.3-25.7 13.1-25.7 19.9 0 4.8 4.8 8.9 8.9 8.9M151 30.2c5.2-9.8 11.9-19.2 14.2-19.2.9 0 1.5 1.1 1.5 2.3 0 5.2-5.7 11.5-15.5 17l-.2-.1z"/></svg>
