<svg viewBox="0 0 504 100"><path fill="#5333ED" d="M214.68 16.5400001c-3.769476-3.8201041-8.241396-6.87608649-13.17-8.99999997-5.054113-2.1688203-10.500254-3.27506778-16-3.25041668-5.169283-.00901676-10.294504.95090208-15.11 2.83041668-4.76658 1.85227377-9.152611 4.56388487-12.94 7.99999997l-6.65-7.71999997c-.717854-.82560372-1.755978-1.30277677-2.85-1.31h-.21c-1.001601-.00000352-1.962034.39856419-2.669334 1.10774062-.707301.70917644-1.103323 1.67066171-1.10068 2.67225938V95.2700001c-.005528 2.0892734 1.680762 3.7889822 3.770014 3.8h16.08c1.005172-.0026486 1.968121-.4044935 2.67701-1.1171325.708888-.712639 1.105646-1.6776959 1.10299-2.6828675v-49.27c-.013597-2.3698734.455959-4.717654 1.38-6.9.885438-2.122328 2.176186-4.051656 3.8-5.68 3.381115-3.3600532 7.963357-5.2318256 12.73-5.2 2.347335-.0145065 4.672436.4552796 6.83 1.38 4.253554 1.8229732 7.634041 5.2249698 9.43 9.49.918726 2.1839807 1.388062 4.5306619 1.38 6.9v49.34c-.000029 2.0908963 1.689133 3.7889953 3.78 3.8H223c2.089252-.0110178 3.775542-1.7107266 3.770613-3.8v-49.33c.029802-5.5639056-1.072574-11.0757852-3.240613-16.2-2.085687-4.9394728-5.088683-9.438877-8.85-13.26ZM397.09 6.32994616h-63.36c-2.083729.01107178-3.765542 1.70630335-3.760014 3.79005397V26.1200001c-.002642.9998673.392009 1.9598371 1.097146 2.6687254.705138.7088883 1.663001 1.108626 2.662868 1.1112746h4c2.089253.0055126 3.780007 1.7007399 3.78 3.79v23.82c-.028744 5.5465812 1.070166 11.0411345 3.23 16.15 4.253803 9.967254 12.182367 17.9137236 22.14 22.19 5.083342 2.1887915 10.565593 3.2988623 16.1 3.26h14.15c1.005172-.0026486 1.968121-.4044935 2.67701-1.1171325.708888-.712639 1.105646-1.6776959 1.103003-2.6828675v-16c.002644-1.0042498-.394432-1.9682786-1.103608-2.6793304-.709175-.7110518-1.672152-1.1106731-2.676405-1.1106696h-14.19c-2.406504.0063595-4.788803-.4803102-7-1.43-2.125575-.9127866-4.059508-2.2190392-5.7-3.85-1.626497-1.632037-2.920464-3.5644974-3.81-5.69-.929654-2.2153687-1.395894-4.5976167-1.37-7v-23.82c-.000029-2.0853735 1.684656-3.7789954 3.77-3.79h28.29c2.087636 0 3.78-1.6923636 3.78-3.78V10.16000013c.010733-1.01555974-.38658-1.99293711-1.102847-2.7129639-.716267-.72002679-1.691551-1.12245227-2.707153-1.11709007Zm103-1.71994603h-.16c-1.136875-.00476439-2.21453.50647792-2.93 1.39l-5.55 6.64999997c-.639208.7731259-1.560856 1.2587692-2.559948 1.3489128-.999092.0901437-1.992782-.2226873-2.760052-.8689128-1.35-1.15-2.77-2.24-4.24-3.28999997-2.499327-1.78954526-5.149273-3.3587681-7.92-4.69-2.744378-1.32011907-5.611379-2.36845024-8.56-3.13-2.914878-.74558654-5.911281-1.12517559-8.92-1.13087808-6.312961-.0376159-12.569575 1.18990461-18.4 3.61087808-5.650953 2.32180221-10.781291 5.74882672-15.09 10.07999997-4.376328 4.4782209-7.831579 9.7715156-10.17 15.58-2.529682 6.3363337-3.790207 13.1078316-3.71 19.93-.123908 7.0920706 1.136273 14.1402535 3.71 20.75 2.293596 5.7817037 5.755816 11.0278015 10.17 15.41 4.305451 4.2003818 9.43274 7.4653689 15.06 9.59 5.876428 2.2296811 12.114929 3.3519332 18.4 3.31 2.993012-.002858 5.973537-.3859244 8.87-1.14 2.9335-.7573168 5.789377-1.7885129 8.53-3.08 2.770089-1.3014227 5.420307-2.8440368 7.92-4.61 1.42-1 2.78-2 4.11-3.09.803341-.6539734 1.841414-.9465164 2.86802-.8082466s1.950289.6950346 2.55198 1.5382466l5.66 7.87c.955001 1.3400536 2.668811 1.9058912 4.233968 1.3979016 1.565157-.5079895 2.620017-1.9724308 2.606169-3.6179016V8.39000013c.005431-2.07987425-1.670321-3.77350045-3.750137-3.79l.03.01ZM478.21 59.5100001c-1.198304 2.9669723-2.911289 5.6989459-5.06 8.07-2.1233 2.3304191-4.663616 4.2432866-7.49 5.64-2.841806 1.4037539-5.97041 2.1294257-9.14 2.120384-3.115745.016794-6.20778-.5426202-9.12-1.650384-2.806442-1.0594357-5.346182-2.7218732-7.44-4.87-2.198201-2.2682743-3.900886-4.9687322-5-7.93-2.425348-7.0060362-2.425348-14.6239637 0-21.63 1.107901-2.9569168 2.809512-5.6556723 5-7.93 2.098914-2.1395165 4.637405-3.7977238 7.44-4.86 2.912713-1.1059876 6.004415-1.6653415 9.12-1.6503072 3.170084-.0135087 6.299682.7123937 9.14 2.1203072 2.831672 1.3881167 5.373501 3.3021241 7.49 5.64 2.148208 2.3714349 3.861134 5.1033146 5.06 8.07 2.467706 6.0514276 2.467706 12.8285725 0 18.88v-.02Zm-458-53.35001321H3.94c-1.00424984-.00264351-1.96827864.39443218-2.67933044 1.10360785C.54961776 7.97277041.15 8.93574678.15 9.94000013V95.3400001c0 2.094783 1.69522425 3.7944874 3.79 3.8h16.24c1.0051716-.0026486 1.9681214-.4044935 2.6770096-1.1171325.7088883-.712639 1.1056461-1.6776959 1.1030036-2.6828675V9.94000013c0-2.08373734-1.6862832-3.77448747-3.7700132-3.78001324h.02Zm66.5 6.44001321c.9609444-1.1233891 1.1831572-2.70212057.5696485-4.04712035-.6135086-1.34499978-1.951372-2.21211754-3.4296485-2.22287962H65.61c-1.1024913.00136166-2.1485259.48780434-2.86 1.33L26.1 50.2700001c-1.2641852 1.4269421-1.2641852 3.573058 0 5l36.65 42.6c.7133651.8384698 1.7591276 1.3211294 2.86 1.320002h18.22c1.482213-.0074619 2.8248124-.8760813 3.4391351-2.2250137.6143227-1.3489324.3882349-2.9319539-.5791351-4.0549883l-32.55-37.65c-1.2552988-1.4303004-1.2552988-3.5696995 0-5l32.57-37.66Zm35.41-6.44999997h-.2c-1.100575 0-2.145797.48263522-2.86 1.32l-.76.89-15.11 17.50999997c-.597719.6874774-.924746 1.5690277-.920051 2.48v67c-.002605 1.0025194.3931 1.9650328 1.100112 2.6757965.707013.7107636 1.66742 1.1115549 2.669939 1.1142035h16.06c2.085344-.0110046 3.77-1.7046264 3.77-3.79V9.94000013c0-2.08537352-1.684656-3.77899539-3.77-3.79h.02ZM315.28 49.6500001c-2.727247-2.4729549-5.900419-4.4040087-9.35-5.69-3.653137-1.3564479-7.523311-2.0342367-11.42-2H269.9c-1.575562.0194847-3.086176-.6268839-4.16-1.78-1.135159-1.1399272-1.759411-2.691536-1.73-4.3.010938-3.2500407 2.639983-5.8835485 5.89-5.9H314c2.08373-.0055125 3.770007-1.6962626 3.77-3.78V10.12000013c.002656-1.0025194-.393049-1.96503279-1.100061-2.67579643-.707013-.71076363-1.66742-1.11155491-2.669939-1.11489197h-44.11c-3.956696-.02657355-7.877118.75614955-11.52 2.3006884-7.055565 2.97103417-12.661544 8.59496977-15.61 15.65999997-3.066727 7.394649-3.066727 15.7053511 0 23.1 2.966757 7.0855292 8.56088 12.7477422 15.61 15.8 3.635492 1.572625 7.559057 2.3695991 11.52 2.34h25.38c2.60384-.0194617 4.797331 1.9404025 5.07 4.53.12672 1.4021599-.343572 2.7927694-1.295338 3.8301947-.951766 1.0374253-2.296799 1.6255199-3.704662 1.6198053h-51.12c-.999867.0026487-1.95773.4023864-2.662868 1.1112747-.705137.7088882-1.099788 1.6688581-1.097177 2.6687253v16c-.002611.9998673.39204 1.9598371 1.097177 2.6687254.705138.7088883 1.663001 1.108626 2.662868 1.1113238h50.24c7.798373.0142581 15.278004-3.0935517 20.77-8.6300492 2.669599-2.7081172 4.812652-5.8887882 6.32-9.38 1.565717-3.6306301 2.362453-7.5462118 2.34-11.5.040863-3.8555726-.757602-7.6738761-2.34-11.19-1.499034-3.2913101-3.637097-6.251966-6.29-8.71l.02-.01Z"/></svg>
