<?xml version="1.0" encoding="UTF-8"?>
<svg width="143px" height="35px" viewBox="0 0 143 35" version="1.1" xmlns="http://www.w3.org/2000/svg" xmlns:xlink="http://www.w3.org/1999/xlink">
    <title>Artboard</title>
    <g id="Artboard" stroke="none" stroke-width="1" fill="none" fill-rule="evenodd">
        <polygon id="Path" fill="#F9332B" fill-rule="nonzero" points="0.162109375 27 0.162109375 0.720703125 6.06835938 0.720703125 6.06835938 27"></polygon>
        <path d="M18.4785156,8.41992188 C19.8261719,8.41992188 21.0097656,8.70703125 22.0292969,9.28125 C23.0488281,9.85546875 23.7695312,10.6113281 24.1914062,11.5488281 L24.1914062,8.859375 L29.9921875,8.859375 L29.9921875,27 L24.296875,27 L24.296875,24.2929688 C23.7578125,25.2070312 22.9814453,25.9599609 21.9677734,26.5517578 C20.9541016,27.1435547 19.7910156,27.4394531 18.4785156,27.4394531 C15.8652344,27.4394531 13.7001953,26.53125 11.9833984,24.7148438 C10.2666016,22.8984375 9.40820312,20.6367188 9.40820312,17.9296875 C9.40820312,15.2226562 10.2666016,12.9609375 11.9833984,11.1445312 C13.7001953,9.328125 15.8652344,8.41992188 18.4785156,8.41992188 Z M19.65625,22.5351562 C20.9453125,22.5351562 22.0058594,22.1044922 22.8378906,21.2431641 C23.6699219,20.3818359 24.0859375,19.2773438 24.0859375,17.9296875 C24.0859375,16.5820312 23.6699219,15.4775391 22.8378906,14.6162109 C22.0058594,13.7548828 20.9453125,13.3242188 19.65625,13.3242188 C18.390625,13.3242188 17.3476562,13.7607422 16.5273438,14.6337891 C15.7070312,15.5068359 15.296875,16.6054688 15.296875,17.9296875 C15.296875,19.2539062 15.7070312,20.3525391 16.5273438,21.2255859 C17.3476562,22.0986328 18.390625,22.5351562 19.65625,22.5351562 Z" id="Shape" fill="#F9332B" fill-rule="nonzero"></path>
        <path d="M45.953125,14.3613281 L44.7753906,14.3613281 C43.1347656,14.3613281 41.9628906,14.7333984 41.2597656,15.4775391 C40.5566406,16.2216797 40.2050781,17.484375 40.2050781,19.265625 L40.2050781,27 L34.2988281,27 L34.2988281,8.859375 L40.0292969,8.859375 L40.0292969,12.2695312 C40.7089844,9.75 42.4960938,8.49023438 45.390625,8.49023438 L45.953125,8.49023438 L45.953125,14.3613281 Z" id="Path" fill="#F9332B" fill-rule="nonzero"></path>
        <path d="M56.7285156,8.41992188 C58.0761719,8.41992188 59.2597656,8.70703125 60.2792969,9.28125 C61.2988281,9.85546875 62.0195312,10.6113281 62.4414062,11.5488281 L62.4414062,8.859375 L68.2421875,8.859375 L68.2421875,27 L62.546875,27 L62.546875,24.2929688 C62.0078125,25.2070312 61.2314453,25.9599609 60.2177734,26.5517578 C59.2041016,27.1435547 58.0410156,27.4394531 56.7285156,27.4394531 C54.1152344,27.4394531 51.9501953,26.53125 50.2333984,24.7148438 C48.5166016,22.8984375 47.6582031,20.6367188 47.6582031,17.9296875 C47.6582031,15.2226562 48.5166016,12.9609375 50.2333984,11.1445312 C51.9501953,9.328125 54.1152344,8.41992188 56.7285156,8.41992188 Z M57.90625,22.5351562 C59.1953125,22.5351562 60.2558594,22.1044922 61.0878906,21.2431641 C61.9199219,20.3818359 62.3359375,19.2773438 62.3359375,17.9296875 C62.3359375,16.5820312 61.9199219,15.4775391 61.0878906,14.6162109 C60.2558594,13.7548828 59.1953125,13.3242188 57.90625,13.3242188 C56.640625,13.3242188 55.5976562,13.7607422 54.7773438,14.6337891 C53.9570312,15.5068359 53.546875,16.6054688 53.546875,17.9296875 C53.546875,19.2539062 53.9570312,20.3525391 54.7773438,21.2255859 C55.5976562,22.0986328 56.640625,22.5351562 57.90625,22.5351562 Z" id="Shape" fill="#F9332B" fill-rule="nonzero"></path>
        <path d="M78.8769531,3.46289062 C78.8769531,4.42382812 78.5546875,5.22070312 77.9101562,5.85351562 C77.265625,6.48632812 76.4628906,6.80273438 75.5019531,6.80273438 C74.5644531,6.80273438 73.7646484,6.48339844 73.1025391,5.84472656 C72.4404297,5.20605469 72.109375,4.41210938 72.109375,3.46289062 C72.109375,2.53710938 72.4404297,1.75195312 73.1025391,1.10742188 C73.7646484,0.462890625 74.5644531,0.140625 75.5019531,0.140625 C76.4628906,0.140625 77.265625,0.459960938 77.9101562,1.09863281 C78.5546875,1.73730469 78.8769531,2.52539062 78.8769531,3.46289062 Z M78.4550781,8.859375 L78.4550781,29.0917969 C78.4550781,30.8261719 77.9511719,32.2324219 76.9433594,33.3105469 C75.9355469,34.3886719 74.4707031,34.9277344 72.5488281,34.9277344 C71.2480469,34.9277344 70.2402344,34.828125 69.5253906,34.6289062 L69.5253906,29.8125 C69.9355469,29.953125 70.3691406,30.0234375 70.8261719,30.0234375 C71.9746094,30.0234375 72.5488281,29.4726562 72.5488281,28.3710938 L72.5488281,8.859375 L78.4550781,8.859375 Z" id="Shape" fill="#F9332B" fill-rule="nonzero"></path>
        <path d="M87.578125,9.2109375 C88.8789062,8.68359375 90.3085938,8.41992188 91.8671875,8.41992188 C93.4257812,8.41992188 94.8525391,8.68359375 96.1474609,9.2109375 C97.4423828,9.73828125 98.5058594,10.4472656 99.3378906,11.3378906 C100.169922,12.2285156 100.811523,13.2392578 101.262695,14.3701172 C101.713867,15.5009766 101.939453,16.6875 101.939453,17.9296875 C101.939453,19.171875 101.713867,20.3583984 101.262695,21.4892578 C100.811523,22.6201172 100.169922,23.6308594 99.3378906,24.5214844 C98.5058594,25.4121094 97.4423828,26.1210938 96.1474609,26.6484375 C94.8525391,27.1757812 93.4257812,27.4394531 91.8671875,27.4394531 C90.3085938,27.4394531 88.8818359,27.1757812 87.5869141,26.6484375 C86.2919922,26.1210938 85.2285156,25.4121094 84.3964844,24.5214844 C83.5644531,23.6308594 82.9228516,22.6201172 82.4716797,21.4892578 C82.0205078,20.3583984 81.7949219,19.171875 81.7949219,17.9296875 C81.7949219,16.6875 82.0205078,15.5009766 82.4716797,14.3701172 C82.9228516,13.2392578 83.5644531,12.2285156 84.3964844,11.3378906 C85.2285156,10.4472656 86.2890625,9.73828125 87.578125,9.2109375 Z M88.6679688,21.1992188 C89.4296875,22.0898438 90.4960938,22.5351562 91.8671875,22.5351562 C93.2382812,22.5351562 94.3017578,22.0898438 95.0576172,21.1992188 C95.8134766,20.3085938 96.1914062,19.21875 96.1914062,17.9296875 C96.1914062,16.640625 95.8134766,15.5507812 95.0576172,14.6601562 C94.3017578,13.7695312 93.2382812,13.3242188 91.8671875,13.3242188 C90.4960938,13.3242188 89.4326172,13.7695312 88.6767578,14.6601562 C87.9208984,15.5507812 87.5429688,16.640625 87.5429688,17.9296875 C87.5429688,19.21875 87.9179688,20.3085938 88.6679688,21.1992188 Z" id="Shape" fill="#F9332B" fill-rule="nonzero"></path>
        <path d="M116.810547,8.41992188 C119.423828,8.41992188 121.588867,9.328125 123.305664,11.1445312 C125.022461,12.9609375 125.880859,15.2226562 125.880859,17.9296875 C125.880859,20.6367188 125.022461,22.8984375 123.305664,24.7148438 C121.588867,26.53125 119.423828,27.4394531 116.810547,27.4394531 C115.498047,27.4394531 114.329102,27.1435547 113.303711,26.5517578 C112.27832,25.9599609 111.501953,25.2070312 110.974609,24.2929688 L110.974609,27 L105.296875,27 L105.296875,0.720703125 L111.203125,0.720703125 L111.203125,11.5488281 C111.625,10.6113281 112.331055,9.85546875 113.321289,9.28125 C114.311523,8.70703125 115.474609,8.41992188 116.810547,8.41992188 Z M115.632812,22.5351562 C116.898438,22.5351562 117.938477,22.0986328 118.75293,21.2255859 C119.567383,20.3525391 119.974609,19.2539062 119.974609,17.9296875 C119.974609,16.6054688 119.567383,15.5068359 118.75293,14.6337891 C117.938477,13.7607422 116.898438,13.3242188 115.632812,13.3242188 C114.34375,13.3242188 113.283203,13.7548828 112.451172,14.6162109 C111.619141,15.4775391 111.203125,16.5820312 111.203125,17.9296875 C111.203125,19.2773438 111.619141,20.3818359 112.451172,21.2431641 C113.283203,22.1044922 114.34375,22.5351562 115.632812,22.5351562 Z" id="Shape" fill="#F9332B" fill-rule="nonzero"></path>
        <path d="M132.929688,21.3398438 C132.988281,22.0078125 133.228516,22.5292969 133.650391,22.9042969 C134.072266,23.2792969 134.669922,23.4667969 135.443359,23.4667969 C136.099609,23.4667969 136.624023,23.3085938 137.016602,22.9921875 C137.40918,22.6757812 137.605469,22.2714844 137.605469,21.7792969 C137.605469,20.9941406 137.113281,20.4785156 136.128906,20.2324219 L133.650391,19.5820312 C131.892578,19.1484375 130.612305,18.5009766 129.80957,17.6396484 C129.006836,16.7783203 128.605469,15.6035156 128.605469,14.1152344 C128.605469,12.3808594 129.258789,10.9980469 130.56543,9.96679688 C131.87207,8.93554688 133.486328,8.41992188 135.408203,8.41992188 C137.376953,8.41992188 138.938477,8.93554688 140.092773,9.96679688 C141.24707,10.9980469 141.90625,12.3691406 142.070312,14.0800781 L137.21875,14.0800781 C137.195312,13.6113281 137.042969,13.2128906 136.761719,12.8847656 C136.480469,12.5566406 136.064453,12.3925781 135.513672,12.3925781 C134.998047,12.3925781 134.599609,12.5126953 134.318359,12.7529297 C134.037109,12.9931641 133.896484,13.3242188 133.896484,13.7460938 C133.896484,14.4960938 134.365234,14.9765625 135.302734,15.1875 L138.501953,16.0488281 C141.431641,16.8105469 142.896484,18.5273438 142.896484,21.1992188 C142.896484,22.40625 142.547852,23.4931641 141.850586,24.4599609 C141.15332,25.4267578 140.245117,26.1650391 139.125977,26.6748047 C138.006836,27.1845703 136.802734,27.4394531 135.513672,27.4394531 C134.154297,27.4394531 132.956055,27.2402344 131.918945,26.8417969 C130.881836,26.4433594 130.011719,25.7783203 129.308594,24.8466797 C128.605469,23.9150391 128.189453,22.7460938 128.060547,21.3398438 L132.929688,21.3398438 Z" id="Path" fill="#F9332B" fill-rule="nonzero"></path>
    </g>
</svg>