<svg xmlns="http://www.w3.org/2000/svg" xmlns:xlink="http://www.w3.org/1999/xlink" viewBox="0 0 37 30"><defs><path id="a49jx4" fill="#FB70A9" d="M34.800078 27.706c-.68 1.028-1.195 2.294-2.577 2.294-2.326 0-2.452-3.587-4.78-3.587-2.327 0-2.201 3.587-4.527 3.587s-2.452-3.587-4.78-3.587c-2.327 0-2.201 3.587-4.528 3.587-2.326 0-2.452-3.587-4.77999999-3.587-2.328 0-2.2 3.587-4.528 3.587-.731 0-1.245-.354-1.678-.84C.89448767 26.1399857-.00967084 22.7192182 0 19.24 0 8.613 8.20807801 0 18.333078 0c10.127 0 18.334 8.614 18.334 19.24 0 3.037-.671 5.91-1.866 8.466h-.001Z"/></defs><g fill="none" fill-rule="evenodd"><use xlink:href="#a49jx4"/><use xlink:href="#a49jx4"/><path fill="#E24CA6" d="M30.834078 29.617c4.804-7.147 4.929-15.075.372-23.784 3.5105181 3.59457984 5.4712376 8.4225959 5.4610399 13.447 0 3.026-.6950399 5.89-1.9340399 8.434-.705 1.024-1.24 2.286-2.673 2.286-.49 0-.886-.148-1.226-.383Z"/><path fill="#FFF" d="M17.350078 24.038c6.376 0 9.06-3.698 9.06-8.95 0-5.254-4.055-10.088-9.06-10.088-5.003 0-9.05899999 4.835-9.05899999 10.087 0 5.253 2.68399999 8.951 9.05999999 8.951h-.001Z"/><path fill="#030776" fill-rule="nonzero" d="M14.915078 15.385c1.876 0 3.397-1.68 3.397-3.75 0-2.071-1.52-3.75-3.397-3.75-1.876 0-3.397 1.679-3.397 3.75 0 2.07 1.52 3.75 3.397 3.75Z"/><path fill="#FFF" fill-rule="nonzero" d="M14.350078 12.5c.937 0 1.698-.775 1.698-1.73 0-.957-.76-1.731-1.699-1.731-.938 0-1.699.774-1.699 1.73s.76 1.731 1.7 1.731Z"/></g></svg>
