<svg xmlns="http://www.w3.org/2000/svg" viewBox="0 0 640 93"><g fill="none" fill-rule="evenodd"><g fill="currentColor" fill-rule="nonzero"><path d="M162.973617 83.71V56.74h3.77v26.97h-3.77Zm-9.41-24.32v-3.44h22.59v3.44h-22.59Zm39.86 24.32V72.65c0-1.46-.4483333-2.6533333-1.345-3.58-.8966667-.9266667-2.0625-1.39-3.4975-1.39-.9766667 0-1.83875.2116667-2.58625.635s-1.3329167 1.0083333-1.75625 1.755c-.4233333.7466667-.635 1.6033333-.635 2.57l-1.5-.84c0-1.4466667.325-2.7316667.975-3.855.65-1.1233333 1.5439583-2.01 2.681875-2.66 1.1379167-.65 2.42625-.975 3.865-.975 1.43875 0 2.7164583.32333333 3.833125.97 1.1166667.6466667 1.9916667 1.5416667 2.625 2.685.6333333 1.1433333.95 2.465.95 3.965v11.78h-3.61Zm-13.43 0V55.15h3.61v28.56h-3.61Zm30.7.4c-1.9 0-3.6066667-.43-5.12-1.29-1.5133333-.86-2.71-2.0416667-3.59-3.545-.88-1.5033333-1.32-3.195-1.32-5.075 0-1.8733333.4316667-3.555 1.295-5.045.8633333-1.49 2.0383333-2.67 3.525-3.54 1.4866667-.87 3.1433333-1.305 4.97-1.305 1.7533333 0 3.3033333.40166667 4.65 1.205 1.3466667.8033333 2.405 1.9083333 3.175 3.315s1.155 3.0133333 1.155 4.82c0 .2666667-.0166667.5533333-.05.86-.0333333.3066667-.0866667.6533333-.16 1.04h-16.03v-2.99h14.12l-1.32 1.15c-.0133333-1.2733333-.2433333-2.36-.69-3.26-.4466667-.9-1.0833333-1.595-1.91-2.085-.8266667-.49-1.83-.735-3.01-.735-1.24 0-2.3216667.2683333-3.245.805-.9233333.5366667-1.64 1.285-2.15 2.245-.51.96-.765 2.0966667-.765 3.41 0 1.3266667.2683333 2.49.805 3.49s1.295 1.775 2.275 2.325c.98.55 2.1133333.825 3.4.825 1.06 0 2.04-.19 2.94-.57.9-.38 1.6633333-.94 2.29-1.68l2.31 2.34c-.9066667 1.0666667-2.0183333 1.8816667-3.335 2.445-1.3166667.5633333-2.7216667.845-4.215.845Zm29.04 0c-1.7533333 0-3.3333333-.435-4.74-1.305-1.4066667-.87-2.5183333-2.05-3.335-3.54-.8166667-1.49-1.225-3.1616667-1.225-5.015 0-1.8733333.4083333-3.5566667 1.225-5.05.8166667-1.4933333 1.9266667-2.6816667 3.33-3.565 1.4033333-.88333333 2.9783333-1.325 4.725-1.325 1.4533333 0 2.7466667.3 3.88.9 1.1333333.6 2.045 1.43 2.735 2.49.69 1.06 1.0716667 2.2766667 1.145 3.65v5.71c-.08 1.3733333-.46 2.5916667-1.14 3.655-.68 1.0633333-1.5883333 1.895-2.725 2.495-1.1366667.6-2.4283333.9-3.875.9Zm.58-3.41c1.7933333 0 3.235-.6016667 4.325-1.805 1.09-1.2033333 1.635-2.7616667 1.635-4.675 0-1.2866667-.2483333-2.4183333-.745-3.395s-1.1933333-1.7383333-2.09-2.285c-.8966667-.5466667-1.945-.82-3.145-.82s-2.26.2766667-3.18.83c-.92.5533333-1.645 1.3183333-2.175 2.295-.53.9766667-.795 2.0983333-.795 3.365s.265 2.3883333.795 3.365 1.2583333 1.7416667 2.185 2.295 1.99.83 3.19.83Zm5.74 3.01v-5.1l.66-4.65-.66-4.59v-4.66h3.61v19h-3.61Zm8.87 0v-19h3.61v19h-3.61Zm3.61-10.82-1.35-.63c0-2.4066667.56-4.3333333 1.68-5.78 1.12-1.4466667 2.733333-2.17 4.84-2.17.946667 0 1.808333.17 2.585.51.776667.34 1.498333.8866667 2.165 1.64l-2.37 2.45c-.4-.4333333-.841667-.7433333-1.325-.93-.483333-.1866667-1.041667-.28-1.675-.28-1.326667 0-2.416667.4283333-3.27 1.285-.853333.8566667-1.28 2.1583333-1.28 3.905Zm15.32 10.82V56.75h3.61v26.96h-3.61Zm-4.67-15.73v-3.27h12.94v3.27h-12.94Zm33.42 16.13c-1.846667 0-3.518333-.4416667-5.015-1.325-1.496667-.8833333-2.685-2.0783333-3.565-3.585-.88-1.5066667-1.32-3.1866667-1.32-5.04 0-1.8466667.44-3.51 1.32-4.99.88-1.48 2.068333-2.66 3.565-3.54 1.496667-.88 3.168333-1.32 5.015-1.32 1.86 0 3.538333.435 5.035 1.305 1.496667.87 2.685 2.05 3.565 3.54.88 1.49 1.32 3.1583333 1.32 5.005 0 1.86-.44 3.5416667-1.32 5.045-.88 1.5033333-2.068333 2.6966667-3.565 3.58-1.496667.8833333-3.175 1.325-5.035 1.325Zm0-3.47c1.206667 0 2.278333-.2783333 3.215-.835.936667-.5566667 1.67-1.3266667 2.2-2.31.53-.9833333.795-2.0983333.795-3.345 0-1.2333333-.27-2.3266667-.81-3.28-.54-.9533333-1.273333-1.7066667-2.2-2.26-.926667-.5533333-1.993333-.83-3.2-.83-1.186667 0-2.25.2766667-3.19.83s-1.675 1.3066667-2.205 2.26c-.53.9533333-.795 2.05-.795 3.29 0 1.2466667.265 2.36.795 3.34s1.265 1.7483333 2.205 2.305c.94.5566667 2.003333.835 3.19.835Zm16.04 3.07V61.86c0-1.39333333.306667-2.62166667.92-3.685.613333-1.06333333 1.465-1.89833333 2.555-2.505 1.09-.60666667 2.345-.91 3.765-.91 1.093333 0 2.04.18833333 2.84.565.8.37666667 1.536667.915 2.21 1.615l-2.34 2.34c-.366667-.37333333-.761667-.65833333-1.185-.855-.423333-.19666667-.935-.295-1.535-.295-1.153333 0-2.045.32833333-2.675.985-.63.65666667-.945 1.575-.945 2.755v21.84h-3.61Zm-4.67-15.73v-3.27h14.33v3.27h-14.33Zm34.91 16.13c-1.866667 0-3.553333-.4366667-5.06-1.31-1.506667-.8733333-2.695-2.0633333-3.565-3.57-.87-1.5066667-1.305-3.1866667-1.305-5.04 0-1.8666667.435-3.545 1.305-5.035.87-1.49 2.058333-2.67 3.565-3.54 1.506667-.87 3.193333-1.305 5.06-1.305 1.453333 0 2.81.27666667 4.07.83 1.26.5533333 2.333333 1.34 3.22 2.36l-2.37 2.4c-.6-.6933333-1.321667-1.22-2.165-1.58-.843333-.36-1.761667-.54-2.755-.54-1.206667 0-2.28.2766667-3.22.83-.94.5533333-1.675 1.3066667-2.205 2.26-.53.9533333-.795 2.06-.795 3.32 0 1.2466667.265 2.355.795 3.325.53.97 1.265 1.7333333 2.205 2.29.94.5566667 2.013333.835 3.22.835 1 0 1.923333-.18 2.77-.54.846667-.36 1.573333-.89 2.18-1.59l2.37 2.4c-.893333 1.0266667-1.973333 1.8166667-3.24 2.37-1.266667.5533333-2.626667.83-4.08.83Zm10.86-.4v-19h3.61v19h-3.61Zm3.61-10.82-1.35-.63c0-2.4066667.56-4.3333333 1.68-5.78 1.12-1.4466667 2.733333-2.17 4.84-2.17.946667 0 1.808333.17 2.585.51.776667.34 1.498333.8866667 2.165 1.64l-2.37 2.45c-.4-.4333333-.841667-.7433333-1.325-.93-.483333-.1866667-1.041667-.28-1.675-.28-1.326667 0-2.416667.4283333-3.27 1.285-.853333.8566667-1.28 2.1583333-1.28 3.905Zm19.94 11.22c-1.753333 0-3.333333-.435-4.74-1.305-1.406667-.87-2.518333-2.05-3.335-3.54-.816667-1.49-1.225-3.1616667-1.225-5.015 0-1.8733333.408333-3.5566667 1.225-5.05.816667-1.4933333 1.926667-2.6816667 3.33-3.565 1.403333-.88333333 2.978333-1.325 4.725-1.325 1.453333 0 2.746667.3 3.88.9 1.133333.6 2.045 1.43 2.735 2.49.69 1.06 1.071667 2.2766667 1.145 3.65v5.71c-.08 1.3733333-.46 2.5916667-1.14 3.655-.68 1.0633333-1.588333 1.895-2.725 2.495-1.136667.6-2.428333.9-3.875.9Zm.58-3.41c1.793333 0 3.235-.6016667 4.325-1.805 1.09-1.2033333 1.635-2.7616667 1.635-4.675 0-1.2866667-.248333-2.4183333-.745-3.395-.496667-.9766667-1.193333-1.7383333-2.09-2.285-.896667-.5466667-1.945-.82-3.145-.82s-2.26.2766667-3.18.83c-.92.5533333-1.645 1.3183333-2.175 2.295-.53.9766667-.795 2.0983333-.795 3.365s.265 2.3883333.795 3.365 1.258333 1.7416667 2.185 2.295c.926667.5533333 1.99.83 3.19.83Zm5.74 3.01v-5.1l.66-4.65-.66-4.59v-4.66h3.61v19h-3.61Zm11.5 0V61.86c0-1.39333333.306667-2.62166667.92-3.685.613333-1.06333333 1.465-1.89833333 2.555-2.505 1.09-.60666667 2.345-.91 3.765-.91 1.093333 0 2.04.18833333 2.84.565.8.37666667 1.536667.915 2.21 1.615l-2.34 2.34c-.366667-.37333333-.761667-.65833333-1.185-.855-.423333-.19666667-.935-.295-1.535-.295-1.153333 0-2.045.32833333-2.675.985-.63.65666667-.945 1.575-.945 2.755v21.84h-3.61Zm-4.67-15.73v-3.27h14.33v3.27h-14.33Zm19.71 15.73V56.75h3.61v26.96h-3.61Zm-4.67-15.73v-3.27h12.94v3.27h-12.94Zm16.48 15.73v-19h3.61v19h-3.61Zm1.8-22.79c-.646667 0-1.185-.22333333-1.615-.67-.43-.44666667-.645-.99333333-.645-1.64 0-.65333333.215-1.2.645-1.64.43-.44.968333-.66 1.615-.66.673333 0 1.221667.22 1.645.66.423333.44.635.98666667.635 1.64 0 .64666667-.211667 1.19333333-.635 1.64-.423333.44666667-.971667.67-1.645.67Zm20.54 22.79V72.65c0-1.46-.448333-2.6533333-1.345-3.58-.896667-.9266667-2.0625-1.39-3.4975-1.39-.976667 0-1.83875.2116667-2.58625.635s-1.332917 1.0083333-1.75625 1.755c-.423333.7466667-.635 1.6033333-.635 2.57l-1.5-.84c0-1.4466667.325-2.7316667.975-3.855.65-1.1233333 1.543958-2.01 2.681875-2.66 1.137917-.65 2.42625-.975 3.865-.975 1.43875 0 2.716458.35833333 3.833125 1.075 1.116667.7166667 1.991667 1.6566667 2.625 2.82.633333 1.1633333.95 2.405.95 3.725v11.78h-3.61Zm-13.43 0v-19h3.61v19h-3.61Zm29.79 8.36c-1.96 0-3.69-.3583333-5.19-1.075-1.5-.7166667-2.71-1.7316667-3.63-3.045l2.35-2.35c.76.98 1.673333 1.73 2.74 2.25 1.066667.52 2.333333.78 3.8.78 1.94 0 3.478333-.51 4.615-1.53s1.705-2.4066667 1.705-4.16v-4.71l.66-4.26-.66-4.26v-5h3.61v18.23c0 1.8266667-.42 3.4216667-1.26 4.785-.84 1.3633333-2.011667 2.4283333-3.515 3.195s-3.245 1.15-5.225 1.15Zm0-8.66c-1.726667 0-3.28-.4166667-4.66-1.25-1.38-.8333333-2.466667-1.9766667-3.26-3.43-.793333-1.4533333-1.19-3.0866667-1.19-4.9 0-1.8066667.395-3.4266667 1.185-4.86.79-1.4333333 1.875-2.5683333 3.255-3.405 1.38-.83666667 2.93-1.255 4.65-1.255 1.493333 0 2.815.295 3.965.885 1.15.59 2.063333 1.41 2.74 2.46.676667 1.05 1.051667 2.2816667 1.125 3.695v5.03c-.08 1.3866667-.463333 2.61-1.15 3.67-.686667 1.06-1.601667 1.885-2.745 2.475-1.143333.59-2.448333.885-3.915.885Zm.7-3.41c1.18 0 2.215-.255 3.105-.765.89-.51 1.58-1.225 2.07-2.145.49-.92.735-1.9966667.735-3.23 0-1.2266667-.246667-2.2983333-.74-3.215s-1.185-1.6333333-2.075-2.15c-.89-.5166667-1.928333-.775-3.115-.775-1.193333 0-2.248333.2583333-3.165.775-.916667.5166667-1.631667 1.2333333-2.145 2.15s-.77 1.985-.77 3.205c0 1.2.258333 2.2666667.775 3.2.516667.9333333 1.233333 1.6583333 2.15 2.175.916667.5166667 1.975.775 3.175.775Zm28.28 3.71-7.49-19h3.75l5.45 14.79-1.2.03 5.38-14.82h2.1l5.38 14.82-1.2-.03 5.45-14.79h3.75l-7.49 19h-2.11l-5.49-14.34h1.32l-5.49 14.34zm32.81.4c-1.9 0-3.606667-.43-5.12-1.29-1.513333-.86-2.71-2.0416667-3.59-3.545-.88-1.5033333-1.32-3.195-1.32-5.075 0-1.8733333.431667-3.555 1.295-5.045.863333-1.49 2.038333-2.67 3.525-3.54 1.486667-.87 3.143333-1.305 4.97-1.305 1.753333 0 3.303333.40166667 4.65 1.205 1.346667.8033333 2.405 1.9083333 3.175 3.315s1.155 3.0133333 1.155 4.82c0 .2666667-.016667.5533333-.05.86-.033333.3066667-.086667.6533333-.16 1.04h-16.03v-2.99h14.12l-1.32 1.15c-.013333-1.2733333-.243333-2.36-.69-3.26-.446667-.9-1.083333-1.595-1.91-2.085-.826667-.49-1.83-.735-3.01-.735-1.24 0-2.321667.2683333-3.245.805s-1.64 1.285-2.15 2.245c-.51.96-.765 2.0966667-.765 3.41 0 1.3266667.268333 2.49.805 3.49s1.295 1.775 2.275 2.325c.98.55 2.113333.825 3.4.825 1.06 0 2.04-.19 2.94-.57.9-.38 1.663333-.94 2.29-1.68l2.31 2.34c-.906667 1.0666667-2.018333 1.8816667-3.335 2.445-1.316667.5633333-2.721667.845-4.215.845Zm22.64 0c-1.446667 0-2.745-.3016667-3.895-.905-1.15-.6033333-2.071667-1.4366667-2.765-2.5s-1.08-2.2783333-1.16-3.645v-5.71c.08-1.38.473333-2.6 1.18-3.66.706667-1.06 1.636667-1.8883333 2.79-2.485 1.153333-.59666667 2.436667-.895 3.85-.895 1.74 0 3.306667.44 4.7 1.32 1.393333.88 2.495 2.0666667 3.305 3.56.81 1.4933333 1.215 3.18 1.215 5.06 0 1.8533333-.403333 3.525-1.21 5.015-.806667 1.49-1.908333 2.67-3.305 3.54-1.396667.87-2.965 1.305-4.705 1.305Zm-.6-3.41c1.2 0 2.256667-.275 3.17-.825.913333-.55 1.631667-1.315 2.155-2.295.523333-.98.785-2.1033333.785-3.37 0-1.2733333-.261667-2.3983333-.785-3.375s-1.24-1.74-2.15-2.29c-.91-.55-1.958333-.825-3.145-.825s-2.236667.275-3.15.825c-.913333.55-1.623333 1.3133333-2.13 2.29s-.76 2.105-.76 3.385c0 1.2666667.251667 2.3883333.755 3.365s1.21 1.74 2.12 2.29c.91.55 1.955.825 3.135.825Zm-9.4 3.01V55.15h3.61v14.22l-.67 4.59.67 4.65v5.1h-3.61Zm29.32.4c-1.046667 0-2.048333-.14-3.005-.42-.956667-.28-1.831667-.6766667-2.625-1.19-.793333-.5133333-1.486667-1.13-2.08-1.85l2.31-2.32c.7.84 1.505 1.4666667 2.415 1.88.91.4133333 1.928333.62 3.055.62 1.12 0 1.983333-.1916667 2.59-.575.606667-.3833333.91-.9283333.91-1.635 0-.6933333-.245-1.2333333-.735-1.62-.49-.3866667-1.123333-.705-1.9-.955s-1.595-.4983333-2.455-.745c-.86-.2466667-1.678333-.57-2.455-.97s-1.41-.9516667-1.9-1.655-.735-1.625-.735-2.765c0-1.1466667.275-2.1366667.825-2.97.55-.8333333 1.33-1.48 2.34-1.94 1.01-.46 2.215-.69 3.615-.69 1.486667 0 2.811667.26333333 3.975.79 1.163333.5266667 2.121667 1.31 2.875 2.35l-2.31 2.31c-.553333-.7066667-1.22-1.245-2-1.615-.78-.37-1.666667-.555-2.66-.555-1.033333 0-1.826667.1833333-2.38.55-.553333.3666667-.83.8633333-.83 1.49 0 .6333333.245 1.1266667.735 1.48.49.3533333 1.123333.6466667 1.9.88.776667.2333333 1.595.4766667 2.455.73.86.2533333 1.678333.5933333 2.455 1.02.776667.4266667 1.41 1 1.9 1.72s.735 1.67.735 2.85c0 1.78-.631667 3.1916667-1.895 4.235-1.263333 1.0433333-2.971667 1.565-5.125 1.565Zm11.07-.4v-19h3.61v19h-3.61Zm1.8-22.79c-.646667 0-1.185-.22333333-1.615-.67-.43-.44666667-.645-.99333333-.645-1.64 0-.65333333.215-1.2.645-1.64.43-.44.968333-.66 1.615-.66.673333 0 1.221667.22 1.645.66.423333.44.635.98666667.635 1.64 0 .64666667-.211667 1.19333333-.635 1.64-.423333.44666667-.971667.67-1.645.67Zm10.03 22.79V56.75h3.61v26.96h-3.61Zm-4.67-15.73v-3.27h12.94v3.27h-12.94Zm24.63 16.13c-1.9 0-3.606667-.43-5.12-1.29-1.513333-.86-2.71-2.0416667-3.59-3.545-.88-1.5033333-1.32-3.195-1.32-5.075 0-1.8733333.431667-3.555 1.295-5.045.863333-1.49 2.038333-2.67 3.525-3.54 1.486667-.87 3.143333-1.305 4.97-1.305 1.753333 0 3.303333.40166667 4.65 1.205 1.346667.8033333 2.405 1.9083333 3.175 3.315s1.155 3.0133333 1.155 4.82c0 .2666667-.016667.5533333-.05.86-.033333.3066667-.086667.6533333-.16 1.04h-16.03v-2.99h14.12l-1.32 1.15c-.013333-1.2733333-.243333-2.36-.69-3.26-.446667-.9-1.083333-1.595-1.91-2.085-.826667-.49-1.83-.735-3.01-.735-1.24 0-2.321667.2683333-3.245.805s-1.64 1.285-2.15 2.245c-.51.96-.765 2.0966667-.765 3.41 0 1.3266667.268333 2.49.805 3.49s1.295 1.775 2.275 2.325c.98.55 2.113333.825 3.4.825 1.06 0 2.04-.19 2.94-.57.9-.38 1.663333-.94 2.29-1.68l2.31 2.34c-.906667 1.0666667-2.018333 1.8816667-3.335 2.445-1.316667.5633333-2.721667.845-4.215.845Zm18.67 0c-1.046667 0-2.048333-.14-3.005-.42-.956667-.28-1.831667-.6766667-2.625-1.19-.793333-.5133333-1.486667-1.13-2.08-1.85l2.31-2.32c.7.84 1.505 1.4666667 2.415 1.88.91.4133333 1.928333.62 3.055.62 1.12 0 1.983333-.1916667 2.59-.575.606667-.3833333.91-.9283333.91-1.635 0-.6933333-.245-1.2333333-.735-1.62-.49-.3866667-1.123333-.705-1.9-.955s-1.595-.4983333-2.455-.745c-.86-.2466667-1.678333-.57-2.455-.97s-1.41-.9516667-1.9-1.655-.735-1.625-.735-2.765c0-1.1466667.275-2.1366667.825-2.97.55-.8333333 1.33-1.48 2.34-1.94 1.01-.46 2.215-.69 3.615-.69 1.486667 0 2.811667.26333333 3.975.79 1.163333.5266667 2.121667 1.31 2.875 2.35l-2.31 2.31c-.553333-.7066667-1.22-1.245-2-1.615-.78-.37-1.666667-.555-2.66-.555-1.033333 0-1.826667.1833333-2.38.55-.553333.3666667-.83.8633333-.83 1.49 0 .6333333.245 1.1266667.735 1.48.49.3533333 1.123333.6466667 1.9.88.776667.2333333 1.595.4766667 2.455.73.86.2533333 1.678333.5933333 2.455 1.02.776667.4266667 1.41 1 1.9 1.72s.735 1.67.735 2.85c0 1.78-.631667 3.1916667-1.895 4.235-1.263333 1.0433333-2.971667 1.565-5.125 1.565Z" opacity=".65"/><path d="M156.563617 34.7v-4h8.04c1.4133333 0 2.5066667-.44 3.28-1.32.7733333-.88 1.16-1.8933333 1.16-3.04 0-.7733333-.1733333-1.4933333-.52-2.16-.3466667-.6666667-.8533333-1.2-1.52-1.6-.6666667-.4-1.4666667-.6-2.4-.6h-8.04v-4h7.36c1.2 0 2.16-.3066667 2.88-.92.72-.6133333 1.08-1.52 1.08-2.72 0-1.2-.36-2.10666667-1.08-2.72-.72-.61333333-1.68-.92-2.88-.92h-7.36v-4h7.48c1.8933333 0 3.4666667.34666667 4.72 1.04 1.2533333.69333333 2.1866667 1.58666667 2.8 2.68.6133333 1.09333333.92 2.26666667.92 3.52 0 1.46666667-.4066667 2.76-1.22 3.88s-2.0066667 2.0266667-3.58 2.72l.36-1.44c1.76.72 3.1333333 1.7333333 4.12 3.04.9866667 1.3066667 1.48 2.84 1.48 4.6 0 1.44-.3533333 2.76-1.06 3.96-.7066667 1.2-1.7466667 2.1666667-3.12 2.9s-3.06 1.1-5.06 1.1h-7.84Zm-3.16 0v-28h4.6v28h-4.6Zm32.1.4c-1.92 0-3.6466667-.4333333-5.18-1.3-1.5333333-.8666667-2.7466667-2.06-3.64-3.58-.8933333-1.52-1.34-3.2266667-1.34-5.12s.44-3.5933333 1.32-5.1c.88-1.5066667 2.0733333-2.7 3.58-3.58 1.5066667-.88 3.18-1.32 5.02-1.32 1.7866667 0 3.3666667.41333333 4.74 1.24 1.3733333.8266667 2.4533333 1.96 3.24 3.4s1.18 3.08 1.18 4.92c0 .32-.02.6466667-.06.98-.04.3333333-.1.7-.18 1.1h-15.76v-3.6h13.48l-1.64 1.44c-.0533333-1.1733333-.28-2.16-.68-2.96-.4-.8-.9666667-1.4133333-1.7-1.84-.7333333-.4266667-1.6333333-.64-2.7-.64-1.12 0-2.0933333.24-2.92.72-.8266667.48-1.4666667 1.1533333-1.92 2.02-.4533333.8666667-.68 1.9-.68 3.1 0 1.2.24 2.2533333.72 3.16.48.9066667 1.16 1.6066667 2.04 2.1.88.4933333 1.8933333.74 3.04.74.9866667 0 1.9-.1733333 2.74-.52.84-.3466667 1.5533333-.8533333 2.14-1.52l2.8 2.84c-.9333333 1.0933333-2.0666667 1.92-3.4 2.48s-2.7466667.84-4.24.84Zm24.5-.4V23.62c0-1.28-.4066667-2.3333333-1.22-3.16-.8133333-.8266667-1.8566667-1.24-3.13-1.24-.8666667 0-1.6316667.1866667-2.295.56-.6633333.3733333-1.1816667.8933333-1.555 1.56-.3733333.6666667-.56 1.4266667-.56 2.28l-1.72-.96c0-1.4666667.32-2.7666667.96-3.9.64-1.1333333 1.5253125-2.0266667 2.6559375-2.68 1.130625-.65333333 2.4105208-.98 3.8396875-.98 1.4295833 0 2.704375.36666667 3.824375 1.1 1.12.7333333 2 1.68 2.64 2.84.64 1.16.96 2.3666667.96 3.62V34.7h-4.4Zm-13.16 0V15.5h4.4v19.2h-4.4Z"/><path d="M215.863617 43.1c-1.36 0-2.4733333-.2133333-3.34-.64-.8666667-.4266667-1.66-1.0533333-2.38-1.88l2.84-2.84c.32.4266667.68.74 1.08.94.4.2.8933333.3 1.48.3.72 0 1.34-.22 1.86-.66.52-.44.78-1.0866667.78-1.94V15.5h4.4v20.84c0 1.4666667-.3133333 2.7-.94 3.7-.6266667 1-1.4466667 1.76-2.46 2.28-1.0133333.52-2.12.78-3.32.78Zm4.6-31.12c-.7466667 0-1.3666667-.25333333-1.86-.76-.4933333-.50666667-.74-1.13333333-.74-1.88s.2466667-1.37333333.74-1.88 1.1133333-.76 1.86-.76c.7733333 0 1.4.25333333 1.88.76s.72 1.13333333.72 1.88-.24 1.37333333-.72 1.88-1.1066667.76-1.88.76Zm13.94 23.12c-1.7333333 0-3.3-.44-4.7-1.32-1.4-.88-2.5066667-2.0733333-3.32-3.58-.8133333-1.5066667-1.22-3.1933333-1.22-5.06 0-1.8933333.4066667-3.5933333 1.22-5.1.8133333-1.5066667 1.92-2.7066667 3.32-3.6 1.4-.89333333 2.9666667-1.34 4.7-1.34 1.4666667 0 2.7666667.31333333 3.9.94 1.1333333.6266667 2.0333333 1.4866667 2.7 2.58.6666667 1.0933333 1 2.3333333 1 3.72v5.52c0 1.3866667-.3266667 2.6266667-.98 3.72-.6533333 1.0933333-1.5533333 1.9533333-2.7 2.58-1.1466667.6266667-2.4533333.94-3.92.94Zm.72-4.16c1.6266667 0 2.94-.5466667 3.94-1.64 1-1.0933333 1.5-2.4933333 1.5-4.2 0-1.1466667-.2266667-2.16-.68-3.04-.4533333-.88-1.0866667-1.5666667-1.9-2.06-.8133333-.4933333-1.7666667-.74-2.86-.74-1.0666667 0-2.0066667.2466667-2.82.74s-1.4533333 1.18-1.92 2.06c-.4666667.88-.7 1.8933333-.7 3.04s.2333333 2.16.7 3.04c.4666667.88 1.1066667 1.5666667 1.92 2.06s1.7533333.74 2.82.74Zm5.16 3.76v-5.16l.76-4.68-.76-4.64V15.5h4.4v19.2h-4.4Zm8.18 0V15.5h4.4v19.2h-4.4Zm12.76 0V23.26c0-1.28-.4-2.2733333-1.2-2.98-.8-.7066667-1.786667-1.06-2.96-1.06-.8 0-1.513333.16-2.14.48-.626667.32-1.126667.78-1.5 1.38-.3733333.6-.56 1.3266667-.56 2.18l-1.72-.96c0-1.4666667.32-2.7333333.96-3.8.64-1.0666667 1.506667-1.9 2.6-2.5 1.093333-.6 2.32-.9 3.68-.9 1.36 0 2.586667.29333333 3.68.88 1.093333.5866667 1.96 1.4133333 2.6 2.48.64 1.0666667.96 2.3466667.96 3.84v12.4h-4.4Zm12.76 0V23.26c0-1.28-.4-2.2733333-1.2-2.98-.8-.7066667-1.786667-1.06-2.96-1.06-.773333 0-1.48.16-2.12.48-.64.32-1.146667.78-1.52 1.38-.373333.6-.56 1.3266667-.56 2.18l-2.48-.96c.133333-1.4666667.56-2.7333333 1.28-3.8.72-1.0666667 1.646667-1.9 2.78-2.5 1.133333-.6 2.38-.9 3.74-.9 1.386667 0 2.64.29333333 3.76.88 1.12.5866667 2.013333 1.4133333 2.68 2.48.666667 1.0666667 1 2.3466667 1 3.84v12.4h-4.4Zm7.86 0V15.5h4.4v19.2h-4.4Zm2.2-22.72c-.746667 0-1.366667-.25333333-1.86-.76s-.74-1.13333333-.74-1.88.246667-1.37333333.74-1.88 1.113333-.76 1.86-.76c.773333 0 1.4.25333333 1.88.76s.72 1.13333333.72 1.88-.24 1.37333333-.72 1.88-1.106667.76-1.88.76Zm19.18 22.72V23.62c0-1.28-.406667-2.3333333-1.22-3.16-.813333-.8266667-1.856667-1.24-3.13-1.24-.866667 0-1.631667.1866667-2.295.56-.663333.3733333-1.181667.8933333-1.555 1.56-.373333.6666667-.56 1.4266667-.56 2.28l-1.72-.96c0-1.4666667.32-2.7666667.96-3.9.64-1.1333333 1.525312-2.0266667 2.655937-2.68 1.130625-.65333333 2.410521-.98 3.839688-.98 1.429583 0 2.704375.36666667 3.824375 1.1 1.12.7333333 2 1.68 2.64 2.84.64 1.16.96 2.3666667.96 3.62V34.7h-4.4Zm-13.16 0V15.5h4.4v19.2h-4.4Zm41.16.4c-2.026667 0-3.9-.3666667-5.62-1.1-1.72-.7333333-3.22-1.76-4.5-3.08-1.28-1.32-2.266667-2.8533333-2.96-4.6-.693333-1.7466667-1.04-3.62-1.04-5.62s.346667-3.8733333 1.04-5.62c.693333-1.74666667 1.68-3.27333333 2.96-4.58 1.28-1.30666667 2.78-2.33333333 4.5-3.08 1.72-.74666667 3.593333-1.12 5.62-1.12 2.266667 0 4.226667.37333333 5.88 1.12 1.653333.74666667 3.12 1.76 4.4 3.04l-3.12 3.12c-.826667-.90666667-1.833333-1.61333333-3.02-2.12-1.186667-.50666667-2.566667-.76-4.14-.76-1.386667 0-2.653333.24-3.8.72-1.146667.48-2.14 1.16666667-2.98 2.06-.84.89333333-1.486667 1.95333333-1.94 3.18-.453333 1.2266667-.68 2.5733333-.68 4.04 0 1.4666667.226667 2.8133333.68 4.04.453333 1.2266667 1.1 2.2866667 1.94 3.18.84.8933333 1.833333 1.58 2.98 2.06 1.146667.48 2.413333.72 3.8.72 1.706667 0 3.153333-.26 4.34-.78s2.193333-1.2333333 3.02-2.14l3.12 3.12c-1.28 1.3066667-2.786667 2.3333333-4.52 3.08-1.733333.7466667-3.72 1.12-5.96 1.12Zm12.9-.4V15.5h4.4v19.2h-4.4Zm4.4-10.68-1.52-.76c0-2.4266667.54-4.3933333 1.62-5.9 1.08-1.50666667 2.713333-2.26 4.9-2.26.96 0 1.826667.17333333 2.6.52s1.493333.9066667 2.16 1.68l-2.88 2.96c-.346667-.3733333-.733333-.64-1.16-.8-.426667-.16-.92-.24-1.48-.24-1.226667 0-2.24.3866667-3.04 1.16-.8.7733333-1.2 1.9866667-1.2 3.64Zm19.02 11.08c-1.866667 0-3.56-.4466667-5.08-1.34-1.52-.8933333-2.726667-2.1-3.62-3.62-.893333-1.52-1.34-3.2133333-1.34-5.08 0-1.8666667.446667-3.5466667 1.34-5.04.893333-1.4933333 2.1-2.6866667 3.62-3.58 1.52-.89333333 3.213333-1.34 5.08-1.34 1.893333 0 3.6.44 5.12 1.32 1.52.88 2.726667 2.0733333 3.62 3.58.893333 1.5066667 1.34 3.1933333 1.34 5.06 0 1.8666667-.446667 3.56-1.34 5.08-.893333 1.52-2.1 2.7266667-3.62 3.62-1.52.8933333-3.226667 1.34-5.12 1.34Zm0-4.24c1.093333 0 2.06-.2466667 2.9-.74.84-.4933333 1.493333-1.18 1.96-2.06.466667-.88.7-1.88.7-3s-.24-2.1066667-.72-2.96c-.48-.8533333-1.133333-1.5266667-1.96-2.02s-1.786667-.74-2.88-.74c-1.066667 0-2.02.2466667-2.86.74-.84.4933333-1.493333 1.1666667-1.96 2.02-.466667.8533333-.7 1.84-.7 2.96 0 1.12.233333 2.12.7 3 .466667.88 1.12 1.5666667 1.96 2.06.84.4933333 1.793333.74 2.86.74Zm10.54 1.44 10.72-14.4h5.16l-10.72 14.4h-5.16Zm0 2.4v-2.4l4-1.6h11.64v4h-15.64Zm.72-15.2v-4h15.16v2.4l-4 1.6h-11.16Zm25.38 15.6c-1.733333 0-3.3-.44-4.7-1.32-1.4-.88-2.506667-2.0733333-3.32-3.58-.813333-1.5066667-1.22-3.1933333-1.22-5.06 0-1.8933333.406667-3.5933333 1.22-5.1.813333-1.5066667 1.92-2.7066667 3.32-3.6 1.4-.89333333 2.966667-1.34 4.7-1.34 1.466667 0 2.766667.31333333 3.9.94 1.133333.6266667 2.033333 1.4866667 2.7 2.58.666667 1.0933333 1 2.3333333 1 3.72v5.52c0 1.3866667-.326667 2.6266667-.98 3.72-.653333 1.0933333-1.553333 1.9533333-2.7 2.58-1.146667.6266667-2.453333.94-3.92.94Zm.72-4.16c1.626667 0 2.94-.5466667 3.94-1.64 1-1.0933333 1.5-2.4933333 1.5-4.2 0-1.1466667-.226667-2.16-.68-3.04-.453333-.88-1.086667-1.5666667-1.9-2.06-.813333-.4933333-1.766667-.74-2.86-.74-1.066667 0-2.006667.2466667-2.82.74-.813333.4933333-1.453333 1.18-1.92 2.06-.466667.88-.7 1.8933333-.7 3.04s.233333 2.16.7 3.04c.466667.88 1.106667 1.5666667 1.92 2.06.813333.4933333 1.753333.74 2.82.74Zm5.16 3.76v-5.16l.76-4.68-.76-4.64V15.5h4.4v19.2h-4.4Zm11.1 0V7.5h4.4v27.2h-4.4Zm-4.6-15.2v-4h13.6v4h-13.6Z"/></g><g stroke-width="3" transform="translate(1.1527 1.499083)"><rect width="36.9541284" height="36.9541284" x="30.7921483" y="43.0522936" stroke="#4ED55D" rx="13"/><path stroke="#FF8989" d="M26.42391737 4.81353633c3.06743008-.82191541 6.17761388-.32269847 8.72641904 1.14885486 2.54880505 1.47155333 4.53623156 3.91544302 5.35814698 6.9828731l3.6115942 13.4786531c.82191542 3.06743008.32269842 6.1776139-1.14885483 8.72641903-1.47155337 2.54880507-3.91544306 4.53623158-6.98287315 5.358147l-13.4786531 3.6115942c-3.06743008.82191542-6.1776139.32269842-8.72641898-1.14885485-2.54880514-1.47155335-4.5362316-3.91544305-5.358147-6.98287314L4.8135363 22.50969653c-.82191542-3.06743008-.32269847-6.17761388 1.14885487-8.72641899 1.4715533-2.54880512 3.915443-4.53623158 6.98287309-5.358147Z"/><path stroke="#4EABFF" d="M111.21754073 49.4022168c2.24551446 2.24551446 3.36827176 5.18862115 3.36827197 8.13172806 2.8e-7 2.94310683-1.1227573 5.88621324-3.36827197 8.13172791l-9.86705889 9.86705889c-2.24551467 2.24551467-5.18862108 3.36827225-8.13172798 3.36827204-2.94310684-2.8e-7-5.88621353-1.12275758-8.13172799-3.36827204l-9.86705881-9.86705882c-2.24551467-2.24551467-3.36827197-5.18862136-3.36827204-8.13172798 7e-8-2.94310662 1.12275737-5.88621332 3.36827204-8.13172799l9.86705889-9.86705888c2.24551467-2.24551467 5.18862136-3.36827197 8.1317279-3.36827197 2.9431067 0 5.8862134 1.1227573 8.13172806 3.36827197Z"/></g></g></svg>
