<svg xmlns="http://www.w3.org/2000/svg" viewBox="0 0 613 92"><g fill="none" fill-rule="evenodd"><g fill="currentColor" fill-rule="nonzero"><path d="M162.65 33v-2.58h8.72c1.8 0 3.2233333-.5066667 4.27-1.52 1.0466667-1.0133333 1.57-2.28 1.57-3.8 0-1-.23-1.9-.69-2.7-.46-.8-1.11-1.4333333-1.95-1.9-.84-.4666667-1.8266667-.7-2.96-.7h-8.96v-2.54h8.52c1.48 0 2.6533333-.4033333 3.52-1.21.8666667-.8066667 1.3-1.93666667 1.3-3.39 0-1.46666667-.4666667-2.6-1.4-3.4-.9333333-.8-2.18-1.2-3.74-1.2h-8.2V5.48h8.26c1.72 0 3.1766667.30666667 4.37.92 1.1933333.61333333 2.1 1.44 2.72 2.48.62 1.04.93 2.22.93 3.54 0 1.53333333-.4033333 2.8566667-1.21 3.97-.8066667 1.1133333-1.9833333 1.9566667-3.53 2.53l.28-.96c1.7866667.5733333 3.1833333 1.5 4.19 2.78 1.0066667 1.28 1.51 2.8 1.51 4.56 0 1.4666667-.3566667 2.78-1.07 3.94-.7133333 1.16-1.74 2.0766667-3.08 2.75-1.34.6733333-2.9566667 1.01-4.85 1.01h-8.52Zm-1.9 0V5.48h2.94V33h-2.94Zm32.98.4c-1.88 0-3.5666667-.4266667-5.06-1.28-1.4933333-.8533333-2.6733333-2.0233333-3.54-3.51-.8666667-1.4866667-1.3-3.1633333-1.3-5.03 0-1.8533333.4233333-3.5166667 1.27-4.99.8466667-1.4733333 2.0033333-2.64 3.47-3.5 1.4666667-.86 3.1066667-1.29 4.92-1.29 1.72 0 3.24.39 4.56 1.17 1.32.78 2.3566667 1.8566667 3.11 3.23s1.13 2.9466667 1.13 4.72c0 .2133333-.0133333.46-.04.74-.0266667.28-.0733333.6066667-.14.98h-16.3v-2.38h14.76l-1 .86c.0266667-1.3733333-.2066667-2.56-.7-3.56s-1.2-1.7766667-2.12-2.33c-.92-.5533333-2.0266667-.83-3.32-.83-1.36 0-2.55.2966667-3.57.89-1.02.5933333-1.8133333 1.4166667-2.38 2.47-.5666667 1.0533333-.85 2.2933333-.85 3.72 0 1.4533333.2966667 2.7266667.89 3.82.5933333 1.0933333 1.43 1.9433333 2.51 2.55 1.08.6066667 2.3333333.91 3.76.91 1.1333333 0 2.18-.2066667 3.14-.62s1.7733333-1.0266667 2.44-1.84l1.82 1.84c-.88 1.04-1.97 1.8433333-3.27 2.41-1.3.5666667-2.6966667.85-4.19.85Zm26.54-.4V21.96c0-1.64-.49-2.9733333-1.47-4-.98-1.0266667-2.2683333-1.54-3.865-1.54-1.0866667 0-2.0458333.2366667-2.8775.71-.8316667.4733333-1.4841667 1.1233333-1.9575 1.95-.4733333.8266667-.71 1.78-.71 2.86l-1.28-.72c0-1.4266667.33-2.6966667.99-3.81.66-1.1133333 1.5626042-1.9933333 2.7078125-2.64 1.1452083-.64666667 2.4419792-.97 3.8903125-.97 1.4479167 0 2.7285417.35 3.841875 1.05 1.1133333.7 1.9833333 1.6333333 2.61 2.8.6266667 1.1666667.94 2.4433333.94 3.83V33h-2.82Zm-13.7 0V14.2h2.82V33h-2.82Z"/><path d="M225.43 41.32c-1.0933333 0-2.04-.1833333-2.84-.55-.8-.3666667-1.5133333-.8966667-2.14-1.59l1.84-1.84c.4133333.4666667.8633333.81 1.35 1.03.4866667.22 1.0366667.33 1.65.33.9066667 0 1.68-.27 2.32-.81.64-.54.96-1.3766667.96-2.51V14.2h2.82v21.14c0 1.3066667-.2766667 2.4033333-.83 3.29-.5533333.8866667-1.28 1.5566667-2.18 2.01-.9.4533333-1.8833333.68-2.95.68Zm4.56-31.18c-.5466667 0-1.0033333-.19333333-1.37-.58-.3666667-.38666667-.55-.85333333-.55-1.4 0-.56.1833333-1.02666667.55-1.4.3666667-.37333333.8233333-.56 1.37-.56.5733333 0 1.0433333.18666667 1.41.56.3666667.37333333.55.84.55 1.4 0 .54666667-.1833333 1.01333333-.55 1.4-.3666667.38666667-.8366667.58-1.41.58Zm15.2 23.26c-1.7733333 0-3.3666667-.43-4.78-1.29-1.4133333-.86-2.53-2.0266667-3.35-3.5-.82-1.4733333-1.23-3.13-1.23-4.97 0-1.8533333.41-3.52 1.23-5 .82-1.48 1.9333333-2.6566667 3.34-3.53 1.4066667-.87333333 2.99-1.31 4.75-1.31 1.44 0 2.7266667.28666667 3.86.86 1.1333333.5733333 2.0566667 1.3733333 2.77 2.4.7133333 1.0266667 1.1433333 2.22 1.29 3.58v5.9c-.16 1.36-.5933333 2.5566667-1.3 3.59-.7066667 1.0333333-1.6233333 1.8366667-2.75 2.41s-2.4033333.86-3.83.86Zm.44-2.66c1.96 0 3.53-.6566667 4.71-1.97 1.18-1.3133333 1.77-3.03 1.77-5.15 0-1.4266667-.27-2.6766667-.81-3.75-.54-1.0733333-1.3-1.91-2.28-2.51-.98-.6-2.1233333-.9-3.43-.9-1.3333333 0-2.5133333.3066667-3.54.92-1.0266667.6133333-1.8366667 1.4566667-2.43 2.53-.5933333 1.0733333-.89 2.3033333-.89 3.69 0 1.3866667.2966667 2.6166667.89 3.69.5933333 1.0733333 1.41 1.9166667 2.45 2.53 1.04.6133333 2.2266667.92 3.56.92Zm6.32 2.26v-5.04l.56-4.62-.56-4.54v-4.6h2.82V33h-2.82Zm8.46 0V14.2h2.82V33h-2.82Zm12.94 0V21.48c0-1.5466667-.466667-2.7766667-1.4-3.69-.933333-.9133333-2.113333-1.37-3.54-1.37-.96 0-1.83.2066667-2.61.62-.78.4133333-1.403333.9933333-1.87 1.74-.466667.7466667-.7 1.6333333-.7 2.66l-1.28-.5c0-1.44.316667-2.6933333.95-3.76.633333-1.0666667 1.493333-1.8966667 2.58-2.49 1.086667-.59333333 2.303333-.89 3.65-.89 1.333333 0 2.53.29333333 3.59.88 1.06.5866667 1.9 1.4133333 2.52 2.48.62 1.0666667.93 2.3333333.93 3.8V33h-2.82Zm12.94 0V21.48c0-1.5466667-.466667-2.7766667-1.4-3.69-.933333-.9133333-2.113333-1.37-3.54-1.37-.946667 0-1.813333.2066667-2.6.62s-1.413333.9933333-1.88 1.74c-.466667.7466667-.7 1.6333333-.7 2.66l-1.66-.5c.066667-1.4533333.44-2.71 1.12-3.77.68-1.06 1.573333-1.8866667 2.68-2.48 1.106667-.59333333 2.326667-.89 3.66-.89 1.346667 0 2.556667.29333333 3.63.88 1.073333.5866667 1.926667 1.4166667 2.56 2.49.633333 1.0733333.95 2.3433333.95 3.81V33h-2.82Zm8.1 0V14.2h2.82V33h-2.82Zm1.4-22.86c-.546667 0-1.003333-.19333333-1.37-.58-.366667-.38666667-.55-.85333333-.55-1.4 0-.56.183333-1.02666667.55-1.4.366667-.37333333.823333-.56 1.37-.56.573333 0 1.043333.18666667 1.41.56.366667.37333333.55.84.55 1.4 0 .54666667-.183333 1.01333333-.55 1.4-.366667.38666667-.836667.58-1.41.58ZM316.59 33V21.96c0-1.64-.49-2.9733333-1.47-4-.98-1.0266667-2.268333-1.54-3.865-1.54-1.086667 0-2.045833.2366667-2.8775.71-.831667.4733333-1.484167 1.1233333-1.9575 1.95-.473333.8266667-.71 1.78-.71 2.86l-1.28-.72c0-1.4266667.33-2.6966667.99-3.81.66-1.1133333 1.562604-1.9933333 2.707813-2.64 1.145208-.64666667 2.441979-.97 3.890312-.97 1.447917 0 2.728542.35 3.841875 1.05 1.113333.7 1.983333 1.6333333 2.61 2.8.626667 1.1666667.94 2.4433333.94 3.83V33h-2.82Zm-13.7 0V14.2h2.82V33h-2.82Zm43.52.4c-1.973333 0-3.803333-.36-5.49-1.08-1.686667-.72-3.156667-1.73-4.41-3.03-1.253333-1.3-2.223333-2.81-2.91-4.53-.686667-1.72-1.03-3.5666667-1.03-5.54 0-1.9866667.34-3.8366667 1.02-5.55.68-1.71333333 1.643333-3.21 2.89-4.49 1.246667-1.28 2.706667-2.28333333 4.38-3.01 1.673333-.72666667 3.49-1.09 5.45-1.09 2.106667 0 3.993333.37333333 5.66 1.12 1.666667.74666667 3.126667 1.77333333 4.38 3.08l-2.02 2.02c-.946667-1.06666667-2.1-1.9-3.46-2.5-1.36-.6-2.88-.9-4.56-.9-1.546667 0-2.97.28-4.27.84-1.3.56-2.433333 1.35-3.4 2.37-.966667 1.02-1.713333 2.22-2.24 3.6-.526667 1.38-.79 2.8833333-.79 4.51s.266667 3.1333333.8 4.52c.533333 1.3866667 1.28 2.5933333 2.24 3.62.96 1.0266667 2.096667 1.82 3.41 2.38 1.313333.56 2.743333.84 4.29.84 1.76 0 3.326667-.3066667 4.7-.92 1.373333-.6133333 2.533333-1.4533333 3.48-2.52l2.02 2.02c-1.24 1.32-2.713333 2.3566667-4.42 3.11s-3.613333 1.13-5.72 1.13Zm14.56-.4V14.2h2.82V33h-2.82Zm2.82-10.96-1.18-.5c0-2.3866667.58-4.2733333 1.74-5.66 1.16-1.38666667 2.753333-2.08 4.78-2.08.933333 0 1.79.16666667 2.57.5.78.33333333 1.503333.8666667 2.17 1.6l-1.86 1.94c-.453333-.4933333-.95-.8466667-1.49-1.06-.54-.2133333-1.163333-.32-1.87-.32-1.426667 0-2.593333.47-3.5 1.41-.906667.94-1.36 2.33-1.36 4.17Zm22.26 11.36c-1.826667 0-3.476667-.4366667-4.95-1.31-1.473333-.8733333-2.643333-2.0566667-3.51-3.55-.866667-1.4933333-1.3-3.16-1.3-5 0-1.8266667.433333-3.4733333 1.3-4.94.866667-1.4666667 2.036667-2.6333333 3.51-3.5 1.473333-.86666667 3.123333-1.3 4.95-1.3s3.476667.43 4.95 1.29c1.473333.86 2.643333 2.0266667 3.51 3.5.866667 1.4733333 1.3 3.1233333 1.3 4.95 0 1.8533333-.433333 3.5233333-1.3 5.01-.866667 1.4866667-2.036667 2.6666667-3.51 3.54-1.473333.8733333-3.123333 1.31-4.95 1.31Zm0-2.7c1.32 0 2.496667-.31 3.53-.93 1.033333-.62 1.846667-1.4733333 2.44-2.56.593333-1.0866667.89-2.3166667.89-3.69 0-1.3466667-.3-2.5466667-.9-3.6-.6-1.0533333-1.413333-1.8866667-2.44-2.5-1.026667-.6133333-2.2-.92-3.52-.92-1.306667 0-2.48.3066667-3.52.92-1.04.6133333-1.856667 1.4466667-2.45 2.5-.593333 1.0533333-.89 2.26-.89 3.62 0 1.3733333.296667 2.6.89 3.68s1.41 1.93 2.45 2.55c1.04.62 2.213333.93 3.52.93Zm12.56.76 11.86-15.72h3.32l-11.86 15.72h-3.32Zm0 1.54v-1.54l2.42-1h12.54V33h-14.96Zm.68-16.26V14.2h14.5v1.54l-2.62 1h-11.88Zm26.78 16.66c-1.773333 0-3.366667-.43-4.78-1.29-1.413333-.86-2.53-2.0266667-3.35-3.5-.82-1.4733333-1.23-3.13-1.23-4.97 0-1.8533333.41-3.52 1.23-5 .82-1.48 1.933333-2.6566667 3.34-3.53 1.406667-.87333333 2.99-1.31 4.75-1.31 1.44 0 2.726667.28666667 3.86.86 1.133333.5733333 2.056667 1.3733333 2.77 2.4.713333 1.0266667 1.143333 2.22 1.29 3.58v5.9c-.16 1.36-.593333 2.5566667-1.3 3.59-.706667 1.0333333-1.623333 1.8366667-2.75 2.41s-2.403333.86-3.83.86Zm.44-2.66c1.96 0 3.53-.6566667 4.71-1.97 1.18-1.3133333 1.77-3.03 1.77-5.15 0-1.4266667-.27-2.6766667-.81-3.75-.54-1.0733333-1.3-1.91-2.28-2.51-.98-.6-2.123333-.9-3.43-.9-1.333333 0-2.513333.3066667-3.54.92-1.026667.6133333-1.836667 1.4566667-2.43 2.53-.593333 1.0733333-.89 2.3033333-.89 3.69 0 1.3866667.296667 2.6166667.89 3.69.593333 1.0733333 1.41 1.9166667 2.45 2.53 1.04.6133333 2.226667.92 3.56.92Zm6.32 2.26v-5.04l.56-4.62-.56-4.54v-4.6h2.82V33h-2.82Zm11.38 0V6.28h2.82V33h-2.82Zm-4.74-16.26V14.2h12.28v2.54h-12.28Z"/></g><g fill="currentColor" fill-opacity=".65" fill-rule="nonzero"><path d="M168.44 83V56.26h2.94V83h-2.94Zm-9.7-24.84v-2.68h22.34v2.68h-22.34ZM197.96 83V71.96c0-1.64-.49-2.9733333-1.47-4-.98-1.0266667-2.2683333-1.54-3.865-1.54-1.0866667 0-2.0458333.2366667-2.8775.71-.8316667.4733333-1.4841667 1.1233333-1.9575 1.95-.4733333.8266667-.71 1.78-.71 2.86l-1.28-.72c0-1.4266667.33-2.6966667.99-3.81.66-1.1133333 1.5626042-1.9933333 2.7078125-2.64 1.1452083-.64666667 2.4419792-.97 3.8903125-.97 1.4479167 0 2.7285417.32666667 3.841875.98 1.1133333.6533333 1.9833333 1.5566667 2.61 2.71.6266667 1.1533333.94 2.4833333.94 3.99V83h-2.82Zm-13.7 0V54.68h2.82V83h-2.82Zm29.34.4c-1.88 0-3.5666667-.4266667-5.06-1.28-1.4933333-.8533333-2.6733333-2.0233333-3.54-3.51-.8666667-1.4866667-1.3-3.1633333-1.3-5.03 0-1.8533333.4233333-3.5166667 1.27-4.99.8466667-1.4733333 2.0033333-2.64 3.47-3.5 1.4666667-.86 3.1066667-1.29 4.92-1.29 1.72 0 3.24.39 4.56 1.17 1.32.78 2.3566667 1.8566667 3.11 3.23s1.13 2.9466667 1.13 4.72c0 .2133333-.0133333.46-.04.74-.0266667.28-.0733333.6066667-.14.98h-16.3v-2.38h14.76l-1 .86c.0266667-1.3733333-.2066667-2.56-.7-3.56s-1.2-1.7766667-2.12-2.33c-.92-.5533333-2.0266667-.83-3.32-.83-1.36 0-2.55.2966667-3.57.89-1.02.5933333-1.8133333 1.4166667-2.38 2.47-.5666667 1.0533333-.85 2.2933333-.85 3.72 0 1.4533333.2966667 2.7266667.89 3.82.5933333 1.0933333 1.43 1.9433333 2.51 2.55 1.08.6066667 2.3333333.91 3.76.91 1.1333333 0 2.18-.2066667 3.14-.62s1.7733333-1.0266667 2.44-1.84l1.82 1.84c-.88 1.04-1.97 1.8433333-3.27 2.41-1.3.5666667-2.6966667.85-4.19.85Zm27.4 0c-1.7733333 0-3.3666667-.43-4.78-1.29-1.4133333-.86-2.53-2.0266667-3.35-3.5-.82-1.4733333-1.23-3.13-1.23-4.97 0-1.8533333.41-3.52 1.23-5 .82-1.48 1.9333333-2.6566667 3.34-3.53 1.4066667-.87333333 2.99-1.31 4.75-1.31 1.44 0 2.7266667.28666667 3.86.86 1.1333333.5733333 2.0566667 1.3733333 2.77 2.4.7133333 1.0266667 1.1433333 2.22 1.29 3.58v5.9c-.16 1.36-.5933333 2.5566667-1.3 3.59-.7066667 1.0333333-1.6233333 1.8366667-2.75 2.41s-2.4033333.86-3.83.86Zm.44-2.66c1.96 0 3.53-.6566667 4.71-1.97 1.18-1.3133333 1.77-3.03 1.77-5.15 0-1.4266667-.27-2.6766667-.81-3.75-.54-1.0733333-1.3-1.91-2.28-2.51-.98-.6-2.1233333-.9-3.43-.9-1.3333333 0-2.5133333.3066667-3.54.92-1.0266667.6133333-1.8366667 1.4566667-2.43 2.53-.5933333 1.0733333-.89 2.3033333-.89 3.69 0 1.3866667.2966667 2.6166667.89 3.69.5933333 1.0733333 1.41 1.9166667 2.45 2.53 1.04.6133333 2.2266667.92 3.56.92Zm6.32 2.26v-5.04l.56-4.62-.56-4.54v-4.6h2.82V83h-2.82Zm7.36 0V64.2h2.82V83h-2.82Zm2.82-10.96-1.18-.5c0-2.3866667.58-4.2733333 1.74-5.66 1.16-1.3866667 2.753333-2.08 4.78-2.08.933333 0 1.79.16666667 2.57.5.78.3333333 1.503333.8666667 2.17 1.6l-1.86 1.94c-.453333-.4933333-.95-.8466667-1.49-1.06-.54-.2133333-1.163333-.32-1.87-.32-1.426667 0-2.593333.47-3.5 1.41-.9066667.94-1.36 2.33-1.36 4.17Z"/><path d="M272.6 83V56.28h2.82V83h-2.82Zm-4.74-16.26V64.2h12.28v2.54h-12.28ZM298.9 83.4c-1.826667 0-3.476667-.4366667-4.95-1.31-1.473333-.8733333-2.643333-2.0566667-3.51-3.55-.866667-1.4933333-1.3-3.16-1.3-5 0-1.8266667.433333-3.4733333 1.3-4.94.866667-1.4666667 2.036667-2.6333333 3.51-3.5 1.473333-.86666667 3.123333-1.3 4.95-1.3s3.476667.43 4.95 1.29c1.473333.86 2.643333 2.0266667 3.51 3.5.866667 1.4733333 1.3 3.1233333 1.3 4.95 0 1.8533333-.433333 3.5233333-1.3 5.01-.866667 1.4866667-2.036667 2.6666667-3.51 3.54-1.473333.8733333-3.123333 1.31-4.95 1.31Zm0-2.7c1.32 0 2.496667-.31 3.53-.93 1.033333-.62 1.846667-1.4733333 2.44-2.56.593333-1.0866667.89-2.3166667.89-3.69 0-1.3466667-.3-2.5466667-.9-3.6-.6-1.0533333-1.413333-1.8866667-2.44-2.5-1.026667-.6133333-2.2-.92-3.52-.92-1.306667 0-2.48.3066667-3.52.92-1.04.6133333-1.856667 1.4466667-2.45 2.5-.593333 1.0533333-.89 2.26-.89 3.62 0 1.3733333.296667 2.6.89 3.68s1.41 1.93 2.45 2.55c1.04.62 2.213333.93 3.52.93Zm15.18 2.3V61.02c0-1.32.286667-2.48333333.86-3.49.573333-1.00666667 1.37-1.79666667 2.39-2.37 1.02-.57333333 2.19-.86 3.51-.86 1.013333 0 1.906667.17666667 2.68.53.773333.35333333 1.473333.85666667 2.1 1.51l-1.84 1.84c-.413333-.42666667-.856667-.74333333-1.33-.95-.473333-.20666667-1.016667-.31-1.63-.31-1.24 0-2.203333.37-2.89 1.11-.686667.74-1.03 1.75666667-1.03 3.05V83h-2.82Zm-4.74-16.26V64.2h13.86v2.54h-13.86Zm32.7 16.66c-1.84 0-3.5-.4333333-4.98-1.3-1.48-.8666667-2.65-2.0466667-3.51-3.54-.86-1.4933333-1.29-3.16-1.29-5 0-1.84.43-3.4966667 1.29-4.97.86-1.4733333 2.03-2.64 3.51-3.5 1.48-.86 3.14-1.29 4.98-1.29 1.413333 0 2.733333.26666667 3.96.8 1.226667.5333333 2.273333 1.2866667 3.14 2.26l-1.86 1.88c-.64-.72-1.41-1.2733333-2.31-1.66-.9-.3866667-1.876667-.58-2.93-.58-1.32 0-2.5.3066667-3.54.92-1.04.6133333-1.856667 1.4466667-2.45 2.5-.593333 1.0533333-.89 2.2666667-.89 3.64s.296667 2.5966667.89 3.67c.593333 1.0733333 1.41 1.92 2.45 2.54 1.04.62 2.22.93 3.54.93 1.066667 0 2.053333-.1933333 2.96-.58.906667-.3866667 1.686667-.9466667 2.34-1.68l1.86 1.88c-.88.9866667-1.94 1.7466667-3.18 2.28-1.24.5333333-2.566667.8-3.98.8Zm9.98-.4V64.2h2.82V83h-2.82Zm2.82-10.96-1.18-.5c0-2.3866667.58-4.2733333 1.74-5.66 1.16-1.3866667 2.753333-2.08 4.78-2.08.933333 0 1.79.16666667 2.57.5.78.3333333 1.503333.8666667 2.17 1.6l-1.86 1.94c-.453333-.4933333-.95-.8466667-1.49-1.06-.54-.2133333-1.163333-.32-1.87-.32-1.426667 0-2.593333.47-3.5 1.41-.906667.94-1.36 2.33-1.36 4.17Zm19.42 11.36c-1.773333 0-3.366667-.43-4.78-1.29-1.413333-.86-2.53-2.0266667-3.35-3.5-.82-1.4733333-1.23-3.13-1.23-4.97 0-1.8533333.41-3.52 1.23-5 .82-1.48 1.933333-2.6566667 3.34-3.53 1.406667-.87333333 2.99-1.31 4.75-1.31 1.44 0 2.726667.28666667 3.86.86 1.133333.5733333 2.056667 1.3733333 2.77 2.4.713333 1.0266667 1.143333 2.22 1.29 3.58v5.9c-.16 1.36-.593333 2.5566667-1.3 3.59-.706667 1.0333333-1.623333 1.8366667-2.75 2.41s-2.403333.86-3.83.86Zm.44-2.66c1.96 0 3.53-.6566667 4.71-1.97 1.18-1.3133333 1.77-3.03 1.77-5.15 0-1.4266667-.27-2.6766667-.81-3.75-.54-1.0733333-1.3-1.91-2.28-2.51-.98-.6-2.123333-.9-3.43-.9-1.333333 0-2.513333.3066667-3.54.92-1.026667.6133333-1.836667 1.4566667-2.43 2.53-.593333 1.0733333-.89 2.3033333-.89 3.69 0 1.3866667.296667 2.6166667.89 3.69.593333 1.0733333 1.41 1.9166667 2.45 2.53 1.04.6133333 2.226667.92 3.56.92Zm6.32 2.26v-5.04l.56-4.62-.56-4.54v-4.6h2.82V83h-2.82Zm9.98 0V61.02c0-1.32.286667-2.48333333.86-3.49.573333-1.00666667 1.37-1.79666667 2.39-2.37 1.02-.57333333 2.19-.86 3.51-.86 1.013333 0 1.906667.17666667 2.68.53.773333.35333333 1.473333.85666667 2.1 1.51l-1.84 1.84c-.413333-.42666667-.856667-.74333333-1.33-.95-.473333-.20666667-1.016667-.31-1.63-.31-1.24 0-2.203333.37-2.89 1.11-.686667.74-1.03 1.75666667-1.03 3.05V83H391Zm-4.74-16.26V64.2h13.86v2.54h-13.86Z"/><path d="M404.7 83V56.28h2.82V83h-2.82Zm-4.74-16.26V64.2h12.28v2.54h-12.28ZM414.98 83V64.2h2.82V83h-2.82Zm1.4-22.86c-.546667 0-1.003333-.19333333-1.37-.58-.366667-.38666667-.55-.85333333-.55-1.4 0-.56.183333-1.02666667.55-1.4.366667-.37333333.823333-.56 1.37-.56.573333 0 1.043333.18666667 1.41.56.366667.37333333.55.84.55 1.4 0 .54666667-.183333 1.01333333-.55 1.4-.366667.38666667-.836667.58-1.41.58ZM436.08 83V71.96c0-1.64-.49-2.9733333-1.47-4-.98-1.0266667-2.268333-1.54-3.865-1.54-1.086667 0-2.045833.2366667-2.8775.71-.831667.4733333-1.484167 1.1233333-1.9575 1.95-.473333.8266667-.71 1.78-.71 2.86l-1.28-.72c0-1.4266667.33-2.6966667.99-3.81.66-1.1133333 1.562604-1.9933333 2.707813-2.64 1.145208-.64666667 2.441979-.97 3.890312-.97 1.447917 0 2.728542.35 3.841875 1.05 1.113333.7 1.983333 1.6333333 2.61 2.8.626667 1.1666667.94 2.4433333.94 3.83V83h-2.82Zm-13.7 0V64.2h2.82V83h-2.82Zm28.44 8.32c-1.893333 0-3.58-.35-5.06-1.05-1.48-.7-2.673333-1.6966667-3.58-2.99l1.82-1.82c.746667 1 1.693333 1.78 2.84 2.34 1.146667.56 2.493333.84 4.04.84 2.146667 0 3.85-.5733333 5.11-1.72 1.26-1.1466667 1.89-2.7 1.89-4.66v-4.7l.56-4.28-.56-4.24V64.2h2.82v18.06c0 1.8133333-.413333 3.3966667-1.24 4.75s-1.983333 2.41-3.47 3.17c-1.486667.76-3.21 1.14-5.17 1.14Zm.2-8.52c-1.746667 0-3.313333-.4133333-4.7-1.24s-2.48-1.96-3.28-3.4c-.8-1.44-1.2-3.0666667-1.2-4.88 0-1.8.396667-3.4133333 1.19-4.84.793333-1.4266667 1.883333-2.5566667 3.27-3.39 1.386667-.83333333 2.946667-1.25 4.68-1.25 1.466667 0 2.776667.28333333 3.93.85 1.153333.5666667 2.086667 1.36 2.8 2.38.713333 1.02 1.143333 2.2233333 1.29 3.61v5.34c-.16 1.36-.6 2.5533333-1.32 3.58-.72 1.0266667-1.65 1.8233333-2.79 2.39-1.14.5666667-2.43.85-3.87.85Zm.52-2.66c1.293333 0 2.43-.2833333 3.41-.85s1.74-1.3633333 2.28-2.39c.54-1.0266667.81-2.2266667.81-3.6 0-1.36-.273333-2.55-.82-3.57s-1.31-1.82-2.29-2.4c-.98-.58-2.123333-.87-3.43-.87-1.32 0-2.49.29-3.51.87-1.02.58-1.816667 1.38-2.39 2.4-.573333 1.02-.86 2.2033333-.86 3.55 0 1.3333333.29 2.52.87 3.56.58 1.04 1.38 1.85 2.4 2.43 1.02.58 2.196667.87 3.53.87ZM477.98 83l-7.26-18.8h2.94l5.7 15.62-1.04.02L484 64.2h1.64l5.68 15.64-1.04-.02 5.7-15.62h2.94L491.66 83H490l-5.78-15.4h1.2L479.64 83zm31.52.4c-1.88 0-3.566667-.4266667-5.06-1.28-1.493333-.8533333-2.673333-2.0233333-3.54-3.51-.866667-1.4866667-1.3-3.1633333-1.3-5.03 0-1.8533333.423333-3.5166667 1.27-4.99.846667-1.4733333 2.003333-2.64 3.47-3.5 1.466667-.86 3.106667-1.29 4.92-1.29 1.72 0 3.24.39 4.56 1.17 1.32.78 2.356667 1.8566667 3.11 3.23s1.13 2.9466667 1.13 4.72c0 .2133333-.013333.46-.04.74-.026667.28-.073333.6066667-.14.98h-16.3v-2.38h14.76l-1 .86c.026667-1.3733333-.206667-2.56-.7-3.56-.493333-1-1.2-1.7766667-2.12-2.33-.92-.5533333-2.026667-.83-3.32-.83-1.36 0-2.55.2966667-3.57.89-1.02.5933333-1.813333 1.4166667-2.38 2.47-.566667 1.0533333-.85 2.2933333-.85 3.72 0 1.4533333.296667 2.7266667.89 3.82.593333 1.0933333 1.43 1.9433333 2.51 2.55 1.08.6066667 2.333333.91 3.76.91 1.133333 0 2.18-.2066667 3.14-.62s1.773333-1.0266667 2.44-1.84l1.82 1.84c-.88 1.04-1.97 1.8433333-3.27 2.41-1.3.5666667-2.696667.85-4.19.85Zm21.46 0c-1.426667 0-2.716667-.29-3.87-.87-1.153333-.58-2.096667-1.3866667-2.83-2.42s-1.18-2.2233333-1.34-3.57v-5.9c.16-1.3733333.613333-2.5733333 1.36-3.6.746667-1.0266667 1.7-1.8233333 2.86-2.39 1.16-.56666667 2.433333-.85 3.82-.85 1.746667 0 3.313333.43333333 4.7 1.3 1.386667.8666667 2.483333 2.04 3.29 3.52s1.21 3.1533333 1.21 5.02c0 1.84-.4 3.4966667-1.2 4.97-.8 1.4733333-1.896667 2.64-3.29 3.5-1.393333.86-2.963333 1.29-4.71 1.29Zm-.48-2.66c1.333333 0 2.506667-.3033333 3.52-.91 1.013333-.6066667 1.81-1.45 2.39-2.53.58-1.08.87-2.3133333.87-3.7 0-1.4-.29-2.6366667-.87-3.71-.58-1.0733333-1.373333-1.9133333-2.38-2.52-1.006667-.6066667-2.163333-.91-3.47-.91s-2.46.3033333-3.46.91c-1 .6066667-1.78 1.4466667-2.34 2.52-.56 1.0733333-.84 2.3166667-.84 3.73 0 1.3866667.276667 2.6166667.83 3.69.553333 1.0733333 1.326667 1.9133333 2.32 2.52.993333.6066667 2.136667.91 3.43.91ZM521.24 83V54.68h2.82V68.8l-.58 4.54.58 4.62V83h-2.82Zm28.06.4c-1.026667 0-2.003333-.14-2.93-.42-.926667-.28-1.77-.6733333-2.53-1.18-.76-.5066667-1.426667-1.1066667-2-1.8l1.82-1.84c.733333.9066667 1.576667 1.58 2.53 2.02.953333.44 2.01.66 3.17.66 1.253333 0 2.233333-.2366667 2.94-.71.706667-.4733333 1.06-1.1366667 1.06-1.99 0-.8-.25-1.4266667-.75-1.88-.5-.4533333-1.146667-.8166667-1.94-1.09-.793333-.2733333-1.63-.5366667-2.51-.79-.88-.2533333-1.716667-.5733333-2.51-.96-.793333-.3866667-1.44-.9233333-1.94-1.61-.5-.6866667-.75-1.5966667-.75-2.73 0-1.0666667.263333-1.9933333.79-2.78.526667-.7866667 1.273333-1.4 2.24-1.84.966667-.44 2.116667-.66 3.45-.66 1.426667 0 2.71.25333333 3.85.76 1.14.5066667 2.063333 1.2533333 2.77 2.24l-1.82 1.82c-.546667-.72-1.24-1.2766667-2.08-1.67-.84-.3933333-1.786667-.59-2.84-.59-1.186667 0-2.093333.2333333-2.72.7-.626667.4666667-.94 1.0733333-.94 1.82 0 .7333333.25 1.3066667.75 1.72.5.4133333 1.146667.7466667 1.94 1 .793333.2533333 1.63.5066667 2.51.76.88.2533333 1.716667.5866667 2.51 1 .793333.4133333 1.44.9733333 1.94 1.68s.75 1.6533333.75 2.84c0 1.6933333-.61 3.0366667-1.83 4.03-1.22.9933333-2.863333 1.49-4.93 1.49Zm10.08-.4V64.2h2.82V83h-2.82Zm1.4-22.86c-.546667 0-1.003333-.19333333-1.37-.58-.366667-.38666667-.55-.85333333-.55-1.4 0-.56.183333-1.02666667.55-1.4.366667-.37333333.823333-.56 1.37-.56.573333 0 1.043333.18666667 1.41.56.366667.37333333.55.84.55 1.4 0 .54666667-.183333 1.01333333-.55 1.4-.366667.38666667-.836667.58-1.41.58ZM569.7 83V56.28h2.82V83h-2.82Zm-4.74-16.26V64.2h12.28v2.54h-12.28Zm23 16.66c-1.88 0-3.566667-.4266667-5.06-1.28-1.493333-.8533333-2.673333-2.0233333-3.54-3.51-.866667-1.4866667-1.3-3.1633333-1.3-5.03 0-1.8533333.423333-3.5166667 1.27-4.99.846667-1.4733333 2.003333-2.64 3.47-3.5 1.466667-.86 3.106667-1.29 4.92-1.29 1.72 0 3.24.39 4.56 1.17 1.32.78 2.356667 1.8566667 3.11 3.23s1.13 2.9466667 1.13 4.72c0 .2133333-.013333.46-.04.74-.026667.28-.073333.6066667-.14.98h-16.3v-2.38h14.76l-1 .86c.026667-1.3733333-.206667-2.56-.7-3.56-.493333-1-1.2-1.7766667-2.12-2.33-.92-.5533333-2.026667-.83-3.32-.83-1.36 0-2.55.2966667-3.57.89-1.02.5933333-1.813333 1.4166667-2.38 2.47-.566667 1.0533333-.85 2.2933333-.85 3.72 0 1.4533333.296667 2.7266667.89 3.82.593333 1.0933333 1.43 1.9433333 2.51 2.55 1.08.6066667 2.333333.91 3.76.91 1.133333 0 2.18-.2066667 3.14-.62s1.773333-1.0266667 2.44-1.84l1.82 1.84c-.88 1.04-1.97 1.8433333-3.27 2.41-1.3.5666667-2.696667.85-4.19.85Zm17.52 0c-1.026667 0-2.003333-.14-2.93-.42-.926667-.28-1.77-.6733333-2.53-1.18-.76-.5066667-1.426667-1.1066667-2-1.8l1.82-1.84c.733333.9066667 1.576667 1.58 2.53 2.02.953333.44 2.01.66 3.17.66 1.253333 0 2.233333-.2366667 2.94-.71.706667-.4733333 1.06-1.1366667 1.06-1.99 0-.8-.25-1.4266667-.75-1.88-.5-.4533333-1.146667-.8166667-1.94-1.09-.793333-.2733333-1.63-.5366667-2.51-.79-.88-.2533333-1.716667-.5733333-2.51-.96-.793333-.3866667-1.44-.9233333-1.94-1.61-.5-.6866667-.75-1.5966667-.75-2.73 0-1.0666667.263333-1.9933333.79-2.78.526667-.7866667 1.273333-1.4 2.24-1.84.966667-.44 2.116667-.66 3.45-.66 1.426667 0 2.71.25333333 3.85.76 1.14.5066667 2.063333 1.2533333 2.77 2.24l-1.82 1.82c-.546667-.72-1.24-1.2766667-2.08-1.67-.84-.3933333-1.786667-.59-2.84-.59-1.186667 0-2.093333.2333333-2.72.7-.626667.4666667-.94 1.0733333-.94 1.82 0 .7333333.25 1.3066667.75 1.72.5.4133333 1.146667.7466667 1.94 1 .793333.2533333 1.63.5066667 2.51.76.88.2533333 1.716667.5866667 2.51 1 .793333.4133333 1.44.9733333 1.94 1.68s.75 1.6533333.75 2.84c0 1.6933333-.61 3.0366667-1.83 4.03-1.22.9933333-2.863333 1.49-4.93 1.49Z"/></g><g stroke-width="3"><path stroke="#4ED55D" d="M31.5000005 46.5h38v38h-38z"/><path stroke="#FF6262" d="m38.94842373 1.8371174 9.78705018 36.52576852-36.52576851 9.78705017-9.78705018-36.5257685L38.94842373 1.8371174Z"/><path stroke="#4EABFF" d="M126.63124205 57.13996121 99.89252372 83.87867954 73.15380567 57.13996149 99.892524 30.40124317l26.73871805 26.73871804Z"/></g></g></svg>
