<svg xmlns="http://www.w3.org/2000/svg" xmlns:xlink="http://www.w3.org/1999/xlink" viewBox="0 0 1981 159"><defs><path id="a" fill="#FB70A9" d="M794.925761 105.508107c-2.577224 3.877107-4.535269 8.654055-9.775063 8.654055-8.818444 0-9.295244-13.5302583-18.118409-13.5302583-8.8231652 0-8.3463649 13.5302583-17.1648092 13.5302583-8.8184443 0-9.2952443-13.5302583-18.1184093-13.5302583-8.8231653 0-8.3463649 13.5302583-17.1648092 13.5302583-8.818444 0-9.2952444-13.5302583-18.1184093-13.5302583-8.823165 0-8.346365 13.5302583-17.164809 13.5302583-2.7714572 0-4.7189962-1.336406-6.36064495-3.169208C666.63025311 100.0660335 663 87.2613907 663 73.5713865 663 33.4913165 694.1162099 1 732.5 1 770.88379 1 802 33.4913165 802 73.5713865c0 11.4600347-2.543909 22.2996502-7.074239 31.9367205Z"/></defs><g fill="none" fill-rule="evenodd"><path fill="#FF2D20" d="M1054.913723 36.7437389c.056732.2106404.086277.4278234.086277.6460156V71.304029c0 .8860222-.472502 1.7043467-1.238692 2.1451427l-28.375901 16.3883963v32.483149c0 .884021-.468361 1.700041-1.232529 2.145143l-59.2322674 34.204827c-.1355782.077274-.2834817.12673-.4313852.179277-.0554638.018546-.1078463.052546-.1663914.068001-.4140559.10938-.8492864.10938-1.2633423 0-.0677891-.018546-.1294156-.055637-.1941234-.080365-.1355782-.049456-.277319-.09273-.4067346-.166913l-59.21994195-34.204827C902.4729683 124.024594 902 123.206567 902 122.320717V20.5778935c0-.2225508.03081323-.4389197.08627704-.6491066.01848793-.0710926.06162645-.1360033.08627703-.2070959.04621984-.1298213.08935836-.2627336.15714746-.383282.04621985-.0803656.11400895-.1452762.16947276-.2194599.07087042-.0989114.1355782-.2009139.21877391-.2874615.07087042-.0710926.1633101-.1236393.2434245-.185459.08935836-.0741836.16947275-.1545492.2711564-.2132779h.00308132L932.8471221 1.33033726c.7630307-.44044968 1.7020275-.44044968 2.4650582 0l29.6115116 17.10241344h.0061627c.0986023.0618197.181798.1390943.2711564.2101869.0801144.0618197.1694727.1174574.2403432.1854591.086277.0896385.1479035.191641.2218552.2905524.0523825.0741837.1232529.1390943.1663914.2194599.0708705.1236393.1109277.2534607.1602288.383282.0246506.0710926.0677891.1360033.0862771.2101869.0567321.2106404.0857374.4278234.086277.6460156v63.5475364l24.6752326-14.2525264v-32.48624c0-.2163689.0308132-.4358287.086277-.6429246.0215693-.0741836.0616265-.1390943.0862771-.2101869.0493011-.1298213.0924397-.2627336.1602288-.383282.0462198-.0803656.1140089-.1452763.1663914-.2194599.0739517-.0989114.1355782-.2009139.2218552-.2874615.0708705-.0710926.1602288-.1236393.2403432-.185459.0924397-.0741836.1725541-.1545492.2711564-.2132779h.0030813l29.6145933-17.1024134c.762861-.4410843 1.702196-.4410843 2.465058 0l29.611512 17.1024134c.104765.0618197.184879.1390943.277319.2101869.077033.0618197.166391.1174574.237261.1854591.086278.0896385.147904.191641.221856.2905524.055464.0741836.123253.1390943.166391.2194599.070871.1205484.110928.2534607.160229.383282.027732.0710926.067789.1360033.086277.2101869Zm-4.850002 33.1291646V41.6707671l-10.362488 5.9841447-14.315826 8.2683817v28.2021364l24.681395-14.2525264h-.003081Zm-29.611512 51.0166875V92.6689091l-14.081645 8.0674678-40.2112616 23.0216471v28.486507l54.2929066-31.35494ZM906.93627905 24.8589061v96.0306849l54.28674425 31.351849v-28.480325l-28.3604946-16.100934-.009244-.006182-.0123253-.006182c-.095521-.055638-.1756354-.136004-.2649937-.204005-.0770331-.06182-.1663914-.111276-.2341805-.179277l-.0061627-.009273c-.0801144-.077275-.1355782-.173095-.2033673-.259643-.0616264-.083456-.1355782-.154549-.1848794-.241097l-.0030813-.009273c-.0554638-.092729-.0893583-.204004-.1294155-.309098-.0400572-.092729-.0924397-.179277-.1170903-.278188v-.003091c-.0308132-.117458-.0369759-.241097-.0493012-.361646-.0123253-.092729-.0369758-.185459-.0369758-.278188V39.1114325l-14.3127442-8.2714727-10.36248845-5.9779627v-.003091ZM934.0827325 6.33154908 909.41058122 20.5778935l24.66598868 14.2463444 24.6690699-14.2494354-24.6690699-14.24325342h.0061626Zm12.830628 88.90905862 14.3127441-8.2652908V24.8589061l-10.3624884 5.9841447-14.3158255 8.2683817v62.1164105l10.3655698-5.9872353Zm76.0069885-72.0971976-24.6690702 14.2463444 24.6690702 14.2463444 24.665988-14.2494354-24.665988-14.2432534Zm-2.46814 32.7798834-14.315825-8.2683817-10.3624886-5.9841447v28.2021364l14.3127446 8.2652907 10.365569 5.9872357V55.9232935Zm-56.7641275 63.5537185 36.1839731-20.7219557 18.0873644-10.3547958-24.6505818-14.2370715-28.3820639 16.3914872-25.8677045 14.9387248 24.6290127 13.983611Z"/><g fill-rule="nonzero"><path fill="#41B883" d="M1263.322657 1 1243 37.488131 1222.6773431 1H1155l88 158 88-158z"/><path fill="#34495E" d="M1263.3226569.9999996 1243 37.4881304 1222.6773431.9999996H1190.2L1243 95.798141 1295.8.9999996z"/></g><g fill-rule="nonzero"><use xlink:href="#a"/><path fill="#4E56A6" d="M704.0890106 99.0050256v30.0806917c0 5.3980242-4.4109792 9.7739876-9.85219779 9.7739876-5.44121861 0-9.85219781-4.3759634-9.85219781-9.7739876V92.7720965c1.83883031-3.34866295 3.93945468-6.2478995 7.72657152-6.2478995 6.16502378 0 8.31904858 7.68308707 11.97782408 12.4808286Zm37.2194141 1.5671653v47.5678222c0 5.9978048-4.901088 10.8599862-10.9468866 10.8599862-6.0457986 0-10.9468866-4.8621814-10.9468866-10.8599862V94.30254744c2.0614429-3.94314762 4.1862277-7.77835044 8.5419587-7.77835044 6.8959442 0 8.7734277 9.61288438 13.3518145 14.0479939Zm35.0300365-.8730315v34.5332511c0 5.3980242-4.4109791 9.7739876-9.852198 9.7739876-5.4412185 0-9.8521976-4.3759634-9.8521976-9.7739876V91.78737605c1.7153714-2.9126749 3.758023-5.26317905 7.1679681-5.26317905 6.4720989 0 8.523678 8.46752543 12.5364275 13.1749624Z"/><path fill="#000" fill-opacity=".29851399" d="M704.0890106 108.2242136c-1.7476537-2.1230069-3.8163966-3.6984105-6.8083928-3.6984105-7.10461668 0-8.40875137 8.8828238-12.8960028 12.8875488V79.09831148c0-5.39802424 4.4109792-9.77398748 9.85219781-9.77398748 5.44121859 0 9.85219779 4.37596324 9.85219779 9.77398748v29.12590212Zm37.2194141.6853892c-1.8639378-2.4603385-4.0427385-4.3837997-7.3487688-4.3837997-7.9042885 0-8.6288433 10.9950025-14.5450044 14.0347996v-16.9448039c0-5.9978047 4.901088-10.859986 10.9468866-10.859986 6.0457986 0 10.9468866 4.8621813 10.9468866 10.859986v7.293804Zm35.0300365-1.9015858c-1.5166456-1.481315-3.3149219-2.4822139-5.6997671-2.4822139-7.6570127 0-8.5764829 10.3178324-14.0046285 13.726734V83.8608645c0-5.39802419 4.4109791-9.77398743 9.8521976-9.77398743 5.4412189 0 9.852198 4.37596324 9.852198 9.77398743v23.1471525Z"/><use xlink:href="#a"/><path fill="#E24CA6" d="M779.546154 113.773715c18.493077-27.1524926 18.970935-57.2707581 1.433573-90.3547961C793.97911 36.5627034 802 54.6000927 802 74.5024113c0 11.4985848-2.677343 22.3746634-7.4453 32.0441517-2.712404 3.89015-4.773153 8.683167-10.287786 8.683167-1.887432 0-3.411778-.561459-4.72076-1.456015Z"/><path fill="#FFF" d="M728.2230766 92.8108106c24.0774928 0 34.2153846-14.1027562 34.2153846-34.1307919 0-20.0280357-15.3187495-38.4638027-34.2153846-38.4638027-18.896635 0-34.2153846 18.435767-34.2153846 38.4638027 0 20.0280357 10.1378919 34.1307919 34.2153846 34.1307919Z"/><g transform="translate(706.192889 31.215396)"><ellipse cx="12.8307692" cy="14.2989353" fill="#030776" rx="12.8307692" ry="14.2989353"/><ellipse cx="10.6923077" cy="10.999181" fill="#FFF" rx="6.4153846" ry="6.59950862"/></g></g><path fill="#38BDF8" d="M469.0018419 25c-25.068877 0-40.7327807 12.4452622-47.0027629 37.3357866 9.4012894-12.4452622 20.3682323-17.1113156 32.9008289-14.00184 7.1504321 1.7736891 12.2636725 6.925483 17.9184449 12.6292549C482.035448 70.25115 492.703995 81 516.000921 81 541.066114 81 556.733702 68.5547378 563 43.6678933c-9.397605 12.4452622-20.364548 17.1113155-32.897145 13.9981601-7.154116-1.7736891-12.267356-6.925483-17.922129-12.625575C502.963631 35.7451702 492.298767 25 469.0018419 25ZM421.999079 81C396.9338859 81 381.26629828 93.4452622 375 118.3357866c9.40128936-12.4452622 20.3682323-17.1113156 32.897145-14.00184 7.1541159 1.7736891 12.2673564 6.925483 17.9221288 12.6292549C435.0363686 126.25115 445.7012325 137 469.0018419 137c25.0651931 0 40.7327811-12.4415823 46.9990791-37.3321067-9.401289 12.4452622-20.368232 17.1113155-32.900829 14.0018399-7.150432-1.7773689-12.2636724-6.9291628-17.9184448-12.6292548C455.9645523 91.7525299 445.2960045 81 421.999079 81Z"/><path fill="#6082BC" fill-rule="nonzero" d="M1465.9857511 94.6112742c6.3669623 0 11.1201415-1.1926764 14.1276203-3.543707 2.9752922-2.3269129 5.0302372-6.3584118 6.1073182-11.9819203 1.0042539-5.2563218.6216523-8.926535-1.1367092-10.9071756-1.7979504-2.0229832-5.6851439-3.0489463-11.5534114-3.0489463h-10.1749779l-5.64081 29.4817492h8.27097Zm-33.27967296 36.3161508c-.4723048 0-.92086912-.214419-1.22113769-.585355-.30081451-.37039-.42270428-.858182-.33247117-1.329355l14.94928032-78.1271603c.1446026-.7552638.7963299-1.3009497 1.5541307-1.3009497h32.2194841c10.1259153 0 17.662825 2.7927305 22.4001799 8.3015268 4.7626851 5.5377473 6.2334391 13.2785747 4.3711076 23.0070115-.7578008 3.9634247-2.0612715 7.644348-3.8739945 10.9398759-1.8148265 3.2992772-4.213322 6.3519729-7.1300378 9.0750154-3.4914009 3.3191078-7.4429835 5.7258969-11.7343994 7.1420887-4.2233578 1.3974371-9.647276 2.1060709-16.1208175 2.1060709h-13.0463242l-3.7257148 19.4697438c-.1446026.755801-.795808 1.301487-1.5536088 1.301487h-16.75567676Zm113.67027286-20.7712308c-.466781 0-.909075-.214411-1.205498-.5853471-.297467-.3703981-.417807-.8576521-.32873-1.3293628l6.528128-34.5681463c.620994-3.2874832.467832-5.6470964-.43083-6.6441165-.550133-.609465-2.202606-1.6316787-7.088674-1.6316787h-11.826792l-8.2076973 43.4571638c-.142748.7558017-.7861256 1.3014876-1.5342279 1.3014876h-16.4101913c-.4667731 0-.9090591-.214411-1.2060118-.5853471-.2969368-.3703981-.417285-.85819-.328208-1.3293628l14.7577105-78.12716059c.14274-.75526377.7861256-1.30094971 1.5342279-1.30094971h16.4101749c.466781 0 .909083.21441906 1.20602.5848172.296953.37092803.417285.85818203.328208 1.32989271l-3.561273 18.85652109h12.722845c9.692428 0 16.264834 1.7581929 20.09284 5.3753293 3.901966 3.6900358 5.119451 9.5901446 3.619096 17.5384223l-6.866235 36.35635c-.142732.7558017-.785604 1.3014876-1.53422 1.3014876h-16.670662Zm55.278392-15.54492c6.611248 0 11.546796-1.1926764 14.669677-3.543707 3.089451-2.3263749 5.223244-6.3578739 6.342194-11.9819203 1.042783-5.2563218.645513-8.926535-1.180866-10.9071756-1.86694-2.0229832-5.903272-3.0489463-11.996693-3.0489463h-10.565399l-5.857236 29.4817492h8.588323Zm-34.556047 36.3161508c-.490426 0-.956203-.214419-1.267993-.585355-.312343-.37039-.439476-.858182-.345782-1.329355l15.522881-78.1271603c.150697-.7552638.826887-1.3009497 1.614321-1.3009497h33.455162c10.51498 0 18.340533 2.7927305 23.260208 8.3015268 4.945416 5.5372093 6.472056 13.2780448 4.538817 23.0070115-.787981 3.9634247-2.140915 7.644348-4.023182 10.9398759-1.884474 3.2992772-4.374993 6.3519729-7.403619 9.0750154-3.625366 3.3191078-7.72856 5.7258969-12.18465 7.1420887-4.38539 1.3974371-10.017417 2.1060709-16.739363 2.1060709h-13.547435l-3.867026 19.4697438c-.150688.755801-.826886 1.301487-1.614313 1.301487h-17.398026Z"/><g fill="#8967ED" fill-rule="nonzero"><path d="M231.2 70.1h-17.8l17.2 17.2-17.2 17.2h17.8l17.2-17.2z"/><path d="M258.1 70.1h-17.8l17.2 17.2-17.2 17.2h17.8l17.2-17.2zM6 69.3h10.3l-6 34.2H0l6-34.2Zm.6-9.1c.6-3.3 3.7-6.2 7.1-6.2 3.4 0 5.7 2.8 5.2 6.2-.5 3.4-3.7 6.2-7.2 6.2s-5.6-3-5.1-6.2Zm47.7 22.3-3.7 21H40.4L43.8 84c.8-4.4-1.6-6.2-4.9-6.2-3.4 0-6.5 2-7.5 6.6L28 103.5H17.8l6-34.2h10.3l-.5 3.2c2.3-2.6 6.2-4.2 10.1-4.2 6.9.1 12.2 5.1 10.6 14.2Zm40.2 3.9c-.1.8-.5 2.7-1.1 4.1H68.9c.6 3.8 3.8 4.8 7 4.8 2.9 0 5.2-.8 7.2-2.7l7.2 5.9c-4 4-8.7 6-15 6-11.8 0-18-8.5-16.3-18.7 1.6233306-10.0527976 10.3170275-17.4318379 20.5-17.4001026C89.3 68.3998974 96.4 76 94.5 86.4Zm-9.7-3.7c-.3-3.8-3-5.3-6.2-5.3-3.5810759-.0643708-6.8518194 2.0241762-8.3 5.3h14.5Zm39.1-14.1-2 11.6c-4-.6-10.5.8-11.7 7.8l.1-.4-2.8 15.9H97.3l6-34.2h10.3l-1.1 6.2c2.1-4.7 6.6-6.9 11.4-6.9Zm13.9 22.7c-.5 3.1 2 3.3 6.6 2.9l-1.6 9.3c-12.3 1.4-16.9-2.7-15.2-12.2l2.1-12.1h-5.5l1.8-9.9h5.4l1.2-6.5 10.8-3.1-1.7 9.6h7.1l-1.8 9.9h-7l-2.2 12.1Zm17.5-22h10.3l-6 34.2h-10.3l6-34.2Zm.6-9.1c.5-3.3 3.7-6.2 7.1-6.2 3.4 0 5.7 2.8 5.2 6.2-.5 3.4-3.7 6.2-7.2 6.2s-5.7-3-5.1-6.2Zm52.2 9.1-6 34.2h-10.3l.4-2.3c-2.925729 2.3010459-6.581805 3.4724098-10.3 3.3-11.1 0-15.3-9.6-13.5-18.9 1.6-8.8 8.6-17.2 19.2-17.2 4.5 0 7.7 1.8 9.6 4.6l.6-3.6h10.3v-.1Zm-13.2 17.2c.9-5.2-1.9-8.4-6.6-8.4-4.811702-.0385229-8.892341 3.5266667-9.5 8.3-.9 5.1 1.8 8.3 6.6 8.3 4.6.1 8.6-3.1 9.5-8.2Z"/></g><g fill-rule="nonzero"><path fill="#80EEC0" d="M1849.503665 8.52609486c-6.6350598-11.36812648-23.2223125-11.36812648-29.8573721 0L1747.33519866 132.42142C1740.70021839 143.789941 1748.99392392 158 1762.2639241 158h56.4500688c-5.6702697-4.938046-7.7702228-13.480821-3.4791864-20.810308L1870 43.6439838l-20.496335-35.11788894Z"/><path fill="#00DC82" d="M1894.666953 35.9612118c5.481474-9.2816157 19.184567-9.2816157 24.666041 0l59.737745 101.1549562C1984.552213 146.397784 1977.700667 158 1966.737719 158h-119.475491c-10.9625523 0-17.8144939-11.602216-12.3330197-20.883832l59.7377447-101.1549562Z"/></g></g></svg>
