<svg xmlns="http://www.w3.org/2000/svg" viewBox="0 0 86 86">
    <path fill-rule="evenodd"
        d="M46.4355732 0c10.3298727 0 16.630063 1.57803539 22.1708038 4.54125596 5.5407407 2.96322058 9.8891465 7.31162634 12.852367 12.85236704C84.4219646 22.9343638 86 29.2345541 86 39.5644268v6.8711464c0 10.3298727-1.5780354 16.630063-4.541256 22.1708038-2.9632205 5.5407407-7.3116263 9.8891465-12.852367 12.852367C63.0656362 84.4219646 56.7654459 86 46.4355732 86h-6.8711464c-10.3298727 0-16.630063-1.5780354-22.1708038-4.541256-5.5407407-2.9632205-9.88914646-7.3116263-12.85236704-12.852367C1.57803539 63.0656362 0 56.7654459 0 46.4355732v-6.8711464c0-10.3298727 1.57803539-16.630063 4.54125596-22.1708038C7.50447654 11.8528823 11.8528823 7.50447654 17.393623 4.54125596 22.9343638 1.57803539 29.2345541 0 39.5644268 0h6.8711464ZM59.5 28.3333333c-8.0081289 0-14.5 6.4918712-14.5 14.5 0 8.0081289 6.4918711 14.5 14.5 14.5 8.0081289 0 14.5-6.4918711 14.5-14.5 0-8.0081288-6.4918711-14.5-14.5-14.5Zm-33 0c-8.0081289 0-14.5 6.4918712-14.5 14.5 0 8.0081289 6.4918711 14.5 14.5 14.5 8.0081289 0 14.5-6.4918711 14.5-14.5 0-8.0081288-6.4918711-14.5-14.5-14.5Zm33 2.5c6.627417 0 12 5.372583 12 12s-5.372583 12-12 12-12-5.372583-12-12 5.372583-12 12-12Zm-33 0c6.627417 0 12 5.372583 12 12s-5.372583 12-12 12-12-5.372583-12-12 5.372583-12 12-12Z" />
</svg>
