<svg xmlns="http://www.w3.org/2000/svg" viewBox="0 0 460 233"><g fill="none" fill-rule="evenodd"><g fill="currentColor" fill-rule="nonzero"><path d="M91.95 174.08v-4h8.04c1.4133333 0 2.5066667-.44 3.28-1.32.7733333-.88 1.16-1.8933333 1.16-3.04 0-.7733333-.1733333-1.4933333-.52-2.16-.3466667-.6666667-.8533333-1.2-1.52-1.6-.6666667-.4-1.4666667-.6-2.4-.6h-8.04v-4h7.36c1.2 0 2.16-.3066667 2.88-.92.72-.6133333 1.08-1.52 1.08-2.72 0-1.2-.36-2.10666667-1.08-2.72-.72-.61333333-1.68-.92-2.88-.92h-7.36v-4h7.48c1.8933333 0 3.4666667.34666667 4.72 1.04 1.2533333.69333333 2.1866667 1.58666667 2.8 2.68.6133333 1.09333333.92 2.26666667.92 3.52 0 1.46666667-.4066667 2.76-1.22 3.88s-2.0066667 2.0266667-3.58 2.72l.36-1.44c1.76.72 3.1333333 1.7333333 4.12 3.04.9866667 1.3066667 1.48 2.84 1.48 4.6 0 1.44-.3533333 2.76-1.06 3.96-.7066667 1.2-1.7466667 2.1666667-3.12 2.9s-3.06 1.1-5.06 1.1h-7.84Zm-3.16 0v-28h4.6v28h-4.6Zm32.1.4c-1.92 0-3.6466667-.4333333-5.18-1.3-1.5333333-.8666667-2.7466667-2.06-3.64-3.58-.8933333-1.52-1.34-3.2266667-1.34-5.12s.44-3.5933333 1.32-5.1c.88-1.5066667 2.0733333-2.7 3.58-3.58 1.5066667-.88 3.18-1.32 5.02-1.32 1.7866667 0 3.3666667.41333333 4.74 1.24 1.3733333.8266667 2.4533333 1.96 3.24 3.4s1.18 3.08 1.18 4.92c0 .32-.02.6466667-.06.98-.04.3333333-.1.7-.18 1.1h-15.76v-3.6h13.48l-1.64 1.44c-.0533333-1.1733333-.28-2.16-.68-2.96-.4-.8-.9666667-1.4133333-1.7-1.84-.7333333-.4266667-1.6333333-.64-2.7-.64-1.12 0-2.0933333.24-2.92.72-.8266667.48-1.4666667 1.1533333-1.92 2.02-.4533333.8666667-.68 1.9-.68 3.1 0 1.2.24 2.2533333.72 3.16.48.9066667 1.16 1.6066667 2.04 2.1.88.4933333 1.8933333.74 3.04.74.9866667 0 1.9-.1733333 2.74-.52.84-.3466667 1.5533333-.8533333 2.14-1.52l2.8 2.84c-.9333333 1.0933333-2.0666667 1.92-3.4 2.48s-2.7466667.84-4.24.84Zm24.5-.4V163c0-1.28-.4066667-2.3333333-1.22-3.16-.8133333-.8266667-1.8566667-1.24-3.13-1.24-.8666667 0-1.6316667.1866667-2.295.56-.6633333.3733333-1.1816667.8933333-1.555 1.56-.3733333.6666667-.56 1.4266667-.56 2.28l-1.72-.96c0-1.4666667.32-2.7666667.96-3.9.64-1.1333333 1.5253125-2.0266667 2.6559375-2.68 1.130625-.65333333 2.4105208-.98 3.8396875-.98 1.4295833 0 2.704375.36666667 3.824375 1.1 1.12.7333333 2 1.68 2.64 2.84.64 1.16.96 2.3666667.96 3.62v12.04h-4.4Zm-13.16 0v-19.2h4.4v19.2h-4.4Z"/><path d="M151.25 182.48c-1.36 0-2.4733333-.2133333-3.34-.64-.8666667-.4266667-1.66-1.0533333-2.38-1.88l2.84-2.84c.32.4266667.68.74 1.08.94.4.2.8933333.3 1.48.3.72 0 1.34-.22 1.86-.66.52-.44.78-1.0866667.78-1.94v-20.88h4.4v20.84c0 1.4666667-.3133333 2.7-.94 3.7-.6266667 1-1.4466667 1.76-2.46 2.28-1.0133333.52-2.12.78-3.32.78Zm4.6-31.12c-.7466667 0-1.3666667-.25333333-1.86-.76-.4933333-.50666667-.74-1.13333333-.74-1.88s.2466667-1.37333333.74-1.88 1.1133333-.76 1.86-.76c.7733333 0 1.4.25333333 1.88.76s.72 1.13333333.72 1.88-.24 1.37333333-.72 1.88-1.1066667.76-1.88.76Zm13.94 23.12c-1.7333333 0-3.3-.44-4.7-1.32-1.4-.88-2.5066667-2.0733333-3.32-3.58-.8133333-1.5066667-1.22-3.1933333-1.22-5.06 0-1.8933333.4066667-3.5933333 1.22-5.1.8133333-1.5066667 1.92-2.7066667 3.32-3.6 1.4-.89333333 2.9666667-1.34 4.7-1.34 1.4666667 0 2.7666667.31333333 3.9.94 1.1333333.6266667 2.0333333 1.4866667 2.7 2.58.6666667 1.0933333 1 2.3333333 1 3.72v5.52c0 1.3866667-.3266667 2.6266667-.98 3.72-.6533333 1.0933333-1.5533333 1.9533333-2.7 2.58-1.1466667.6266667-2.4533333.94-3.92.94Zm.72-4.16c1.6266667 0 2.94-.5466667 3.94-1.64 1-1.0933333 1.5-2.4933333 1.5-4.2 0-1.1466667-.2266667-2.16-.68-3.04-.4533333-.88-1.0866667-1.5666667-1.9-2.06-.8133333-.4933333-1.7666667-.74-2.86-.74-1.0666667 0-2.0066667.2466667-2.82.74s-1.4533333 1.18-1.92 2.06c-.4666667.88-.7 1.8933333-.7 3.04s.2333333 2.16.7 3.04c.4666667.88 1.1066667 1.5666667 1.92 2.06s1.7533333.74 2.82.74Zm5.16 3.76v-5.16l.76-4.68-.76-4.64v-4.72h4.4v19.2h-4.4Zm8.18 0v-19.2h4.4v19.2h-4.4Zm12.76 0v-11.44c0-1.28-.4-2.2733333-1.2-2.98-.8-.7066667-1.786667-1.06-2.96-1.06-.8 0-1.513333.16-2.14.48-.626667.32-1.126667.78-1.5 1.38-.3733333.6-.56 1.3266667-.56 2.18l-1.72-.96c0-1.4666667.32-2.7333333.96-3.8.64-1.0666667 1.506667-1.9 2.6-2.5 1.093333-.6 2.32-.9 3.68-.9 1.36 0 2.586667.29333333 3.68.88 1.093333.5866667 1.96 1.4133333 2.6 2.48.64 1.0666667.96 2.3466667.96 3.84v12.4h-4.4Zm12.76 0v-11.44c0-1.28-.4-2.2733333-1.2-2.98-.8-.7066667-1.786667-1.06-2.96-1.06-.773333 0-1.48.16-2.12.48-.64.32-1.146667.78-1.52 1.38-.373333.6-.56 1.3266667-.56 2.18l-2.48-.96c.133333-1.4666667.56-2.7333333 1.28-3.8.72-1.0666667 1.646667-1.9 2.78-2.5 1.133333-.6 2.38-.9 3.74-.9 1.386667 0 2.64.29333333 3.76.88 1.12.5866667 2.013333 1.4133333 2.68 2.48.666667 1.0666667 1 2.3466667 1 3.84v12.4h-4.4Zm7.86 0v-19.2h4.4v19.2h-4.4Zm2.2-22.72c-.746667 0-1.366667-.25333333-1.86-.76s-.74-1.13333333-.74-1.88.246667-1.37333333.74-1.88 1.113333-.76 1.86-.76c.773333 0 1.4.25333333 1.88.76s.72 1.13333333.72 1.88-.24 1.37333333-.72 1.88-1.106667.76-1.88.76Zm19.18 22.72V163c0-1.28-.406667-2.3333333-1.22-3.16-.813333-.8266667-1.856667-1.24-3.13-1.24-.866667 0-1.631667.1866667-2.295.56-.663333.3733333-1.181667.8933333-1.555 1.56-.373333.6666667-.56 1.4266667-.56 2.28l-1.72-.96c0-1.4666667.32-2.7666667.96-3.9.64-1.1333333 1.525312-2.0266667 2.655937-2.68 1.130625-.65333333 2.410521-.98 3.839688-.98 1.429583 0 2.704375.36666667 3.824375 1.1 1.12.7333333 2 1.68 2.64 2.84.64 1.16.96 2.3666667.96 3.62v12.04h-4.4Zm-13.16 0v-19.2h4.4v19.2h-4.4Zm41.16.4c-2.026667 0-3.9-.3666667-5.62-1.1-1.72-.7333333-3.22-1.76-4.5-3.08-1.28-1.32-2.266667-2.8533333-2.96-4.6-.693333-1.7466667-1.04-3.62-1.04-5.62s.346667-3.8733333 1.04-5.62c.693333-1.74666667 1.68-3.27333333 2.96-4.58 1.28-1.30666667 2.78-2.33333333 4.5-3.08 1.72-.74666667 3.593333-1.12 5.62-1.12 2.266667 0 4.226667.37333333 5.88 1.12 1.653333.74666667 3.12 1.76 4.4 3.04l-3.12 3.12c-.826667-.90666667-1.833333-1.61333333-3.02-2.12-1.186667-.50666667-2.566667-.76-4.14-.76-1.386667 0-2.653333.24-3.8.72-1.146667.48-2.14 1.16666667-2.98 2.06-.84.89333333-1.486667 1.95333333-1.94 3.18-.453333 1.2266667-.68 2.5733333-.68 4.04 0 1.4666667.226667 2.8133333.68 4.04.453333 1.2266667 1.1 2.2866667 1.94 3.18.84.8933333 1.833333 1.58 2.98 2.06 1.146667.48 2.413333.72 3.8.72 1.706667 0 3.153333-.26 4.34-.78s2.193333-1.2333333 3.02-2.14l3.12 3.12c-1.28 1.3066667-2.786667 2.3333333-4.52 3.08-1.733333.7466667-3.72 1.12-5.96 1.12Zm12.9-.4v-19.2h4.4v19.2h-4.4Zm4.4-10.68-1.52-.76c0-2.4266667.54-4.3933333 1.62-5.9 1.08-1.50666667 2.713333-2.26 4.9-2.26.96 0 1.826667.17333333 2.6.52s1.493333.9066667 2.16 1.68l-2.88 2.96c-.346667-.3733333-.733333-.64-1.16-.8-.426667-.16-.92-.24-1.48-.24-1.226667 0-2.24.3866667-3.04 1.16-.8.7733333-1.2 1.9866667-1.2 3.64Zm19.02 11.08c-1.866667 0-3.56-.4466667-5.08-1.34-1.52-.8933333-2.726667-2.1-3.62-3.62-.893333-1.52-1.34-3.2133333-1.34-5.08 0-1.8666667.446667-3.5466667 1.34-5.04.893333-1.4933333 2.1-2.6866667 3.62-3.58 1.52-.89333333 3.213333-1.34 5.08-1.34 1.893333 0 3.6.44 5.12 1.32 1.52.88 2.726667 2.0733333 3.62 3.58.893333 1.5066667 1.34 3.1933333 1.34 5.06 0 1.8666667-.446667 3.56-1.34 5.08-.893333 1.52-2.1 2.7266667-3.62 3.62-1.52.8933333-3.226667 1.34-5.12 1.34Zm0-4.24c1.093333 0 2.06-.2466667 2.9-.74.84-.4933333 1.493333-1.18 1.96-2.06.466667-.88.7-1.88.7-3s-.24-2.1066667-.72-2.96c-.48-.8533333-1.133333-1.5266667-1.96-2.02s-1.786667-.74-2.88-.74c-1.066667 0-2.02.2466667-2.86.74-.84.4933333-1.493333 1.1666667-1.96 2.02-.466667.8533333-.7 1.84-.7 2.96 0 1.12.233333 2.12.7 3 .466667.88 1.12 1.5666667 1.96 2.06.84.4933333 1.793333.74 2.86.74Zm10.54 1.44 10.72-14.4h5.16l-10.72 14.4h-5.16Zm0 2.4v-2.4l4-1.6h11.64v4h-15.64Zm.72-15.2v-4h15.16v2.4l-4 1.6h-11.16Zm25.38 15.6c-1.733333 0-3.3-.44-4.7-1.32-1.4-.88-2.506667-2.0733333-3.32-3.58-.813333-1.5066667-1.22-3.1933333-1.22-5.06 0-1.8933333.406667-3.5933333 1.22-5.1.813333-1.5066667 1.92-2.7066667 3.32-3.6 1.4-.89333333 2.966667-1.34 4.7-1.34 1.466667 0 2.766667.31333333 3.9.94 1.133333.6266667 2.033333 1.4866667 2.7 2.58.666667 1.0933333 1 2.3333333 1 3.72v5.52c0 1.3866667-.326667 2.6266667-.98 3.72-.653333 1.0933333-1.553333 1.9533333-2.7 2.58-1.146667.6266667-2.453333.94-3.92.94Zm.72-4.16c1.626667 0 2.94-.5466667 3.94-1.64 1-1.0933333 1.5-2.4933333 1.5-4.2 0-1.1466667-.226667-2.16-.68-3.04-.453333-.88-1.086667-1.5666667-1.9-2.06-.813333-.4933333-1.766667-.74-2.86-.74-1.066667 0-2.006667.2466667-2.82.74-.813333.4933333-1.453333 1.18-1.92 2.06-.466667.88-.7 1.8933333-.7 3.04s.233333 2.16.7 3.04c.466667.88 1.106667 1.5666667 1.92 2.06.813333.4933333 1.753333.74 2.82.74Zm5.16 3.76v-5.16l.76-4.68-.76-4.64v-4.72h4.4v19.2h-4.4Zm11.1 0v-27.2h4.4v27.2h-4.4Zm-4.6-15.2v-4h13.6v4h-13.6Z"/></g><g fill="currentColor" fill-rule="nonzero" opacity=".65"><path d="M10.82 223.3v-27.2h4.6v27.2h-4.6ZM1.7 199.5v-4.2h22.84v4.2H1.7ZM40 223.3v-11.08c0-1.28-.4066667-2.3333333-1.22-3.16-.8133333-.8266667-1.8566667-1.24-3.13-1.24-.8666667 0-1.6316667.1866667-2.295.56-.6633333.3733333-1.1816667.8933333-1.555 1.56-.3733333.6666667-.56 1.4266667-.56 2.28l-1.72-.96c0-1.4666667.32-2.7666667.96-3.9.64-1.1333333 1.5253125-2.0266667 2.6559375-2.68 1.130625-.65333333 2.4105208-.98 3.8396875-.98 1.4295833 0 2.704375.32 3.824375.96 1.12.64 2 1.5266667 2.64 2.66.64 1.1333333.96 2.4466667.96 3.94v12.04H40Zm-13.16 0v-28.8h4.4v28.8h-4.4Zm29.86.4c-1.92 0-3.6466667-.4333333-5.18-1.3-1.5333333-.8666667-2.7466667-2.06-3.64-3.58-.8933333-1.52-1.34-3.2266667-1.34-5.12s.44-3.5933333 1.32-5.1c.88-1.5066667 2.0733333-2.7 3.58-3.58 1.5066667-.88 3.18-1.32 5.02-1.32 1.7866667 0 3.3666667.4133333 4.74 1.24s2.4533333 1.96 3.24 3.4 1.18 3.08 1.18 4.92c0 .32-.02.6466667-.06.98-.04.3333333-.1.7-.18 1.1H49.62v-3.6H63.1l-1.64 1.44c-.0533333-1.1733333-.28-2.16-.68-2.96-.4-.8-.9666667-1.4133333-1.7-1.84-.7333333-.4266667-1.6333333-.64-2.7-.64-1.12 0-2.0933333.24-2.92.72-.8266667.48-1.4666667 1.1533333-1.92 2.02-.4533333.8666667-.68 1.9-.68 3.1 0 1.2.24 2.2533333.72 3.16.48.9066667 1.16 1.6066667 2.04 2.1.88.4933333 1.8933333.74 3.04.74.9866667 0 1.9-.1733333 2.74-.52.84-.3466667 1.5533333-.8533333 2.14-1.52l2.8 2.84c-.9333333 1.0933333-2.0666667 1.92-3.4 2.48s-2.7466667.84-4.24.84Zm26.28 0c-1.7333333 0-3.3-.44-4.7-1.32-1.4-.88-2.5066667-2.0733333-3.32-3.58-.8133333-1.5066667-1.22-3.1933333-1.22-5.06 0-1.8933333.4066667-3.5933333 1.22-5.1.8133333-1.5066667 1.92-2.7066667 3.32-3.6 1.4-.8933333 2.9666667-1.34 4.7-1.34 1.4666667 0 2.7666667.31333333 3.9.94 1.1333333.6266667 2.0333333 1.4866667 2.7 2.58.6666667 1.0933333 1 2.3333333 1 3.72v5.52c0 1.3866667-.3266667 2.6266667-.98 3.72-.6533333 1.0933333-1.5533333 1.9533333-2.7 2.58-1.1466667.6266667-2.4533333.94-3.92.94Zm.72-4.16c1.6266667 0 2.94-.5466667 3.94-1.64 1-1.0933333 1.5-2.4933333 1.5-4.2 0-1.1466667-.2266667-2.16-.68-3.04-.4533333-.88-1.0866667-1.5666667-1.9-2.06-.8133333-.4933333-1.7666667-.74-2.86-.74-1.0666667 0-2.0066667.2466667-2.82.74s-1.4533333 1.18-1.92 2.06c-.4666667.88-.7 1.8933333-.7 3.04s.2333333 2.16.7 3.04c.4666667.88 1.1066667 1.5666667 1.92 2.06s1.7533333.74 2.82.74Zm5.16 3.76v-5.16l.76-4.68-.76-4.64v-4.72h4.4v19.2h-4.4Zm8.18 0v-19.2h4.4v19.2h-4.4Zm4.4-10.68-1.52-.76c0-2.4266667.54-4.3933333 1.62-5.9 1.08-1.5066667 2.713333-2.26 4.9-2.26.96 0 1.826667.17333333 2.6.52.773333.3466667 1.493333.9066667 2.16 1.68l-2.88 2.96c-.346667-.3733333-.733333-.64-1.16-.8-.426667-.16-.92-.24-1.48-.24-1.226667 0-2.24.3866667-3.04 1.16-.8.7733333-1.2 1.9866667-1.2 3.64Z"/><path d="M115.22 223.3v-27.2h4.4v27.2h-4.4Zm-4.6-15.2v-4h13.6v4h-13.6Zm31.4 15.6c-1.866667 0-3.56-.4466667-5.08-1.34-1.52-.8933333-2.726667-2.1-3.62-3.62-.893333-1.52-1.34-3.2133333-1.34-5.08 0-1.8666667.446667-3.5466667 1.34-5.04.893333-1.4933333 2.1-2.6866667 3.62-3.58 1.52-.8933333 3.213333-1.34 5.08-1.34 1.893333 0 3.6.44 5.12 1.32 1.52.88 2.726667 2.0733333 3.62 3.58.893333 1.5066667 1.34 3.1933333 1.34 5.06 0 1.8666667-.446667 3.56-1.34 5.08-.893333 1.52-2.1 2.7266667-3.62 3.62-1.52.8933333-3.226667 1.34-5.12 1.34Zm0-4.24c1.093333 0 2.06-.2466667 2.9-.74.84-.4933333 1.493333-1.18 1.96-2.06.466667-.88.7-1.88.7-3s-.24-2.1066667-.72-2.96c-.48-.8533333-1.133333-1.5266667-1.96-2.02s-1.786667-.74-2.88-.74c-1.066667 0-2.02.2466667-2.86.74-.84.4933333-1.493333 1.1666667-1.96 2.02-.466667.8533333-.7 1.84-.7 2.96 0 1.12.233333 2.12.7 3 .466667.88 1.12 1.5666667 1.96 2.06.84.4933333 1.793333.74 2.86.74Zm14.7 3.84v-21.72c0-1.46666667.326667-2.76.98-3.88.653333-1.12 1.56-2 2.72-2.64 1.16-.64 2.5-.96 4.02-.96 1.173333 0 2.173333.2 3 .6.826667.4 1.6.97333333 2.32 1.72l-2.84 2.84c-.32-.32-.666667-.57333333-1.04-.76-.373333-.18666667-.853333-.28-1.44-.28-1.066667 0-1.886667.28666667-2.46.86-.573333.57333333-.86 1.39333333-.86 2.46v21.76h-4.4Zm-4.6-15.2v-4h14.8v4h-14.8Zm32.72 15.6c-1.893333 0-3.606667-.44-5.14-1.32-1.533333-.88-2.74-2.08-3.62-3.6-.88-1.52-1.32-3.2133333-1.32-5.08 0-1.8933333.44-3.5933333 1.32-5.1.88-1.5066667 2.086667-2.7 3.62-3.58 1.533333-.88 3.246667-1.32 5.14-1.32 1.493333 0 2.886667.28666667 4.18.86 1.293333.5733333 2.393333 1.3933333 3.3 2.46l-2.88 2.92c-.56-.6666667-1.233333-1.1666667-2.02-1.5-.786667-.3333333-1.646667-.5-2.58-.5-1.093333 0-2.06.2466667-2.9.74-.84.4933333-1.493333 1.1666667-1.96 2.02-.466667.8533333-.7 1.8533333-.7 3 0 1.12.233333 2.1133333.7 2.98.466667.8666667 1.12 1.5466667 1.96 2.04.84.4933333 1.806667.74 2.9.74.933333 0 1.793333-.1666667 2.58-.5s1.46-.8333333 2.02-1.5l2.88 2.92c-.906667 1.0666667-2.006667 1.8866667-3.3 2.46-1.293333.5733333-2.686667.86-4.18.86Zm9.54-.4v-19.2h4.4v19.2h-4.4Zm4.4-10.68-1.52-.76c0-2.4266667.54-4.3933333 1.62-5.9 1.08-1.5066667 2.713333-2.26 4.9-2.26.96 0 1.826667.17333333 2.6.52.773333.3466667 1.493333.9066667 2.16 1.68l-2.88 2.96c-.346667-.3733333-.733333-.64-1.16-.8-.426667-.16-.92-.24-1.48-.24-1.226667 0-2.24.3866667-3.04 1.16-.8.7733333-1.2 1.9866667-1.2 3.64Zm18.26 11.08c-1.733333 0-3.3-.44-4.7-1.32-1.4-.88-2.506667-2.0733333-3.32-3.58-.813333-1.5066667-1.22-3.1933333-1.22-5.06 0-1.8933333.406667-3.5933333 1.22-5.1.813333-1.5066667 1.92-2.7066667 3.32-3.6 1.4-.8933333 2.966667-1.34 4.7-1.34 1.466667 0 2.766667.31333333 3.9.94 1.133333.6266667 2.033333 1.4866667 2.7 2.58.666667 1.0933333 1 2.3333333 1 3.72v5.52c0 1.3866667-.326667 2.6266667-.98 3.72-.653333 1.0933333-1.553333 1.9533333-2.7 2.58-1.146667.6266667-2.453333.94-3.92.94Zm.72-4.16c1.626667 0 2.94-.5466667 3.94-1.64 1-1.0933333 1.5-2.4933333 1.5-4.2 0-1.1466667-.226667-2.16-.68-3.04-.453333-.88-1.086667-1.5666667-1.9-2.06-.813333-.4933333-1.766667-.74-2.86-.74-1.066667 0-2.006667.2466667-2.82.74-.813333.4933333-1.453333 1.18-1.92 2.06-.466667.88-.7 1.8933333-.7 3.04s.233333 2.16.7 3.04c.466667.88 1.106667 1.5666667 1.92 2.06.813333.4933333 1.753333.74 2.82.74Zm5.16 3.76v-5.16l.76-4.68-.76-4.64v-4.72h4.4v19.2h-4.4Zm10.82 0v-21.72c0-1.46666667.326667-2.76.98-3.88.653333-1.12 1.56-2 2.72-2.64 1.16-.64 2.5-.96 4.02-.96 1.173333 0 2.173333.2 3 .6.826667.4 1.6.97333333 2.32 1.72l-2.84 2.84c-.32-.32-.666667-.57333333-1.04-.76-.373333-.18666667-.853333-.28-1.44-.28-1.066667 0-1.886667.28666667-2.46.86-.573333.57333333-.86 1.39333333-.86 2.46v21.76h-4.4Zm-4.6-15.2v-4h14.8v4h-14.8Z"/><path d="M247.92 223.3v-27.2h4.4v27.2h-4.4Zm-4.6-15.2v-4h13.6v4h-13.6Zm15.74 15.2v-19.2h4.4v19.2h-4.4Zm2.2-22.72c-.746667 0-1.366667-.25333333-1.86-.76s-.74-1.13333333-.74-1.88.246667-1.37333333.74-1.88 1.113333-.76 1.86-.76c.773333 0 1.4.25333333 1.88.76s.72 1.13333333.72 1.88-.24 1.37333333-.72 1.88-1.106667.76-1.88.76Zm19.18 22.72v-11.08c0-1.28-.406667-2.3333333-1.22-3.16-.813333-.8266667-1.856667-1.24-3.13-1.24-.866667 0-1.631667.1866667-2.295.56-.663333.3733333-1.181667.8933333-1.555 1.56-.373333.6666667-.56 1.4266667-.56 2.28l-1.72-.96c0-1.4666667.32-2.7666667.96-3.9.64-1.1333333 1.525312-2.0266667 2.655937-2.68 1.130625-.65333333 2.410521-.98 3.839688-.98 1.429583 0 2.704375.36666667 3.824375 1.1 1.12.7333333 2 1.68 2.64 2.84.64 1.16.96 2.3666667.96 3.62v12.04h-4.4Zm-13.16 0v-19.2h4.4v19.2h-4.4Zm28.94 8.4c-2.026667 0-3.8-.3666667-5.32-1.1-1.52-.7333333-2.746667-1.7666667-3.68-3.1l2.88-2.88c.773333.96 1.653333 1.68 2.64 2.16.986667.48 2.173333.72 3.56.72 1.733333 0 3.106667-.4466667 4.12-1.34 1.013333-.8933333 1.52-2.1133333 1.52-3.66v-4.72l.76-4.24-.76-4.28v-5.16h4.4v18.4c0 1.84-.426667 3.4466667-1.28 4.82s-2.04 2.4466667-3.56 3.22-3.28 1.16-5.28 1.16Zm-.2-8.8c-1.706667 0-3.246667-.42-4.62-1.26-1.373333-.84-2.453333-1.9933333-3.24-3.46s-1.18-3.1066667-1.18-4.92.393333-3.44 1.18-4.88 1.866667-2.58 3.24-3.42c1.373333-.84 2.913333-1.26 4.62-1.26 1.52 0 2.853333.30666667 4 .92 1.146667.6133333 2.04 1.46 2.68 2.54.64 1.08.96 2.34.96 3.78v4.72c0 1.4133333-.326667 2.6666667-.98 3.76-.653333 1.0933333-1.553333 1.9466667-2.7 2.56-1.146667.6133333-2.466667.92-3.96.92Zm.88-4.16c1.066667 0 2-.2266667 2.8-.68.8-.4533333 1.42-1.0866667 1.86-1.9.44-.8133333.66-1.7666667.66-2.86 0-1.0933333-.22-2.0466667-.66-2.86-.44-.8133333-1.06-1.4466667-1.86-1.9-.8-.4533333-1.733333-.68-2.8-.68-1.066667 0-2.006667.2266667-2.82.68-.813333.4533333-1.446667 1.0866667-1.9 1.9-.453333.8133333-.68 1.7666667-.68 2.86 0 1.0666667.226667 2.0133333.68 2.84.453333.8266667 1.086667 1.4666667 1.9 1.92.813333.4533333 1.753333.68 2.82.68Zm25.72 4.56-7.72-19.2h4.56l5.2 13.96-1.36.04 5.08-14h2.56l5.08 14-1.36-.04 5.2-13.96h4.56l-7.72 19.2h-2.56l-5.2-13.28h1.44l-5.2 13.28zm31.9.4c-1.92 0-3.646667-.4333333-5.18-1.3-1.533333-.8666667-2.746667-2.06-3.64-3.58-.893333-1.52-1.34-3.2266667-1.34-5.12s.44-3.5933333 1.32-5.1c.88-1.5066667 2.073333-2.7 3.58-3.58 1.506667-.88 3.18-1.32 5.02-1.32 1.786667 0 3.366667.4133333 4.74 1.24 1.373333.8266667 2.453333 1.96 3.24 3.4s1.18 3.08 1.18 4.92c0 .32-.02.6466667-.06.98-.04.3333333-.1.7-.18 1.1h-15.76v-3.6h13.48l-1.64 1.44c-.053333-1.1733333-.28-2.16-.68-2.96-.4-.8-.966667-1.4133333-1.7-1.84-.733333-.4266667-1.633333-.64-2.7-.64-1.12 0-2.093333.24-2.92.72s-1.466667 1.1533333-1.92 2.02c-.453333.8666667-.68 1.9-.68 3.1 0 1.2.24 2.2533333.72 3.16.48.9066667 1.16 1.6066667 2.04 2.1.88.4933333 1.893333.74 3.04.74.986667 0 1.9-.1733333 2.74-.52.84-.3466667 1.553333-.8533333 2.14-1.52l2.8 2.84c-.933333 1.0933333-2.066667 1.92-3.4 2.48s-2.746667.84-4.24.84Zm21.62 0c-1.466667 0-2.773333-.3133333-3.92-.94-1.146667-.6266667-2.046667-1.4866667-2.7-2.58-.653333-1.0933333-.98-2.3333333-.98-3.72v-5.52c0-1.3866667.333333-2.6266667 1-3.72.666667-1.0933333 1.573333-1.9533333 2.72-2.58 1.146667-.62666667 2.44-.94 3.88-.94 1.733333 0 3.3.4466667 4.7 1.34 1.4.8933333 2.506667 2.0933333 3.32 3.6.813333 1.5066667 1.22 3.2066667 1.22 5.1 0 1.8666667-.406667 3.5533333-1.22 5.06-.813333 1.5066667-1.92 2.7-3.32 3.58-1.4.88-2.966667 1.32-4.7 1.32Zm-.72-4.16c1.066667 0 2.006667-.2466667 2.82-.74.813333-.4933333 1.453333-1.18 1.92-2.06.466667-.88.7-1.8933333.7-3.04s-.233333-2.16-.7-3.04c-.466667-.88-1.106667-1.5666667-1.92-2.06-.813333-.4933333-1.753333-.74-2.82-.74-1.066667 0-2.013333.2466667-2.84.74s-1.466667 1.18-1.92 2.06c-.453333.88-.68 1.8933333-.68 3.04s.226667 2.16.68 3.04c.453333.88 1.093333 1.5666667 1.92 2.06.826667.4933333 1.773333.74 2.84.74Zm-9.56 3.76v-28.8h4.4v14.32l-.76 4.64.76 4.68v5.16h-4.4Zm28.38.4c-1.066667 0-2.093333-.14-3.08-.42-.986667-.28-1.893333-.68-2.72-1.2-.826667-.52-1.546667-1.1533333-2.16-1.9l2.8-2.8c.666667.7733333 1.433333 1.3533333 2.3 1.74.866667.3866667 1.846667.58 2.94.58.986667 0 1.733333-.1466667 2.24-.44.506667-.2933333.76-.72.76-1.28 0-.5866667-.24-1.04-.72-1.36-.48-.32-1.1-.5933333-1.86-.82s-1.56-.46-2.4-.7c-.84-.24-1.64-.5666667-2.4-.98s-1.38-.98-1.86-1.7c-.48-.72-.72-1.6533333-.72-2.8 0-1.2266667.286667-2.28.86-3.16.573333-.88 1.386667-1.56 2.44-2.04 1.053333-.48 2.313333-.72 3.78-.72 1.546667 0 2.913333.27333333 4.1.82 1.186667.5466667 2.18 1.3666667 2.98 2.46l-2.8 2.8c-.56-.6933333-1.2-1.2133333-1.92-1.56-.72-.3466667-1.546667-.52-2.48-.52-.88 0-1.56.1333333-2.04.4-.48.2666667-.72.6533333-.72 1.16 0 .5333333.24.9466667.72 1.24s1.1.5466667 1.86.76c.76.2133333 1.56.4466667 2.4.7.84.2533333 1.64.6 2.4 1.04.76.44 1.38 1.0266667 1.86 1.76.48.7333333.72 1.6866667.72 2.86 0 1.8666667-.653333 3.3466667-1.96 4.44-1.306667 1.0933333-3.08 1.64-5.32 1.64Zm9.86-.4v-19.2h4.4v19.2h-4.4Zm2.2-22.72c-.746667 0-1.366667-.25333333-1.86-.76s-.74-1.13333333-.74-1.88.246667-1.37333333.74-1.88 1.113333-.76 1.86-.76c.773333 0 1.4.25333333 1.88.76s.72 1.13333333.72 1.88-.24 1.37333333-.72 1.88-1.106667.76-1.88.76Zm8.94 22.72v-27.2h4.4v27.2h-4.4Zm-4.6-15.2v-4h13.6v4h-13.6Zm24.06 15.6c-1.92 0-3.646667-.4333333-5.18-1.3-1.533333-.8666667-2.746667-2.06-3.64-3.58-.893333-1.52-1.34-3.2266667-1.34-5.12s.44-3.5933333 1.32-5.1c.88-1.5066667 2.073333-2.7 3.58-3.58 1.506667-.88 3.18-1.32 5.02-1.32 1.786667 0 3.366667.4133333 4.74 1.24 1.373333.8266667 2.453333 1.96 3.24 3.4s1.18 3.08 1.18 4.92c0 .32-.02.6466667-.06.98-.04.3333333-.1.7-.18 1.1h-15.76v-3.6h13.48l-1.64 1.44c-.053333-1.1733333-.28-2.16-.68-2.96-.4-.8-.966667-1.4133333-1.7-1.84-.733333-.4266667-1.633333-.64-2.7-.64-1.12 0-2.093333.24-2.92.72s-1.466667 1.1533333-1.92 2.02c-.453333.8666667-.68 1.9-.68 3.1 0 1.2.24 2.2533333.72 3.16.48.9066667 1.16 1.6066667 2.04 2.1.88.4933333 1.893333.74 3.04.74.986667 0 1.9-.1733333 2.74-.52.84-.3466667 1.553333-.8533333 2.14-1.52l2.8 2.84c-.933333 1.0933333-2.066667 1.92-3.4 2.48s-2.746667.84-4.24.84Zm17.62 0c-1.066667 0-2.093333-.14-3.08-.42-.986667-.28-1.893333-.68-2.72-1.2-.826667-.52-1.546667-1.1533333-2.16-1.9l2.8-2.8c.666667.7733333 1.433333 1.3533333 2.3 1.74.866667.3866667 1.846667.58 2.94.58.986667 0 1.733333-.1466667 2.24-.44.506667-.2933333.76-.72.76-1.28 0-.5866667-.24-1.04-.72-1.36-.48-.32-1.1-.5933333-1.86-.82s-1.56-.46-2.4-.7c-.84-.24-1.64-.5666667-2.4-.98s-1.38-.98-1.86-1.7c-.48-.72-.72-1.6533333-.72-2.8 0-1.2266667.286667-2.28.86-3.16.573333-.88 1.386667-1.56 2.44-2.04 1.053333-.48 2.313333-.72 3.78-.72 1.546667 0 2.913333.27333333 4.1.82 1.186667.5466667 2.18 1.3666667 2.98 2.46l-2.8 2.8c-.56-.6933333-1.2-1.2133333-1.92-1.56-.72-.3466667-1.546667-.52-2.48-.52-.88 0-1.56.1333333-2.04.4-.48.2666667-.72.6533333-.72 1.16 0 .5333333.24.9466667.72 1.24s1.1.5466667 1.86.76c.76.2133333 1.56.4466667 2.4.7.84.2533333 1.64.6 2.4 1.04.76.44 1.38 1.0266667 1.86 1.76.48.7333333.72 1.6866667.72 2.86 0 1.8666667-.653333 3.3466667-1.96 4.44-1.306667 1.0933333-3.08 1.64-5.32 1.64Z"/></g><g stroke-width="3"><path stroke="#4ED55D" d="M186.8972235 56.5h47v47h-47z"/><path stroke="#FF8989" d="M150.57711725 14.00161249 195.9756311 1.83711737l12.1644951 45.39851383-45.39851384 12.16449512z"/><path stroke="#4EABFF" d="m270.39722365 36.76598093 33.23401871 33.23401872-33.23401871 33.23401871-33.23401872-33.23401871z"/></g></g></svg>
