<svg xmlns="http://www.w3.org/2000/svg" xml:space="preserve" viewBox="0 0 122.88 122.88">
  <path d="m1.61 97.18 5.38-5.38c.14-.14.29-.27.44-.4l-3.86-3.86c-.06-.06-.11-.12-.16-.18-.96-1.05-1.44-2.38-1.44-3.7 0-1.4.54-2.8 1.61-3.87l5.38-5.38c.14-.14.29-.27.44-.4l-3.86-3.86c-1.07-1.07-1.6-2.48-1.6-3.88s.54-2.8 1.6-3.87l5.38-5.38c1.07-1.07 2.48-1.6 3.88-1.6 1.41 0 2.81.53 3.88 1.6l47.21 47.21c1.07 1.07 1.6 2.48 1.6 3.88 0 1.41-.53 2.81-1.6 3.88l-5.38 5.38c-.06.06-.12.11-.18.16-1.05.96-2.38 1.44-3.7 1.44-1.4 0-2.8-.54-3.87-1.6l-3.27-3.27c-.12.15-.25.3-.39.44l-5.38 5.38c-.06.06-.12.11-.18.16-1.04.95-2.37 1.43-3.7 1.43-1.41 0-2.81-.53-3.87-1.6l-4.46-4.46c-.12.15-.25.3-.4.44l-5.38 5.38c-1.07 1.07-2.48 1.6-3.88 1.6s-2.81-.53-3.88-1.6L1.61 104.95C.54 103.88 0 102.47 0 101.07c0-1.41.54-2.81 1.61-3.89zm64.24-88.2-5.38 5.38-.05.05c-.08.11-.12.24-.12.37 0 .15.06.31.17.42l47.21 47.21c.11.11.26.17.42.17.15 0 .31-.06.42-.17l5.38-5.38.05-.05c.08-.1.12-.24.12-.37 0-.16-.05-.31-.16-.42l-7.13-7.13-32.37-32.35-7.72-7.72c-.11-.11-.26-.17-.42-.17-.16-.01-.31.05-.42.16zm5.62 38.33c1.34-1.34 3.52-1.34 4.87 0 1.34 1.34 1.34 3.52 0 4.87l-23.6 23.58c-1.34 1.34-3.52 1.34-4.87 0-1.34-1.34-1.34-3.52 0-4.87l23.6-23.58zm29.18-42.24-5.38 5.38c-.12.12-.18.27-.18.42 0 .13.04.25.12.36l.06.06 16.32 16.32.05.05c.1.08.23.11.36.11.15 0 .31-.06.42-.17l5.38-5.38c.12-.12.18-.27.18-.42 0-.15-.06-.31-.17-.42L101.49 5.07c-.11-.11-.26-.17-.42-.17s-.31.06-.42.17zm-8.84 1.91 5.38-5.38C98.26.53 99.67 0 101.07 0s2.81.53 3.88 1.6l16.32 16.32c1.06 1.06 1.6 2.47 1.59 3.87 0 1.41-.53 2.82-1.59 3.88l-5.38 5.38c-.14.14-.29.27-.44.4l4.46 4.46c1.07 1.07 1.6 2.48 1.6 3.88 0 1.41-.54 2.81-1.6 3.88l-5.38 5.38c-.14.14-.29.27-.44.39l3.27 3.27c1.07 1.07 1.6 2.47 1.6 3.87 0 1.33-.48 2.66-1.44 3.7-.05.06-.1.12-.16.18l-5.38 5.38c-1.07 1.07-2.48 1.6-3.88 1.6-1.41 0-2.81-.54-3.88-1.6L57.01 18.66c-1.07-1.07-1.61-2.48-1.61-3.88 0-1.33.48-2.66 1.44-3.7.05-.06.1-.12.16-.18l5.38-5.38c1.07-1.07 2.47-1.6 3.87-1.6 1.41 0 2.81.54 3.88 1.6l3.86 3.86c.12-.15.25-.3.4-.44l5.38-5.38c1.07-1.07 2.48-1.61 3.88-1.61 1.41 0 2.81.54 3.88 1.61l3.86 3.86c.15-.15.28-.3.42-.44zm-8.56.05-5.38 5.38c-.11.11-.17.26-.17.42 0 .15.05.3.16.41l.01.01 32.36 32.36c.11.11.26.17.42.17.16 0 .31-.05.42-.16l5.38-5.38c.11-.11.17-.26.17-.42 0-.15-.06-.31-.17-.42l-8.31-8.31L84.09 7.03c-.11-.11-.27-.17-.42-.17-.16 0-.31.05-.42.17zM16.71 74.41l32.36 32.36 7.11 7.11c.11.11.27.16.42.16.13 0 .26-.04.37-.12l.05-.05 5.38-5.38c.11-.11.17-.26.17-.42 0-.15-.06-.31-.17-.42L15.2 60.47c-.11-.11-.26-.17-.42-.17-.15 0-.31.06-.42.17l-5.38 5.38c-.11.11-.16.27-.16.42 0 .15.06.31.17.42l7.72 7.72zm28.95 35.88-.05-.05-32.37-32.37-.06-.06c-.11-.08-.23-.12-.36-.12-.15 0-.3.06-.42.18l-5.38 5.38c-.11.11-.16.27-.16.42 0 .13.04.26.12.37l.05.05 7.72 7.72 16.32 16.32 8.32 8.32c.12.12.27.17.42.17.13 0 .26-.04.37-.12l.05-.05 5.38-5.38c.11-.11.16-.27.16-.42 0-.13-.04-.26-.11-.36zM10.45 95.27l-5.38 5.38c-.11.11-.17.26-.17.42s.06.31.17.42l16.32 16.32c.11.11.26.17.42.17.15 0 .31-.06.42-.17l5.38-5.38c.11-.11.17-.26.17-.42 0-.16-.06-.31-.17-.42L11.28 95.27l-.01-.01c-.11-.11-.26-.16-.41-.16-.15 0-.3.06-.41.17z"/>
</svg>
