<svg viewBox="0 0 100 29"><path d="M91.42 28.3469996v-14.619s-.07-.661-.38 0l-5 14.559v.06H79.4v-.06l-5-14.559c-.32-.661-.391 0-.391 0v14.62H66.13v-28.341h7.53c1.0887177-.06362558 2.1079766.53686805 2.58 1.52000001l6 15.52099999s.19.48.43.45c.24-.03.429-.45.429-.45l6-15.52099999c.5016779-.9849321 1.5373466-1.58100037 2.641-1.52h7.57V28.3469996h-7.89Zm-45.77 0v-9l-9.98-19.34h9.01l4.99 10.931 3.9 8.41-2.5-11.48999999 3.58-7.851h8.89L53.57 19.3469996v9h-7.92Zm-20.4 0v-14.619s-.08-.661-.391 0l-5 14.559v.06H13.27v-.06l-5-14.559c-.311-.661-.39 0-.39 0v14.62H0v-28.341h7.47c1.10330005-.06059456 2.13847114.53541303 2.64 1.52000001l6 15.52099999s.19.48.43.45c.24-.03.43-.45.43-.45l6-15.52099999c.5088588-1.00204488 1.5690858-1.60113225 2.69-1.52h7.47V28.3469996h-7.88Z"/></svg>
