<svg xmlns="http://www.w3.org/2000/svg" viewBox="0 0 35 37"><defs><radialGradient id="a" cx="-4.5411115%" cy="6.61018229%" r="101.340399%" fx="-4.5411115%" fy="6.61018229%" gradientTransform="matrix(.82991312 .53351833 -.55789266 .79365421 .029154 .03786747)"><stop offset="0%" stop-color="#00FFC4"/><stop offset="100%" stop-color="#00E1FF"/></radialGradient></defs><path fill="url(#a)" d="M30.3432628 9.99008797c2.8050343 2.76538863 4.3880784 6.53743253 4.3967537 10.47640673.0086041 3.9389741-1.5578776 7.7179261-4.3507537 10.4955933-3.4555969 3.4453888-8.1392722 5.3754847-13.019 5.3650461-5.4346094.0121203-10.59604925-2.3811506-14.09800003-6.5370461 7.20900003 5.955 17.94500003 5.581 24.71300003-1.118 2.1874623-2.1568219 3.4189746-5.1005508 3.4189746-8.1725 0-3.0719493-1.2315123-6.0156781-3.4189746-8.1725-4.56-4.51400003-11.953-4.51400003-16.513 0-.9379726.9242938-1.4660853 2.1861432-1.4660853 3.503 0 1.3168567.5281127 2.5787061 1.4660853 3.503 1.9623114 1.934723 5.1146885 1.934723 7.077 0 .6541038-.6449077 1.7048962-.6449077 2.359 0 .3120185.3079652.4876535.7280959.4876535 1.1665 0 .4384041-.175635.8585347-.4876535 1.1665-3.2703992 3.2238811-8.5236008 3.2238811-11.79400003 0-1.56212768-1.5405686-2.44155708-3.6430095-2.44155708-5.837 0-2.1939906.8794294-4.2964314 2.44155708-5.83700003 5.86100003-5.805 15.36600003-5.805 21.22900003 0v-.002Zm-12.973-9.99004415c5.4344834-.01185403 10.5956361 2.38181958 14.097 6.53804415-7.21-5.955-17.947-5.58-24.71100003 1.115v.002C4.56849074 9.81194751 3.336781 12.7558918 3.336781 15.828088c0 3.0721962 1.23170974 6.0161404 3.41948177 8.173 4.55800003 4.515 11.95000003 4.515 16.51000003 0 .9376628-.9242563 1.465578-2.1858903 1.465578-3.5025 0-1.3166098-.5279152-2.5782438-1.465578-3.5025-1.9623115-1.934723-5.1146886-1.934723-7.077 0-.6539838.6442506-1.7040162.6442506-2.358 0-.3123281-.308003-.4881603-.7283491-.4881603-1.167 0-.438651.1758322-.858997.4881603-1.167 3.2703992-3.2238811 8.5236008-3.2238811 11.794 0 1.5621277 1.5405686 2.4415571 3.6430094 2.4415571 5.837 0 2.1939905-.8794294 4.2964314-2.4415571 5.837-5.862 5.805-15.367 5.805-21.23000003 0C1.58663032 23.5665196.00377111 19.7877441.00000668 15.8432656c-.00375101-3.9444786 1.5719056-7.726263 4.37525609-10.50117763C7.82873156 1.91101438 12.5021412-.01013638 17.3702628.00004382Z"/></svg>
