<svg xml:space="preserve" viewBox="0 0 512 512"><path d="M503.467 394.829v-2.296c0-28.237-22.963-51.2-51.2-51.2h-34.133c-28.237 0-51.2 22.963-51.2 51.2v2.296c-5.103 2.953-8.533 8.465-8.533 14.771v17.067c0 6.434 3.584 12.058 8.858 14.959 1.63 16.401 8.764 30.839 9.105 31.522C384.102 488.619 395.793 512 435.2 512s51.098-23.381 58.837-38.852c.341-.683 7.475-15.121 9.105-31.522 5.274-2.901 8.858-8.525 8.858-14.959V409.6c0-6.306-3.43-11.819-8.533-14.771zm-8.534 31.838c-4.719 0-8.533 3.823-8.533 8.533 0 14.763-7.561 30.174-7.637 30.319-8.883 17.766-16.717 29.414-43.563 29.414s-34.679-11.648-43.554-29.406c-.085-.153-7.646-15.564-7.646-30.327 0-4.71-3.814-8.533-8.533-8.533V409.6c4.719 0 8.533-3.823 8.533-8.533v-8.533c0-18.825 15.309-34.133 34.133-34.133h34.133c18.825 0 34.133 15.309 34.133 34.133v8.533c0 4.71 3.814 8.533 8.533 8.533v17.067zM188.058 100.292c1.63 16.401 8.764 30.839 9.105 31.522 7.74 15.471 19.43 38.852 58.837 38.852s51.098-23.381 58.837-38.852c.341-.683 7.475-15.121 9.105-31.522 5.274-2.901 8.858-8.525 8.858-14.959V68.267c0-6.306-3.43-11.819-8.533-14.771V51.2c0-28.237-22.963-51.2-51.2-51.2h-34.133c-28.237 0-51.2 22.963-51.2 51.2v2.295c-5.103 2.953-8.533 8.465-8.533 14.771v17.067c-.001 6.434 3.583 12.058 8.857 14.959zm8.209-32.025c4.719 0 8.533-3.823 8.533-8.533V51.2c0-18.825 15.309-34.133 34.133-34.133h34.133c18.825 0 34.133 15.309 34.133 34.133v8.533c0 4.71 3.814 8.533 8.533 8.533v17.067c-4.719 0-8.533 3.823-8.533 8.533 0 14.763-7.561 30.174-7.637 30.319C290.68 141.952 282.846 153.6 256 153.6c-26.846 0-34.679-11.648-43.554-29.406-.085-.154-7.646-15.565-7.646-30.327 0-4.71-3.814-8.533-8.533-8.533V68.267zM59.733 409.6H51.2c-4.719 0-8.533 3.823-8.533 8.533s3.814 8.533 8.533 8.533h8.533c4.719 0 8.533-3.823 8.533-8.533s-3.814-8.533-8.533-8.533z"/><path d="M230.4 85.333h8.533c4.719 0 8.533-3.823 8.533-8.533s-3.814-8.533-8.533-8.533H230.4c-4.719 0-8.533 3.823-8.533 8.533s3.814 8.533 8.533 8.533zm42.667 0h8.533c4.719 0 8.533-3.823 8.533-8.533s-3.814-8.533-8.533-8.533h-8.533c-4.719 0-8.533 3.823-8.533 8.533s3.814 8.533 8.533 8.533zm75.887 257.144-60.194-34.748c.811-2.91 1.374-5.905 1.374-9.062 0-15.855-10.914-29.107-25.6-32.922v-69.478c0-4.71-3.814-8.533-8.533-8.533s-8.533 3.823-8.533 8.533v69.478c-14.686 3.814-25.6 17.067-25.6 32.922 0 3.157.563 6.153 1.374 9.054l-60.194 34.756c-4.079 2.355-5.478 7.578-3.123 11.657 1.587 2.739 4.454 4.267 7.398 4.267 1.451 0 2.918-.367 4.258-1.143l60.1-34.697c6.195 6.306 14.805 10.24 24.32 10.24s18.116-3.934 24.32-10.24l60.1 34.697c1.34.776 2.807 1.143 4.258 1.143 2.944 0 5.811-1.527 7.398-4.267 2.355-4.088.956-9.302-3.123-11.657zM256 315.733c-9.412 0-17.067-7.654-17.067-17.067S246.588 281.6 256 281.6c9.412 0 17.067 7.654 17.067 17.067s-7.655 17.066-17.067 17.066zM102.4 409.6h-8.533c-4.719 0-8.533 3.823-8.533 8.533s3.814 8.533 8.533 8.533h8.533c4.719 0 8.533-3.823 8.533-8.533s-3.814-8.533-8.533-8.533zm358.4 0h-8.533c-4.719 0-8.533 3.823-8.533 8.533s3.814 8.533 8.533 8.533h8.533c4.719 0 8.533-3.823 8.533-8.533s-3.814-8.533-8.533-8.533z"/><path d="M145.067 394.829v-2.296c0-28.237-22.963-51.2-51.2-51.2H59.733c-28.237 0-51.2 22.963-51.2 51.2v2.296C3.43 397.781 0 403.294 0 409.6v17.067c0 6.434 3.584 12.058 8.858 14.959 1.63 16.401 8.764 30.839 9.105 31.522C25.702 488.619 37.393 512 76.8 512s51.098-23.381 58.837-38.852c.341-.683 7.475-15.121 9.105-31.522 5.274-2.901 8.858-8.525 8.858-14.959V409.6c0-6.306-3.43-11.819-8.533-14.771zm-8.534 31.838c-4.719 0-8.533 3.823-8.533 8.533 0 14.763-7.561 30.174-7.637 30.319-8.883 17.766-16.717 29.414-43.563 29.414-26.846 0-34.679-11.648-43.554-29.406-.085-.154-7.646-15.565-7.646-30.328 0-4.71-3.814-8.533-8.533-8.533V409.6c4.719 0 8.533-3.823 8.533-8.533v-8.533c0-18.825 15.309-34.133 34.133-34.133h34.133c18.825 0 34.133 15.309 34.133 34.133v8.533c0 4.71 3.814 8.533 8.533 8.533v17.067zm281.6-17.067H409.6c-4.719 0-8.533 3.823-8.533 8.533s3.814 8.533 8.533 8.533h8.533c4.719 0 8.533-3.823 8.533-8.533s-3.814-8.533-8.533-8.533z"/></svg>
