<svg xmlns="http://www.w3.org/2000/svg" viewBox="0 0 512 512"><path fill="#ffe152" d="M512 256c0 37.867188-8.222656 73.8125-22.976562 106.152344C463.800781 417.4375 419.484375 462.167969 364.511719 487.9375c-9.957031 4.660156-20.269531 8.703125-30.886719 12.066406-11.941406 3.816406-24.261719 6.75-36.90625 8.765625-.050781.011719-.113281.023438-.167969.023438-6.203125.992187-12.464843 1.753906-18.804687 2.289062-1.351563.113281-2.707032.21875-4.066406.3125-1.914063.125-3.835938.238281-5.769532.324219C263.960938 511.90625 259.992188 512 256 512c-4.097656 0-8.160156-.09375-12.203125-.292969-1.828125-.082031-3.660156-.1875-5.488281-.324219-1.367188-.09375-2.726563-.1875-4.085938-.300781-6.488281-.542969-12.914062-1.339843-19.253906-2.363281-3.03125-.492188-6.050781-1.023438-9.039062-1.621094-12.96875-2.570312-25.570313-6.109375-37.742188-10.5625-7.054688-2.570312-13.960938-5.445312-20.710938-8.609375-2.296874-1.078125-4.585937-2.195312-6.855468-3.355469-5.828125-2.945312-11.523438-6.113281-17.082032-9.488281-27.847656-16.863281-52.214843-38.890625-71.796874-64.75-11.753907-15.527343-21.773438-32.433593-29.777344-50.449219C7.847656 328.140625 0 292.988281 0 256 0 114.613281 114.613281 0 256 0s256 114.613281 256 256zm0 0"/><path fill="#2ba1cf" d="M205.929688 332.214844v174.882812c-12.96875-2.570312-25.570313-6.109375-37.742188-10.5625-7.054688-2.570312-13.960938-5.445312-20.710938-8.609375-2.296874-1.078125-4.585937-2.195312-6.855468-3.355469-5.828125-2.945312-11.523438-6.113281-17.082032-9.488281-27.847656-16.863281-52.214843-38.890625-71.796874-64.75-11.753907-15.527343-21.773438-32.433593-29.777344-50.449219v-27.667968c0-32.097656 21.796875-59.109375 51.398437-67.019532 1.085938-.292968 2.171875-.566406 3.28125-.792968 2.933594-.648438 5.953125-1.089844 9.027344-1.339844 1.871094-.144531 3.761719-.230469 5.671875-.230469h45.191406c5.046875 0 9.96875.535157 14.714844 1.570313.269531.050781.542969.113281.8125.175781.796875.179687 1.601562.375 2.382812.585937.023438.011719.042969.011719.0625.019532 7.816407 2.089844 15.078126 5.507812 21.546876 10 18.054687 12.527344 29.875 33.394531 29.875 57.03125zm0 0"/><path fill="#66baed" d="M205.929688 332.214844v174.882812c-12.96875-2.570312-25.570313-6.109375-37.742188-10.5625-7.054688-2.570312-13.960938-5.445312-20.710938-8.609375-2.296874-1.078125-4.585937-2.195312-6.855468-3.355469-5.828125-2.945312-11.523438-6.113281-17.082032-9.488281-27.847656-16.863281-52.214843-38.890625-71.796874-64.75v-78.117187c0-32.097656 21.796874-59.109375 51.398437-67.019532 1.089844-.292968 2.175781-.566406 3.28125-.792968 2.9375-.648438 5.957031-1.089844 9.027344-1.339844 1.871093-.144531 3.761719-.230469 5.675781-.230469h15.410156c5.046875 0 9.96875.535157 14.714844 1.570313.269531.050781.542969.113281.8125.175781.796875.179687 1.601562.375 2.382812.585937.023438.011719.042969.011719.0625.019532 7.816407 2.089844 15.078126 5.507812 21.546876 10 18.054687 12.527344 29.875 33.394531 29.875 57.03125zm0 0"/><path fill="#f2f0ec" d="m154.679688 264.398438-.164063.785156-20.757813 96.542968c-1.992187 9.277344-10.15625 16.003907-19.640624 16.011719h-.351563c-9.488281-.007812-17.648437-6.734375-19.640625-16.011719l-20.757812-96.535156-.164063-.792968zm0 0"/><path fill="#d8d5d0" d="m113.941406 291.238281-31.238281 17.359375-9.5-44.199218 19.410156-11.429688m21.328125 38.269531 31.238282 17.359375 9.5-44.199218-19.410157-11.429688"/><path fill="#cc7a3b" d="M20.675781 246.109375V141.46875c0-10.632812 1.773438-21.050781 5.273438-30.964844 13.097656-37.265625 48.460937-62.3125 87.996093-62.3125 4.898438 0 9.785157.378906 14.535157 1.128906 21.71875 3.394532 41.648437 14.480469 56.097656 31.21875 14.601563 16.917969 22.644531 38.554688 22.644531 60.929688v104.640625"/><path fill="#a35418" d="M59.042969 145.554688c0 37.011718 21.675781 79.832031 33.578125 100.554687H20.671875V141.46875c0-10.628906 1.777344-21.046875 5.273437-30.964844 13.019532-37.050781 48.058594-62.023437 87.320313-62.304687-28.675781.714843-54.222656 46.722656-54.222656 97.355469zm0 0"/><path fill="#eab599" d="M138.703125 236.105469v30.382812c0 11.121094-7.332031 20.523438-17.433594 23.644531-2.3125.71875-4.777343 1.105469-7.324219 1.105469-13.671874 0-24.75-11.078125-24.75-24.75v-30.382812zm0 0"/><path fill="#f6caae" d="M138.703125 264.5625v1.925781c0 11.121094-7.332031 20.523438-17.433594 23.644531-9.113281-2.800781-15.964843-10.726562-17.230469-20.421874 1.652344.101562 3.316407.152343 4.984376.152343 4.683593 0 9.277343-.371093 13.746093-1.105469 5.511719-.886718 10.839844-2.304687 15.933594-4.195312zm-92.660156-78.246094c0 11.460938-8.371094 20.964844-19.335938 22.726563-1.195312.195312-2.429687.296875-3.6875.296875C10.304688 209.339844 0 199.035156 0 186.316406c0-12.714844 10.304688-23.019531 23.019531-23.019531 1.257813 0 2.492188.101563 3.6875.296875 10.964844 1.761719 19.335938 11.261719 19.335938 22.722656zm0 0"/><path fill="#eab599" d="M46.042969 186.316406c0 11.460938-8.371094 20.964844-19.335938 22.726563-1.988281-7.238281-3.054687-14.859375-3.054687-22.726563 0-7.863281 1.066406-15.484375 3.054687-22.722656 10.964844 1.761719 19.335938 11.261719 19.335938 22.722656zm0 0"/><path fill="#eab599" d="M31.25 186.316406c0 4.546875-3.683594 8.230469-8.230469 8.230469-4.542969 0-8.226562-3.683594-8.226562-8.230469 0-4.542968 3.683593-8.226562 8.226562-8.226562 4.546875 0 8.230469 3.683594 8.230469 8.226562zm0 0"/><path fill="#eab599" d="M173.058594 156.921875v79.132813c-12.230469 11.675781-27.914063 19.761718-45.363282 22.574218-.136718.023438-.285156.046875-.421874.070313-4.335938.691406-8.785157 1.035156-13.328126 1.035156-47.300781 0-85.648437-38.347656-85.648437-85.648437V141.46875c0-4.175781.296875-8.285156.875-12.300781 20.378906 14.65625 49.597656 13.207031 68.214844-4.386719 6.164062-5.824219 10.449219-12.757812 12.871093-20.113281 1.347657 12.878906 7.238282 25.414062 17.679688 35.285156 12.429688 11.734375 28.851562 17.394531 45.121094 16.96875zm0 0"/><path fill="#f6caae" d="M173.058594 156.921875v79.132813c-12.230469 11.675781-27.914063 19.761718-45.363282 22.574218-.136718.023438-.285156.046875-.421874.070313-40.96875-6.402344-72.304688-41.855469-72.304688-84.613281V141.46875c0-.867188.015625-1.730469.046875-2.589844 15.101563 1.546875 30.789063-3.148437 42.371094-14.101562 6.164062-5.820313 10.449219-12.757813 12.871093-20.109375 1.347657 12.878906 7.238282 25.414062 17.679688 35.285156 12.429688 11.734375 28.851562 17.394531 45.121094 16.96875zm0 0"/><path fill="#eab599" d="M159.949219 166.851562c0-7.859374-6.371094-14.226562-14.226563-14.226562-7.855468 0-14.226562 6.367188-14.226562 14.226562m-35.085938 0c0-7.859374-6.371094-14.226562-14.226562-14.226562-7.855469 0-14.222656 6.367188-14.222656 14.226562"/><path fill="#3d4159" d="M91.902344 172.90625c0 5.367188-4.351563 9.71875-9.71875 9.71875-5.367188 0-9.714844-4.351562-9.714844-9.71875s4.347656-9.714844 9.714844-9.714844c5.367187 0 9.71875 4.347656 9.71875 9.714844zm63.535156 0c0 5.367188-4.347656 9.71875-9.714844 9.71875-5.367187 0-9.714844-4.351562-9.714844-9.71875s4.347657-9.714844 9.714844-9.714844c5.367188 0 9.714844 4.347656 9.714844 9.714844zm0 0"/><path fill="#eab599" d="M123.671875 197.371094h-19.433594c-2.316406 0-4.191406-1.878906-4.191406-4.191406s1.875-4.191407 4.191406-4.191407h19.433594c2.3125 0 4.1875 1.878907 4.1875 4.191407s-1.875 4.191406-4.1875 4.191406zm-9.71875 26.519531c-7.171875 0-14.34375-1.796875-20.882813-5.394531-1.84375-1.011719-2.515624-3.328125-1.503906-5.171875 1.015625-1.84375 3.332032-2.515625 5.175782-1.503907 10.777343 5.925782 23.644531 5.925782 34.421874 0 1.84375-1.015624 4.160157-.339843 5.175782 1.503907 1.011718 1.84375.339844 4.160156-1.503906 5.171875-6.539063 3.597656-13.710938 5.394531-20.882813 5.394531zm0 0"/><path fill="#fff" d="M89.921875 171.191406c0 2.300782-1.867187 4.164063-4.164063 4.164063-2.300781 0-4.164062-1.863281-4.164062-4.164063 0-2.300781 1.863281-4.164062 4.164062-4.164062 2.296876 0 4.164063 1.863281 4.164063 4.164062zm64.011719 0c0 2.300782-1.863282 4.164063-4.160156 4.164063-2.300782 0-4.164063-1.863281-4.164063-4.164063 0-2.300781 1.863281-4.164062 4.164063-4.164062 2.296874 0 4.160156 1.863281 4.160156 4.164062zm0 0"/><path fill="#eab599" d="M172.25 196.574219c0 5.890625-4.777344 10.667969-10.671875 10.667969-5.890625 0-10.667969-4.777344-10.667969-10.667969 0-5.894531 4.777344-10.671875 10.667969-10.671875 5.894531 0 10.671875 4.777344 10.671875 10.671875zm-95.261719 0c0 5.890625-4.773437 10.667969-10.667969 10.667969-5.890624 0-10.667968-4.777344-10.667968-10.667969 0-5.894531 4.777344-10.671875 10.667968-10.671875 5.894532 0 10.667969 4.777344 10.667969 10.671875zm0 0"/><path fill="#bfd5de" d="M489.023438 330.105469v32.046875C463.800781 417.4375 419.484375 462.167969 364.511719 487.9375c-9.957031 4.660156-20.269531 8.703125-30.886719 12.066406-11.941406 3.816406-24.261719 6.75-36.90625 8.765625-.050781.011719-.113281.023438-.167969.023438v-178.6875c0-38.085938 29.332031-69.332031 66.65625-72.339844 1.964844-.167969 3.9375-.238281 5.933594-.238281h47.273437c5.589844 0 11.03125.613281 16.257813 1.816406 32.265625 7.375 56.351563 36.269531 56.351563 70.761719zm0 0"/><path fill="#dde8ed" d="M489.023438 330.105469v32.046875C463.800781 417.4375 419.484375 462.167969 364.511719 487.9375c-9.957031 4.660156-20.269531 8.703125-30.886719 12.066406V330.105469c0-40.082031 32.507812-72.578125 72.601562-72.578125h10.195313c40.105469 0 72.601563 32.496094 72.601563 72.578125zm0 0"/><path fill="#d3a489" d="M321.734375 177.464844c0 11.992187-8.757813 21.933594-20.226563 23.777344-1.253906.203124-2.542968.308593-3.859374.308593-13.304688 0-24.085938-10.78125-24.085938-24.085937 0-13.304688 10.78125-24.085938 24.085938-24.085938 1.316406 0 2.605468.105469 3.859374.308594 11.46875 1.847656 20.226563 11.789062 20.226563 23.777344zm0 0"/><path fill="#f74f4f" d="m412.273438 283.710938-19.488282 31.257812-19.488281-31.257812"/><path fill="#f74f4f" d="m419.003906 403.265625-26.21875 33.085937-26.222656-33.085937 26.226562-96.429687zm0 0"/><path fill="#bf8e75" d="M321.734375 177.464844c0 11.992187-8.757813 21.933594-20.226563 23.777344-2.082031-7.574219-3.195312-15.546876-3.195312-23.777344 0-8.226563 1.113281-16.199219 3.195312-23.777344 11.46875 1.847656 20.226563 11.789062 20.226563 23.777344zm0 0"/><path fill="#bf8e75" d="M306.257812 177.464844c0 4.753906-3.855468 8.609375-8.609374 8.609375-4.753907 0-8.605469-3.855469-8.605469-8.609375s3.851562-8.605469 8.605469-8.605469c4.753906 0 8.609374 3.851563 8.609374 8.605469zm0 0"/><path fill="#bfd5de" d="m392.777344 287.238281-32.679688 18.164063-9.941406-46.246094 20.304688-11.960938m22.316406 40.042969 32.683594 18.164063 9.941406-46.246094-20.308594-11.960938"/><path fill="#d3a489" d="M463.828125 177.464844c0 11.992187 8.757813 21.933594 20.226563 23.777344 1.253906.203124 2.542968.308593 3.859374.308593 13.304688 0 24.085938-10.78125 24.085938-24.085937 0-13.304688-10.78125-24.085938-24.085938-24.085938-1.316406 0-2.605468.105469-3.859374.308594-11.46875 1.847656-20.226563 11.789062-20.226563 23.777344zm0 0"/><g fill="#bf8e75"><path d="M463.828125 177.464844c0 11.992187 8.757813 21.933594 20.226563 23.777344 2.085937-7.574219 3.195312-15.546876 3.195312-23.777344 0-8.226563-1.109375-16.199219-3.195312-23.777344-11.46875 1.847656-20.226563 11.789062-20.226563 23.777344zm0 0"/><path d="M496.523438 177.464844c0 4.753906-3.855469 8.609375-8.609376 8.609375-4.753906 0-8.609374-3.855469-8.609374-8.609375s3.855468-8.605469 8.609374-8.605469c4.753907 0 8.609376 3.851563 8.609376 8.605469zm0 0"/><path d="M482.398438 164.664062c0 44.59375-32.578126 81.589844-75.234376 88.457032-4.675781.769531-9.480468 1.15625-14.382812 1.15625-49.496094 0-89.613281-40.117188-89.613281-89.613282 0-23.417968 8.132812-58.574218 22.839843-74.539062 16.375-17.777344 40.695313-15.078125 66.773438-15.078125 4.902344 0 9.703125.390625 14.382812 1.160156 42.65625 6.867188 75.234376 43.859375 75.234376 88.457031zm0 0"/><path d="M418.683594 229.558594v31.785156c0 11.636719-7.671875 21.472656-18.242188 24.738281-2.417968.75-4.996094 1.15625-7.664062 1.15625-14.300782 0-25.894532-11.59375-25.894532-25.894531v-31.785156zm0 0"/></g><path fill="#d3a489" d="M418.683594 259.328125v2.015625c0 11.636719-7.671875 21.472656-18.242188 24.738281-9.535156-2.929687-16.703125-11.222656-18.027344-21.367187 1.730469.105468 3.46875.160156 5.21875.160156 4.898438 0 9.703126-.390625 14.382813-1.15625 5.765625-.929688 11.335937-2.410156 16.667969-4.390625zm63.714844-94.664063c0 44.59375-32.578126 81.589844-75.234376 88.457032-42.652343-6.867188-75.230468-43.863282-75.230468-88.457032 0-27.460937 12.351562-52.039062 31.808594-68.480468C375.875 85.925781 390.777344 78.84375 407.164062 76.203125c39.765626 6.402344 70.785157 39 74.792969 79.523437.292969 2.941407.441407 5.925782.441407 8.9375zm0 0"/><path fill="#bf8e75" d="M392.785156 208.800781c-7.507812 0-15.007812-1.878906-21.847656-5.640625-1.933594-1.058594-2.636719-3.484375-1.574219-5.414062 1.058594-1.929688 3.484375-2.632813 5.414063-1.570313 11.273437 6.195313 24.738281 6.195313 36.015625 0 1.925781-1.0625 4.351562-.359375 5.410156 1.570313 1.0625 1.929687.359375 4.355468-1.570313 5.414062-6.839843 3.761719-14.347656 5.640625-21.847656 5.640625zm0 0"/><path fill="#3d4159" d="M373.699219 159.449219c0 5.613281-4.550781 10.164062-10.167969 10.164062-5.613281 0-10.164062-4.550781-10.164062-10.164062 0-5.617188 4.550781-10.167969 10.164062-10.167969 5.617188 0 10.167969 4.550781 10.167969 10.167969zm58.5 0c0 5.613281-4.550781 10.164062-10.164063 10.164062-5.617187 0-10.167968-4.550781-10.167968-10.164062 0-5.617188 4.550781-10.167969 10.167968-10.167969 5.613282 0 10.164063 4.550781 10.164063 10.167969zm0 0"/><path fill="#fff" d="M371.625 157.652344c0 2.40625-1.949219 4.359375-4.355469 4.359375s-4.355469-1.953125-4.355469-4.359375c0-2.402344 1.949219-4.355469 4.355469-4.355469S371.625 155.25 371.625 157.652344zm59 0c0 2.40625-1.949219 4.359375-4.355469 4.359375s-4.355469-1.953125-4.355469-4.359375c0-2.402344 1.949219-4.355469 4.355469-4.355469S430.625 155.25 430.625 157.652344zm0 0"/><path fill="#bf8e75" d="M402.949219 185.042969h-20.332031c-2.421876 0-4.386719-1.964844-4.386719-4.386719s1.964843-4.382812 4.386719-4.382812h20.332031c2.421875 0 4.386719 1.960937 4.386719 4.382812-.003907 2.421875-1.964844 4.386719-4.386719 4.386719zm0 0"/><path fill="#bfd5de" d="M422.289062 327.726562h39.066407v11.957032h-39.066407zm0 0"/><path fill="#2a2f4f" d="M387.539062 49.449219c27.148438 1.9375 48.945313 23.867187 50.324219 51.472656l.257813 5.183594h15.617187l8.410157 55.929687 20.371093-6.304687-2.734375-54.804688c-1.445312-29-25.429687-51.726562-54.453125-51.617187zm0 0"/><path fill="#3d4159" d="M478.058594 27.816406c21.617187 21.617188 21.617187 56.667969 0 78.285156-21.617188 21.617188-56.667969 21.617188-78.285156 0zm0 0"/><path fill="#3d4159" d="M399.773438 106.101562h-67.9375l-8.414063 55.933594-20.371094-6.304687 2.730469-54.808594c1.445312-28.992187 25.429688-51.726563 54.457031-51.617187l98.121094.371093 12.972656 23.347657"/><path fill="#2a2f4f" d="M398.027344 49.449219c-27.148438 1.9375-48.945313 23.867187-50.324219 51.472656l-.257813 5.183594h-15.613281l-8.414062 55.929687-20.371094-6.304687 2.734375-54.804688c1.445312-29 25.429688-51.726562 54.453125-51.617187zm0 0"/><path fill="#3d4159" d="M364.511719 468.742188V487.9375C331.566406 503.371094 294.796875 512 256 512s-75.578125-8.628906-108.523438-24.074219v-19.183593c0-37.878907 25.714844-69.738282 60.644532-79.078126 1.277344-.34375 2.5625-.660156 3.867187-.941406 3.46875-.753906 7.03125-1.273437 10.648438-1.566406 2.214843-.179688 4.441406-.273438 6.699219-.273438h53.308593c5.964844 0 11.765625.628907 17.367188 1.839844.324219.0625.648437.136719.960937.210938.941406.21875 1.878906.449218 2.808594.699218.035156.007813.042969.007813.074219.019532 9.21875 2.464844 17.796875 6.5 25.414062 11.796875 21.304688 14.777343 35.242188 39.402343 35.242188 67.292969zm0 0"/><path fill="#66baed" d="m304.054688 388.722656-.199219.929688-26.109375 121.429687c-1.351563.113281-2.707032.21875-4.066406.3125-1.914063.125-3.835938.238281-5.769532.324219C263.960938 511.90625 259.992188 512 256 512c-4.097656 0-8.160156-.09375-12.203125-.292969-1.828125-.082031-3.660156-.1875-5.488281-.324219-1.367188-.09375-2.726563-.1875-4.085938-.300781l-26.101562-121.417969-.195313-.941406zm0 0"/><path fill="#3d4159" d="m277.96875 416.421875-21.976562 35.242187-21.972657-35.242187"/><path fill="#3d4159" d="M273.679688 511.394531c-1.914063.125-3.835938.238281-5.769532.324219C263.960938 511.90625 259.992188 512 256 512c-4.097656 0-8.160156-.09375-12.203125-.292969-1.828125-.082031-3.660156-.1875-5.488281-.324219L256 442.492188zm0 0"/><path fill="#2ba1cf" d="M255.988281 420.394531 219.132812 440.875l-11.210937-52.144531 22.898437-13.488281m25.167969 45.152343L292.839844 440.875l11.210937-52.144531-22.898437-13.488281"/><path fill="#2a2f4f" d="M305.445312 459.097656h11.691407l-20.417969 49.671875c-9.445312 1.515625-19.058594 2.507813-28.808594 2.949219l35.871094-122.085938.273438-.910156 25.214843 8.234375zm-61.648437 52.609375c-9.761719-.449219-19.382813-1.460937-28.828125-2.988281l-20.398438-49.621094h11.691407l-23.832031-62.140625 25.222656-8.234375.273437.910156zm0 0"/><path fill="#eab599" d="M285.199219 355.351562v35.839844c0 13.125-8.652344 24.214844-20.570313 27.898438-2.730468.847656-5.636718 1.304687-8.644531 1.304687-16.128906 0-29.199219-13.074219-29.199219-29.203125v-35.839844zm0 0"/><path fill="#f6caae" d="M285.199219 388.921875v2.273437c0 13.121094-8.652344 24.210938-20.570313 27.898438-10.753906-3.308594-18.839844-12.65625-20.332031-24.097656 1.953125.121094 3.914063.179687 5.882813.179687 5.527343 0 10.945312-.4375 16.21875-1.300781 6.503906-1.046875 12.785156-2.722656 18.800781-4.953125zM175.875 296.609375c0 13.519531-9.878906 24.730469-22.8125 26.8125-1.414062.226563-2.867188.347656-4.347656.347656-15.003906 0-27.164063-12.15625-27.164063-27.160156s12.15625-27.164063 27.164063-27.164063c1.480468 0 2.933594.121094 4.347656.351563 12.933594 2.082031 22.8125 13.292969 22.8125 26.8125zm0 0"/><path fill="#eab599" d="M175.875 296.609375c0 13.519531-9.878906 24.730469-22.8125 26.8125-2.347656-8.542969-3.601562-17.535156-3.601562-26.8125 0-9.28125 1.253906-18.269531 3.601562-26.8125 12.933594 2.082031 22.8125 13.292969 22.8125 26.8125zm0 0"/><path fill="#eab599" d="M158.421875 296.609375c0 5.359375-4.347656 9.707031-9.707031 9.707031-5.363282 0-9.707032-4.347656-9.707032-9.707031 0-5.363281 4.34375-9.707031 9.707032-9.707031 5.359375 0 9.707031 4.34375 9.707031 9.707031zm0 0"/><path fill="#f6caae" d="M336.105469 296.609375c0 13.519531 9.878906 24.730469 22.8125 26.8125 1.410156.226563 2.867187.347656 4.347656.347656 15.003906 0 27.164063-12.15625 27.164063-27.160156s-12.15625-27.164063-27.164063-27.164063c-1.480469 0-2.9375.121094-4.347656.351563-12.933594 2.082031-22.8125 13.292969-22.8125 26.8125zm0 0"/><path fill="#eab599" d="M336.105469 296.609375c0 13.519531 9.878906 24.730469 22.8125 26.8125 2.347656-8.542969 3.601562-17.535156 3.601562-26.8125 0-9.28125-1.253906-18.269531-3.601562-26.8125-12.933594 2.082031-22.8125 13.292969-22.8125 26.8125zm0 0"/><path fill="#eab599" d="M357.046875 243.695312v38.480469c0 50.289063-36.738281 92.003907-84.839844 99.746094-.160156.027344-.332031.054687-.492187.082031-5.117188.820313-10.367188 1.222656-15.726563 1.222656-55.808593 0-101.046875-45.242187-101.046875-101.046874v-38.484376c0-11.75 2.003906-23.042968 5.707032-33.535156 13.820312-39.328125 51.292968-67.523437 95.339843-67.523437h.007813c5.351562 0 10.609375.414062 15.734375 1.222656 48.335937 7.550781 85.316406 49.378906 85.316406 99.835937zm0 0"/><path fill="#eab599" d="M372.972656 296.609375c0 5.359375-4.34375 9.707031-9.707031 9.707031-5.359375 0-9.707031-4.347656-9.707031-9.707031 0-5.363281 4.347656-9.707031 9.707031-9.707031 5.363281 0 9.707031 4.34375 9.707031 9.707031zm0 0"/><path fill="#f6caae" d="M357.042969 243.695312v38.480469c0 50.285157-36.734375 92.003907-84.835938 99.746094-.164062.027344-.332031.054687-.496093.082031-48.332032-7.554687-85.304688-49.378906-85.304688-99.828125v-38.480469c0-50.457031 36.980469-92.285156 85.324219-99.835937 48.335937 7.550781 85.3125 49.378906 85.3125 99.835937zm0 0"/><path fill="#3d4159" d="M234.46875 276.289062c0 6.332032-5.132812 11.464844-11.460938 11.464844-6.332031 0-11.464843-5.132812-11.464843-11.464844 0-6.328124 5.132812-11.460937 11.464843-11.460937 6.328126 0 11.460938 5.132813 11.460938 11.460937zm65.972656 0c0 6.332032-5.132812 11.464844-11.464844 11.464844-6.332031 0-11.464843-5.132812-11.464843-11.464844 0-6.328124 5.132812-11.460937 11.464843-11.460937 6.332032 0 11.464844 5.132813 11.464844 11.460937zm0 0"/><path fill="#fff" d="M232.132812 274.269531c0 2.710938-2.199218 4.910157-4.914062 4.910157-2.710938 0-4.910156-2.199219-4.910156-4.910157 0-2.714843 2.199218-4.914062 4.910156-4.914062 2.714844 0 4.914062 2.199219 4.914062 4.914062zm66.53125 0c0 2.710938-2.199218 4.910157-4.910156 4.910157-2.714844 0-4.914062-2.199219-4.914062-4.910157 0-2.714843 2.199218-4.914062 4.914062-4.914062 2.710938 0 4.910156 2.199219 4.910156 4.914062zm0 0"/><path fill="#eab599" d="M267.457031 300.660156h-22.929687c-2.730469 0-4.945313-2.214844-4.945313-4.945312 0-2.734375 2.214844-4.945313 4.945313-4.945313h22.929687c2.730469 0 4.945313 2.210938 4.945313 4.945313-.003906 2.730468-2.21875 4.945312-4.945313 4.945312zm-11.464843 31.285156c-8.460938 0-16.925782-2.121093-24.636719-6.363281-2.175781-1.195312-2.972657-3.929687-1.773438-6.101562 1.195313-2.175781 3.929688-2.96875 6.105469-1.777344 12.714844 6.992187 27.894531 6.992187 40.609375 0 2.175781-1.195313 4.910156-.402344 6.105469 1.777344 1.199218 2.171875.402344 4.90625-1.773438 6.101562-7.714844 4.242188-16.175781 6.363281-24.636718 6.363281zm0 0"/><path fill="#2a2f4f" d="M357.046875 208.773438v39.417968h-18.808594v-30.871094L202.472656 192.09375l-28.726562-5.339844v61.4375H154.9375v-39.421875c0-44.9375 36.421875-81.359375 81.351562-81.359375h39.40625c1.070313 0 2.140626.019532 3.210938.074219 43.433594 1.671875 78.140625 37.421875 78.140625 81.289063zm0 0"/><path fill="#3d4159" d="M357.046875 208.773438v39.417968h-18.808594v-30.871094L202.472656 192.09375c7.480469-35.929688 38.652344-63.152344 76.433594-64.609375 43.433594 1.671875 78.140625 37.421875 78.140625 81.289063zm0 0"/></svg>
