<svg xmlns="http://www.w3.org/2000/svg" fill="none" viewBox="0 0 48 48"><path fill-rule="evenodd" d="M16 19c2.7629 0 5-2.2371 5-5s-2.2371-5-5-5-5 2.2371-5 5 2.2371 5 5 5Zm0 2c3.8675 0 7-3.1325 7-7s-3.1325-7-7-7-7 3.1325-7 7 3.1325 7 7 7ZM5.76618 28.0846C5.14556 28.6486 5 29.0826 5 29.4V33h22v-3.6c0-.3174-.1456-.7514-.7662-1.3154-.6329-.5751-1.607-1.1335-2.8406-1.6201C20.924 25.4906 17.9234 25 16 25s-4.924.4906-7.39318 1.4645c-1.2336.4866-2.20774 1.045-2.84064 1.6201ZM16 23c-4.3388 0-13 2.144-13 6.4V35h26v-5.6c0-4.256-8.6613-6.4-13-6.4Zm19-2c1.6579 0 3-1.3421 3-3s-1.3421-3-3-3-3 1.3421-3 3 1.3421 3 3 3Zm0 2c2.7625 0 5-2.2375 5-5s-2.2375-5-5-5-5 2.2375-5 5 2.2375 5 5 5Z" clip-rule="evenodd"/><path fill-rule="evenodd" d="M28 33h15v-2.6667c0-.2004-.0789-.4934-.4963-.9043-.4348-.4281-1.1263-.8636-2.038-1.2532C38.6335 27.3929 36.401 27 35 27c-1.4011 0-3.6335.3929-5.4657 1.1758-.6851.2928-1.2459.6115-1.6669.9335-.1954-.6547-.5866-1.2357-1.037-1.7203C29.0493 25.799 32.7681 25 35 25c3.3375 0 10 1.7867 10 5.3333V35H28v-2Z" clip-rule="evenodd"/></svg>
