<svg xmlns="http://www.w3.org/2000/svg" viewBox="0 0 715 248"><path d="M50.88 123.662c0-8.154667.1853333-14.873.556-20.155.3706667-5.282 1.0656667-9.5446667 2.085-12.788 1.0193333-3.2433333 2.4556667-5.5136667 4.309-6.811s4.17-1.946 6.95-1.946c2.9653333 0 5.3746667.6486667 7.228 1.946s3.2896667 3.5676667 4.309 6.811c1.0193333 3.2433333 1.7143333 7.506 2.085 12.788.3706667 5.282.556 12.000333.556 20.155 0 8.154667-.1853333 14.919333-.556 20.294-.3706667 5.374667-1.0656667 9.683667-2.085 12.927s-2.4556667 5.513667-4.309 6.811-4.2626667 1.946-7.228 1.946c-2.78 0-5.0966667-.648667-6.95-1.946s-3.2896667-3.567667-4.309-6.811-1.7143333-7.552333-2.085-12.927c-.3706667-5.374667-.556-12.139333-.556-20.294ZM.84 48.602v198.492h50.04v-65.052h.556c2.5946667 7.784 6.7183333 13.066 12.371 15.846 5.6526667 2.78 12.0003333 4.17 19.043 4.17s13.3903333-1.158333 19.043-3.475c5.652667-2.316667 10.471333-6.394 14.456-12.232 3.984667-5.838 7.089-13.575667 9.313-23.213 2.224-9.637333 3.336-21.684 3.336-36.14 0-27.8-3.336-48.4646667-10.008-61.994-6.672-13.5293333-18.348-20.294-35.028-20.294-17.0506667 0-28.4486667 8.1546667-34.194 24.464h-.556V48.602H.84ZM145.4.508V199h50.04V.508zM261.882 123.94c0-9.452.185333-17.236.556-23.352.370667-6.116 1.112-10.9346667 2.224-14.456s2.548333-5.9306667 4.309-7.228c1.760667-1.2973333 4.031-1.946 6.811-1.946 2.78 0 5.096667.6486667 6.95 1.946 1.853333 1.2973333 3.289667 3.7066667 4.309 7.228 1.019333 3.5213333 1.714333 8.34 2.085 14.456.370667 6.116.556 13.9.556 23.352s-.185333 17.189667-.556 23.213c-.370667 6.023333-1.065667 10.795667-2.085 14.317-1.019333 3.521333-2.455667 5.930667-4.309 7.228-1.853333 1.297333-4.17 1.946-6.95 1.946-2.78 0-5.050333-.648667-6.811-1.946-1.760667-1.297333-3.197-3.706667-4.309-7.228s-1.853333-8.293667-2.224-14.317c-.370667-6.023333-.556-13.761-.556-23.213Zm77.84 0c0-10.934667-.602333-21.174333-1.807-30.719-1.204667-9.5446667-3.938333-17.931-8.201-25.159-4.262667-7.228-10.656667-12.927-19.182-17.097-8.525333-4.17-20.108667-6.255-34.75-6.255-14.085333 0-25.344333 2.2703333-33.777 6.811-8.432667 4.5406667-14.873 10.5176667-19.321 17.931-4.448 7.4133333-7.367 15.846-8.757 25.298-1.39 9.452-2.085 19.089333-2.085 28.912 0 10.934667.602333 21.174333 1.807 30.719s3.938333 17.884667 8.201 25.02c4.262667 7.135333 10.656667 12.695333 19.182 16.68 8.525333 3.984667 20.108667 5.977 34.75 5.977 14.085333 0 25.344333-2.177667 33.777-6.533 8.432667-4.355333 14.873-10.193333 19.321-17.514 4.448-7.320667 7.367-15.707 8.757-25.159 1.39-9.452 2.085-19.089333 2.085-28.912ZM356.124.508V37.76h50.04V.508h-50.04Zm0 48.094V199h50.04V48.602h-50.04Zm92.95 119.54V199h30.858v-30.858zM546.096 29.42V.508h-23.63V29.42h23.63Zm-23.63 25.854V199h23.63V55.274h-23.63Zm77.562 72.002c0-8.710667 1.158333-16.448333 3.475-23.213 2.316667-6.7646667 5.513667-12.4636667 9.591-17.097 4.077333-4.6333333 8.849667-8.1546667 14.317-10.564s11.259-3.614 17.375-3.614 11.907667 1.2046667 17.375 3.614 10.239667 5.9306667 14.317 10.564c4.077333 4.6333333 7.274333 10.3323333 9.591 17.097 2.316667 6.764667 3.475 14.502333 3.475 23.213s-1.158333 16.448333-3.475 23.213c-2.316667 6.764667-5.513667 12.417333-9.591 16.958-4.077333 4.540667-8.849667 8.015667-14.317 10.425s-11.259 3.614-17.375 3.614-11.907667-1.204667-17.375-3.614-10.239667-5.884333-14.317-10.425c-4.077333-4.540667-7.274333-10.193333-9.591-16.958-2.316667-6.764667-3.475-14.502333-3.475-23.213Zm-25.02 0c0 10.564 1.482667 20.386667 4.448 29.468s7.413333 17.004333 13.344 23.769c5.930667 6.764667 13.251333 12.046667 21.962 15.846 8.710667 3.799333 18.718667 5.699 30.024 5.699 11.490667 0 21.545-1.899667 30.163-5.699 8.618-3.799333 15.892333-9.081333 21.823-15.846 5.930667-6.764667 10.378667-14.687667 13.344-23.769 2.965333-9.081333 4.448-18.904 4.448-29.468s-1.482667-20.433-4.448-29.607-7.413333-17.1433333-13.344-23.908c-5.930667-6.7646667-13.205-12.093-21.823-15.985-8.618-3.892-18.672333-5.838-30.163-5.838-11.305333 0-21.313333 1.946-30.024 5.838-8.710667 3.892-16.031333 9.2203333-21.962 15.985-5.930667 6.7646667-10.378667 14.734-13.344 23.908-2.965333 9.174-4.448 19.043-4.448 29.607Z"/></svg>
