<svg xmlns="http://www.w3.org/2000/svg" viewBox="0 0 512 512"><path fill="#fed402" d="M170.667 200.059v271.764h170.667V200.059c0-11.379-9.225-20.604-20.604-20.604H191.27c-11.379 0-20.603 9.225-20.603 20.604z"/><path fill="#fac600" d="M320.73 179.455h-10.977c.425 1.649.675 3.369.675 5.151v132.003c0 77.188-62.573 139.761-139.761 139.761v15.453h170.667V200.059c-.001-11.379-9.225-20.604-20.604-20.604z"/><path fill="#fd4755" d="M341.333 370.039v101.784h155.214V370.039c0-11.379-9.225-20.604-20.604-20.604H361.937c-11.379 0-20.604 9.225-20.604 20.604z"/><path fill="#fb2b3a" d="M475.944 349.435h-10.977c.425 1.649.675 3.369.675 5.151 0 56.214-45.57 101.784-101.784 101.784h-22.524v15.453h155.214V370.039c-.001-11.379-9.225-20.604-20.604-20.604z"/><path fill="#fe9738" d="M170.667 323.681v148.142H15.453V323.681c0-11.379 9.225-20.604 20.604-20.604h114.007c11.378 0 20.603 9.225 20.603 20.604z"/><path fill="#fe860a" d="M150.063 303.077h-10.977c.425 1.649.675 3.369.675 5.151v23.834c0 68.654-55.655 124.308-124.308 124.308v15.453h155.214V323.681c0-11.379-9.225-20.604-20.604-20.604z"/><path fill="#97d729" d="M503.074 512H8.926C3.996 512 0 508.004 0 503.074v-22.325c0-4.93 3.996-8.926 8.926-8.926h494.148c4.93 0 8.926 3.996 8.926 8.926v22.325c0 4.93-3.996 8.926-8.926 8.926z"/><path fill="#8bc727" d="M503.074 471.823h-30.905c4.93 0 8.926 3.996 8.926 8.926v22.325c0 4.93-3.996 8.926-8.926 8.926h30.905c4.93 0 8.926-3.996 8.926-8.926v-22.325c0-4.93-3.996-8.926-8.926-8.926z"/><path fill="#fedf30" d="M293.663 87.725h-13.169c-4.267 0-7.726-3.459-7.726-7.726V16.953c0-4.268 3.459-7.726 7.726-7.726h68.214c4.913 0 9.398 2.489 11.998 6.659 2.6 4.169 2.86 9.292.698 13.703l-11.226 22.9c-10.494 21.405-32.677 35.236-56.515 35.236zm-5.443-15.452h5.443c17.985 0 34.722-10.436 42.639-26.586L346.6 24.679h-58.38zm-56.713 15.452h-13.17c-23.838 0-46.021-13.831-56.514-35.235l-11.226-22.901c-2.162-4.411-1.902-9.534.698-13.703 2.6-4.17 7.085-6.659 11.998-6.659h68.214c4.267 0 7.726 3.459 7.726 7.726v63.046c0 4.268-3.459 7.726-7.726 7.726zM165.4 24.679l10.298 21.009c7.917 16.149 24.653 26.585 42.639 26.585h5.443V24.679zm72.649 77.937h35.903v39.399h-35.903z"/><path fill="#fed402" d="M256 102.616h17.951v39.399H256z"/><path fill="#918291" d="M302.075 179.455h-92.15v-25.473c0-6.609 5.358-11.968 11.968-11.968h68.215c6.609 0 11.968 5.358 11.968 11.968v25.473z"/><path fill="#7a6d79" d="M290.108 142.015h-30.905c6.609 0 11.967 5.358 11.967 11.968v25.473h30.905v-25.473c0-6.61-5.358-11.968-11.967-11.968z"/><path fill="#fed402" d="M273.951 102.616h-35.903C214.791 79.643 201.7 48.314 201.7 15.623V3.989c0-2.203 1.786-3.989 3.989-3.989H306.31c2.203 0 3.989 1.786 3.989 3.989v11.634c.001 32.691-13.09 64.02-36.348 86.993z"/><path fill="#fac600" d="M306.311 0h-11.464v.17c0 16.371-3.283 32.4-9.481 47.209-10.158 24.269-34.234 39.784-60.544 39.784 3.948 5.472 8.362 10.648 13.227 15.453h35.903C297.209 79.643 310.3 48.314 310.3 15.623V3.989c0-2.203-1.786-3.989-3.989-3.989z"/><path fill="#fff" d="M263.013 366.174c-4.267 0-7.726-3.459-7.726-7.726v-57.89h-6.299c-4.267 0-7.726-3.459-7.726-7.726s3.459-7.726 7.726-7.726h14.025c4.267 0 7.726 3.459 7.726 7.726v65.617c0 4.266-3.459 7.725-7.726 7.725zM90.081 428.641c-12.884 0-13.861-.326-14.879-.665-2.543-.848-4.444-2.775-5.217-5.287-1.312-4.266.592-6.759 4.764-12.22 3.33-4.361 9.531-12.479 19.922-27.327 2.968-4.24 4.883-8.011 5.696-11.216l.199-1.553c-.219-4.805-4.197-8.646-9.054-8.646-4.323 0-8.063 3.069-8.893 7.298-.822 4.187-4.882 6.909-9.07 6.093-4.187-.822-6.915-4.883-6.093-9.07 2.25-11.457 12.367-19.773 24.056-19.773 13.519 0 24.517 10.998 24.517 24.516 0 .328-.021.655-.062.98l-.324 2.538c-.033.258-.079.513-.137.766-1.209 5.214-3.959 10.909-8.174 16.93-6.657 9.513-11.631 16.32-15.25 21.168 5.704-.013 12.496-.067 18.905-.147.033-.001.066-.001.099-.001 4.222 0 7.671 3.395 7.724 7.63.053 4.267-3.362 7.769-7.629 7.822-9.296.115-16.095.164-21.1.164z"/><path fill="#efedef" d="M118.809 420.653c-.053-4.234-3.502-7.63-7.724-7.63-.033 0-.066 0-.099.001-.405.005-.814.01-1.222.015-4.869 5.666-10.242 10.885-16.046 15.594 4.536-.018 10.243-.068 17.461-.158 4.268-.053 7.683-3.555 7.63-7.822z"/><path fill="#fff" d="M443.457 393.839c0-13.518-10.998-24.516-24.517-24.516-11.689 0-21.806 8.316-24.056 19.773-.822 4.187 1.905 8.247 6.092 9.07 4.189.818 8.248-1.905 9.071-6.093.83-4.228 4.571-7.298 8.893-7.298 4.998 0 9.064 4.065 9.064 9.063s-4.066 9.063-9.064 9.063c-4.267 0-7.726 3.459-7.726 7.726s3.459 7.726 7.726 7.726c4.998 0 9.064 4.066 9.064 9.064s-4.066 9.063-9.064 9.063c-4.497 0-8.356-3.349-8.976-7.792-.058-.414-.088-.842-.088-1.272 0-4.268-3.459-7.726-7.726-7.726s-7.726 3.459-7.726 7.726c0 1.143.079 2.292.236 3.41 1.68 12.032 12.118 21.106 24.28 21.106 13.519 0 24.517-10.998 24.517-24.516 0-6.493-2.542-12.4-6.676-16.791 4.134-4.387 6.676-10.294 6.676-16.786z"/><path fill="#efedef" d="M443.457 427.42c0-2.734-.455-5.362-1.286-7.819-9.953 11.976-22.601 21.629-37.013 28.036 3.96 2.707 8.715 4.299 13.783 4.299 13.518 0 24.516-10.998 24.516-24.516z"/></svg>
