<svg xmlns="http://www.w3.org/2000/svg" viewBox="0 0 64 64"><path fill="#d8d7da" d="M47.459 31.483 37 27c-.369-.149-1.426.01-1.707.293L31 31.586l-4.293-4.293C26.425 27.01 25.37 26.852 25 27l-10.382 4.456C13.15 31.907 12 33.464 12 35v24c0 .553.448 1 1 1h36c.553 0 1-.447 1-1V35c0-1.536-1.149-3.092-2.541-3.517z"/><path fill="#c6c5ca" d="M47.459 31.483 37 27c-.369-.149-1.426.01-1.707.293l-1.709 1.709c.169-.001.317.016.416.056l10.459 4.483c1.392.425 2.541 1.98 2.541 3.517V53c0 .553-.447 1-1 1H12v5c0 .553.448 1 1 1h36c.553 0 1-.447 1-1V35c0-1.536-1.149-3.092-2.541-3.517z"/><path fill="#ffc477" d="M36.432 21.334c-.346-.168-.758-.119-1.059.122C34.116 22.466 32.603 23 31 23c-1.604 0-3.116-.534-4.374-1.544-.3-.241-.713-.29-1.059-.122-.346.166-.567.517-.567.901V27c0 .266.105.52.293.707l5 5c.195.195.451.293.707.293s.512-.098.707-.293l5-5c.187-.187.293-.441.293-.707v-4.765c0-.384-.221-.735-.568-.901z"/><path fill="#ffdaaa" d="M39 8H23c-.552 0-1 .447-1 1v8c0 4.963 4.038 9 9 9 4.963 0 9-4.037 9-9V9c0-.553-.447-1-1-1z"/><path fill="#57565c" d="M43 0H29c-4.645 0-7 3.028-7 9v1h18c2.484 0 4-3.092 4-9 0-.553-.447-1-1-1z"/><path fill="#3d9ae2" d="M38.832 29.445 37 27l-6 5-6-5-1.832 2.445c-.199.299-.223.681-.063 1.002l3 6c.144.287.417.488.734.54.054.009.108.013.161.013.263 0 .518-.104.707-.293L31 33.414l3.293 3.293c.189.189.443.293.707.293.053 0 .107-.004.16-.013.317-.052.59-.253.734-.54l3-6c.161-.321.137-.703-.062-1.002z"/><path fill="#57565c" d="M44 36H20c-1.654 0-3 1.346-3 3v16c0 1.654 1.346 3 3 3h24c1.654 0 3-1.346 3-3V39c0-1.654-1.346-3-3-3z"/><path fill="#ffdaaa" d="M55 58H9c-.552 0-1 .447-1 1v4c0 .553.448 1 1 1h46c.553 0 1-.447 1-1v-4c0-.553-.447-1-1-1z"/><circle cx="32" cy="47" r="4" fill="#3d9ae2"/><path fill="#ffc477" d="M55 58h-1v3c0 .553-.447 1-1 1H8v1c0 .553.448 1 1 1h46c.553 0 1-.447 1-1v-4c0-.553-.447-1-1-1z"/><path fill="#3e3d42" d="M44 36h-1v15c0 1.654-1.346 3-3 3H17v1c0 1.654 1.346 3 3 3h24c1.654 0 3-1.346 3-3V39c0-1.654-1.346-3-3-3z"/></svg>
