<svg xmlns="http://www.w3.org/2000/svg" xmlns:xlink="http://www.w3.org/1999/xlink" viewBox="0 0 64 64"><defs><path id="a" fill="#446aa9" d="M61.827 39.5C60.594 29.637 52.197 22 42 22s-18.595 7.637-19.827 17.5C23.406 49.363 31.803 57 42 57s18.595-7.637 19.827-17.5z"/></defs><path fill="#355485" d="M42 22c11.046 0 20 8.954 20 20 0 3.399-.848 6.601-2.344 9.404L62 60l-7.625-2.287C50.971 60.398 46.672 62 42 62c-11.046 0-20-8.954-20-20z"/><use xlink:href="#a"/><use xlink:href="#a"/><path fill="#355485" d="M43.997 22.101C43.34 22.036 42.674 22 42 22L22 42c0 .674.036 1.34.101 1.997 12.051-.055 21.842-9.846 21.897-21.897z"/><path fill="#f1a141" d="M4.344 31.404 2 40l7.625-2.287C13.029 40.398 17.328 42 22 42c11.046 0 20-8.954 20-20S33.046 2 22 2 2 10.954 2 22c0 3.399.848 6.601 2.344 9.404z"/><path fill="#ffbe51" d="M41.827 19.5C40.594 9.637 32.197 2 22 2S3.405 9.637 2.173 19.5C3.406 29.363 11.803 37 22 37s18.595-7.637 19.827-17.5z"/><path fill="#f1a141" d="m33.379 31.672-2.246-2.246C32.312 27.674 33 25.564 33 23.293c0-6.075-4.925-11-11-11s-11 4.925-11 11 4.925 11 11 11c2.271 0 4.381-.688 6.133-1.867l2.246 2.246c.398.398.937.621 1.5.621 1.172 0 2.121-.95 2.121-2.121 0-.563-.224-1.102-.621-1.5zm-5.161-5.161-1.597-1.597c-.398-.398-.937-.621-1.5-.621-1.172 0-2.121.95-2.121 2.121 0 .563.224 1.102.621 1.5l1.597 1.597c-.963.5-2.058.782-3.218.782-3.866 0-7-3.134-7-7s3.134-7 7-7 7 3.134 7 7c0 1.16-.282 2.254-.782 3.218z"/><path fill="#edf4fa" d="m33.379 30.379-2.246-2.246C32.312 26.381 33 24.271 33 22c0-6.075-4.925-11-11-11s-11 4.925-11 11 4.925 11 11 11c2.271 0 4.381-.688 6.133-1.867l2.246 2.246c.398.398.937.621 1.5.621C33.051 34 34 33.05 34 31.879c0-.563-.224-1.102-.621-1.5zm-5.161-5.161-1.597-1.597c-.398-.398-.937-.621-1.5-.621-1.172 0-2.121.95-2.121 2.121 0 .563.224 1.102.621 1.5l1.597 1.597c-.963.5-2.058.782-3.218.782-3.866 0-7-3.134-7-7s3.134-7 7-7 7 3.134 7 7c0 1.16-.282 2.254-.782 3.218z"/><path fill="#355485" d="m50.935 50.188-3.011-13.144C47.271 34.192 44.82 32.18 42 32.18c-.847 0-1.661.182-2.403.513l-3.623 4.796-2.909 12.7c-.35 1.526.764 2.992 2.273 2.992 1.084 0 2.026-.775 2.275-1.873l.708-3.127h7.358l.708 3.127c.248 1.097 1.19 1.873 2.275 1.873 1.51 0 2.623-1.465 2.273-2.992zM39.226 44.18l1.591-7.027c.129-.57.619-.973 1.182-.973s1.053.403 1.182.973l1.591 7.027h-5.547z"/><path fill="#edf4fa" d="m50.935 49.008-3.011-13.144C47.271 33.012 44.82 31 42 31c-.847 0-1.661.182-2.403.513l-3.623 4.796-2.909 12.7c-.35 1.526.764 2.992 2.273 2.992 1.084 0 2.026-.775 2.275-1.873l.708-3.127h7.358l.708 3.127c.248 1.097 1.19 1.873 2.275 1.873 1.51 0 2.623-1.465 2.273-2.992zM39.226 43l1.591-7.027c.129-.57.619-.973 1.182-.973s1.053.403 1.182.973L44.772 43h-5.547z"/></svg>
