<svg viewBox="0 0 183 179">
  <g fill="none">
    <path fill="currentColor" d="M182.49188 176.25954v-.0721l-.61284-4.83059c-.064142-.430138-.430344-.750546-.86519-.757-.07395-.005719-.14818.006636-.21629.036-.06577.039967-.139695.06461-.21629.0721-1.26652.481061-2.610614.725448-3.96541.721-1.303458.130627-2.594135-.348384-3.49677-1.29776-.792245-1.29617-1.146159-2.812956-1.00937-4.3259v-10.74264h8.2913c.437476-.032935.779615-.390622.79309-.82913v-4.86663c-.021835-.462563-.402117-.826994-.86519-.82913h-8.18316v-7.10169c-.049563-.443487-.419075-.782205-.86519-.793298h-6.1644c-.224736-.004772-.442226.079831-.604523.235365-.162297.155534-.256074.369229-.260657.593973v7.02958h-4.75849c-.230378-.003036-.452208.087142-.615123.250057-.162916.162916-.253093.384746-.250057.615123v4.79453c-.011603.416297.277079.78095.68493.86518h4.93875v12.14856c0 3.8212.86518 6.633 2.63158 8.47155 1.7664 1.83855 4.434 2.77579 8.039 2.77579 1.46718.012392 2.930875-.144862 4.36194-.46863.954226-.20254 1.884579-.504602 2.77579-.90123.318461-.117526.532836-.417636.54074-.757v-.036c-.10817.03596-.10817.03596-.10817-.00008Z"/>
    <path fill="currentColor" d="M42.2967899 169.62649c-.1438792-.209609-.2534019-.440827-.32444-.68494-.10815-.57678.39654-1.08147.68493-1.55011a13.52276162 13.52276162 0 0 0 .86518-1.58616c1.6988006-3.344304 2.5176319-7.066254 2.37925-10.81474-.0442866-2.714401-.5690992-5.399494-1.55011-7.93081-.9172628-2.318017-2.2215629-4.463407-3.85726-6.34465-1.4845054-1.737763-3.2517062-3.212464-5.22712-4.36195-2.0822537-1.259569-4.3608761-2.161268-6.74119-2.66763-2.5181421-.563241-5.1082691-.733484-7.67847-.50469-5.2770655.377015-10.2536074 2.597319-14.05916003 6.27255-3.81823093 3.689617-6.18482788 8.627501-6.66909 13.915-.25893116 2.627898-.10076537 5.280209.46864 7.85871.58292105 2.515339 1.58200888 4.915607 2.956 7.10167 1.35268082 2.126266 3.0739849 3.99405 5.08295 5.5155 1.98298723 1.487071 4.20049443 2.632381 6.56094003 3.38863 1.2907445.423625 2.618349.725354 3.9654.90123 1.2763274.192825 2.566689.277243 3.85726.25235 1.2309356-.036511 2.4586904-.144846 3.677-.32445.6792874-.097375 1.3530994-.229728 2.01875-.39653.54074-.14421 1.15357-.25235 1.36987-.82913.1054546-.465379-.0000996-.953573-.28839-1.33382-.25234-.54074-.54074-1.08147-.79308-1.62221-.50469-.97333-.97333-1.9827-1.478-2.956-.1199702-.279039-.3577081-.490357-.64889-.57678-.2748173-.060161-.5605614-.047754-.82913.036-.32444.0721-.64889.10814-.97333.18025-1.3518684.180246-2.7216816.180246-4.07355 0-5.204541-.688822-9.6588033-4.07405-11.71600003-8.90413-1.01455808-2.398826-1.39922895-5.017138-1.1175-7.60641.29906728-2.555524 1.2554265-4.989896 2.77578003-7.06563 3.0960918-4.213912 8.1648456-6.509195 13.37423-6.05625 2.3852996.206141 4.6855431.985254 6.70514 2.27109 4.0373442 2.573753 6.5871356 6.935247 6.84934 11.716.1311331 2.297197-.2762326 4.593262-1.18962 6.70514-.86067 2.020032-2.1669823 3.819293-3.82121 5.26318-.2489459.173839-.447849.410034-.57679.68493-.0792077.248485-.0664124.517168.03605.757l4.25383 8.43554c.2163.43259.43259 1.08147.86518 1.33382.3306555.135761.6903579.18538 1.04542.14421h6.5249c.3732472.006764.7218679-.185694.9150256-.505146.1931577-.319451.2016365-.717578.0222544-1.044964-.39654-.79309-.82913-1.55011-1.22567-2.34319l-2.41532-4.72248Zm38.50047-1.29776 5.22712-19.35839c.1081229-.366785.4467631-.617087.82913-.612893h6.27255c.4751167.006531.8587025.390117.86518.865233.0057852.085713-.0064966.171686-.03605.25235l-9.12043 27.4334c-.1460748.306075-.453956.502001-.79309.5047h-5.9481c-.3391354-.002694-.647019-.198622-.79309-.5047l-6.3807-18.67345-6.12835 18.70951v.036c-.1421296.28796-.4358766.469808-.757.468835h-5.84c-.3527712.007614-.6714915-.209697-.79308-.540945l-9.15648-27.68573c.0064775-.475116.3900632-.858702.86518-.865203h6.48885c.3124643.029481.5863658.221208.721.504713l5.155 19.43049 6.0202-19.39443c.1381114-.317981.4466225-.528331.79308-.540773h5.40737c.3391295.00273.6470077.198653.79308.504723l6.30863 19.46656ZM116.99059 152.1066c-.947894-1.482222-2.281291-2.67854-3.85726-3.46072-1.678163-.83602-3.532706-1.256375-5.40733-1.22564-2.561773-.027104-5.072949.713693-7.20983 2.1269-2.1169163 1.417618-3.8208699 3.370323-4.9387401 5.65972-1.172293 2.413585-1.7648065 5.067563-1.73035 7.75056v.61284c.0170092 2.600491.6208188 5.163598 1.76641 7.49822 1.0684963 2.221627 2.7430259 4.096102 4.8305801 5.40737 2.069611 1.268201 4.458523 1.918587 6.88539 1.87456 1.633191.030537 3.258168-.23826 4.79453-.79309 1.991522-.7348 3.696485-2.086143 4.86663-3.85726l.0721 2.956c.064138.430137.430336.750547.86518.757h5.876c.47512-.006477.858708-.390069.86518-.86519v-27.32521c-.006478-.475116-.390063-.858702-.86518-.86518h-5.876c-.423139.004056-.784897.305528-.86518.721v.03605l-.07213 2.99207Zm-1.73035 4.93874c2.709571 3.512845 2.634821 8.431279-.18025 11.86016-1.458552 1.498141-3.460681 2.343196-5.551565 2.343196s-4.093013-.845055-5.551565-2.343196c-1.327009-1.48236-2.092373-3.383012-2.16295-5.37132-.226498-2.419662.541351-4.827323 2.1269-6.66909 1.432321-1.557663 3.472686-2.413298 5.58762-2.34319 2.188508-.041592 4.284605.881218 5.73181 2.52344Zm22.17022-7.93081c-.064142-.430134-.430338-.750542-.86518-.757h-5.91206c-.475117.006478-.858703.390064-.86518.86518v27.32525c.006477.475119.390061.858708.86518.86519h6.2365c.382368.004251.72101-.246052.82913-.61284v-15.03253c-.115226-1.931957.445575-3.843783 1.58616-5.40737 1.09972-1.292747 2.739084-1.999145 4.434-1.9106 3.46072 0 5.191077 2.271094 5.19107 6.81328v15.57322c.117342.360239.450317.606353.82913.612915h6.2365c.230379.002962.452211-.087217.615127-.250135.162916-.162917.253092-.38475.250127-.61513v-16.76284c0-4.00146-.901304-7.06563-2.703764-9.15648-1.80246-2.1269-4.434-3.17232-7.85871-3.17232-1.832346-.035473-3.647436.359651-5.29923 1.15358-1.466893.753586-2.682114 1.918694-3.49677 3.35257l-.07203-2.88394Z"/>
    <path fill="currentColor" d="M123.29919 104.6299c.50469 1.04542 1.00937 2.59554 2.09085 3.20837.799163.323686 1.668389.435443 2.52344.32444h15.64532c.895269-.002309 1.724631-.470982 2.188488-1.236716.463856-.765733.49516-1.717845.082602-2.512394-.97333-1.87456-1.9827-3.71306-2.956-5.5876195l-6.02021-11.35548c-.338923-.5089741-.594468-1.0687634-.757-1.65826 0 0-.2163-.36049.0721-1.33382.28839-.721 3.92935-7.89476 4.14565-8.61574 1.478-4.57824 19.46653-47.94535-31.579-52.3794.385164.2069907.758274.4356682 1.11753.68493 4.361194 2.7992085 8.073181 6.4989043 10.88684 10.85079 6.347866 9.9462198 7.373264 22.3858877 2.73974 33.2373-.75714 1.778631-1.661514 3.4909161-2.70369 5.119-1.777833 2.7871134-3.937785 5.3111045-6.41674 7.49822-.595397.4123684-1.058657.9883123-1.33382 1.65826-.199843.604188-.161155 1.2619164.10814 1.83851L123.29919 104.6299ZM36.2044799 47.9606505c8.2192-5.58762 16.51051-5.94811 19.106 1.76641a1.61652935 1.61652935 0 0 0-.03605.39654c-2.2701071 19.3279054 11.3878147 36.9018093 30.67787 39.47379 3.2304414.4387247 6.506167.4265921 9.73327-.03605.79309-.10814 1.55011-.25235 2.34319-.39654.5628326-.1550547 1.1496167-.2039513 1.73035-.14419.9012301 11.0309995-33.70594 13.9149995-55.11913-12.473-5.29923-6.52489-7.85871-19.68283-8.4355-28.587"/>
    <path fill="currentColor" d="M143.09018 70.2750605c-.868334 2.7661213-1.965619 5.4550885-3.28047 8.039-.28839.54074-.54074 1.04542-.82913 1.58616-.39654.721-.82913 1.478-1.26172 2.199-.612893.7910702-1.132997 1.6498494-1.55011 2.55949l.03605-.14419c.28994-.7195095.542609-1.4534828.757-2.199 7.70555-23.9852351-4.691581-49.8086301-28.22648-58.79615-.18025-.10815-.32444-.18025-.50469-.28839 1.36986.721-6.48884-19.07000001 9.84141-16.51050001.68493.36049 1.36986.757 2.05481 1.15357 4.681784 2.80682721 8.891238 6.33498231 12.473 10.45425001 3.917453 4.4968503 7.038477 9.6294687 9.22858 15.17668 2.333532 6.0545379 3.578353 12.4739328 3.677 18.96185.175279 6.028272-.640663 12.0444096-2.41525 17.80823Z"/>
    <path fill="currentColor" d="M122.434005 14.7594005c-.00434 1.2218708-.236625 2.432206-.684935 3.56887-1.467244 3.6521502-5.004327 6.0482425-8.94018 6.05626-1.597303-.0055405-3.169023-.4015639-4.57824-1.15357-4.439294-2.4861439-9.3525157-4.0092488-14.4196501-4.47011-6.300343-.5834323-12.641091.550179-18.349 3.28047-2.7785758 1.2978728-5.3727056 2.9586013-7.71451 4.93873-2.202903 1.8478758-4.175718 3.9538289-5.876 6.27255-3.2523521 4.4816157-5.435059 9.6485959-6.38071 15.10464-17.55594-21.48533 18.49322-56.09250001 58.9403301-43.07877001.68493.18025 1.40591.39654 2.09085.61284.50469.25234 1.04542.50469 1.55011.79308h.03605c2.704724 1.79605405 4.329118 4.82826811 4.325885 8.07501001Z"/>
    <path fill="currentColor" d="M116.30566 5.78316049a11.06021311 11.06021311 0 0 0-1.87456-.50469c-3.064074-.83107957-6.204284-1.35042077-9.37278-1.55011-.93728-.0721-1.87456-.0721-2.84788-.0721-24.9789388.11425639-45.5029029 19.75138321-46.7196801 44.70093001a2.82765639 2.82765639 0 0 0-.0721.50469c-.03605.28839-.0721.57679-.10815.82913-.8575295 4.5596869-4.8412981 7.8618223-9.48092 7.8587122h-.28839c-5.2057556-.1493707-9.3457378-4.417232-9.3367347-9.6251222 0-.43259.0360647-.82913.0721147-1.22567.7186398-5.6914436 2.3497418-11.229893 4.83058-16.40236 2.6896093-5.6693061 6.3911849-10.8002232 10.92284-15.14063 4.5186775-4.3179831 9.7352797-7.84041522 15.429-10.41820001 5.7616789-2.55045378 11.9204143-4.08708194 18.20489-4.54219 3.6124768-.28241398 7.2423851-.2582944 10.85079.0721a53.68472648 53.68472648 0 0 1 7.5342701 1.18959c4.241964.95324897 8.356163 2.40532701 12.25671 4.32592Z"/>
    <path fill="currentColor" d="M107.68992 104.5578c-.50469 1.442-1.9827 1.69431-3.31652 2.01875-1.58616.39654-3.17232.68493-4.7945301.93728-2.92.43259-5.876.61284-8.796.757-3.0754863.096553-6.1532341-.096562-9.19253-.57679a61.17322865 61.17322865 0 0 1-9.48092-2.16295c-7.4756221-2.381719-14.3154729-6.4240006-20.00727-11.8240895-2.9943074-2.8433123-5.6331038-6.038929-7.85871-9.517-3.329189-5.2034069-5.7205812-10.9500717-7.06563-16.97915-1.3268059-6.2775789-1.6673507-12.7235643-1.00938-19.106v-.14419c1.3204127 23.3873331 19.7885749 42.1640683 43.15082 43.8718 1.26172.10814 2.52344.14419 3.82121.14419 5.6629816.0135421 11.2814592-1.0002241 16.5826-2.99207a.9169992.9169992 0 0 1 .25235.0721c.6978191.2187382 1.2644901.7326947 1.5501101 1.40591 1.18962 2.34319 2.37925 4.68639 3.53281 7.06563.03605.0721.0721.18025.10814.25235.61284 1.18962 1.18962 2.4152995 1.80246 3.6049095.54075 1.00937 1.15359 1.9827.72099 3.17232Z"/>
  </g>
</svg>
