<svg xmlns="http://www.w3.org/2000/svg" viewBox="0 0 64 64"><path fill="#e6e7e8" d="M55 9v46a6 6 0 0 1-6 6H15a6 6 0 0 1-6-6V9a6 6 0 0 1 6-6h34a5.8 5.8 0 0 1 2 .35A5.981 5.981 0 0 1 55 9z"/><path fill="#ffc477" d="M61 42v11.53a1.974 1.974 0 0 1-.21.89L59 58v4H49v-2l-3-4v-2.21a6.216 6.216 0 0 0-.2-1.55l-1.87-6.97a1.861 1.861 0 0 1-.07-.52 2 2 0 0 1 3.93-.51l1.16 4.3a1.981 1.981 0 0 0 1.92 1.47h.02a1.96 1.96 0 0 0 1.68-.96L55 45v-9a6 6 0 0 1 6 6zm-40.86 2.75a1.861 1.861 0 0 1-.07.52l-1.87 6.97a6.216 6.216 0 0 0-.2 1.55V56l-3 4v2H5v-4l-1.79-3.58a1.974 1.974 0 0 1-.21-.89V42a6 6 0 0 1 6-6v9l2.43 4.05a1.96 1.96 0 0 0 1.68.96h.02a1.981 1.981 0 0 0 1.92-1.47l1.16-4.3a2 2 0 0 1 3.93.51z"/><path fill="#d8d7da" d="M51 3.35V13l-3-3-3 3V3h4a5.8 5.8 0 0 1 2 .35z"/><path fill="#ff5023" d="M49 3v8l-3-3-3 3V3z"/><path fill="#d8d7da" d="M25 24v-1.77A2.94 2.94 0 0 0 26 20v-2a3 3 0 0 0-6 0v2a2.94 2.94 0 0 0 1 2.23V24a4 4 0 0 0-4 4h12a4 4 0 0 0-4-4z"/><path fill="#57565c" d="M23.12 13.88A2.993 2.993 0 0 1 24 16v.07c-2.32.29-3.68 1.57-6 1.86V16a3 3 0 0 1 5.12-2.12z"/><path fill="#3d9ae2" d="M21 24a2.006 2.006 0 0 0 2-2 4 4 0 0 1 4 4H15a4 4 0 0 1 4-4 2.006 2.006 0 0 0 2 2z"/><path fill="#ffc477" d="M19 20v2a2 2 0 0 0 4 0v-2z"/><path fill="#ffc477" d="M24 16.07V18a3 3 0 0 1-6 0v-.07c2.32-.29 3.68-1.57 6-1.86z"/><path fill="#ffb655" d="M23 20.23v1a2.982 2.982 0 0 1-4 0v-1a2.982 2.982 0 0 0 4 0z"/><path fill="#bcbec0" d="M32 25h18v2H32zm0-4h18v2H32zm0-4h2v2h-2zm4 0h14v2H36zM14 33h16v2H14zm0 4h16v2H14zm20-4h16v2H34zm0 4h16v2H34zm0 4h6v2h-6zm0 4h6v2h-6zm0 4h6v2h-6zm-10-8h6v2h-6zm0 4h6v2h-6zm0 4h6v2h-6z"/></svg>
