<svg xmlns="http://www.w3.org/2000/svg" viewBox="0 0 512 512"><path fill="#7397b8" d="M416.27 272.062H256v-30h160.27c36.244 0 65.73-29.486 65.73-65.73s-29.486-65.73-65.73-65.73H256l-15-15 15-15h160.27c52.786 0 95.73 42.944 95.73 95.73s-42.944 95.73-95.73 95.73zm.128 161.46H256l-15-15 15-15h160.398z"/><path fill="#8db3cf" d="M256 433.522H95.73C42.944 433.522 0 390.578 0 337.793c0-52.786 42.944-95.73 95.73-95.73H256v30H95.73c-36.244 0-65.73 29.486-65.73 65.73 0 36.243 29.486 65.729 65.73 65.729H256zM95.602 80.602H256v30H95.602z"/><path fill="#435d7a" d="M191.203 95.602c0 52.799-42.802 95.602-95.602 95.602l-47.8-95.603L95.602 0c52.799 0 95.601 42.802 95.601 95.602z"/><path fill="#5a7ba0" d="M95.602 0v191.203C42.802 191.203 0 148.401 0 95.602S42.802 0 95.602 0z"/><path fill="#ff3187" d="M512 416.399C512 469.198 469.198 512 416.399 512l-47.801-95.602 47.801-95.601c52.799 0 95.601 42.802 95.601 95.602z"/><path fill="#ff6270" d="M416.399 320.797V512c-52.799 0-95.602-42.802-95.602-95.601s42.802-95.602 95.602-95.602z"/><path fill="#e3f6ff" d="M448.265 416.398c0 17.6-14.267 31.867-31.867 31.867l-15.934-31.867 15.934-31.867c17.6 0 31.867 14.268 31.867 31.867z"/><path fill="#fff" d="M416.398 384.531v63.734c-17.6 0-31.867-14.267-31.867-31.867s14.268-31.867 31.867-31.867z"/><path fill="#7ed7ff" d="M176.332 418.523c0 26.4-21.401 47.801-47.801 47.801l-23.901-47.801 23.901-47.801c26.4 0 47.801 21.401 47.801 47.801z"/><path fill="#bfebff" d="M128.531 370.722v95.602c-26.4 0-47.801-21.401-47.801-47.801s21.401-47.801 47.801-47.801z"/><path fill="#7ed7ff" d="M431.27 93.477c0 26.4-21.401 47.801-47.801 47.801l-23.9-47.801 23.9-47.801c26.4 0 47.801 21.401 47.801 47.801z"/><path fill="#bfebff" d="M383.469 45.676v95.602c-26.4 0-47.801-21.401-47.801-47.801s21.401-47.801 47.801-47.801z"/><path fill="#fff" d="m95.602 95.602-37.194 37.194 21.213 21.213 15.981-15.981 30-42.426z"/><path fill="#fff" d="M95.602 53.175 79.621 37.194 58.408 58.407l37.194 37.195h30z"/><path fill="#e3f6ff" d="M95.602 53.175v84.853l42.426-42.426z"/><path fill="#7ed7ff" d="M303.801 256c0 26.4-21.401 47.801-47.801 47.801L232.1 256l23.9-47.801c26.4 0 47.801 21.401 47.801 47.801z"/><path fill="#bfebff" d="M256 208.199v95.602c-26.4 0-47.801-21.401-47.801-47.801S229.6 208.199 256 208.199z"/></svg>
