<svg xmlns="http://www.w3.org/2000/svg" aria-hidden="true" class="iconify iconify--emojione-monotone" viewBox="0 0 64 64"><path d="M7.801 14.539c1.586-1.984 4.832-2.37 7.145-2.827 1.941-.384 4.049-.612 5.881-1.394 2.596-1 2.48-4.931 3.268-4.931.588 0 2.697 3.019 4.549 3.019 1.58 0 2.58-3.697 3.453-3.697.877 0 1.871 3.697 3.451 3.697 1.854 0 3.963-3.019 4.551-3.019.785 0 .672 3.931 3.268 4.931 1.832.781 3.939 1.01 5.881 1.394 2.313.457 5.559.843 7.145 2.827.582.727 1.729-.113 1.207-.887-.656-.975-1.637-1.658-2.674-2.168-3.377-1.658-11.639-1.31-12.334-5.653-.914-5.694-5.855.062-6.771.062C34.76 5.893 34.246 2 32.096 2c-2.152 0-2.664 3.893-3.723 3.893-.916 0-5.859-5.756-6.771-.062-.695 4.344-8.959 3.995-12.334 5.653-1.037.51-2.02 1.193-2.674 2.168-.522.774.625 1.614 1.207.887"/><path d="M58 15.98a4 4 0 0 0-4 4c0 1.86 1.279 3.412 3 3.858V47.98h-.5v-2.393c0-2.303-1.537-4.107-3.5-4.107V36c0-15.464-5.535-24-21-24-15.463 0-21 8.536-21 24v5.48c-1.93 0-3.5 1.843-3.5 4.107v2.393H7V23.839a3.99 3.99 0 0 0 3-3.858 4 4 0 0 0-8 0c0 1.86 1.279 3.412 3 3.858V49.98h2.5v2.391c0 2.305 1.537 4.109 3.5 4.109V57a5 5 0 0 0 5 5h32a5 5 0 0 0 5-5v-.52c1.963 0 3.5-1.805 3.5-4.109V49.98H59V23.839a3.99 3.99 0 0 0 3-3.858 3.998 3.998 0 0 0-4-4.001m-52 6.5c-1.379 0-2.5-1.121-2.5-2.5s1.121-2.5 2.5-2.5 2.5 1.121 2.5 2.5-1.121 2.5-2.5 2.5m5 32.5c-1.104 0-2-1.168-2-2.609v-6.784c0-1.439.896-2.607 2-2.607v12M50.5 57c0 1.379-1.121 2.5-2.5 2.5H16a2.502 2.502 0 0 1-2.5-2.5V36s-.331-4.09 1.037-9.778C16.521 17.977 22.136 14.5 32 14.5s15.272 3.529 17.463 11.722C50.843 31.382 50.5 36 50.5 36v21m4.5-9.02v4.391c0 1.441-.895 2.609-2 2.609v-12c1.105 0 2 1.168 2 2.607v2.393m3-25.5c-1.379 0-2.5-1.121-2.5-2.5s1.121-2.5 2.5-2.5 2.5 1.121 2.5 2.5-1.121 2.5-2.5 2.5"/><path d="M21.5 37.5a6 6 0 0 0 6-6 6 6 0 1 0-6 6m0-8.285a2.285 2.285 0 1 1 0 4.572 2.285 2.285 0 0 1 0-4.572m21-3.715a6 6 0 1 0 0 12 6 6 0 0 0 0-12m0 8.287a2.285 2.285 0 1 1 0-4.57 2.285 2.285 0 0 1 0 4.57m1.732 7.301H19.77c-7.359 0-7.359 13 0 13h24.463c7.357 0 7.357-13-.001-13m-.72 11.5H20.488c-5.984 0-5.984-10 0-10h23.023c5.985 0 5.985 10 .001 10"/><path d="M19.193 44.514v6.148c0 1.234 2 1.234 2 0v-6.148c0-1.235-2-1.235-2 0m4.723 0v6.148c0 1.234 2 1.234 2 0v-6.148c0-1.235-2-1.235-2 0m4.723 0v6.148c0 1.234 2 1.234 2 0v-6.148c0-1.235-2-1.235-2 0m4.722 0v6.148c0 1.234 2 1.234 2 0v-6.148c0-1.235-2-1.235-2 0m4.723 0v6.148c0 1.234 2 1.234 2 0v-6.148c0-1.235-2-1.235-2 0m4.723 0v6.148c0 1.234 2 1.234 2 0v-6.148c0-1.235-2-1.235-2 0M32 39.48c.668 0 1.295-.26 1.768-.732s.732-1.102.732-1.77-.261-1.295-.732-1.766c-.945-.945-2.59-.945-3.535 0-.472.471-.732 1.098-.732 1.766s.26 1.297.732 1.77 1.099.732 1.767.732m0-4c.4 0 .777.156 1.061.439a1.485 1.485 0 0 1 .231 1.811l-2.043-2.042c.227-.131.482-.208.751-.208m-1.291.749 2.024 2.024c-.569.315-1.321.261-1.794-.212a1.495 1.495 0 0 1-.439-1.063c0-.269.076-.524.209-.749"/></svg>
