<svg xmlns="http://www.w3.org/2000/svg" xml:space="preserve" viewBox="0 0 512.002 512.002"><path fill="#f29f5c" d="M418.258 249.103 405.252 143.45l-24.372 3 .01-.017-47.25-26.591c-5.04-2.836-10.824-4.07-16.583-3.538l-74.606 6.9c-9.171.848-17.366 6.081-21.993 14.045l-52.584 90.508c-3.883 6.683-.835 15.254 6.396 17.985l2.151.812c4.138 1.563 8.391 2.468 12.642 2.822l-6.663 5.803-13.33 11.614-37.913 32.34c-6.749 5.879-7.45 16.109-1.571 22.858l3.846 4.405c7.55 8.658 20.691 9.557 29.365 2.005l14.49 16.62c4.711 5.41 11.613 7.803 18.244 6.987 3.985-.49 7.873-2.142 11.12-4.982l14.474 16.621c4.728 5.424 11.629 7.801 18.26 6.985 3.985-.491 7.874-2.127 11.122-4.966l7.866 6.798c7.552 8.673 20.708 9.57 29.382 2.018l10.693-9.329 89.896-70.012.097-.089 35.468-.035-5.651-45.914z"/><path fill="#d37d42" d="m379.731 267.833-.097.089-89.896 70.012-10.693 9.329c-8.673 7.552-21.83 6.655-29.382-2.018l-7.866-6.798c-3.248 2.839-7.138 4.476-11.122 4.966-6.631.816-13.531-1.561-18.26-6.985l-14.474-16.621c-3.248 2.839-7.136 4.491-11.12 4.982-6.631.816-13.533-1.576-18.244-6.987l-14.49-16.62c-7.426 6.466-18.118 6.718-25.781 1.227-3.93 5.926-3.616 13.958 1.283 19.582l3.846 4.405c7.55 8.658 20.691 9.557 29.365 2.005l14.49 16.62c4.711 5.41 11.613 7.803 18.244 6.987 3.985-.49 7.872-2.142 11.12-4.982l14.474 16.622c4.728 5.424 11.629 7.801 18.26 6.985 3.985-.491 7.874-2.127 11.122-4.966l7.866 6.798c7.552 8.673 20.708 9.57 29.382 2.018l10.693-9.329 89.896-70.012.097-.089 35.468-.035-3.924-31.876-40.257 4.691z"/><path fill="#f9c295" d="m396.101 313.533-48.165-41.53-13.394-11.54-9.584-8.254-41.207-35.52 4.759-40.51c1.61-13.701-7.015-26.528-20.311-30.207l-89.825-24.855c-9.504-2.63-19.549 1.78-24.045 10.557l-11.296 22.05-48.488-3.291-12.42 105.724-5.398 45.945 47.198 3.139.098.089 98.602 84.993 10.745 9.27c8.715 7.504 21.866 6.534 29.37-2.181l14.38-16.686c3.263 2.821 7.162 4.436 11.15 4.905 6.635.78 13.523-1.636 18.221-7.086l14.382-16.701c3.263 2.821 7.16 4.452 11.148 4.92 6.635.78 13.524-1.651 18.205-7.088l14.397-16.7c8.715 7.504 21.851 6.532 29.353-2.168l3.822-4.427c5.842-6.78 5.084-17.006-1.697-22.848z"/><g fill="#e59f6a"><path d="m396.101 313.533-14.671-12.65c4.768 6.323 4.67 15.318-.711 21.564l-4.057 4.699c-7.964 9.235-21.908 10.267-31.16 2.301l-15.284 17.728c-4.969 5.771-12.282 8.351-19.326 7.524-4.233-.497-8.37-2.228-11.834-5.223l-15.268 17.73c-4.987 5.785-12.298 8.349-19.342 7.522-4.233-.497-8.372-2.212-11.836-5.207l-15.266 17.714c-2.876 3.341-6.539 5.592-10.474 6.752l6.499 5.607c8.715 7.504 21.866 6.534 29.37-2.181l14.38-16.686c3.263 2.821 7.162 4.436 11.15 4.905 6.635.779 13.523-1.636 18.221-7.086l14.382-16.701c3.263 2.821 7.16 4.452 11.148 4.92 6.635.78 13.524-1.651 18.205-7.088l14.397-16.7c8.715 7.504 21.851 6.532 29.353-2.168l3.822-4.427c5.841-6.781 5.083-17.007-1.698-22.849z"/><path d="m369.5 337.416-26.392-22.756c-3.135-2.704-7.872-2.354-10.578.783-2.705 3.137-2.354 7.873.783 10.578l26.345 22.716 4.966-5.76c1.982 1.707 4.199 2.952 6.52 3.791 1.713-3.049 1.106-6.981-1.644-9.352zm-42.197 28.211c1.807-3.065 1.228-7.074-1.562-9.48l-23.708-20.441c-3.137-2.704-7.872-2.354-10.578.783-2.705 3.137-2.354 7.873.783 10.578l23.708 20.441c.01.008.02.015.03.023l4.898-5.688c1.953 1.689 4.137 2.942 6.429 3.784z"/></g><g fill="#f29f5c"><path d="m126.385 305.135-5.713 7.544c-6.221 8.215-4.605 19.918 3.61 26.14 8.215 6.221 19.918 4.605 26.14-3.61l5.713-7.544c6.221-8.215 4.605-19.918-3.61-26.14-8.215-6.221-19.919-4.605-26.14 3.61zm34.796 15.867-10.759 14.207c-6.221 8.215-4.605 19.918 3.61 26.14 8.215 6.221 19.918 4.605 26.14-3.61l10.759-14.207c6.221-8.215 4.605-19.918-3.61-26.14-8.216-6.221-19.919-4.605-26.14 3.61z"/><path d="m194.834 338.377-14.663 19.362c-6.221 8.215-4.605 19.918 3.61 26.14 8.215 6.221 19.918 4.605 26.14-3.61l14.663-19.362c6.221-8.215 4.605-19.918-3.61-26.14-8.215-6.222-19.918-4.605-26.14 3.61z"/><path d="m225.435 359.783-15.514 20.485c-6.221 8.215-4.605 19.918 3.61 26.14 8.215 6.221 19.918 4.605 26.14-3.61l15.514-20.485c6.221-8.215 4.605-19.918-3.61-26.14-8.216-6.221-19.919-4.605-26.14 3.61zm155.455-213.35-47.25-26.591c-5.04-2.836-10.824-4.07-16.583-3.538l-74.606 6.9c-9.171.848-17.366 6.081-21.993 14.045l-52.584 90.508c-3.883 6.684-.835 15.254 6.396 17.985l2.151.812c19.275 7.28 41.043 1.085 53.596-15.252l20.147-26.22s48.429 56.073 101.749-9.41"/></g><path fill="#5c9cee" d="m511.945 309.145-24.713-200.751c-.243-1.974-1.26-3.771-2.828-4.995-1.568-1.224-3.557-1.774-5.532-1.532l-57.788 7.114c-15.009 1.848-25.716 15.562-23.868 30.57l19.844 161.2c1.708 13.877 13.559 24.076 27.2 24.076 1.112 0 2.239-.068 3.37-.207l57.788-7.114c4.11-.507 7.033-4.25 6.527-8.361z"/><path fill="#3580d3" d="m511.945 309.145-2.713-22.036c-1.23 1.805-3.194 3.095-5.532 3.383l-60.577 7.457c-1.186.146-2.367.217-3.533.217-10.2 0-19.441-5.442-24.553-13.84l2.022 16.424c1.708 13.877 13.559 24.076 27.2 24.076 1.112 0 2.239-.068 3.37-.207l57.788-7.114c4.111-.506 7.034-4.249 6.528-8.36z"/><path fill="#ed5575" d="m90.918 108.98-57.788-7.114c-1.977-.243-3.964.308-5.532 1.532s-2.585 3.021-2.828 4.995L.057 309.145c-.506 4.111 2.417 7.854 6.527 8.36l57.788 7.114c1.132.139 2.257.207 3.37.207 13.64 0 25.492-10.2 27.2-24.076l19.844-161.2c1.848-15.008-8.859-28.722-23.868-30.57z"/><path fill="#cc3a60" d="m.057 309.145 2.713-22.036c1.23 1.805 3.194 3.095 5.532 3.383l60.577 7.457c1.186.146 2.367.217 3.533.217 10.2 0 19.441-5.442 24.553-13.84l-2.022 16.424c-1.708 13.877-13.559 24.076-27.2 24.076-1.112 0-2.239-.068-3.37-.207l-57.788-7.114c-4.112-.506-7.034-4.249-6.528-8.36z"/><g fill="#ebeef2"><circle cx="464" cy="277.001" r="14.498"/><circle cx="47.19" cy="277.001" r="14.498"/></g></svg>
