<svg xmlns="http://www.w3.org/2000/svg" viewBox="0 0 128 128"><path fill="#c1cdd3" d="m35.46 64 62.93-37.94-3.15-6.56-68.88 40.8v7.4l71.84 40.8 3.15-6.56z"/><circle cx="29.44" cy="64" r="24" fill="#ef5361" transform="rotate(-67.48 29.46530683 63.99360857)"/><path fill="#da2a47" d="M53.44 64A24 24 0 0 1 8.78 76.2 24 24 0 0 0 47.7 57.41a23.76 23.76 0 0 0-3.33-12.18A23.86 23.86 0 0 1 53.44 64z"/><circle cx="99.78" cy="105.22" r="22.78" fill="#faba59" transform="rotate(-67.48 99.8163739 105.2020592)"/><path fill="#f2a846" d="M122.56 105.22a22.78 22.78 0 0 1-42.39 11.58A22.77 22.77 0 0 0 114 87.41a22.68 22.68 0 0 1 8.56 17.81z"/><circle cx="98.3" cy="22.78" r="22.78" fill="#78c161" transform="rotate(-67.48 98.3154646 22.74961218)"/><path fill="#65b54e" d="M121.08 22.78a22.78 22.78 0 0 1-42.39 11.58A22.77 22.77 0 0 0 112.47 5a22.65 22.65 0 0 1 8.61 17.78z"/></svg>
