<svg viewBox="0 0 463.008 463.008"><path d="M461.948 277.176c-5.102-54.26-29.787-105.32-69.508-143.775-39.7-38.435-91.534-61.491-145.954-64.921-32.748-2.063-64.741 2.568-95.101 13.767-29.183 10.764-55.532 27.07-78.317 48.464-22.823 21.43-40.788 46.754-53.396 75.27C6.619 235.503 0 266.969 0 299.506c0 25.446 4.115 50.473 12.231 74.387 4.285 12.628 16.254 21.113 29.781 21.113h378.973c13.529 0 25.499-8.487 29.786-21.12 10.532-31.035 14.292-63.574 11.177-96.71zm-25.382 91.89c-2.22 6.543-8.481 10.94-15.581 10.94H42.013c-7.098 0-13.357-4.394-15.576-10.934C18.848 346.715 15 323.309 15 299.506c0-30.435 6.188-59.86 18.391-87.46 11.791-26.667 28.595-50.354 49.945-70.4 40.581-38.103 92.687-58.644 148.015-58.644 4.708 0 9.442.148 14.192.448 105.021 6.62 191.634 90.507 201.472 195.13 2.916 31.02-.599 61.464-10.449 90.486z"/><path d="m323.089 197.441-96 69.818c-.519.377-.967.814-1.359 1.286-14.622 2.719-25.73 15.563-25.73 30.961 0 17.369 14.131 31.5 31.5 31.5 15.395 0 28.236-11.104 30.959-25.721.474-.393.909-.847 1.288-1.368l69.818-96c2.171-2.984 1.848-7.105-.762-9.714-2.61-2.61-6.73-2.933-9.714-.762zM231.5 316.006c-9.098 0-16.5-7.402-16.5-16.5s7.402-16.5 16.5-16.5 16.5 7.402 16.5 16.5-7.402 16.5-16.5 16.5zm27.745-31.401c-2.93-5.435-7.41-9.914-12.844-12.844l47.096-34.251-34.252 47.095z"/><path d="M415.813 223.161c-.023-.055-.052-.106-.076-.16-9.964-23.905-24.448-45.469-42.381-63.621-.236-.328-.493-.646-.788-.941-.295-.295-.612-.552-.94-.787-18.15-17.932-39.711-32.414-63.612-42.378-.058-.026-.112-.057-.17-.081-.069-.029-.14-.048-.21-.075-23.473-9.729-49.186-15.111-76.136-15.111-26.949 0-52.662 5.383-76.135 15.111-.07.027-.141.046-.21.075-.059.024-.113.055-.17.081-23.901 9.964-45.462 24.446-63.612 42.378-.328.235-.645.492-.94.787-.295.295-.552.613-.788.941-17.934 18.153-32.418 39.717-42.381 63.622-.024.054-.053.104-.076.159-.027.065-.045.132-.071.198C37.385 246.835 32 272.552 32 299.506c0 19.766 2.909 39.342 8.646 58.185.962 3.158 3.874 5.315 7.175 5.315H415.18c3.301 0 6.213-2.158 7.175-5.315 5.736-18.84 8.646-38.417 8.646-58.185 0-26.954-5.385-52.671-15.116-76.147-.026-.066-.044-.133-.072-.198zm-6.277 124.845H53.465c-3.638-13.374-5.736-27.117-6.296-41H63.5c4.143 0 7.5-3.358 7.5-7.5s-3.357-7.5-7.5-7.5H47.165c.79-19.645 4.654-38.51 11.143-56.12l15.11 6.259c.938.389 1.91.573 2.867.573 2.943 0 5.735-1.744 6.932-4.632 1.586-3.827-.231-8.214-4.059-9.799l-15.082-6.247c8.125-17.491 18.91-33.502 31.835-47.515l11.491 11.491c1.465 1.464 3.385 2.197 5.304 2.197s3.839-.732 5.304-2.197c2.929-2.929 2.929-7.678 0-10.606l-11.492-11.492c14.012-12.926 30.024-23.71 47.515-31.835l6.248 15.083c1.196 2.888 3.988 4.632 6.932 4.632.956 0 1.929-.184 2.867-.573 3.827-1.585 5.645-5.973 4.059-9.799l-6.259-15.109c17.61-6.49 36.476-10.354 56.121-11.144v16.335c0 4.142 3.357 7.5 7.5 7.5s7.5-3.358 7.5-7.5v-16.335c19.645.79 38.511 4.654 56.121 11.144l-6.259 15.109c-1.586 3.827.231 8.214 4.059 9.799.938.389 1.91.573 2.867.573 2.943 0 5.735-1.744 6.932-4.632l6.248-15.083c17.491 8.125 33.502 18.91 47.515 31.835l-11.492 11.492c-2.929 2.929-2.929 7.678 0 10.606 1.465 1.464 3.385 2.197 5.304 2.197s3.839-.732 5.304-2.197l11.491-11.491c12.926 14.012 23.71 30.024 31.835 47.515l-15.082 6.247c-3.827 1.585-5.645 5.973-4.059 9.799 1.196 2.888 3.988 4.632 6.932 4.632.956 0 1.929-.184 2.867-.573l15.11-6.259c6.489 17.61 10.354 36.476 11.143 56.12H399.5c-4.143 0-7.5 3.358-7.5 7.5s3.357 7.5 7.5 7.5h16.332c-.561 13.885-2.659 27.627-6.296 41z"/></svg>
