<svg xmlns="http://www.w3.org/2000/svg" xml:space="preserve" viewBox="0 0 425.139 425.139"><path d="M159.171 184.204c0 4.971-4.029 9-9 9H71.397c-4.971 0-9-4.029-9-9s4.029-9 9-9h78.774c4.971 0 9 4.029 9 9zm-27.717 28.774H90.116c-4.971 0-9 4.029-9 9s4.029 9 9 9h41.338c4.971 0 9-4.029 9-9s-4.03-9-9-9zM422.25 330.891c3.649 3.375 3.871 9.068.496 12.718-15.011 16.229-39.605 14.724-70.741 12.82-37.931-2.321-85.136-5.207-135.15 21.88-2.674 1.447-5.898 1.447-8.572 0-20.516-11.112-40.563-17.18-59.688-20.312v41.263c0 3.188-1.687 6.139-4.434 7.756-2.747 1.616-6.145 1.66-8.933.114l-24.442-13.563-24.445 13.563c-1.359.754-2.863 1.13-4.366 1.13-1.58 0-3.159-.415-4.566-1.244-2.747-1.618-4.434-4.567-4.434-7.756v-42.822c-31.061 1.902-55.598 3.372-70.582-12.829-3.375-3.649-3.153-9.343.496-12.719 3.65-3.372 9.343-3.152 12.718.496 9.217 9.965 30.052 8.689 56.428 7.076 37.1-2.27 87.551-5.353 140.534 21.762 52.983-27.115 103.436-24.032 140.535-21.762 26.377 1.613 47.212 2.888 56.428-7.076 3.376-3.65 9.07-3.869 12.718-.495zm-291.655 24.938c-13.865-1.105-27.136-.938-39.62-.387v28.532l15.444-8.569c2.716-1.506 6.017-1.505 8.733 0l15.442 8.569v-28.145zm135.37-209.401c0 4.971 4.029 9 9 9h78.774c4.971 0 9-4.029 9-9s-4.029-9-9-9h-78.774c-4.97 0-9 4.03-9 9zM425.139 25.88v273.557c0 2.266-.854 4.448-2.393 6.111-15.011 16.227-39.605 14.723-70.741 12.819-37.922-2.318-85.123-5.203-135.125 21.866-.098.054-.197.105-.296.154-1.285.642-2.655.947-4.007.947-.627 0-2.549-.161-4.42-1.156C158 313.523 111.032 316.05 73.135 318.366c-31.138 1.904-55.731 3.407-70.741-12.819C.854 303.885 0 301.702 0 299.436V25.878c0-3.172 1.669-6.109 4.395-7.732 2.725-1.623 6.103-1.69 8.892-.182 50.013 27.088 97.22 24.2 135.148 21.881 26.927-1.646 48.961-2.994 64.135 7.168 15.174-10.163 37.207-8.814 64.134-7.167 37.934 2.323 85.137 5.207 135.149-21.88 2.789-1.51 6.167-1.441 8.892.182 2.724 1.622 4.394 4.56 4.394 7.732zM203.568 62.735c-10.142-7.609-29.736-6.412-54.035-4.924C114.542 59.949 67.669 62.816 18 40.382v255.096c10.143 7.607 29.738 6.409 54.035 4.924 11.057-.677 23.304-1.426 36.447-1.426 28.449 0 61.112 3.509 95.086 18.854V62.735zm203.571-22.351c-49.669 22.434-96.542 19.567-131.534 17.429-24.3-1.485-43.894-2.685-54.036 4.924V317.83c49.67-22.433 96.544-19.568 131.535-17.428 24.297 1.485 43.893 2.684 54.036-4.924V40.384zm-53.399 134.82h-78.774c-4.971 0-9 4.029-9 9s4.029 9 9 9h78.774c4.971 0 9-4.029 9-9s-4.03-9-9-9zm-203.569-37.776H71.397c-4.971 0-9 4.029-9 9s4.029 9 9 9h78.774c4.971 0 9-4.029 9-9s-4.029-9-9-9zm184.85 75.55h-41.336c-4.971 0-9 4.029-9 9s4.029 9 9 9h41.336c4.971 0 9-4.029 9-9s-4.029-9-9-9z"/></svg>
