<svg xmlns="http://www.w3.org/2000/svg" viewBox="0 0 512 512"><path fill="#e8834d" d="M336.835 54.806c-.831-.634-8.527-6.359-22.236-11.868-17.661-7.098-37.926-10.85-58.603-10.85s-40.941 3.752-58.604 10.85c-13.708 5.509-21.404 11.234-22.236 11.869-4.174 3.183-6.624 8.132-6.624 13.381v26.401l16.827 9 16.828-9V77.717c9.235-4.713 27.703-11.975 53.808-11.975 26.106 0 44.573 7.262 53.808 11.975v16.871l16.827 9 16.828-9v-26.4c.002-5.25-2.448-10.199-6.623-13.382z"/><path fill="#d66e41" d="M168.533 94.589v18.58l16.828 9 16.828-9v-18.58zm174.927 0h-33.655v18.58l16.828 9 16.827-9z"/><path fill="#365e7d" d="M13.247 298.286v149.492c0 17.747 14.387 32.134 32.134 32.134h421.238c17.747 0 32.134-14.387 32.134-32.134V298.286z"/><path fill="#2b4d66" d="M13.247 279.706v18.581C39.943 319.483 110.499 360.63 256 360.63s216.057-41.147 242.753-62.344v-18.581H13.247z"/><path fill="#407093" d="M11.852 269.005c25.585 20.83 96.043 63.464 244.148 63.464s218.562-42.634 244.148-63.464c7.5-6.106 11.852-24.256 11.852-33.927v-89.775c0-17.747-14.387-32.134-32.134-32.134H32.134C14.387 113.169 0 127.556 0 145.303v89.775c0 9.671 4.352 27.821 11.852 33.927z"/><path fill="#365e7d" d="M500.148 260.005c-25.585 20.83-96.043 63.464-244.148 63.464S37.438 280.834 11.852 260.005C4.352 253.899 0 244.749 0 235.078v18.581c0 9.671 4.352 18.821 11.852 24.927C37.437 299.416 107.895 342.05 256 342.05s218.562-42.634 244.148-63.464c7.5-6.106 11.852-15.256 11.852-24.927v-18.581c0 9.671-4.352 18.821-11.852 24.927z"/><path fill="#ffe27a" d="M255.997 372.974c16.624 0 30.1-12.344 30.1-39.1v-18.25c0-5.916-4.796-10.711-10.711-10.711h-38.778c-5.916 0-10.711 4.796-10.711 10.711v18.253c-.001 26.753 13.476 39.097 30.1 39.097z"/><path fill="#f9cf58" d="M255.997 363.974c-16.624 0-30.1-13.476-30.1-30.1v18.581c0 16.624 13.476 30.1 30.1 30.1s30.1-13.476 30.1-30.1v-18.581c0 16.623-13.476 30.1-30.1 30.1z"/></svg>
