<svg xmlns="http://www.w3.org/2000/svg" xml:space="preserve" viewBox="0 0 512 512"><path fill="#455a64" d="M368 48.992H144L22.08 88.8C8.896 93.088 0 105.376 0 119.232V480c0 17.664 14.336 32 32 32h448c17.664 0 32-14.336 32-32V119.232c0-13.856-8.896-26.112-22.08-30.432L368 48.992z"/><path fill="#cfd8dc" d="M144 48.992 256 384 368 48.992z"/><path fill="#ef5350" d="M224 80h64l-32 80z"/><path fill="#b0bec5" d="M160 0h192l-96 80z"/><path fill="#ef5350" d="m192 288 48-176h32l48 176-64 96z"/><circle cx="256" cy="464" r="16" fill="#37474f"/><g fill="#546e7a"><path d="m271.104 378.72-112-320c-1.92-5.472-6.688-9.504-12.416-10.464-5.632-.96-11.52 1.248-15.2 5.76l-64 80c-3.488 4.352-4.416 10.208-2.528 15.456 1.92 5.248 6.432 9.12 11.904 10.208l50.688 10.144-26.88 26.848c-5.792 5.824-6.272 15.104-1.056 21.44l144 176C246.752 397.984 251.328 400 256 400c2.656 0 5.344-.672 7.808-2.016 6.784-3.84 9.856-11.968 7.296-19.264z"/><path d="m240.896 378.72 112-320c1.952-5.504 6.688-9.504 12.416-10.496 5.632-.96 11.52 1.248 15.2 5.76l64 80c3.488 4.384 4.448 10.24 2.528 15.488-1.92 5.248-6.432 9.12-11.904 10.208l-50.688 10.144 26.848 26.848c5.824 5.824 6.272 15.072 1.088 21.44l-144 176C265.248 397.984 260.672 400 256 400c-2.656 0-5.344-.672-7.808-2.016-6.784-3.84-9.856-11.968-7.296-19.264z"/></g><path fill="#eceff1" d="m352 0 16 48.992L320 144l-64-64zM160 0l-16 48.992L192 144l64-64z"/></svg>
