<svg xmlns="http://www.w3.org/2000/svg" viewBox="0 0 512 512"><path fill="#57e59e" d="M460.879 401.365c25.355-38.582 40.119-84.746 40.119-134.364 0-135.309-109.69-244.999-244.999-244.999S11.001 131.692 11.001 267.001c0 49.619 14.765 95.782 40.119 134.364z"/><path fill="#4a3040" d="M349.646 246.569c6.463-19.283 16.52-37.866 4.224-60.762-3.612-6.724-6.219-13.679-8.108-20.085H166.238c-1.889 6.406-4.496 13.36-8.108 20.085-12.297 22.896-2.24 41.48 4.223 60.762 2.422 7.225 2.992 15.079 1.695 22.662-2.02 11.811-3.435 23.593-3.033 34.797h189.968c.402-11.204-1.012-22.986-3.032-34.797-1.296-7.584-.726-15.437 1.695-22.662z"/><path fill="#4a3040" d="M250.801 165.722h-84.563c-1.889 6.406-4.497 13.36-8.108 20.085-12.297 22.896-2.24 41.48 4.223 60.762 2.422 7.226 2.992 15.079 1.695 22.662-2.02 11.811-3.435 23.593-3.033 34.797H250.8V165.722z"/><path fill="#301e2a" d="M279.526 165.722H166.238c-1.889 6.406-4.497 13.36-8.108 20.084-12.297 22.896-2.24 41.48 4.223 60.762 2.422 7.225 2.992 15.078 1.695 22.662-2.02 11.811-3.435 23.593-3.033 34.797h118.51V165.722z"/><path fill="#fcad6d" d="M202.506 279.819c10.532 11.897 23.678 21.407 38.809 27.953 9.745 4.215 20.919 4.215 30.663 0 14.875-6.436 27.835-15.733 38.276-27.349l.002.001c-8.084-6.252-13.345-13.419-13.345-21.493v-7.663c-9.913 8.861-26.91 20.151-40.909 20.49-13.999-.339-30.997-11.629-40.909-20.49v7.663c0 7.817-4.939 14.78-12.587 20.888-.002.001-.001 0 0 0z"/><path fill="#fd995b" d="M253.64 271.598c-13.507-1.43-29.188-11.96-38.549-20.329v7.663c0 7.817-4.939 14.78-12.587 20.888 0 0 .001 0 .001-.001 7.206 8.14 15.637 15.161 25.089 20.881 1.118 0 2.128.03 2.949.074 1.718.092 3.449-.267 4.918-1.162 10.443-6.36 15.634-18.554 18.179-28.014z"/><path fill="#4a3040" d="M178.017 123.166c1.125-3.683 2.666-6.872 4.748-9.219 1.875-2.112 3.051-4.727 3.134-7.522.488-16.333 6.765-66.668 67.055-43.556 2.369.908 5.013.908 7.382 0 60.29-23.112 66.568 27.222 67.055 43.556.083 2.795 1.26 5.41 3.134 7.522 2.083 2.347 3.623 5.536 4.749 9.219 3.055-2.036 7.797-3.441 12.083-3.34l.001-.012V82.755c0-30.042-16.747-57.883-43.924-71.905C291.02 4.445 275.583 0 256.646 0c-18.936 0-34.374 4.445-46.789 10.85-27.177 14.021-43.925 41.863-43.925 71.905v37.059l.001.012c4.287-.101 9.029 1.304 12.084 3.34z"/><path fill="#301e2a" d="M165.932 82.755v37.059l.001.013c4.287-.101 9.029 1.304 12.084 3.34 1.125-3.683 2.666-6.872 4.748-9.219 1.875-2.113 3.051-4.727 3.135-7.522.482-16.136 6.621-65.448 64.901-44.352v-.676C227.268 23.079 256.646 0 256.646 0c-18.936 0-34.374 4.445-46.789 10.85-27.177 14.021-43.925 41.863-43.925 71.905z"/><path fill="#fcad6d" d="M177.27 172.85s-4.92-31.139.747-49.684c-5.142-3.428-15.076-5.101-19.544-.733-9.148 8.943-2.445 22.448.762 30.979.985 2.619 1.62 5.268 1.907 7.923.624 5.767 3.751 14.208 16.716 14.009-.196-.832-.397-1.65-.588-2.494z"/><path fill="#fd995b" d="M175.294 145.716c-2.269 1.183-4.843 1.861-7.579 1.861-5.135 0-9.718-2.358-12.731-6.048 1.165 4.346 2.981 8.505 4.251 11.883.985 2.619 1.62 5.268 1.907 7.923.624 5.767 3.751 14.208 16.716 14.009-.196-.831-.397-1.649-.588-2.493 0-.001-2.044-12.96-1.976-27.135z"/><path fill="#fcad6d" d="M354.82 122.433c-4.468-4.368-14.402-2.695-19.544.733 5.667 18.544.747 49.684.747 49.684-.191.844-.392 1.662-.588 2.493 12.965.199 16.092-8.242 16.716-14.009.287-2.654.923-5.304 1.907-7.923 3.207-8.53 9.91-22.035.762-30.978z"/><path fill="#fd995b" d="M346.867 147.577c-3.27 0-6.31-.967-8.87-2.614.146 14.467-1.974 27.887-1.974 27.887-.191.844-.392 1.662-.588 2.493 12.965.199 16.092-8.242 16.716-14.009.287-2.655.923-5.303 1.907-7.923 1.084-2.883 2.566-6.336 3.702-9.987-2.902 2.576-6.709 4.153-10.893 4.153z"/><path fill="#fcd2ae" d="M331.01 113.518c-1.868-2.105-2.895-4.565-2.971-7.113-.289-9.696-2.738-33.43-19.185-44.382-11.667-7.769-28.068-7.688-48.748.242-2.231.856-4.689.856-6.921 0-20.68-7.928-37.081-8.01-48.746-.244-16.448 10.952-18.896 34.687-19.186 44.383-.076 2.549-1.103 5.007-2.973 7.113-10.299 11.606-8.044 45.514-5.641 59.474 5.321 23.488 13.03 43.969 22.908 60.875 10.028 17.162 25.215 30.51 43.918 38.602 8.377 3.623 17.983 3.624 26.359 0 18.703-8.092 33.89-21.44 43.918-38.602 9.877-16.901 17.585-37.383 22.918-60.917 2.31-14.674 4.768-47.692-5.65-59.431z"/><path fill="#00cbfe" d="M449.011 352.699c-12.71-25.419-33.531-35.347-46.928-39.205-18.179 13.433-66.065 42.697-146.082 50.022-80.018-7.326-127.904-36.589-146.083-50.022-13.398 3.857-34.219 13.786-46.928 39.205-6.001 12.003-10.027 28.582-12.527 47.667C94.15 467.558 169.88 512 256 512s161.85-44.442 205.538-111.635c-2.501-19.084-6.526-35.664-12.527-47.666z"/><path fill="#03b2ef" d="M109.918 313.494c-13.398 3.857-34.219 13.786-46.928 39.205-6.001 12.003-10.027 28.582-12.527 47.667C70.028 430.458 96.025 455.982 126.5 475v-77.884c0-34.012 22.88-46.526 33.388-50.479 1.985-.747 3.615-2.159 4.633-3.95-26.852-10.42-44.933-22.047-54.603-29.193z"/><path fill="#fcad6d" d="M244.881 233.867c-9.878-16.906-17.586-37.387-22.908-60.875-.353-2.049-.701-4.536-1.008-7.31-.65.023-1.304.04-1.965.04-15.602 0-28.25-6.706-28.25-14.978s12.648-14.977 28.25-14.977c.488 0 .973.007 1.455.02.877-9.21 2.988-17.568 7.159-22.268 1.87-2.105 2.897-4.564 2.973-7.113.289-9.696 2.738-33.431 19.185-44.383.334-.222.686-.416 1.028-.625-19.553-7.032-35.15-6.839-46.362.625-16.448 10.952-18.896 34.687-19.185 44.383-.076 2.549-1.103 5.007-2.972 7.113-10.3 11.606-8.044 45.514-5.641 59.474 5.321 23.488 13.03 43.969 22.908 60.875 10.028 17.162 25.215 30.51 43.918 38.602 8.377 3.623 17.983 3.624 26.359 0 3.275-1.417 6.436-3.005 9.487-4.737-14.37-8.158-26.159-19.71-34.431-33.866z"/><path fill="#f23f56" d="M406.32 303.511c-10.382-10.87-23.208-10.417-28.663-9.604-1.665.248-3.303-.422-4.4-1.701-8.933-10.415-21.253-10.259-26.599-9.598-1.573.194-3.164-.377-4.174-1.602-3.136-3.807-6.978-6.002-10.777-7.221-7.945-2.549-16.58-.101-22.557 5.732-10.503 10.249-22.935 18.585-36.894 24.638-5.172 2.242-10.707 3.397-16.257 3.489-5.55-.092-11.085-1.248-16.257-3.489-13.958-6.053-26.391-14.389-36.894-24.638-5.999-5.853-14.672-8.29-22.637-5.706-3.773 1.224-7.583 3.415-10.697 7.195-1.009 1.225-2.601 1.796-4.173 1.602-5.346-.661-17.665-.817-26.599 9.598-1.097 1.279-2.735 1.949-4.4 1.701-5.455-.813-18.281-1.266-28.663 9.604-2.577 2.698-2.219 7.072.707 9.385 12.169 9.616 47.196 33.639 106.683 46.341 14.108 3.012 28.506 4.483 42.93 4.483s28.822-1.471 42.93-4.483c59.487-12.703 94.514-36.726 106.683-46.341 2.928-2.314 3.286-6.687.708-9.385z"/><path fill="#e21e3f" d="M230.543 300.774c.631.034 1.26-.016 1.881-.108-11.005-5.631-20.949-12.733-29.575-21.149-5.999-5.853-14.672-8.29-22.637-5.706-3.773 1.224-7.583 3.415-10.697 7.195-1.009 1.225-2.601 1.796-4.173 1.602-5.346-.661-17.665-.817-26.599 9.598-1.097 1.279-2.735 1.949-4.4 1.701-5.455-.813-18.281-1.266-28.663 9.604-2.577 2.698-2.219 7.072.707 9.385 8.262 6.528 27.074 19.696 56.909 31.455 1.102-1.174 1.889-2.631 2.201-4.262 1.986-10.403 10.169-14.078 15.411-15.372 2.528-.624 4.775-2.175 6.009-4.468 3.484-6.476 10.108-8.474 14.383-9.076 2.269-.32 4.328-1.52 5.713-3.346 5.461-7.202 18.195-7.341 23.53-7.053zM347.73 110.093c-.424-4.767-5.817-7.171-9.733-4.42-13.48 9.469-36.029 10.616-40.27 10.726h.073c-.082 0-.163.004-.245.005.053-.001.111-.003.172-.004-.771.001-.874.014-.449.009-10.862.1-20.768 3.303-28.328 8.537-3.757 2.601-8.039 3.847-12.303 3.761-4.265.086-8.546-1.161-12.303-3.761-7.561-5.234-17.466-8.437-28.328-8.537.425.005.322-.008-.449-.009.061.002.119.003.172.004-.082-.001-.163-.005-.245-.005h.073c-4.241-.109-26.789-1.257-40.27-10.726-3.916-2.751-9.309-.347-9.733 4.42-1.613 18.119-1.271 49.986 18.367 63.864v-.012c16.219 13.335 42.912 14.168 60.412 2.053 3.757-2.6 8.039-3.847 12.303-3.761 4.264-.086 8.546 1.161 12.303 3.761 17.5 12.115 44.193 11.282 60.412-2.053v.012c19.64-13.878 19.982-45.745 18.369-63.864zm-129.402 51.461c-13.822-.105-24.836-5.161-24.599-11.292.236-6.132 11.633-11.017 25.455-10.912 13.822.104 24.836 5.161 24.599 11.292-.236 6.131-11.633 11.017-25.455 10.912zm76.64 0c-13.822.105-25.219-4.781-25.455-10.913-.236-6.131 10.777-11.188 24.599-11.292 13.822-.105 25.219 4.781 25.455 10.912.236 6.132-10.777 11.188-24.599 11.293z"/><path fill="#d30532" d="M215.568 116.399c.061.001.119.003.172.004-.082-.001-.163-.005-.245-.005.029 0 .045.001.073.001-4.24-.109-26.789-1.257-40.27-10.726-3.916-2.751-9.309-.347-9.733 4.42-1.613 18.119-1.271 49.986 18.367 63.864v-.012c10.742 8.831 26.075 12.174 40.291 9.909-13.414-11.586-4.648-20.808-2.983-22.354-.957.042-1.928.062-2.913.055-13.822-.105-24.836-5.161-24.599-11.292.236-6.132 11.633-11.018 25.455-10.913.703.005 1.397.027 2.085.057-8.976-13.53 2.763-21.542 3.744-22.177-2.901-.505-5.908-.792-8.996-.821.426.004.322-.009-.448-.01z"/><path fill="#fecb32" d="M214.201 508.44C227.785 510.776 241.749 512 256 512s28.215-1.224 41.798-3.56l-2.732-15.931c-.317-1.849.296-3.735 1.639-5.044l28.147-27.436c3.382-3.296 1.516-9.04-3.158-9.719l-38.898-5.652c-1.856-.27-3.46-1.435-4.29-3.117l-17.396-35.247c-2.09-4.235-8.129-4.235-10.219 0l-17.396 35.247c-.83 1.682-2.435 2.847-4.29 3.117l-38.898 5.652c-4.674.679-6.54 6.423-3.158 9.719l28.147 27.436c1.343 1.309 1.956 3.195 1.639 5.044z"/><path fill="#ffae1e" d="M235.261 448.483c-3.137-.667-4.917-2.199-5.917-3.855-.047.008-.093.022-.14.029l-38.898 5.652c-4.674.679-6.54 6.423-3.158 9.719l28.147 27.436c1.343 1.309 1.956 3.195 1.639 5.044l-2.732 15.931C227.785 510.776 241.749 512 256 512c2.614 0 5.215-.055 7.81-.137-4.494-5.909-4.499-15.275-4.499-26.846 0-17-24.05-36.534-24.05-36.534z"/><path fill="#ffe089" d="m301.007 491.65 28.032-27.325c3.212-3.13 4.347-7.725 2.961-11.99-1.386-4.267-5.004-7.317-9.443-7.963l-38.74-5.63-17.326-35.104c-1.985-4.022-6.005-6.521-10.49-6.521s-8.505 2.499-10.49 6.521l-17.325 35.104-38.741 5.63c-4.439.645-8.058 3.696-9.443 7.963-1.386 4.266-.251 8.86 2.96 11.99l28.033 27.325-2.694 15.704c3.91.772 7.852 1.452 11.826 2.035l2.721-15.865c.652-3.797-.605-7.668-3.363-10.357l-27.708-27.009 38.291-5.564c3.812-.553 7.105-2.945 8.81-6.399L256 409.498l17.124 34.695c1.704 3.455 4.997 5.848 8.809 6.401l38.292 5.564-27.709 27.01c-2.757 2.689-4.015 6.56-3.363 10.354l2.722 15.867c3.974-.583 7.917-1.264 11.827-2.035z"/><path fill="#fecb32" d="M189.443 444.372c-4.439.645-8.058 3.696-9.443 7.963-1.386 4.266-.251 8.86 2.96 11.99l28.033 27.325-2.694 15.704c3.91.772 7.852 1.452 11.826 2.035l2.721-15.865c.652-3.797-.605-7.668-3.363-10.357l-27.708-27.009 38.291-5.564c1.906-.276 3.682-1.013 5.195-2.112-8.384-1.784-7.077-9.741-7.077-9.741z"/><circle cx="256" cy="348.295" r="27.827" fill="#fecb32"/><path fill="#ffae1e" d="M256 376.123c6.037 0 11.62-1.929 16.18-5.194-11.031-1.97-6.372-11.86-6.372-11.86l-15.387-24.234c-9.53-1.967-5.585-11.926-5.535-12.052-9.836 4.291-16.714 14.097-16.714 25.513 0 15.368 12.459 27.827 27.828 27.827z"/><circle cx="256" cy="348.295" r="14.57" fill="#ffe089" transform="rotate(-67.48 256.12038737 348.2427262)"/><path fill="#039ae5" d="M394 469.455v-63.839c0-4.694-3.806-8.5-8.5-8.5s-8.5 3.806-8.5 8.5v74.454c5.819-3.313 11.491-6.852 17-10.615zm-259 10.614v-74.453c0-4.694-3.806-8.5-8.5-8.5s-8.5 3.806-8.5 8.5v63.838c5.508 3.763 11.181 7.303 17 10.615z"/></svg>
