<svg xmlns="http://www.w3.org/2000/svg" xml:space="preserve" viewBox="0 0 512.001 512.001"><path fill="#ff507d" d="M405.941 70.751H275.928c-14.047 0-27.519 5.58-37.452 15.513L7.757 316.983c-10.343 10.343-10.343 27.111 0 37.452l149.81 149.809c10.343 10.343 27.11 10.343 37.452 0l230.718-230.718c9.933-9.933 15.513-23.405 15.513-37.452V106.062c.001-19.503-15.809-35.311-35.309-35.311zm-35.182 96.974c-14.626 0-26.483-11.857-26.483-26.483 0-14.626 11.857-26.483 26.483-26.483 14.626 0 26.483 11.857 26.483 26.483s-11.856 26.483-26.483 26.483z"/><path fill="#e4eaf8" d="M493.898 18.104C482.235 6.432 466.717.001 450.208.001c-16.509 0-32.025 6.431-43.69 18.103-12.455 12.455-26.326 32.045-36.5 52.647h19.798C397.714 56.169 407.81 41.776 419 30.586c8.338-8.335 19.424-12.93 31.208-12.93 11.784 0 22.871 4.595 31.207 12.931 8.335 8.337 12.931 19.422 12.931 31.207S489.751 84.665 481.414 93c-32.156 32.156-90.69 55.715-104.414 42.001-3.752-3.752-4.631-10.934-3.388-19.946-.95-.105-1.875-.296-2.854-.296-5.75 0-11.018 1.881-15.332 5.007-.365 11.169 2.253 20.878 9.091 27.718 6.431 6.431 15.38 9.146 25.716 9.146 33.216 0 80.621-28.104 103.663-51.147 11.672-11.663 18.103-27.181 18.103-43.69s-6.429-32.025-18.101-43.689z"/><path fill="#c7cfe2" d="M370.018 70.751h19.798c3.278-6.051 7.009-12.014 10.965-17.785h-20.899c-3.515 5.746-6.862 11.705-9.864 17.785zm4.572 83.103c5.432-1.652 9.411-6.641 9.411-12.612 0-1.021-.156-1.997-.381-2.948-2.732-.629-5.007-1.683-6.62-3.293-3.752-3.752-4.631-10.934-3.388-19.946-.95-.105-1.875-.296-2.854-.296-5.75 0-11.018 1.881-15.332 5.007-.365 11.169 2.253 20.878 9.091 27.718 2.869 2.867 6.304 4.891 10.073 6.37z"/><path fill="#d23c69" d="M406.02 85.914c-.03-8.383-6.834-15.164-15.217-15.164H275.927c-14.047 0-27.519 5.58-37.451 15.513L7.757 316.983c-10.343 10.343-10.343 27.111 0 37.452L135.092 481.77c5.171 5.171 13.555 5.171 18.727 0 5.171-5.171 5.171-13.555 0-18.727l-27.776-27.776c-48.264-48.264-48.264-126.514 0-174.777l143.328-143.33c9.933-9.933 23.404-15.513 37.451-15.513h83.981c8.425 0 15.246-6.845 15.217-15.27v-.463z"/></svg>
