<svg xmlns="http://www.w3.org/2000/svg" viewBox="0 0 512 512"><path fill="#555c7c" d="M383.3 256.18c0 42.04-20.48 79.39-51.99 102.58H180.69c-31.51-23.19-51.99-60.54-51.99-102.58 0-70.19 57.1-127.3 127.3-127.3s127.3 57.11 127.3 127.3z"/><path fill="#373b5b" d="M331.31 358.76H256V128.88c70.2 0 127.3 57.11 127.3 127.3 0 42.04-20.48 79.39-51.99 102.58z"/><path fill="#7be6ff" d="M331.31 339.81v18.95c-21.11 15.54-47.15 24.73-75.31 24.73s-54.2-9.19-75.31-24.73v-18.95c0-28.73 16.09-53.71 39.76-66.41h71.1c23.67 12.7 39.76 37.68 39.76 66.41z"/><path fill="#64c8ff" d="M331.31 339.81v18.95c-21.11 15.54-47.15 24.73-75.31 24.73V273.4h35.55c23.67 12.7 39.76 37.68 39.76 66.41z"/><circle cx="256" cy="231.44" r="55.56" fill="#ffdcd4"/><path fill="#f7ccc6" d="M311.56 231.44c0 30.69-24.87 55.56-55.56 55.56V175.88c30.69 0 55.56 24.87 55.56 55.56z"/><path fill="#ff6e91" d="M472.78 241c-3.59-52.33-25.68-101.03-63.12-138.48C372.17 65.03 323.4 42.94 271 39.39V0h-30v39.39c-52.4 3.55-101.17 25.64-138.66 63.13C64.9 139.97 42.81 188.67 39.22 241H0v30h39.2c3.51 52.47 25.61 101.31 63.14 138.84 37.49 37.49 86.26 59.58 138.66 63.13V512h30v-39.03c52.4-3.55 101.17-25.64 138.66-63.13 37.53-37.53 59.63-86.37 63.14-138.84H512v-30zM271 442.89v-28.64h-30v28.64C149.59 435.61 76.47 362.43 69.28 271h28.47v-30H69.31C76.66 149.74 149.72 76.74 241 69.47v28.28h30V69.47c91.28 7.27 164.34 80.27 171.69 171.53h-28.44v30h28.47c-7.19 91.43-80.31 164.61-171.72 171.89z"/><path fill="#d8417b" d="M512 241v30h-39.2c-3.51 52.47-25.61 101.31-63.14 138.84-37.49 37.49-86.26 59.58-138.66 63.13V512h-15v-97.75h15v28.64c91.41-7.28 164.53-80.46 171.72-171.89h-28.47v-30h28.44C435.34 149.74 362.28 76.74 271 69.47v28.28h-15V0h15v39.39c52.4 3.55 101.17 25.64 138.66 63.13 37.44 37.45 59.53 86.15 63.12 138.48z"/></svg>
