<svg xmlns="http://www.w3.org/2000/svg" viewBox="0 0 687 142"><g stroke="#000" stroke-width="1.33948869"><path d="M554 0h38.6737589v142H554z"/><path fill-opacity=".75" d="M601.1631206 0h38.6737589v142h-38.6737589z"/><path fill-opacity=".5" d="M648.3262411 0H687v142h-38.6737589z"/></g><path d="M62.4078423 26.2355883v10.36378H37.2020831v85.0850227H25.1518432V36.5993683H0v-10.36378h62.4078423Zm53.8351887 95.4488027h-12.104156c-.718881-1.521453-1.231084-4.098974-1.536608-7.732562C98.4866742 119.983943 93.2208721 123 86.8048606 123c-6.4339834 0-11.4661493-1.807844-15.0964975-5.423533-3.6123762-3.597788-5.4185643-8.672282-5.4185643-15.223479 0-7.2134776 2.4531809-12.9413007 7.3595426-17.1834697 4.9243337-4.242169 11.6638415-6.4080021 20.2185234-6.4974993h8.5456962v-7.5177679c0-4.242169-.943531-7.2582258-2.8305936-9.0481706-1.8870622-1.7899447-4.7625855-2.684917-8.62657-2.684917-3.504544 0-6.3531093 1.0381679-8.5456959 3.1145038-2.1925865 2.0763359-3.2888798 4.7075546-3.2888798 7.8936562H67.4759522c0-3.6335878 1.0693353-7.0971308 3.2080057-10.3906291 2.1566425-3.2934983 5.0591239-5.8799684 8.7074441-7.7594104 3.6303482-1.8794419 7.6830389-2.8191629 12.1580721-2.8191629 7.2966405 0 12.8410089 1.7988944 16.6331049 5.3966833 3.792097 3.5977889 5.733075 8.8512767 5.822935 15.7604633v35.7899443c.035944 5.459332.781783 10.202685 2.237517 14.230061v1.047118Zm-27.6589403-9.236115c2.8575513 0 5.5803124-.787576 8.1682834-2.362727 2.587971-1.575152 4.4750329-3.544091 5.6611869-5.906818V87.2637536h-6.5777599c-5.5353824.0894973-9.9025835 1.3245591-13.1016032 3.7051856-3.1990197 2.3806265-4.7985296 5.7188734-4.7985296 10.0147408 0 4.009476.808741 6.918136 2.4262228 8.72598 1.6354539 1.825744 4.3761871 2.738616 8.2221996 2.738616Zm78.0704583-8.913925c0-2.488023-.943531-4.6359567-2.830593-6.4438009-1.887062-1.7899447-5.535383-3.88418-10.944961-6.2827059-6.272235-2.5775204-10.693352-4.7791524-13.263351-6.6048961-2.552027-1.843643-4.466047-3.9378783-5.742061-6.2827059-1.276013-2.3269282-1.91402-5.1102922-1.91402-8.3500922 0-5.763622 2.120698-10.5606738 6.362095-14.3911555 4.223425-3.8125823 9.624017-5.7188734 16.201777-5.7188734 6.9372 0 12.517513 2.0047381 16.740938 6.0142143 4.205452 4.0273756 6.308179 9.1824164 6.308179 15.4651224h-11.591954c0-3.1861017-1.069335-5.9068176-3.208005-8.162148-2.156643-2.2374309-4.906362-3.3561463-8.249158-3.3561463-3.414684 0-6.101501.8860226-8.060451 2.6580679-1.940978 1.7541458-2.911468 4.1168728-2.911468 7.0881811 0 2.362727.709895 4.2690181 2.129685 5.7188734 1.41979 1.4319557 4.852445 3.3292971 10.297968 5.6920242 8.644542 3.3650961 14.521393 6.6585943 17.630552 9.8804948 3.127132 3.2040011 4.690698 7.2761253 4.690698 12.2163731 0 6.15741-2.129685 11.088707-6.389054 14.793893C167.651996 121.156357 161.94588 123 154.793015 123c-7.404472 0-13.416113-2.121084-18.034922-6.363253-4.600838-4.242169-6.901256-9.620953-6.901256-16.136352h11.699785c.143776 3.937878 1.356888 7.025533 3.639334 9.262964 2.282447 2.219531 5.481467 3.329297 9.597059 3.329297 3.863985 0 6.80241-.859174 8.815277-2.57752 2.030838-1.736247 3.046257-4.063175 3.046257-6.980785Zm64.025324 18.15004-19.355866-32.4337987-6.173389 7.0613319v25.3724668H193.47779V21h11.672828v60.2495394l22.159501-30.5006581h13.964261l-22.644747 29.6414846 25.61013 41.2940251h-13.55989Zm30.732156-95.4488027 21.782089 77.0302707 21.91688-77.0302707h13.236393l-29.815583 95.4488027h-10.54059l-29.761666-95.4488027h13.182477Zm113.978556 95.4488027h-12.104156c-.700909-1.521453-1.204125-4.098974-1.50965-7.732562C357.643215 119.983943 352.377412 123 345.979373 123c-6.451955 0-11.493107-1.807844-15.123456-5.423533-3.612376-3.597788-5.418564-8.672282-5.418564-15.223479 0-7.2134776 2.453181-12.9413007 7.359543-17.1834697 4.924333-4.242169 11.663841-6.4080021 20.218523-6.4974993h8.545696v-7.5177679c0-4.242169-.943531-7.2582258-2.830593-9.0481706-1.887062-1.7899447-4.7536-2.684917-8.599612-2.684917-3.522516 0-6.380068 1.0381679-8.572654 3.1145038-2.192587 2.0763359-3.28888 4.7075546-3.28888 7.8936562h-11.645869c0-3.6335878 1.078321-7.0971308 3.234963-10.3906291 2.138671-3.2934983 5.032166-5.8799684 8.680486-7.7594104 3.630349-1.8794419 7.683039-2.8191629 12.158072-2.8191629 7.296641 0 12.841009 1.7988944 16.633106 5.3966833 3.792096 3.5977889 5.733074 8.8512767 5.822935 15.7604633v35.7899443c.035944 5.459332.781782 10.202685 2.237516 14.230061v1.047118Zm-27.631982-9.236115c2.839579 0 5.553355-.787576 8.141326-2.362727 2.587971-1.575152 4.475033-3.544091 5.661186-5.906818V87.2637536h-6.57776c-5.51741.0894973-9.884611 1.3245591-13.101603 3.7051856-3.199019 2.3806265-4.798529 5.7188734-4.798529 10.0147408 0 4.009476.808741 6.918136 2.426223 8.72598 1.635453 1.825744 4.385173 2.738616 8.249157 2.738616ZM403.750434 21v100.684391h-11.64587V21h11.64587Zm24.477892 29.7488813 14.018177 53.2956037 13.479015-53.2956037h11.861534l-21.135097 70.9355097h-8.680486l-21.377718-70.9355097h11.834575ZM504.303891 123c-8.860207 0-15.662617-2.631219-20.40723-7.893656-4.744614-5.280337-7.152864-13.003949-7.224752-23.1708347v-8.5917346c0-10.5785733 2.309404-18.8749671 6.928214-24.8891814 4.636781-5.9963148 11.097722-8.9944722 19.382824-8.9944722 8.339018 0 14.575309 2.6401684 18.708874 7.9205054C525.807413 62.6609634 527.91014 70.8947091 528 82.0818636v7.6251646h-39.763096v1.6377994c0 7.5893656 1.437762 13.1113454 4.313285 16.5659384 2.875523 3.454593 7.009088 5.18189 12.400694 5.18189 3.432656 0 6.451956-.64438 9.057899-1.93314 2.605943-1.288761 5.050138-3.329298 7.332584-6.121611l6.065557 7.329823C522.356785 119.455909 514.655775 123 504.303891 123Zm-1.320944-63.5788365c-4.816502 0-8.392934 1.6467491-10.729296 4.9402474-2.318391 3.2934983-3.630349 8.4127402-3.935873 15.3577257h28.036353v-1.5572519c-.305525-6.7301921-1.527622-11.5361937-3.666293-14.4180047-2.120698-2.881811-5.355662-4.3227165-9.704891-4.3227165Z"/></svg>
