<svg xmlns="http://www.w3.org/2000/svg" xmlns:xlink="http://www.w3.org/1999/xlink" viewBox="0 0 2192 159">
  <defs>
    <path id="a" fill="#FB70A9" d="M1005.926 105.508c-2.577 3.877-4.536 8.654-9.775 8.654-8.819 0-9.296-13.53-18.119-13.53s-8.346 13.53-17.165 13.53c-8.818 0-9.295-13.53-18.118-13.53-8.823 0-8.346 13.53-17.165 13.53-8.818 0-9.295-13.53-18.118-13.53-8.823 0-8.347 13.53-17.165 13.53-2.771 0-4.719-1.336-6.36-3.169C877.63 100.066 874 87.261 874 73.571 874 33.491 905.116 1 943.5 1s69.5 32.491 69.5 72.571c0 11.46-2.544 22.3-7.074 31.937Z"/>
  </defs>
  <g fill="none">
    <path fill="#FF2D20" d="M1265.914 36.744c.056.21.086.428.086.646v33.914c0 .886-.472 1.704-1.239 2.145l-28.376 16.389v32.483c0 .884-.468 1.7-1.232 2.145l-59.232 34.205c-.136.077-.284.126-.432.179-.055.019-.108.053-.166.068-.414.11-.85.11-1.264 0-.067-.019-.129-.056-.194-.08-.135-.05-.277-.093-.406-.167l-59.22-34.205a2.476 2.476 0 0 1-1.239-2.145V20.578c0-.223.03-.439.086-.65.019-.07.062-.135.087-.206.046-.13.089-.263.157-.384.046-.08.114-.145.17-.22.07-.098.135-.2.218-.287.07-.07.163-.123.243-.185.09-.074.17-.155.272-.213h.003l29.611-17.103a2.465 2.465 0 0 1 2.465 0l29.612 17.103h.006c.098.062.182.139.271.21.08.062.17.117.24.185.087.09.148.192.222.29.053.075.123.14.167.22.07.124.11.254.16.384.024.07.068.136.086.21.057.21.086.428.086.646v63.547l24.676-14.252V37.387c0-.217.03-.436.086-.643.021-.074.062-.14.086-.21.05-.13.093-.263.16-.384.047-.08.114-.145.167-.22.074-.098.135-.2.222-.287.07-.07.16-.123.24-.185.092-.074.173-.155.271-.213h.003l29.615-17.103a2.461 2.461 0 0 1 2.465 0l29.611 17.103c.105.061.185.139.278.21.077.062.166.117.237.185.086.09.148.192.222.29.055.075.123.14.166.22.071.12.111.254.16.384.028.07.068.136.087.21Zm-4.85 33.129V41.67l-10.363 5.984-14.316 8.268v28.202l24.682-14.252h-.003Zm-29.612 51.017V92.669l-14.081 8.067-40.212 23.022v28.487l54.293-31.355Zm-113.516-96.031v96.03l54.287 31.352v-28.48l-28.36-16.1-.01-.007-.012-.006c-.096-.056-.176-.136-.265-.204-.077-.062-.166-.111-.234-.18l-.006-.009c-.08-.077-.136-.173-.204-.26-.061-.083-.135-.154-.185-.24l-.003-.01c-.055-.092-.09-.204-.13-.309-.04-.093-.092-.18-.116-.278v-.003c-.031-.118-.037-.241-.05-.362-.012-.093-.036-.185-.036-.278V39.111l-14.313-8.271-10.363-5.978v-.003Zm27.147-18.527-24.672 14.246 24.666 14.246 24.669-14.25-24.67-14.242h.007Zm12.83 88.909 14.313-8.266V24.86l-10.362 5.984-14.316 8.268v62.117l10.365-5.987Zm76.007-72.098-24.669 14.247 24.67 14.246 24.665-14.25-24.666-14.243Zm-2.468 32.78-14.316-8.268-10.362-5.984v28.202l14.313 8.265 10.365 5.987V55.923Zm-56.764 63.554 36.184-20.722L1228.96 88.4l-24.65-14.237-28.382 16.392-25.868 14.938 24.63 13.984Z"/>
    <path fill="#41B883" d="M1474.323 1 1454 37.488 1433.677 1H1366l88 158 88-158z"/>
    <path fill="#34495E" d="M1474.323 1 1454 37.488 1433.677 1H1401.2l52.8 94.798L1506.8 1z"/>
    <use xlink:href="#a"/>
    <path fill="#4E56A6" d="M915.089 99.005v30.08c0 5.399-4.411 9.775-9.852 9.775-5.441 0-9.852-4.376-9.852-9.774V92.772c1.838-3.349 3.94-6.248 7.726-6.248 6.165 0 8.32 7.683 11.978 12.481Zm37.22 1.567v47.568c0 5.998-4.902 10.86-10.947 10.86-6.046 0-10.947-4.862-10.947-10.86V94.303c2.061-3.944 4.186-7.779 8.542-7.779 6.896 0 8.773 9.613 13.351 14.048Zm35.03-.873v34.533c0 5.398-4.412 9.774-9.853 9.774s-9.852-4.376-9.852-9.774V91.787c1.715-2.912 3.758-5.263 7.168-5.263 6.472 0 8.524 8.468 12.536 13.175Z"/>
    <path fill="#000" fill-opacity=".299" d="M915.089 108.224c-1.748-2.123-3.816-3.698-6.808-3.698-7.105 0-8.41 8.883-12.896 12.887V79.098c0-5.398 4.41-9.774 9.852-9.774 5.441 0 9.852 4.376 9.852 9.774v29.126Zm37.22.686c-1.865-2.46-4.043-4.384-7.35-4.384-7.904 0-8.628 10.995-14.544 14.035v-16.945c0-5.998 4.9-10.86 10.947-10.86 6.045 0 10.946 4.862 10.946 10.86v7.294Zm35.03-1.902c-1.517-1.481-3.315-2.482-5.7-2.482-7.657 0-8.577 10.318-14.005 13.727V83.86c0-5.398 4.411-9.774 9.852-9.774 5.441 0 9.852 4.376 9.852 9.774v23.147Z"/>
    <use xlink:href="#a"/>
    <path fill="#E24CA6" d="M990.546 113.774c18.493-27.153 18.971-57.271 1.434-90.355 13 13.144 21.02 31.181 21.02 51.083 0 11.499-2.677 22.375-7.445 32.045-2.713 3.89-4.773 8.683-10.288 8.683-1.888 0-3.412-.562-4.72-1.456Z"/>
    <path fill="white" d="M939.223 92.81c24.078 0 34.215-14.102 34.215-34.13 0-20.028-15.318-38.464-34.215-38.464-18.897 0-34.215 18.436-34.215 38.464s10.138 34.13 34.215 34.13Z"/>
    <g transform="translate(917.193 31.215)">
      <ellipse cx="12.831" cy="14.299" fill="#030776" rx="12.831" ry="14.299"/>
      <ellipse cx="10.692" cy="10.999" fill="currentColor" rx="6.415" ry="6.6"/>
    </g>
    <path fill="#38BDF8" d="M680.002 25c-25.069 0-40.733 12.445-47.003 37.336 9.401-12.445 20.368-17.112 32.9-14.002 7.151 1.774 12.265 6.925 17.92 12.63C693.034 70.25 703.703 81 727 81c25.065 0 40.733-12.445 46.999-37.332-9.398 12.445-20.365 17.111-32.897 13.998-7.154-1.774-12.268-6.925-17.922-12.626C713.964 35.745 703.299 25 680 25Zm-47.003 56c-25.065 0-40.733 12.445-46.999 37.336 9.401-12.445 20.368-17.112 32.897-14.002 7.154 1.774 12.268 6.925 17.922 12.63C646.036 126.25 656.701 137 680.002 137c25.065 0 40.733-12.442 46.999-37.332-9.401 12.445-20.368 17.111-32.9 14.002-7.151-1.778-12.265-6.93-17.92-12.63C666.966 91.753 656.297 81 633 81Z"/>
    <path fill="#6082BC" d="M1676.986 94.611c6.367 0 11.12-1.192 14.127-3.543 2.976-2.327 5.03-6.359 6.108-11.982 1.004-5.257.621-8.927-1.137-10.908-1.798-2.023-5.685-3.048-11.553-3.048h-10.175l-5.641 29.481h8.27Zm-33.28 36.316c-.472 0-.92-.214-1.221-.585-.3-.37-.423-.858-.333-1.33l14.95-78.126a1.59 1.59 0 0 1 1.554-1.301h32.22c10.125 0 17.662 2.792 22.4 8.301 4.762 5.538 6.233 13.279 4.37 23.007-.757 3.964-2.06 7.644-3.873 10.94-1.815 3.3-4.214 6.352-7.13 9.075-3.492 3.32-7.443 5.726-11.735 7.142-4.223 1.398-9.647 2.106-16.12 2.106h-13.047l-3.726 19.47a1.59 1.59 0 0 1-1.553 1.301h-16.756Zm113.67-20.77c-.466 0-.909-.215-1.205-.586a1.64 1.64 0 0 1-.329-1.33l6.528-34.568c.621-3.287.468-5.647-.43-6.644-.55-.61-2.203-1.631-7.09-1.631h-11.826l-8.208 43.457c-.142.756-.786 1.301-1.534 1.301h-16.41c-.467 0-.91-.214-1.206-.585a1.641 1.641 0 0 1-.328-1.33l14.757-78.127c.143-.755.786-1.3 1.535-1.3h16.41c.467 0 .909.214 1.206.584.297.371.417.858.328 1.33l-3.561 18.857h12.723c9.692 0 16.264 1.758 20.092 5.375 3.902 3.69 5.12 9.59 3.62 17.538l-6.867 36.357c-.142.756-.785 1.301-1.534 1.301h-16.67Zm55.279-15.546c6.611 0 11.547-1.192 14.67-3.543 3.089-2.327 5.223-6.358 6.342-11.982 1.042-5.257.645-8.927-1.181-10.908-1.867-2.023-5.904-3.048-11.997-3.048h-10.565l-5.858 29.481h8.589Zm-34.556 36.316c-.49 0-.957-.214-1.268-.585a1.582 1.582 0 0 1-.346-1.33l15.523-78.126c.15-.756.827-1.301 1.614-1.301h33.455c10.515 0 18.34 2.792 23.26 8.301 4.946 5.537 6.473 13.278 4.54 23.007-.789 3.964-2.142 7.644-4.024 10.94-1.884 3.3-4.375 6.352-7.403 9.075-3.626 3.32-7.73 5.726-12.185 7.142-4.386 1.398-10.018 2.106-16.74 2.106h-13.547l-3.867 19.47a1.636 1.636 0 0 1-1.614 1.301h-17.398Z"/>
    <g fill="#8967ED">
      <path d="M442.2 70.1h-17.8l17.2 17.2-17.2 17.2h17.8l17.2-17.2z"/>
      <path d="M469.1 70.1h-17.8l17.2 17.2-17.2 17.2h17.8l17.2-17.2-17.2-17.2ZM217 69.3h10.3l-6 34.2H211l6-34.2Zm.6-9.1c.6-3.3 3.7-6.2 7.1-6.2 3.4 0 5.7 2.8 5.2 6.2-.5 3.4-3.7 6.2-7.2 6.2s-5.6-3-5.1-6.2Zm47.7 22.3-3.7 21h-10.2l3.4-19.5c.8-4.4-1.6-6.2-4.9-6.2-3.4 0-6.5 2-7.5 6.6l-3.4 19.1h-10.2l6-34.2h10.3l-.5 3.2c2.3-2.6 6.2-4.2 10.1-4.2 6.9.1 12.2 5.1 10.6 14.2Zm40.2 3.9c-.1.8-.5 2.7-1.1 4.1h-24.5c.6 3.8 3.8 4.8 7 4.8 2.9 0 5.2-.8 7.2-2.7l7.2 5.9c-4 4-8.7 6-15 6-11.8 0-18-8.5-16.3-18.7 1.623-10.053 10.317-17.432 20.5-17.4 9.8 0 16.9 7.6 15 18Zm-9.7-3.7c-.3-3.8-3-5.3-6.2-5.3a8.9 8.9 0 0 0-8.3 5.3h14.5Zm39.1-14.1-2 11.6c-4-.6-10.5.8-11.7 7.8l.1-.4-2.8 15.9h-10.2l6-34.2h10.3l-1.1 6.2c2.1-4.7 6.6-6.9 11.4-6.9Zm13.9 22.7c-.5 3.1 2 3.3 6.6 2.9l-1.6 9.3c-12.3 1.4-16.9-2.7-15.2-12.2l2.1-12.1h-5.5l1.8-9.9h5.4l1.2-6.5 10.8-3.1-1.7 9.6h7.1l-1.8 9.9h-7l-2.2 12.1Zm17.5-22h10.3l-6 34.2h-10.3l6-34.2Zm.6-9.1c.5-3.3 3.7-6.2 7.1-6.2 3.4 0 5.7 2.8 5.2 6.2-.5 3.4-3.7 6.2-7.2 6.2s-5.7-3-5.1-6.2Zm52.2 9.1-6 34.2h-10.3l.4-2.3a15.5 15.5 0 0 1-10.3 3.3c-11.1 0-15.3-9.6-13.5-18.9 1.6-8.8 8.6-17.2 19.2-17.2 4.5 0 7.7 1.8 9.6 4.6l.6-3.6h10.3v-.1Zm-13.2 17.2c.9-5.2-1.9-8.4-6.6-8.4a9.5 9.5 0 0 0-9.5 8.3c-.9 5.1 1.8 8.3 6.6 8.3 4.6.1 8.6-3.1 9.5-8.2Z"/>
    </g>
    <path fill="#80EEC0" d="M2060.504 8.526c-6.635-11.368-23.223-11.368-29.858 0l-72.31 123.895C1951.7 143.79 1959.993 158 1973.263 158h56.45c-5.67-4.938-7.77-13.48-3.48-20.81L2081 43.644l-20.496-35.118Z"/>
    <path fill="#00DC82" d="M2105.667 35.961c5.481-9.281 19.185-9.281 24.666 0l59.738 101.155c5.481 9.282-1.37 20.884-12.333 20.884h-119.476c-10.962 0-17.814-11.602-12.333-20.884l59.738-101.155Z"/>
    <path fill="currentColor" d="M103.683 70.817a27.784 27.784 0 0 0-2.4-22.908c-6.134-10.62-18.48-16.081-30.52-13.54A28.22 28.22 0 0 0 49.618 25c-12.307 0-23.242 7.89-27.052 19.533a28.116 28.116 0 0 0-18.746 13.54 28.114 28.114 0 0 0 3.505 33.073 27.682 27.682 0 0 0 2.4 22.87c6.135 10.657 18.48 16.119 30.558 13.577A28.114 28.114 0 0 0 61.391 137c12.306 0 23.242-7.89 27.052-19.533 7.925-1.63 14.745-6.561 18.708-13.54a28.05 28.05 0 0 0-3.468-33.072v-.038Zm-8.652-19.874c2.457 4.223 3.378 9.161 2.534 13.95-.154-.114-.46-.264-.653-.377L74.338 51.697a3.847 3.847 0 0 0-3.725 0L44.161 66.702V55.693L66.006 43.29c10.174-5.769 23.15-2.338 29.025 7.653ZM45.355 74.158l10.742-6.264 10.742 6.264V86.65l-10.742 6.265-10.742-6.265V74.158Zm4.356-41.971c4.96 0 9.73 1.698 13.547 4.829-.153.075-.458.264-.687.377l-22.44 12.79c-1.144.641-1.83 1.849-1.83 3.169v30.031l-9.656-5.508V53.05c0-11.544 9.426-20.863 21.104-20.9l-.038.037ZM9.988 61.568a21.047 21.047 0 0 1 10.954-9.164v26.36c0 1.32.684 2.49 1.825 3.168l26.168 14.971-9.66 5.544-21.604-12.37C7.629 84.308 4.168 71.563 9.988 61.569Zm5.988 48.33c-2.497-4.194-3.38-9.18-2.535-13.978.153.113.46.264.653.377l22.588 12.845a3.844 3.844 0 0 0 3.727 0l26.43-15.036v11.031L44.98 117.53c-10.18 5.742-23.165 2.342-29.042-7.632h.038Zm45.275 19.915c-4.923 0-9.731-1.699-13.51-4.833.154-.075.497-.264.688-.377l22.44-12.8c1.144-.641 1.869-1.85 1.83-3.17V78.616l9.656 5.512v24.805c0 11.554-9.464 20.917-21.104 20.917v-.038Zm39.792-29.343a20.948 20.948 0 0 1-10.952 9.126v-26.36c0-1.32-.685-2.527-1.826-3.168l-26.2-15.009 9.62-5.506 21.638 12.37c10.077 5.77 13.5 18.515 7.682 28.509l.038.038Z"/>
  </g>
</svg>
