<svg xmlns="http://www.w3.org/2000/svg" xmlns:xlink="http://www.w3.org/1999/xlink" viewBox="0 0 2192 159"><defs><path id="a" fill="#FB70A9" d="M1005.925761 105.508107c-2.577224 3.877107-4.535269 8.654055-9.775063 8.654055-8.818444 0-9.295244-13.5302583-18.118409-13.5302583-8.8231652 0-8.3463649 13.5302583-17.1648092 13.5302583-8.8184443 0-9.2952443-13.5302583-18.1184093-13.5302583-8.8231653 0-8.3463649 13.5302583-17.1648092 13.5302583-8.818444 0-9.2952444-13.5302583-18.1184093-13.5302583-8.823165 0-8.346365 13.5302583-17.164809 13.5302583-2.7714572 0-4.7189962-1.336406-6.36064495-3.169208C877.63025311 100.0660335 874 87.2613907 874 73.5713865 874 33.4913165 905.1162099 1 943.5 1c38.38379 0 69.5 32.4913165 69.5 72.5713865 0 11.4600347-2.543909 22.2996502-7.074239 31.9367205Z"/></defs><g fill="none"><path fill="#FF2D20" d="M1265.91372 36.7437389c.05673.2106404.08628.4278234.08628.6460156V71.304029c0 .8860222-.4725 1.7043467-1.23869 2.1451427l-28.3759 16.3883963v32.483149c0 .884021-.46836 1.700041-1.23253 2.145143l-59.23227 34.204827c-.13558.077274-.28348.12673-.43138.179277-.05547.018546-.10785.052546-.1664.068001-.41405.10938-.84928.10938-1.26334 0-.06779-.018546-.12941-.055637-.19412-.080365-.13558-.049456-.27732-.09273-.40674-.166913l-59.21994-34.204827c-.76572-.441266-1.23869-1.259293-1.23869-2.145143V20.5778935c0-.2225508.03081-.4389197.08628-.6491066.01848-.0710926.06162-.1360033.08627-.2070959.04622-.1298213.08936-.2627336.15715-.383282.04622-.0803656.11401-.1452762.16947-.2194599.07087-.0989114.13558-.2009139.21878-.2874615.07087-.0710926.16331-.1236393.24342-.185459.08936-.0741836.16948-.1545492.27116-.2132779h.00308l29.61151-17.10241344c.76303-.44044968 1.70203-.44044968 2.46506 0l29.61151 17.10241344h.00616c.09861.0618197.1818.1390943.27116.2101869.08012.0618197.16947.1174574.24034.1854591.08628.0896385.14791.191641.22186.2905524.05238.0741837.12325.1390943.16639.2194599.07087.1236393.11093.2534607.16023.383282.02465.0710926.06779.1360033.08628.2101869.05673.2106404.08573.4278234.08627.6460156v63.5475364l24.67524-14.2525264v-32.48624c0-.2163689.03081-.4358287.08627-.6429246.02157-.0741836.06163-.1390943.08628-.2101869.0493-.1298213.09244-.2627336.16023-.383282.04622-.0803656.11401-.1452763.16639-.2194599.07395-.0989114.13558-.2009139.22186-.2874615.07087-.0710926.16022-.1236393.24034-.185459.09244-.0741836.17255-.1545492.27116-.2132779h.00308l29.61459-17.1024134c.76286-.4410843 1.7022-.4410843 2.46506 0l29.61151 17.1024134c.10476.0618197.18488.1390943.27732.2101869.07703.0618197.16639.1174574.23726.1854591.08628.0896385.1479.191641.22186.2905524.05546.0741836.12325.1390943.16639.2194599.07087.1205484.11092.2534607.16023.383282.02773.0710926.06778.1360033.08627.2101869Zm-4.85 33.1291646V41.6707671l-10.36249 5.9841447-14.31582 8.2683817v28.2021364l24.68139-14.2525264h-.00308Zm-29.61151 51.0166875V92.6689091l-14.08165 8.0674679-40.21126 23.021647v28.486507l54.29291-31.35494Zm-113.51593-96.0306849v96.0306849l54.28674 31.351849v-28.480325l-28.36049-16.100934-.00925-.006182-.01232-.006182c-.09552-.055638-.17564-.136004-.26499-.204005-.07704-.06182-.1664-.111276-.23418-.179277l-.00617-.009273c-.08011-.077275-.13558-.173095-.20336-.259643-.06163-.083456-.13558-.154549-.18488-.241097l-.00309-.009273c-.05546-.092729-.08935-.204004-.12941-.309098-.04006-.092729-.09244-.179277-.11709-.278188v-.003091c-.03081-.117458-.03698-.241097-.0493-.361646-.01233-.092729-.03698-.185459-.03698-.278188V39.1114325l-14.31274-8.2714727-10.36249-5.9779627v-.003091Zm27.14645-18.52735702-24.67215 14.24634442 24.66599 14.2463444 24.66907-14.2494354-24.66907-14.24325342h.00616Zm12.83063 88.90905862 14.31274-8.2652908V24.8589061l-10.36248 5.9841447-14.31583 8.2683817v62.1164105l10.36557-5.9872353Zm76.00699-72.0971976-24.66907 14.2463444 24.66907 14.2463444 24.66599-14.2494354-24.66599-14.2432534Zm-2.46814 32.7798834-14.31583-8.2683817-10.36248-5.9841447v28.2021364l14.31274 8.2652907 10.36557 5.9872357V55.9232935Zm-56.76413 63.5537185 36.18397-20.7219557 18.08737-10.3547958-24.65058-14.2370715-28.38207 16.3914872-25.8677 14.9387248 24.62901 13.983611Z"/><path fill="#41B883" d="M1474.322657 1.0000004 1454 37.4881314l-20.3226569-36.488131H1366L1454 159l88-157.9999996z"/><path fill="#34495E" d="M1474.322657 1 1454 37.4881308 1433.6773431 1H1401.2l52.8 94.7981414L1506.8 1z"/><use xlink:href="#a"/><path fill="#4E56A6" d="M915.0890106 99.0050256v30.0806914c0 5.398025-4.4109792 9.773988-9.8521978 9.773988-5.4412186 0-9.8521978-4.375963-9.8521978-9.773988V92.7720965c1.8388303-3.348663 3.9394547-6.2478995 7.7265715-6.2478995 6.1650238 0 8.3190486 7.6830871 11.9778241 12.4808286Zm37.2194141 1.5671653v47.5678221c0 5.997805-4.901088 10.859986-10.9468866 10.859986-6.0457986 0-10.9468866-4.862181-10.9468866-10.859986V94.3025474c2.0614429-3.9431476 4.1862277-7.7783504 8.5419587-7.7783504 6.8959442 0 8.7734277 9.6128844 13.3518145 14.0479939Zm35.0300363-.8730315v34.5332516c0 5.398024-4.410979 9.773987-9.852198 9.773987-5.4412183 0-9.8521974-4.375963-9.8521974-9.773987V91.7873761c1.7153714-2.9126749 3.758023-5.2631791 7.1679684-5.2631791 6.472099 0 8.523678 8.4675254 12.536427 13.1749624Z"/><path fill="#000" fill-opacity=".29851399" d="M915.0890106 108.224214c-1.7476537-2.123007-3.8163966-3.698411-6.8083928-3.698411-7.1046167 0-8.4087514 8.882824-12.8960028 12.887549V79.0983115c0-5.3980243 4.4109792-9.7739875 9.8521978-9.7739875 5.4412186 0 9.8521978 4.3759632 9.8521978 9.7739875v29.1259025Zm37.2194141.685389c-1.8639378-2.460339-4.0427385-4.3838-7.3487688-4.3838-7.9042885 0-8.6288433 10.995003-14.5450044 14.0348v-16.944804c0-5.9978049 4.901088-10.8599862 10.9468866-10.8599862 6.0457986 0 10.9468866 4.8621813 10.9468866 10.8599862v7.293804Zm35.0300363-1.901586c-1.516645-1.481315-3.314922-2.482214-5.699767-2.482214-7.6570126 0-8.5764828 10.317832-14.0046284 13.726734V83.8608645c0-5.3980242 4.4109791-9.7739874 9.8521974-9.7739874 5.441219 0 9.852198 4.3759632 9.852198 9.7739874v23.1471525Z"/><use xlink:href="#a"/><path fill="#E24CA6" d="M990.546154 113.773715c18.493077-27.1524926 18.970935-57.2707581 1.433573-90.3547961C1004.97911 36.5627034 1013 54.6000927 1013 74.5024113c0 11.4985848-2.677343 22.3746634-7.4453 32.0441517-2.712404 3.89015-4.773153 8.683167-10.287786 8.683167-1.887432 0-3.411778-.561459-4.72076-1.456015Z"/><path fill="#FFF" d="M939.2230766 92.8108106c24.0774928 0 34.2153846-14.1027562 34.2153846-34.1307919 0-20.0280357-15.3187495-38.4638027-34.2153846-38.4638027-18.896635 0-34.2153846 18.435767-34.2153846 38.4638027 0 20.0280357 10.1378919 34.1307919 34.2153846 34.1307919Z"/><g transform="translate(917.192889 31.215396)"><ellipse cx="12.8307692" cy="14.2989353" fill="#030776" rx="12.8307692" ry="14.2989353"/><ellipse cx="10.6923077" cy="10.999181" fill="#FFF" rx="6.4153846" ry="6.59950862"/></g><path fill="#38BDF8" d="M680.001842 25c-25.068877 0-40.732781 12.4452622-47.002763 37.3357866 9.401289-12.4452622 20.368232-17.1113156 32.900829-14.00184 7.150432 1.7736891 12.263672 6.925483 17.918445 12.6292549C693.035448 70.25115 703.703995 81 727.000921 81 752.066114 81 767.733702 68.5547378 774 43.6678933c-9.397605 12.4452622-20.364548 17.1113155-32.897145 13.9981601-7.154116-1.7736891-12.267356-6.925483-17.922129-12.625575C713.963631 35.7451702 703.298767 25 680.001842 25Zm-47.002763 56C607.933886 81 592.266298 93.4452622 586 118.335787c9.401289-12.445263 20.368232-17.111316 32.897145-14.00184 7.154116 1.773689 12.267356 6.925483 17.922129 12.629254C646.036369 126.25115 656.701233 137 680.001842 137c25.065193 0 40.732781-12.441582 46.999079-37.3321067-9.401289 12.4452627-20.368232 17.1113157-32.900829 14.0018397-7.150432-1.777369-12.263672-6.929163-17.918445-12.629255C666.964552 91.7525299 656.296004 81 632.999079 81Z"/><path fill="#6082BC" d="M1676.98575 94.6112742c6.36696 0 11.12014-1.1926764 14.12762-3.543707 2.97529-2.3269129 5.03024-6.3584118 6.10732-11.9819203 1.00425-5.2563218.62165-8.926535-1.13671-10.9071756-1.79795-2.0229832-5.68514-3.0489463-11.55341-3.0489463h-10.17498l-5.64081 29.4817492h8.27097Zm-33.27967 36.3161508c-.47231 0-.92087-.214419-1.22114-.585355-.30081-.37039-.4227-.858182-.33247-1.329355l14.94928-78.1271603c.1446-.7552638.79633-1.3009497 1.55413-1.3009497h32.21948c10.12592 0 17.66283 2.7927305 22.40018 8.3015268 4.76269 5.5377473 6.23344 13.2785747 4.37111 23.0070115-.7578 3.9634247-2.06127 7.644348-3.87399 10.9398759-1.81483 3.2992772-4.21332 6.3519729-7.13004 9.0750158-3.4914 3.319107-7.44298 5.725897-11.7344 7.142088-4.22336 1.397437-9.64728 2.106071-16.12082 2.106071h-13.04632l-3.72572 19.469744c-.1446.755801-.7958 1.301487-1.55361 1.301487h-16.75567Zm113.67027-20.771231c-.46678 0-.90907-.214411-1.2055-.585347-.29746-.370398-.4178-.857652-.32873-1.329363l6.52813-34.568146c.621-3.2874832.46783-5.6470964-.43083-6.6441165-.55013-.609465-2.20261-1.6316787-7.08867-1.6316787h-11.8268l-8.20769 43.4571642c-.14275.755801-.78613 1.301487-1.53423 1.301487h-16.41019c-.46677 0-.90906-.214411-1.20601-.585347-.29694-.370398-.41729-.85819-.32821-1.329363l14.75771-78.1271603c.14274-.7552638.78612-1.3009497 1.53423-1.3009497h16.41017c.46678 0 .90908.2144191 1.20602.5848172.29696.370928.41729.858182.32821 1.3298927l-3.56127 18.8565211h12.72284c9.69243 0 16.26484 1.7581929 20.09284 5.3753293 3.90197 3.6900358 5.11945 9.5901446 3.6191 17.5384223l-6.86624 36.3563504c-.14273.755801-.7856 1.301487-1.53422 1.301487h-16.67066Zm55.27839-15.5449198c6.61125 0 11.5468-1.1926764 14.66968-3.543707 3.08945-2.3263749 5.22324-6.3578739 6.34219-11.9819203 1.04279-5.2563218.64552-8.926535-1.18086-10.9071756-1.86694-2.0229832-5.90327-3.0489463-11.99669-3.0489463h-10.5654l-5.85724 29.4817492h8.58832Zm-34.55604 36.3161508c-.49043 0-.95621-.214419-1.268-.585355-.31234-.37039-.43947-.858182-.34578-1.329355l15.52288-78.1271603c.1507-.7552638.82689-1.3009497 1.61432-1.3009497h33.45517c10.51497 0 18.34053 2.7927305 23.2602 8.3015268 4.94542 5.5372093 6.47206 13.2780448 4.53882 23.0070115-.78798 3.9634247-2.14091 7.644348-4.02318 10.9398759-1.88448 3.2992772-4.37499 6.3519729-7.40362 9.0750158-3.62537 3.319107-7.72856 5.725897-12.18465 7.142088-4.38539 1.397437-10.01742 2.106071-16.73936 2.106071h-13.54744l-3.86702 19.469744c-.15069.755801-.82689 1.301487-1.61432 1.301487h-17.39802Z"/><g fill="#8967ED"><path d="M442.2 70.1h-17.8l17.2 17.2-17.2 17.2h17.8l17.2-17.2z"/><path d="M469.1 70.1h-17.8l17.2 17.2-17.2 17.2h17.8l17.2-17.2-17.2-17.2ZM217 69.3h10.3l-6 34.2H211l6-34.2Zm.6-9.1c.6-3.3 3.7-6.2 7.1-6.2 3.4 0 5.7 2.8 5.2 6.2-.5 3.4-3.7 6.2-7.2 6.2s-5.6-3-5.1-6.2Zm47.7 22.3-3.7 21h-10.2l3.4-19.5c.8-4.4-1.6-6.2-4.9-6.2-3.4 0-6.5 2-7.5 6.6l-3.4 19.1h-10.2l6-34.2h10.3l-.5 3.2c2.3-2.6 6.2-4.2 10.1-4.2 6.9.1 12.2 5.1 10.6 14.2Zm40.2 3.9c-.1.8-.5 2.7-1.1 4.1h-24.5c.6 3.8 3.8 4.8 7 4.8 2.9 0 5.2-.8 7.2-2.7l7.2 5.9c-4 4-8.7 6-15 6-11.8 0-18-8.5-16.3-18.7 1.6233306-10.0527976 10.3170275-17.4318379 20.5-17.4002046 9.8 0 16.9 7.6002046 15 18.0002046Zm-9.7-3.7c-.3-3.8-3-5.3-6.2-5.3-3.5810759-.0643708-6.8518194 2.0241762-8.3 5.3h14.5Zm39.1-14.1-2 11.6c-4-.6-10.5.8-11.7 7.8l.1-.4-2.8 15.9h-10.2l6-34.2h10.3l-1.1 6.2c2.1-4.7 6.6-6.9 11.4-6.9Zm13.9 22.7c-.5 3.1 2 3.3 6.6 2.9l-1.6 9.3c-12.3 1.4-16.9-2.7-15.2-12.2l2.1-12.1h-5.5l1.8-9.9h5.4l1.2-6.5 10.8-3.1-1.7 9.6h7.1l-1.8 9.9h-7l-2.2 12.1Zm17.5-22h10.3l-6 34.2h-10.3l6-34.2Zm.6-9.1c.5-3.3 3.7-6.2 7.1-6.2 3.4 0 5.7 2.8 5.2 6.2-.5 3.4-3.7 6.2-7.2 6.2s-5.7-3-5.1-6.2Zm52.2 9.1-6 34.2h-10.3l.4-2.3c-2.925729 2.3010459-6.581805 3.4724098-10.3 3.3-11.1 0-15.3-9.6-13.5-18.9 1.6-8.8 8.6-17.2 19.2-17.2 4.5 0 7.7 1.8 9.6 4.6l.6-3.6h10.3v-.1Zm-13.2 17.2c.9-5.2-1.9-8.4-6.6-8.4-4.811702-.0385229-8.892341 3.5266667-9.5 8.3-.9 5.1 1.8 8.3 6.6 8.3 4.6.1 8.6-3.1 9.5-8.2Z"/></g><path fill="#80EEC0" d="M2060.503665 8.52609486c-6.6350598-11.36812648-23.2223125-11.36812648-29.8573721 0L1958.33519866 132.42142C1951.70021839 143.789941 1959.99392392 158 1973.2639241 158h56.4500688c-5.6702697-4.938046-7.7702228-13.480821-3.4791864-20.810308L2081 43.6439838l-20.496335-35.11788894Z"/><path fill="#00DC82" d="M2105.666953 35.9612118c5.481474-9.2816157 19.184567-9.2816157 24.666041 0l59.737745 101.1549562C2195.552213 146.397784 2188.700667 158 2177.737719 158h-119.475491c-10.9625523 0-17.8144939-11.602216-12.3330197-20.883832l59.7377447-101.1549562Z"/><path fill="#FFF" d="M103.683332 70.8165734c2.55281-7.6233498 1.676472-15.9673148-2.400404-22.9079765-6.134365-10.6195918-18.4792984-16.0810961-30.5194186-13.5399795-5.3723321-5.992484-13.0688647-9.4059242-21.1464137-9.3683098-12.3068317 0-23.2420042 7.8891523-27.0521688 19.5327762-7.9251424 1.6308658-14.74533709 6.5613906-18.74600994 13.5399795C-2.35354973 68.692655-.94378882 82.042999 7.32426841 91.1455062c-2.5528103 7.6233498-1.67647243 15.9673148 2.40040371 22.8700498 6.13436508 10.657518 18.47929838 16.119023 30.55752028 13.577906 5.3342305 5.992484 13.030763 9.443851 21.108312 9.406234 12.3068317 0 23.2420042-7.889149 27.0521688-19.532773 7.9251424-1.630866 14.7453368-6.561391 18.7079088-13.53998 6.210568-10.6195914 4.800807-23.9699353-3.46725-33.0724425v-.0379271Zm-8.6524366-19.8735021c2.4570979 4.2225437 3.3785096 9.1614117 2.5338822 13.9494746-.1535686-.1131039-.4607059-.263909-.6526666-.3770129L74.337524 51.697097c-1.1517647-.6409218-2.5722744-.6409218-3.7240391 0L44.1612903 66.7022074V55.6934329L66.0064264 43.289711c10.173921-5.7682962 23.1504693-2.3374795 29.024469 7.6533603ZM45.3548387 74.1582976l10.7419355-6.2646073 10.7419355 6.2646073v12.4919253l-10.7419355 6.2646073-10.7419355-6.2646073V74.1582976Zm4.3557279-41.9713655c4.9610556 0 9.7313013 1.6977315 13.5474979 4.8291028-.1526478.0754547-.4579436.2640916-.6869154.3772737l-22.439236 12.7895769c-1.144859.6413652-1.8317744 1.848641-1.8317744 3.1690988v30.030983l-9.6549774-5.5081953V53.0501653c0-11.5445739 9.4260056-20.8632332 21.1035672-20.9009606l-.0381619.0377274ZM9.9875647 61.5681464c2.47228-4.2236136 6.3138228-7.4667456 10.9541023-9.1637332v26.3598746c0 1.3198792.6846314 2.4889152 1.8256837 3.1677102L48.9354839 96.9032l-9.6609097 5.543493-21.6039239-12.3691543C7.62938991 84.3077807 4.16819788 71.561518 9.9875647 61.5681464Zm5.9885086 48.3292976c-2.4970327-4.193338-3.3805982-9.180011-2.5354486-13.9777953.1536635.1133334.4609906.2644447.6530701.3777782l22.5885424 12.8444611c1.1524767.642223 2.5738645.642223 3.7263412 0l26.4301313-15.035575v11.031125l-21.8586406 12.391127c-10.1802104 5.74223-23.1647807 2.342225-29.0424117-7.631121h.0384159Zm45.2751982 19.915599c-4.9228937 0-9.7313014-1.698982-13.509336-4.832661.1526478-.07551.4961055-.264286.6869154-.377552l22.439236-12.799002c1.144859-.641837 1.8699364-1.850003 1.8317744-3.171434V78.6170359l9.6549774 5.5122545v24.8051456c0 11.553081-9.4641676 20.916363-21.1035672 20.916363v-.037756Zm39.7914425-29.343475c-2.4717886 4.223613-6.3505946 7.466745-10.9519233 9.126022V83.2357155c0-1.3198793-.6844951-2.526626-1.8253204-3.1677102L62.0645161 65.0590924l9.62096-5.5057821 21.637653 12.3691543c10.0772899 5.769758 13.4997659 18.5160206 7.6815569 28.5093924l.038028.037711Z"/></g></svg>
