<?xml version="1.0" encoding="UTF-8"?>
<svg viewBox="0 0 2192 159" version="1.1" xmlns="http://www.w3.org/2000/svg" xmlns:xlink="http://www.w3.org/1999/xlink">
    <title>Artboard</title>
    <g id="Artboard" stroke="none" stroke-width="1" fill="none" fill-rule="evenodd">
        <path d="M1265.914,36.744 C1265.97,36.954 1266,37.172 1266,37.39 L1266,71.304 C1266,72.19 1265.528,73.008 1264.761,73.449 L1236.385,89.838 L1236.385,122.321 C1236.385,123.205 1235.917,124.021 1235.153,124.466 L1175.921,158.671 C1175.785,158.748 1175.637,158.797 1175.489,158.85 C1175.434,158.869 1175.381,158.903 1175.323,158.918 C1174.909,159.028 1174.473,159.028 1174.059,158.918 C1173.992,158.899 1173.93,158.862 1173.865,158.838 C1173.73,158.788 1173.588,158.745 1173.459,158.671 L1114.239,124.466 C1113.47231,124.023831 1113,123.206054 1113,122.321 L1113,20.578 C1113,20.355 1113.03,20.139 1113.086,19.928 C1113.105,19.858 1113.148,19.793 1113.173,19.722 C1113.219,19.592 1113.262,19.459 1113.33,19.338 C1113.376,19.258 1113.444,19.193 1113.5,19.118 C1113.57,19.02 1113.635,18.918 1113.718,18.831 C1113.788,18.761 1113.881,18.708 1113.961,18.646 C1114.051,18.572 1114.131,18.491 1114.233,18.433 L1114.236,18.433 L1143.847,1.33 C1144.60967,0.88967016 1145.54933,0.88967016 1146.312,1.33 L1175.924,18.433 L1175.93,18.433 C1176.028,18.495 1176.112,18.572 1176.201,18.643 C1176.281,18.705 1176.371,18.76 1176.441,18.828 C1176.528,18.918 1176.589,19.02 1176.663,19.118 C1176.716,19.193 1176.786,19.258 1176.83,19.338 C1176.9,19.462 1176.94,19.592 1176.99,19.722 C1177.014,19.792 1177.058,19.858 1177.076,19.932 C1177.133,20.142 1177.162,20.36 1177.162,20.578 L1177.162,84.125 L1201.838,69.873 L1201.838,37.387 C1201.838,37.17 1201.868,36.951 1201.924,36.744 C1201.945,36.67 1201.986,36.604 1202.01,36.534 C1202.06,36.404 1202.103,36.271 1202.17,36.15 C1202.217,36.07 1202.284,36.005 1202.337,35.93 C1202.411,35.832 1202.472,35.73 1202.559,35.643 C1202.629,35.573 1202.719,35.52 1202.799,35.458 C1202.891,35.384 1202.972,35.303 1203.07,35.245 L1203.073,35.245 L1232.688,18.142 C1233.45045,17.7008434 1234.39055,17.7008434 1235.153,18.142 L1264.764,35.245 C1264.869,35.306 1264.949,35.384 1265.042,35.455 C1265.119,35.517 1265.208,35.572 1265.279,35.64 C1265.365,35.73 1265.427,35.832 1265.501,35.93 C1265.556,36.005 1265.624,36.07 1265.667,36.15 C1265.738,36.27 1265.778,36.404 1265.827,36.534 C1265.855,36.604 1265.895,36.67 1265.914,36.744 L1265.914,36.744 Z M1261.064,69.873 L1261.064,41.67 L1250.701,47.654 L1236.385,55.922 L1236.385,84.124 L1261.067,69.872 L1261.064,69.872 L1261.064,69.873 Z M1231.452,120.89 L1231.452,92.669 L1217.371,100.736 L1177.159,123.758 L1177.159,152.245 L1231.452,120.89 L1231.452,120.89 Z M1117.936,24.859 L1117.936,120.889 L1172.223,152.241 L1172.223,123.761 L1143.863,107.661 L1143.853,107.654 L1143.841,107.648 C1143.745,107.592 1143.665,107.512 1143.576,107.444 C1143.499,107.382 1143.41,107.333 1143.342,107.264 L1143.336,107.255 C1143.256,107.178 1143.2,107.082 1143.132,106.995 C1143.071,106.912 1142.997,106.841 1142.947,106.755 L1142.944,106.745 C1142.889,106.653 1142.854,106.541 1142.814,106.436 C1142.774,106.343 1142.722,106.256 1142.698,106.158 L1142.698,106.155 C1142.667,106.037 1142.661,105.914 1142.648,105.793 C1142.636,105.7 1142.612,105.608 1142.612,105.515 L1142.612,39.111 L1128.299,30.84 L1117.936,24.862 L1117.936,24.859 Z M1145.083,6.332 L1120.411,20.578 L1145.077,34.824 L1169.746,20.574 L1145.076,6.332 L1145.083,6.332 Z M1157.913,95.241 L1172.226,86.975 L1172.226,24.86 L1161.864,30.844 L1147.548,39.112 L1147.548,101.229 L1157.913,95.242 L1157.913,95.241 Z M1233.92,23.143 L1209.251,37.39 L1233.921,51.636 L1258.586,37.386 L1233.92,23.143 Z M1231.452,55.923 L1217.136,47.655 L1206.774,41.671 L1206.774,69.873 L1221.087,78.138 L1231.452,84.125 L1231.452,55.923 L1231.452,55.923 Z M1174.688,119.477 L1210.872,98.755 L1228.96,88.4 L1204.31,74.163 L1175.928,90.555 L1150.06,105.493 L1174.69,119.477 L1174.688,119.477 Z" id="Shape" fill="#FF2D20" fill-rule="nonzero"></path>
        <polygon id="Path" fill="#41B883" fill-rule="nonzero" points="1474.323 1 1454 37.488 1433.677 1 1366 1 1454 159 1542 1"></polygon>
        <polygon id="Path" fill="#34495E" fill-rule="nonzero" points="1474.323 1 1454 37.488 1433.677 1 1401.2 1 1454 95.798 1506.8 1"></polygon>
        <path d="M1005.926,105.508 C1003.349,109.385 1001.39,114.162 996.151,114.162 C987.332,114.162 986.855,100.632 978.032,100.632 C969.209,100.632 969.686,114.162 960.867,114.162 C952.049,114.162 951.572,100.632 942.749,100.632 C933.926,100.632 934.403,114.162 925.584,114.162 C916.766,114.162 916.289,100.632 907.466,100.632 C898.643,100.632 899.119,114.162 890.301,114.162 C887.53,114.162 885.582,112.826 883.941,110.993 C877.63,100.066 874,87.261 874,73.571 C874,33.491 905.116,1 943.5,1 C981.884,1 1013,33.491 1013,73.571 C1013,85.031 1010.456,95.871 1005.926,105.508 Z" id="a" fill="#FB70A9" fill-rule="nonzero"></path>
        <path d="M915.089,99.005 L915.089,129.085 C915.089,134.484 910.678,138.86 905.237,138.86 C899.796,138.86 895.385,134.484 895.385,129.086 L895.385,92.772 C897.223,89.423 899.325,86.524 903.111,86.524 C909.276,86.524 911.431,94.207 915.089,99.005 Z M952.309,100.572 L952.309,148.14 C952.309,154.138 947.407,159 941.362,159 C935.316,159 930.415,154.138 930.415,148.14 L930.415,94.303 C932.476,90.359 934.601,86.524 938.957,86.524 C945.853,86.524 947.73,96.137 952.308,100.572 L952.309,100.572 Z M987.339,99.699 L987.339,134.232 C987.339,139.63 982.927,144.006 977.486,144.006 C972.045,144.006 967.634,139.63 967.634,134.232 L967.634,91.787 C969.349,88.875 971.392,86.524 974.802,86.524 C981.274,86.524 983.326,94.992 987.338,99.699 L987.339,99.699 Z" id="Shape" fill="#4E56A6" fill-rule="nonzero"></path>
        <path d="M915.089,108.224 C913.341,106.101 911.273,104.526 908.281,104.526 C901.176,104.526 899.871,113.409 895.385,117.413 L895.385,79.098 C895.385,73.7 899.795,69.324 905.237,69.324 C910.678,69.324 915.089,73.7 915.089,79.098 L915.089,108.224 Z M952.309,108.91 C950.444,106.45 948.266,104.526 944.959,104.526 C937.055,104.526 936.331,115.521 930.415,118.561 L930.415,101.616 C930.415,95.618 935.315,90.756 941.362,90.756 C947.407,90.756 952.308,95.618 952.308,101.616 L952.308,108.91 L952.309,108.91 Z M987.339,107.008 C985.822,105.527 984.024,104.526 981.639,104.526 C973.982,104.526 973.062,114.844 967.634,118.253 L967.634,83.86 C967.634,78.462 972.045,74.086 977.486,74.086 C982.927,74.086 987.338,78.462 987.338,83.86 L987.338,107.007 L987.339,107.008 Z" id="Shape" fill-opacity="0.299" fill="#000000" fill-rule="nonzero"></path>
        <path d="M1005.926,105.508 C1003.349,109.385 1001.39,114.162 996.151,114.162 C987.332,114.162 986.855,100.632 978.032,100.632 C969.209,100.632 969.686,114.162 960.867,114.162 C952.049,114.162 951.572,100.632 942.749,100.632 C933.926,100.632 934.403,114.162 925.584,114.162 C916.766,114.162 916.289,100.632 907.466,100.632 C898.643,100.632 899.119,114.162 890.301,114.162 C887.53,114.162 885.582,112.826 883.941,110.993 C877.63,100.066 874,87.261 874,73.571 C874,33.491 905.116,1 943.5,1 C981.884,1 1013,33.491 1013,73.571 C1013,85.031 1010.456,95.871 1005.926,105.508 Z" id="a" fill="#FB70A9" fill-rule="nonzero"></path>
        <path d="M990.546,113.774 C1009.039,86.621 1009.517,56.503 991.98,23.419 C1004.98,36.563 1013,54.6 1013,74.502 C1013,86.001 1010.323,96.877 1005.555,106.547 C1002.842,110.437 1000.782,115.23 995.267,115.23 C993.379,115.23 991.855,114.668 990.547,113.774 L990.546,113.774 Z" id="Path" fill="#E24CA6" fill-rule="nonzero"></path>
        <path d="M939.223,92.81 C963.301,92.81 973.438,78.708 973.438,58.68 C973.438,38.652 958.12,20.216 939.223,20.216 C920.326,20.216 905.008,38.652 905.008,58.68 C905.008,78.708 915.146,92.81 939.223,92.81 Z" id="Path" fill="#FFFFFF" fill-rule="nonzero"></path>
        <g id="Group" transform="translate(917.193000, 31.215000)" fill-rule="nonzero">
            <ellipse id="Oval" fill="#030776" cx="12.831" cy="14.299" rx="12.831" ry="14.299"></ellipse>
            <ellipse id="Oval" fill="#000000" cx="10.692" cy="10.999" rx="6.415" ry="6.6"></ellipse>
        </g>
        <path d="M680.002,25 C654.933,25 639.269,37.445 632.999,62.336 C642.4,49.891 653.367,45.224 665.899,48.334 C673.05,50.108 678.164,55.259 683.819,60.964 C693.034,70.25 703.703,81 727,81 C752.065,81 767.733,68.555 773.999,43.668 C764.601,56.113 753.634,60.779 741.102,57.666 C733.948,55.892 728.834,50.741 723.18,45.04 C713.964,35.745 703.299,25 680,25 L680.002,25 Z M632.999,81 C607.934,81 592.266,93.445 586,118.336 C595.401,105.891 606.368,101.224 618.897,104.334 C626.051,106.108 631.165,111.259 636.819,116.964 C646.036,126.25 656.701,137 680.002,137 C705.067,137 720.735,124.558 727.001,99.668 C717.6,112.113 706.633,116.779 694.101,113.67 C686.95,111.892 681.836,106.74 676.181,101.04 C666.966,91.753 656.297,81 633,81 L632.999,81 Z" id="Shape" fill="#38BDF8" fill-rule="nonzero"></path>
        <path d="M1676.986,94.611 C1683.353,94.611 1688.106,93.419 1691.113,91.068 C1694.089,88.741 1696.143,84.709 1697.221,79.086 C1698.225,73.829 1697.842,70.159 1696.084,68.178 C1694.286,66.155 1690.399,65.13 1684.531,65.13 L1674.356,65.13 L1668.715,94.611 L1676.985,94.611 L1676.986,94.611 Z M1643.706,130.927 C1643.234,130.927 1642.786,130.713 1642.485,130.342 C1642.185,129.972 1642.062,129.484 1642.152,129.012 L1657.102,50.886 C1657.24069,50.1356118 1657.89292,49.5895691 1658.656,49.585 L1690.876,49.585 C1701.001,49.585 1708.538,52.377 1713.276,57.886 C1718.038,63.424 1719.509,71.165 1717.646,80.893 C1716.889,84.857 1715.586,88.537 1713.773,91.833 C1711.958,95.133 1709.559,98.185 1706.643,100.908 C1703.151,104.228 1699.2,106.634 1694.908,108.05 C1690.685,109.448 1685.261,110.156 1678.788,110.156 L1665.741,110.156 L1662.015,129.626 C1661.87638,130.376021 1661.22471,130.921953 1660.462,130.927 L1643.706,130.927 L1643.706,130.927 Z M1757.376,110.157 C1756.91,110.157 1756.467,109.942 1756.171,109.571 C1755.87253,109.196905 1755.75236,108.711101 1755.842,108.241 L1762.37,73.673 C1762.991,70.386 1762.838,68.026 1761.94,67.029 C1761.39,66.419 1759.737,65.398 1754.85,65.398 L1743.024,65.398 L1734.816,108.855 C1734.674,109.611 1734.03,110.156 1733.282,110.156 L1716.872,110.156 C1716.405,110.156 1715.962,109.942 1715.666,109.571 C1715.36801,109.196681 1715.24822,108.71095 1715.338,108.241 L1730.095,30.114 C1730.238,29.359 1730.881,28.814 1731.63,28.814 L1748.04,28.814 C1748.507,28.814 1748.949,29.028 1749.246,29.398 C1749.543,29.769 1749.663,30.256 1749.574,30.728 L1746.013,49.585 L1758.736,49.585 C1768.428,49.585 1775,51.343 1778.828,54.96 C1782.73,58.65 1783.948,64.55 1782.448,72.498 L1775.581,108.855 C1775.439,109.611 1774.796,110.156 1774.047,110.156 L1757.377,110.156 L1757.376,110.157 Z M1812.655,94.611 C1819.266,94.611 1824.202,93.419 1827.325,91.068 C1830.414,88.741 1832.548,84.71 1833.667,79.086 C1834.709,73.829 1834.312,70.159 1832.486,68.178 C1830.619,66.155 1826.582,65.13 1820.489,65.13 L1809.924,65.13 L1804.066,94.611 L1812.655,94.611 Z M1778.099,130.92705 C1777.609,130.92705 1777.142,130.713 1776.831,130.342 C1776.51907,129.974527 1776.3917,129.484894 1776.485,129.012 L1792.008,50.886 C1792.158,50.13 1792.835,49.585 1793.622,49.585 L1827.077,49.585 C1837.592,49.585 1845.417,52.377 1850.337,57.886 C1855.283,63.423 1856.81,71.164 1854.877,80.893 C1854.088,84.857 1852.735,88.537 1850.853,91.833 C1848.969,95.133 1846.478,98.185 1843.45,100.908 C1839.824,104.228 1835.72,106.634 1831.265,108.05 C1826.879,109.448 1821.247,110.156 1814.525,110.156 L1800.978,110.156 L1797.111,129.626 C1796.95147,130.38869 1796.27617,130.933028 1795.497,130.92705 L1778.099,130.92705 L1778.099,130.92705 Z" id="Shape" fill="#6082BC" fill-rule="nonzero"></path>
        <g id="Group" transform="translate(211.000000, 54.000000)" fill="#8967ED" fill-rule="nonzero">
            <polygon id="Path" points="231.2 16.1 213.4 16.1 230.6 33.3 213.4 50.5 231.2 50.5 248.4 33.3"></polygon>
            <path d="M258.1,16.1 L240.3,16.1 L257.5,33.3 L240.3,50.5 L258.1,50.5 L275.3,33.3 L258.1,16.1 Z M6,15.3 L16.3,15.3 L10.3,49.5 L-2.84217094e-14,49.5 L6,15.3 Z M6.6,6.2 C7.2,2.9 10.3,0 13.7,0 C17.1,0 19.4,2.8 18.9,6.2 C18.4,9.6 15.2,12.4 11.7,12.4 C8.2,12.4 6.1,9.4 6.6,6.2 L6.6,6.2 Z M54.3,28.5 L50.6,49.5 L40.4,49.5 L43.8,30 C44.6,25.6 42.2,23.8 38.9,23.8 C35.5,23.8 32.4,25.8 31.4,30.4 L28,49.5 L17.8,49.5 L23.8,15.3 L34.1,15.3 L33.6,18.5 C35.9,15.9 39.8,14.3 43.7,14.3 C50.6,14.4 55.9,19.4 54.3,28.5 L54.3,28.5 Z M94.5,32.4 C94.4,33.2 94,35.1 93.4,36.5 L68.9,36.5 C69.5,40.3 72.7,41.3 75.9,41.3 C78.8,41.3 81.1,40.5 83.1,38.6 L90.3,44.5 C86.3,48.5 81.6,50.5 75.3,50.5 C63.5,50.5 57.3,42 59,31.8 C60.623,21.747 69.317,14.368 79.5,14.3998963 C89.3,14.3998963 96.4,22 94.5,32.4 L94.5,32.4 Z M84.8,28.7 C84.5,24.9 81.8,23.4 78.6,23.4 C75.0189241,23.3356292 71.7481806,25.4241762 70.3,28.7 L84.8,28.7 L84.8,28.7 Z M123.9,14.6 L121.9,26.2 C117.9,25.6 111.4,27 110.2,34 L110.3,33.6 L107.5,49.5 L97.3,49.5 L103.3,15.3 L113.6,15.3 L112.5,21.5 C114.6,16.8 119.1,14.6 123.9,14.6 L123.9,14.6 Z M137.8,37.3 C137.3,40.4 139.8,40.6 144.4,40.2 L142.8,49.5 C130.5,50.9 125.9,46.8 127.6,37.3 L129.7,25.2 L124.2,25.2 L126,15.3 L131.4,15.3 L132.6,8.8 L143.4,5.7 L141.7,15.3 L148.8,15.3 L147,25.2 L140,25.2 L137.8,37.3 L137.8,37.3 Z M155.3,15.3 L165.6,15.3 L159.6,49.5 L149.3,49.5 L155.3,15.3 Z M155.9,6.2 C156.4,2.9 159.6,1.42108547e-14 163,1.42108547e-14 C166.4,1.42108547e-14 168.7,2.8 168.2,6.2 C167.7,9.6 164.5,12.4 161,12.4 C157.5,12.4 155.3,9.4 155.9,6.2 L155.9,6.2 Z M208.1,15.3 L202.1,49.5 L191.8,49.5 L192.2,47.2 C189.274271,49.5010459 185.618195,50.6724098 181.9,50.5 C170.8,50.5 166.6,40.9 168.4,31.6 C170,22.8 177,14.4 187.6,14.4 C192.1,14.4 195.3,16.2 197.2,19 L197.8,15.4 L208.1,15.4 L208.1,15.3 L208.1,15.3 Z M194.9,32.5 C195.8,27.3 193,24.1 188.3,24.1 C183.488298,24.0614771 179.407659,27.6266667 178.8,32.4 C177.9,37.5 180.6,40.7 185.4,40.7 C190,40.8 194,37.6 194.9,32.5 L194.9,32.5 Z" id="Shape"></path>
        </g>
        <path d="M2060.504,8.526 C2053.869,-2.842 2037.281,-2.842 2030.646,8.526 L1958.336,132.421 C1951.7,143.79 1959.993,158 1973.263,158 L2029.713,158 C2024.043,153.062 2021.943,144.52 2026.233,137.19 L2081,43.644 L2060.504,8.526 Z" id="Path" fill="#80EEC0" fill-rule="nonzero"></path>
        <path d="M2105.667,35.961 C2111.148,26.68 2124.852,26.68 2130.333,35.961 L2190.071,137.116 C2195.552,146.398 2188.701,158 2177.738,158 L2058.262,158 C2047.3,158 2040.448,146.398 2045.929,137.116 L2105.667,35.961 L2105.667,35.961 Z" id="Path" fill="#00DC82" fill-rule="nonzero"></path>
        <path d="M103.683,70.817 C106.234924,63.1933968 105.359572,54.8381563 101.283,47.909 C95.149,37.289 82.803,31.828 70.763,34.369 C65.3768408,28.3685543 57.6811479,24.95872 49.618,24.9996295 C37.311,24.9996295 26.376,32.89 22.566,44.533 C14.6645971,46.1488474 7.8375225,51.0799575 3.82,58.073 C-2.35691414,68.6803775 -0.938025913,82.0689339 7.325,91.146 C4.77099273,98.7567007 5.64668328,107.101302 9.725,114.016 C15.86,124.673 28.205,130.135 40.283,127.593 C45.6454716,133.609136 53.331919,137.034681 61.391,137.000261 C73.697,137.000261 84.633,129.11 88.443,117.467 C96.368,115.837 103.188,110.906 107.151,103.927 C113.358495,93.332264 111.95327,79.9315669 103.683,70.855 L103.683,70.817 Z M95.031,50.943 C97.488,55.166 98.409,60.104 97.565,64.893 C97.411,64.779 97.105,64.629 96.912,64.516 L74.338,51.697 C73.1791192,51.055775 71.7718808,51.055775 70.613,51.697 L44.161,66.702 L44.161,55.693 L66.006,43.29 C76.18,37.521 89.156,40.952 95.031,50.943 Z M45.355,74.158 L56.097,67.894 L66.839,74.158 L66.839,86.65 L56.097,92.915 L45.355,86.65 L45.355,74.158 L45.355,74.158 Z M49.711,32.187 C54.671,32.187 59.441,33.885 63.258,37.016 C63.105,37.091 62.8,37.28 62.571,37.393 L40.131,50.183 C38.987,50.824 38.301,52.032 38.301,53.352 L38.301,83.383 L28.645,77.875 L28.645,53.05 C28.645,41.506 38.071,32.187 49.749,32.15 L49.711,32.187 L49.711,32.187 Z M9.988,61.568 C12.4596603,57.3299981 16.3341943,54.0886042 20.942,52.404 L20.942,78.764 C20.942,80.084 21.626,81.254 22.767,81.932 L48.935,96.903 L39.275,102.447 L17.671,90.077 C7.629,84.308 4.168,71.563 9.988,61.569 L9.988,61.568 Z M15.976,109.898 C13.479,105.704 12.596,100.718 13.441,95.92 C13.594,96.033 13.901,96.184 14.094,96.297 L36.682,109.142 C37.8412533,109.784536 39.2497467,109.784536 40.409,109.142 L66.839,94.106 L66.839,105.137 L44.98,117.53 C34.8,123.272 21.815,119.872 15.938,109.898 L15.976,109.898 Z M61.251,129.813 C56.328,129.813 51.52,128.114 47.741,124.98 C47.895,124.905 48.238,124.716 48.429,124.603 L70.869,111.803 C72.013,111.162 72.738,109.953 72.699,108.633 L72.699,78.616 L82.355,84.128 L82.355,108.933 C82.355,120.487 72.891,129.85 61.251,129.85 L61.251,129.812 L61.251,129.813 Z M101.043,100.47 C98.5715326,104.698857 94.6963254,107.92796 90.091,109.596 L90.091,83.236 C90.091,81.916 89.406,80.709 88.265,80.068 L62.065,65.059 L71.685,59.553 L93.323,71.923 C103.4,77.693 106.823,90.438 101.005,100.432 L101.043,100.47 L101.043,100.47 Z" id="Shape" fill="#000000" fill-rule="nonzero"></path>
    </g>
</svg>
