<svg xmlns="http://www.w3.org/2000/svg" xmlns:xlink="http://www.w3.org/1999/xlink" xml:space="preserve" viewBox="0 0 512 512"><defs><path id="a6d84f6d84f" d="M472.303 141.117h-32.06c-8.299 0-15.028-6.729-15.028-15.028s6.729-15.028 15.028-15.028h32.06c8.299 0 15.028 6.729 15.028 15.028s-6.728 15.028-15.028 15.028zm-224.419 0h-32.06c-8.299 0-15.028-6.729-15.028-15.028s6.729-15.028 15.028-15.028h32.06c8.299 0 15.028 6.729 15.028 15.028s-6.727 15.028-15.028 15.028zm48.105-83.291c-5.195 0-10.245-2.695-13.028-7.516l-16.03-27.765c-4.15-7.187-1.687-16.379 5.5-20.528 7.187-4.15 16.379-1.687 20.528 5.5l16.03 27.765c4.15 7.187 1.687 16.379-5.5 20.528-2.366 1.367-4.951 2.016-7.5 2.016zm96.15 0c-2.55 0-5.134-.649-7.5-2.016-7.187-4.15-9.65-13.341-5.5-20.528l16.03-27.765c4.149-7.187 13.341-9.652 20.528-5.5 7.187 4.15 9.65 13.341 5.5 20.528l-16.03 27.765c-2.781 4.821-7.834 7.516-13.028 7.516z"/><path id="bd95z9d5zd58d" fill="#73c3ff" d="M102.613 432.66v79.148H72.557V432.66c0-8.295 6.733-15.028 15.028-15.028s15.028 6.733 15.028 15.028z"/></defs><path fill="#ffc380" d="M344.265 255.139H214.283c-6.774 0-12.71-4.531-14.496-11.065-1.786-6.534 1.02-13.455 6.851-16.902 56.633-33.464 86.05-72.5 89.93-119.338 1.353-16.255 15.831-29.239 32.266-29.024 16.77.268 32.481 6.99 44.248 18.93 11.776 11.951 18.266 27.777 18.272 44.561v5.055c0 41-12.144 67.142-34.551 101.04-2.785 4.211-7.492 6.743-12.538 6.743z"/><path fill="#ffcf99" d="M503.562 272.171c0-25.964-21.123-47.088-47.088-47.088H214.283c-2.691 0-5.333.722-7.648 2.092-17.001 10.052-34.167 18.327-47.96 24.978-4.811 2.319-9.355 4.51-13.488 6.576-5.091 2.546-8.307 7.749-8.307 13.442V464.53c0 5.693 3.216 10.896 8.307 13.442C205.91 508.329 256.386 512 315.247 512c9.115 0 18.437-.088 28.023-.178 10.602-.1 21.563-.204 33.055-.204h47.509c25.964 0 47.088-21.123 47.088-47.088 0-8.73-2.387-16.912-6.545-23.929 13.529-8.282 22.575-23.199 22.575-40.191 0-8.73-2.387-16.912-6.545-23.929 13.529-8.282 22.575-23.199 22.575-40.191 0-12.212-4.673-23.353-12.324-31.728 8.332-8.781 12.904-20.234 12.904-32.391z"/><use xlink:href="#a6d84f6d84f" fill="#29ccb1"/><use xlink:href="#bd95z9d5zd58d"/><use xlink:href="#a6d84f6d84f" fill="#29ccb1"/><use xlink:href="#bd95z9d5zd58d"/><path fill="#44a4ec" d="M151.705 225.083H23.466c-8.295 0-15.028 6.733-15.028 15.028v256.478c0 8.305 6.733 15.028 15.028 15.218h96.179c18.424-.19 34.404-10.82 42.129-26.269 3.176-6.322 4.959-13.465 4.959-21.009V240.111c0-8.296-6.733-15.028-15.028-15.028z"/><path fill="#73c3ff" d="M102.613 431.658v80.15H72.557v-80.15c0-8.295 6.733-15.028 15.028-15.028s15.028 6.733 15.028 15.028z"/></svg>
