<svg xmlns="http://www.w3.org/2000/svg" viewBox="0 0 511.991 511.991"><path fill="#2b4d66" d="M224.659 299.8H95.515c-4.143 0-7.5-3.358-7.5-7.5s3.357-7.5 7.5-7.5H224.66c4.143 0 7.5 3.358 7.5 7.5s-3.358 7.5-7.501 7.5zm191.818 0H287.304c-4.143 0-7.5-3.358-7.5-7.5s3.357-7.5 7.5-7.5h129.173c4.143 0 7.5 3.358 7.5 7.5s-3.358 7.5-7.5 7.5zm88.014 0h-25.37c-4.143 0-7.5-3.358-7.5-7.5s3.357-7.5 7.5-7.5h25.37c4.143 0 7.5 3.358 7.5 7.5s-3.357 7.5-7.5 7.5zm-471.621 0H7.5c-4.143 0-7.5-3.358-7.5-7.5s3.357-7.5 7.5-7.5h25.37c4.143 0 7.5 3.358 7.5 7.5s-3.357 7.5-7.5 7.5zm31.322-31.323c-4.143 0-7.5-3.358-7.5-7.5v-42.634c0-4.142 3.357-7.5 7.5-7.5s7.5 3.358 7.5 7.5v42.634c0 4.142-3.357 7.5-7.5 7.5zm191.789 0c-4.143 0-7.5-3.358-7.5-7.5v-42.634c0-4.142 3.357-7.5 7.5-7.5s7.5 3.358 7.5 7.5v42.634c0 4.142-3.357 7.5-7.5 7.5zm191.818 0c-4.143 0-7.5-3.358-7.5-7.5v-42.634c0-4.142 3.357-7.5 7.5-7.5s7.5 3.358 7.5 7.5v42.634c0 4.142-3.358 7.5-7.5 7.5z"/><path fill="#ffd772" fill-rule="evenodd" d="M12.12 152.266c6.264 17.66 18.793 31.947 29.962 46.716l12.416 14.287c2.948 3.402 6.321 5.102 9.694 5.102 3.345 0 6.718-1.701 9.666-5.102l12.444-14.287c11.168-14.769 23.669-29.055 29.962-46.716 14.938-41.982-7.427-82.773-52.072-82.773-44.673.001-67.038 40.792-52.072 82.773zm75.259-25.71c0 12.699-10.403 23.018-23.187 23.018-12.812 0-23.187-10.318-23.187-23.018 0-12.728 10.375-23.018 23.187-23.018 12.784 0 23.187 10.29 23.187 23.018z" clip-rule="evenodd"/><path fill="#a7e9a6" fill-rule="evenodd" d="M64.192 260.976c-17.319 0-31.322 14.032-31.322 31.323 0 17.32 14.003 31.323 31.322 31.323 17.291 0 31.322-14.003 31.322-31.323 0-17.291-14.031-31.323-31.322-31.323zm191.789 0c-17.291 0-31.322 14.032-31.322 31.323 0 17.32 14.031 31.323 31.322 31.323s31.322-14.003 31.322-31.323c.001-17.291-14.03-31.323-31.322-31.323z" clip-rule="evenodd"/><path fill="#75cef8" fill-rule="evenodd" d="M246.315 213.269c2.948 3.402 6.321 5.102 9.666 5.102 3.373 0 6.746-1.701 9.694-5.102l12.416-14.287c11.168-14.769 23.697-29.055 29.962-46.716 14.938-41.982-7.398-82.773-52.072-82.773-44.645 0-67.01 40.791-52.072 82.773 6.293 17.66 18.793 31.947 29.962 46.716zm32.854-86.713c0 12.699-10.375 23.018-23.187 23.018-12.784 0-23.187-10.318-23.187-23.018 0-12.728 10.403-23.018 23.187-23.018 12.812 0 23.187 10.29 23.187 23.018z" clip-rule="evenodd"/><path fill="#a7e9a6" fill-rule="evenodd" d="M479.122 292.3c0-17.292-14.031-31.323-31.322-31.323-17.319 0-31.322 14.032-31.322 31.323 0 17.32 14.003 31.323 31.322 31.323 17.29 0 31.322-14.003 31.322-31.323z" clip-rule="evenodd"/><path fill="#fbba58" fill-rule="evenodd" d="M116.264 152.266c14.938-41.982-7.427-82.773-52.072-82.773-2.183 0-4.337.085-6.406.283 1.899 10.233 3.43 21.6 4.507 33.846.624-.057 1.247-.085 1.899-.085 12.784 0 23.187 10.29 23.187 23.018 0 12.699-10.403 23.018-23.187 23.018-.113 24.803-1.928 47.934-4.989 67.522 1.616.85 3.316 1.276 4.989 1.276 3.345 0 6.718-1.701 9.666-5.102l12.444-14.287c11.168-14.769 23.669-29.056 29.962-46.716z" clip-rule="evenodd"/><path fill="#60b7ff" fill-rule="evenodd" d="M308.053 152.238c14.938-41.982-7.398-82.773-52.072-82.773-2.183 0-4.309.085-6.378.283 1.871 10.233 3.402 21.6 4.507 33.846.624-.057 1.247-.085 1.871-.085 12.812 0 23.187 10.29 23.187 23.018 0 12.699-10.375 23.018-23.187 23.018-.085 24.803-1.899 47.934-4.961 67.522 1.616.85 3.288 1.276 4.961 1.276 3.373 0 6.746-1.701 9.694-5.102l12.416-14.287c11.169-14.769 23.698-29.056 29.962-46.716z" clip-rule="evenodd"/><path fill="#7fdbae" fill-rule="evenodd" d="M95.514 292.3c0-17.292-14.031-31.323-31.322-31.323-4.592 0-8.929.992-12.841 2.75 10.913 4.904 18.51 15.846 18.51 28.574s-7.597 23.698-18.51 28.602c3.912 1.758 8.249 2.721 12.841 2.721 17.291-.001 31.322-14.004 31.322-31.324zm147.655-28.574c10.885 4.904 18.482 15.846 18.482 28.574s-7.597 23.698-18.482 28.602c3.912 1.758 8.249 2.721 12.812 2.721 17.291 0 31.322-14.003 31.322-31.323 0-17.292-14.031-31.323-31.322-31.323-4.563-.001-8.9.992-12.812 2.749zm191.789 0c10.913 4.904 18.51 15.846 18.51 28.574s-7.597 23.698-18.51 28.602c3.912 1.758 8.249 2.721 12.841 2.721 17.291 0 31.322-14.003 31.322-31.323 0-17.292-14.031-31.323-31.322-31.323-4.592-.001-8.929.992-12.841 2.749z" clip-rule="evenodd"/><path fill="#2b4d66" d="M74.227 372.197H52.146c-4.143 0-7.5-3.358-7.5-7.5s3.357-7.5 7.5-7.5h22.081c4.143 0 7.5 3.358 7.5 7.5s-3.358 7.5-7.5 7.5zm17.517 35.179H34.599c-4.143 0-7.5-3.358-7.5-7.5s3.357-7.5 7.5-7.5h57.146c4.143 0 7.5 3.358 7.5 7.5s-3.358 7.5-7.501 7.5zm177.277-35.179H246.94c-4.143 0-7.5-3.358-7.5-7.5s3.357-7.5 7.5-7.5h22.081c4.143 0 7.5 3.358 7.5 7.5s-3.358 7.5-7.5 7.5zm17.517 35.179h-57.146c-4.143 0-7.5-3.358-7.5-7.5s3.357-7.5 7.5-7.5h57.146c4.143 0 7.5 3.358 7.5 7.5s-3.357 7.5-7.5 7.5zm177.276-35.179h-22.081c-4.143 0-7.5-3.358-7.5-7.5s3.357-7.5 7.5-7.5h22.081c4.143 0 7.5 3.358 7.5 7.5s-3.357 7.5-7.5 7.5zm17.518 35.179h-57.146c-4.143 0-7.5-3.358-7.5-7.5s3.357-7.5 7.5-7.5h57.146c4.143 0 7.5 3.358 7.5 7.5s-3.357 7.5-7.5 7.5zm-389.588 35.15H34.599c-4.143 0-7.5-3.358-7.5-7.5s3.357-7.5 7.5-7.5h57.146c4.143 0 7.5 3.358 7.5 7.5s-3.358 7.5-7.501 7.5zm194.794 0h-57.146c-4.143 0-7.5-3.358-7.5-7.5s3.357-7.5 7.5-7.5h57.146c4.143 0 7.5 3.358 7.5 7.5s-3.357 7.5-7.5 7.5zm194.794 0h-57.146c-4.143 0-7.5-3.358-7.5-7.5s3.357-7.5 7.5-7.5h57.146c4.143 0 7.5 3.358 7.5 7.5s-3.357 7.5-7.5 7.5z"/><path fill="#eb5468" fill-rule="evenodd" d="M395.727 152.266c6.264 17.66 18.793 31.947 29.962 46.716l12.416 14.287c2.948 3.402 6.321 5.102 9.694 5.102 3.345 0 6.718-1.701 9.666-5.102l12.444-14.287c11.168-14.769 23.669-29.055 29.962-46.716 14.938-41.982-7.427-82.773-52.072-82.773-44.673.001-67.038 40.792-52.072 82.773zm75.259-25.71c0 12.699-10.403 23.018-23.187 23.018-12.812 0-23.187-10.318-23.187-23.018 0-12.728 10.375-23.018 23.187-23.018 12.784 0 23.187 10.29 23.187 23.018z" clip-rule="evenodd"/><path fill="#e5384f" fill-rule="evenodd" d="M499.871 152.266c14.938-41.982-7.427-82.773-52.072-82.773-2.183 0-4.337.085-6.406.283 1.899 10.233 3.43 21.6 4.507 33.846.624-.057 1.247-.085 1.899-.085 12.784 0 23.187 10.29 23.187 23.018 0 12.699-10.403 23.018-23.187 23.018-.113 24.803-1.928 47.934-4.989 67.522 1.616.85 3.316 1.276 4.989 1.276 3.345 0 6.718-1.701 9.666-5.102l12.444-14.287c11.168-14.769 23.669-29.056 29.962-46.716z" clip-rule="evenodd"/></svg>
