<svg xmlns="http://www.w3.org/2000/svg" viewBox="0 0 512 512"><g fill-rule="evenodd" clip-rule="evenodd"><path fill="#cad0d7" d="M64.961 174.576c-4.293 3.43-10.554 2.731-13.985-1.563-3.43-4.293-2.731-10.554 1.563-13.984l111.852-89.454c3.201-2.557 7.494-2.819 10.894-1.008l.004-.008L303.862 137.3 432.403 32.347l-26.562-2.443c-5.48-.496-9.519-5.341-9.023-10.82.496-5.48 5.341-9.519 10.82-9.023l51.688 4.754c5.48.496 9.519 5.341 9.023 10.82-.057.63-.172 1.241-.339 1.828l.026.007-14.563 50.667c-1.51 5.307-7.037 8.385-12.344 6.875s-8.385-7.037-6.875-12.344l6.045-21.031-128.983 105.316-.003-.004c-3.017 2.451-7.328 3.003-10.973 1.059L171.685 89.223z"/><path fill="#eb5463" d="M29.537 281.072H93.83c5.508 0 10 4.492 10 10v200.909c0 5.508-4.492 10-10 10H29.537c-5.508 0-10-4.492-10-10V291.072c.001-5.508 4.493-10 10-10z"/><path fill="#f5b945" d="M159.081 176.372h64.293c5.508 0 10 4.492 10 10v305.61c0 5.508-4.492 10-10 10h-64.293c-5.508 0-10-4.492-10-10v-305.61c.001-5.508 4.493-10 10-10z"/><path fill="#9acd68" d="M288.626 226.948h64.293c5.508 0 10 4.492 10 10v255.034c0 5.508-4.492 10-10 10h-64.293c-5.508 0-10-4.492-10-10V236.948c0-5.508 4.492-10 10-10z"/><path fill="#4fc0e8" d="M418.17 120.029h64.293c5.508 0 10 4.492 10 10v361.953c0 5.508-4.492 10-10 10H418.17c-5.508 0-10-4.492-10-10V130.029c0-5.508 4.492-10 10-10z"/></g></svg>
